<svg width="254" height="324" viewBox="0 0 254 324" fill="none" xmlns="http://www.w3.org/2000/svg">
<path d="M127.314 281.755C170.013 281.755 204.628 279.613 204.628 276.969C204.628 274.325 170.013 272.183 127.314 272.183C84.6146 272.183 50 274.325 50 276.969C50 279.613 84.6146 281.755 127.314 281.755Z" fill="#D3E0D7"/>
<path fill-rule="evenodd" clip-rule="evenodd" d="M153.976 132.725C153.267 133.543 152.084 134.243 151.246 135.103C148.55 137.8 146.694 141.784 144.464 145.084C143.153 147.621 141.794 149.639 140.022 152.747C139.265 154.093 138.628 155.479 137.929 156.776C134.888 162.371 132.184 167.72 129.673 173.613C129.416 174.215 129.137 174.863 128.846 175.534C128.519 176.308 128.193 177.177 127.86 178.028C127.54 178.885 127.226 179.731 126.916 180.457C126.258 182.062 125.373 183.128 124.779 183.071C124.684 182.384 124.897 181.35 125.254 180.146C125.636 178.954 126.138 177.593 126.651 176.273C128.313 171.782 131.203 165.808 133.379 161.742C135.036 158.619 136.775 155.48 138.556 152.549C140.384 149.541 142.156 146.613 144.002 143.78C145.35 141.72 146.757 139.77 148.256 137.895C149.858 135.9 151.722 134.066 153.976 132.725Z" fill="#1C663A"/>
<path fill-rule="evenodd" clip-rule="evenodd" d="M123.956 96.6952C124.218 98.175 124.957 99.8083 125.315 101.423C126.5 106.531 126.354 112.721 126.851 118.288C126.873 122.313 127.173 125.715 127.348 130.75C127.414 132.924 127.355 135.071 127.392 137.147C127.575 146.117 127.567 154.563 127.143 163.568C127.099 164.489 127.056 165.481 127.012 166.509C126.953 167.691 126.851 168.991 126.763 170.272C126.661 171.554 126.558 172.817 126.507 173.927C126.368 176.363 126.675 178.267 127.231 178.574C127.626 177.771 127.904 176.336 128.13 174.595C128.328 172.853 128.496 170.823 128.635 168.837C129.183 162.134 129.308 152.785 129.205 146.289C129.139 141.307 129.008 136.254 128.745 131.435C128.474 126.491 128.218 121.681 127.853 116.944C127.582 113.497 127.209 110.149 126.719 106.837C126.193 103.309 125.359 99.8173 123.956 96.6952Z" fill="#1C663A"/>
<path d="M159.8 275.177H97.9017C97.9017 275.177 71.2516 258.859 75.9782 228.765C77.439 219.466 79.5529 210.785 81.7857 203.23C85.776 189.716 90.1108 179.788 91.6903 176.344C92.0585 175.535 92.8661 175.026 93.7568 175.026H163.956C164.848 175.026 165.643 175.535 166.023 176.344C167.603 179.788 171.949 189.716 175.928 203.23C178.161 210.785 180.274 219.466 181.735 228.765C186.461 258.859 159.8 275.177 159.8 275.177Z" fill="white"/>
<path d="M75.7388 242.424C82.2709 243.391 89.1711 260.97 96.275 260.97C103.687 260.97 103.687 248.367 111.099 248.367C118.511 248.367 118.511 260.97 125.923 260.97C133.335 260.97 133.335 248.367 140.746 248.367C148.159 248.367 148.159 260.97 155.57 260.97C162.674 260.97 174.857 245.372 181.389 244.405C181.389 258.932 171.411 266.168 166.862 270.818C166.521 271.61 161.084 276.1 160.259 276.1H93.4158C92.5911 276.1 91.8543 275.6 91.5024 274.807C87.6245 268.837 77.0594 254.31 75.7388 242.424Z" fill="#F4F6F6"/>
<path d="M171.596 132.426C169.911 136.317 169.778 135.461 169.778 138.345C169.778 141.228 167.187 144.479 164.979 146.444C162.777 148.402 163.425 159.644 161.217 161.134C159.016 162.623 155.247 157.68 150.322 154.156C145.39 150.627 147.988 142.521 144.616 140.43C141.244 138.338 138.778 135.075 140.332 127.362C141.892 119.65 131.639 115.334 141.502 108.54C151.366 101.747 156.814 112.463 156.814 112.463C157.16 108.566 163.369 103.584 167.847 104.807C172.326 106.031 172.899 110.372 172.509 112.856C172.119 115.34 172.767 115.467 173.805 118.737C174.842 122.001 173.289 128.535 171.596 132.426Z" fill="#278F51"/>
<path d="M101.679 96.04C103.545 100.384 103.692 99.4285 103.692 102.647C103.692 105.866 106.561 109.495 109.005 111.688C111.443 113.874 110.726 126.423 113.171 128.086C115.608 129.749 119.78 124.231 125.233 120.298C130.693 116.357 127.817 107.309 131.55 104.975C135.283 102.64 138.013 98.9971 136.293 90.3877C134.566 81.7783 145.918 76.9608 134.998 69.3772C124.077 61.7936 118.046 73.7561 118.046 73.7561C117.662 69.4054 110.788 63.8451 105.83 65.2104C100.871 66.5758 100.237 71.4217 100.669 74.1947C101.1 76.9678 100.383 77.1093 99.234 80.7596C98.0855 84.4029 99.8056 91.6964 101.679 96.04Z" fill="#278F51"/>
<path d="M171.583 132.563C169.887 136.472 169.754 135.613 169.754 138.51C169.754 141.407 167.146 144.673 164.924 146.647C162.708 148.615 163.36 159.91 161.138 161.406C152.422 145.1 156.701 112.5 156.701 112.5C157.049 108.584 163.297 103.58 167.804 104.808C172.311 106.037 172.888 110.399 172.495 112.895C172.102 115.391 172.755 115.518 173.799 118.803C174.85 122.089 173.286 128.654 171.583 132.563Z" fill="#32B768"/>
<path d="M101.602 96.1933C103.42 100.557 103.562 99.5978 103.562 102.832C103.562 106.066 106.357 109.712 108.737 111.915C111.111 114.111 110.413 126.72 112.793 128.39C122.133 110.188 117.548 73.7974 117.548 73.7974C117.174 69.4262 110.48 63.8397 105.652 65.2114C100.822 66.5832 100.205 71.4518 100.625 74.238C101.046 77.0242 100.347 77.1663 99.2279 80.8339C98.1027 84.5014 99.7777 91.8293 101.602 96.1933Z" fill="#32B768"/>
<path d="M156.405 112.543C156.405 116.136 155.651 123.465 155.651 134.1C155.651 144.735 159.424 157.574 160.933 161.406" stroke="#1C663A"/>
<path d="M117.918 74.2444C117.918 78.2258 118.673 86.3477 118.673 98.1324C118.673 109.917 114.9 124.144 113.39 128.39" stroke="#1C663A"/>
<path d="M143.807 108.581C143.582 108.691 144.146 110.1 148.206 114.854C152.267 119.608 154.861 121.457 155.651 121.787" stroke="#1D6B3D"/>
<path d="M131.832 68.9619C132.083 69.094 131.456 70.7844 126.944 76.4895C122.433 82.1947 119.55 84.4133 118.673 84.8095" stroke="#1D6B3D"/>
<path d="M139.803 123.108L155.651 127.07" stroke="#1D6B3D"/>
<path d="M137.162 86.1301L118.673 90.092" stroke="#1D6B3D"/>
<path d="M139.803 134.994L155.651 132.352" stroke="#1D6B3D"/>
<path d="M137.162 99.3365L118.673 96.6952" stroke="#1D6B3D"/>
<path d="M147.171 147.008L156.554 141.398M153.774 156.124L158.292 151.215M138.482 117.907C138.76 117.907 146.476 116.972 150.299 116.505" stroke="#1D6B3D"/>
<path d="M128.636 112.777L118.001 106.419M121.152 123.108L116.032 117.545M138.482 79.7958C138.167 79.7958 129.423 78.7361 125.091 78.2063" stroke="#1D6B3D"/>
<path d="M170.147 105.94C170.409 106.055 169.047 108.238 164.319 113.212C159.591 118.187 156.57 120.121 155.651 120.467" stroke="#1D6B3D"/>
<path d="M102.859 66.3206C102.573 66.4462 104.058 68.8277 109.216 74.2543C114.374 79.681 117.67 81.7914 118.673 82.1682" stroke="#1D6B3D"/>
<path d="M174.14 121.787L155.651 124.428" stroke="#1D6B3D"/>
<path d="M98.8634 84.8095L118.673 87.4508" stroke="#1D6B3D"/>
<path d="M171.498 133.673L155.651 131.032" stroke="#1D6B3D"/>
<path d="M101.505 98.0158L118.673 94.0539" stroke="#1D6B3D"/>
<path d="M165.509 144.898L156.971 139.489M162.421 154.803L158.446 150.07M172.819 116.536C172.574 116.536 165.785 115.635 162.421 115.184" stroke="#1D6B3D"/>
<path d="M108.103 110.562L117.352 104.431M111.448 121.787L115.755 116.423M100.184 78.4183C100.449 78.4183 107.804 77.3966 111.448 76.8857" stroke="#1D6B3D"/>
</svg>
