<svg width="254" height="324" viewBox="0 0 254 324" fill="none" xmlns="http://www.w3.org/2000/svg">
<path d="M203 282.501C203 286.65 169.419 290 128 290C86.5811 290 53 286.633 53 282.501C53 278.35 86.5811 275 128 275C169.419 275 203 278.369 203 282.501Z" fill="#D3E0D7"/>
<path d="M119.509 219.258H133.491C134.531 206.675 136.035 184.187 136.526 154.915C137.098 120.678 126.5 47 126.5 47C126.5 47 115.902 120.678 116.474 154.915C116.965 184.187 118.469 206.674 119.509 219.258Z" fill="#32B768"/>
<path d="M119.509 219.258H126.5C127.54 206.674 126.5 47 126.5 47C126.5 47 115.902 120.678 116.474 154.915C116.965 184.187 118.469 206.674 119.509 219.258Z" fill="#278F51"/>
<path d="M147.128 219.258C149.565 201.527 151.624 183.725 153.885 165.994C157.85 134.895 157.624 103 159.727 71.6787C147.848 100.62 136.698 132.264 133.962 163.634C132.361 181.993 131.672 200.705 132.698 219.258H147.128Z" fill="#AFE1C4"/>
<path d="M147.128 219.258C149.565 201.527 151.624 183.725 153.885 165.994C157.85 134.895 157.624 103 159.727 71.6787C147.848 100.62 138.334 200.705 139.359 219.258H147.128V219.258V219.258Z" fill="#31B265"/>
<path d="M105.872 219.258H120.302C121.328 200.705 120.639 181.993 119.038 163.634C116.302 132.264 105.152 100.619 93.2732 71.6787C95.3758 103 95.1504 134.895 99.1151 165.994C101.376 183.725 103.435 201.527 105.872 219.258Z" fill="#66AD66"/>
<path d="M113.075 219.258H120.303C121.328 200.705 120.639 181.993 119.038 163.634C116.303 132.264 105.153 100.619 93.2737 71.6787C99.0844 104.042 108.789 147.106 113.075 219.258Z" fill="#AFE1C4"/>
<path d="M96.9634 219.258H116.221C115.337 211.737 114.075 204.288 112.49 196.98C105.381 164.19 85.1794 133.324 62.2357 109.687C76.8264 139.116 84.9711 170.289 93.0382 202.05C94.4886 207.761 95.7902 213.498 96.9634 219.258Z" fill="#32B768"/>
<path d="M96.9634 219.258H105.872C103.937 201.641 85.1794 133.325 62.2357 109.688C76.8264 139.117 84.9711 170.289 93.0382 202.051C94.4886 207.761 95.7902 213.497 96.9634 219.258Z" fill="#278F51"/>
<path d="M156.037 219.258C157.21 213.498 158.511 207.761 159.962 202.05C168.029 170.289 176.173 139.117 190.764 109.687C167.821 133.324 147.619 164.189 140.51 196.98C138.925 204.288 137.663 211.737 136.779 219.258H156.037Z" fill="#32B768"/>
<path d="M147.128 219.258C159.727 156.811 176.174 139.117 190.765 109.688C167.821 133.325 147.62 164.19 140.51 196.98C138.925 204.289 137.663 211.737 136.779 219.258H147.128V219.258V219.258Z" fill="#278F51"/>
<path d="M172.151 201.641H80.8484C80.8484 201.641 61.1337 204.1 69.0066 235.177C74.0936 255.256 83.6739 268.935 89.817 276.103C93.0221 279.842 97.695 282 102.62 282H150.38C155.305 282 159.978 279.842 163.183 276.103C169.326 268.935 178.907 255.256 183.994 235.177C191.866 204.1 172.151 201.641 172.151 201.641Z" fill="white"/>
<path d="M172.152 201.641H147.202C147.202 201.641 166.917 204.1 159.044 235.177C153.957 255.256 144.377 268.935 138.233 276.103C135.027 279.842 130.355 282 125.43 282H150.38C155.304 282 159.977 279.842 163.182 276.103C169.326 268.936 178.906 255.257 183.993 235.177C191.866 204.1 172.152 201.641 172.152 201.641Z" fill="#F9AE5D"/>
<path d="M70.7628 241.323L86.9319 250.049L106.714 239.374L126.497 250.049L146.28 239.374L166.065 250.049L182.238 241.323C182.867 239.344 183.457 237.299 183.994 235.177C185.402 229.621 185.924 224.984 185.838 221.108L166.066 228.867L146.28 221.103L126.498 228.867L106.715 221.103L86.9324 228.867L67.163 221.108C67.0772 224.984 67.5995 229.621 69.0072 235.177C69.5437 237.299 70.134 239.345 70.7628 241.323Z" fill="#F2A559"/>
<path d="M172.152 201.641H147.202C147.202 201.641 166.917 204.1 159.044 235.177C153.957 255.256 144.377 268.935 138.233 276.103C135.027 279.842 130.355 282 125.43 282H150.38C155.304 282 159.977 279.842 163.182 276.103C169.326 268.936 178.906 255.257 183.993 235.177C191.866 204.1 172.152 201.641 172.152 201.641Z" fill="white"/>
<path d="M70.7628 241.323L86.9319 250.049L106.714 239.374L126.497 250.049L146.28 239.374L166.065 250.049L182.238 241.323C182.867 239.344 183.457 237.299 183.994 235.177C185.402 229.621 185.924 224.984 185.838 221.108L166.066 228.867L146.28 221.103L126.498 228.867L106.715 221.103L86.9324 228.867L67.163 221.108C67.0772 224.984 67.5995 229.621 69.0072 235.177C69.5437 237.299 70.134 239.345 70.7628 241.323Z" fill="#E2F4EA"/>
<path d="M184.533 232.883C184.646 232.367 184.753 231.858 184.85 231.359C184.865 231.281 184.883 231.201 184.897 231.123C185.009 230.541 185.109 229.97 185.2 229.41C185.216 229.315 185.229 229.22 185.244 229.125C185.323 228.622 185.394 228.128 185.457 227.643C185.465 227.578 185.474 227.513 185.483 227.448C185.624 226.321 185.722 225.242 185.78 224.211C185.782 224.181 185.784 224.152 185.785 224.123C185.843 223.07 185.859 222.066 185.838 221.108L166.065 228.867L160.618 226.73C160.334 229.281 159.828 232.085 159.044 235.177C158.194 238.532 157.217 241.704 156.153 244.701L166.065 250.049L182.238 241.323C182.384 240.864 182.528 240.399 182.669 239.933C182.695 239.848 182.72 239.763 182.746 239.678C182.868 239.271 182.989 238.861 183.107 238.449C183.17 238.232 183.23 238.013 183.292 237.795C183.379 237.487 183.465 237.179 183.55 236.868C183.701 236.309 183.85 235.746 183.994 235.178C184.152 234.556 184.294 233.95 184.43 233.351C184.465 233.193 184.499 233.038 184.533 232.883Z" fill="#D2EDDE"/>
</svg>
