<svg width="254" height="324" viewBox="0 0 254 324" fill="none" xmlns="http://www.w3.org/2000/svg">
<path d="M174.648 282.361C174.648 285.487 148.708 288.012 116.715 288.012C84.7211 288.012 58.7817 285.475 58.7817 282.361C58.7817 279.233 84.7211 276.709 116.715 276.709C148.708 276.709 174.648 279.248 174.648 282.361Z" fill="#D3E0D7"/>
<path fill-rule="evenodd" clip-rule="evenodd" d="M56.9415 133.411C58.3529 132.635 60.2476 132.279 61.7862 131.44C64.2022 130.169 66.5417 128.325 69.4409 127.269C72.3401 126.214 75.6462 126.278 78.4691 127.168C80.5798 127.524 82.4363 128.248 84.3055 129.202C86.1873 130.143 88.0566 131.377 90.231 132.89C92.1001 134.212 94.0075 135.458 95.6605 136.908C102.756 143.24 107.982 150.895 111.466 159.885C111.797 160.813 112.191 161.805 112.483 162.873C112.814 164.094 113.284 165.416 113.577 166.777C113.742 167.451 113.895 168.111 114.047 168.761C114.162 169.408 114.251 170.045 114.327 170.643C114.505 171.94 114.378 173.122 114.111 173.999C113.844 174.877 113.437 175.449 112.954 175.601C111.682 173.936 111.377 169.79 110.182 165.912C109.241 162.657 107.791 158.88 105.985 155.295C104.18 151.709 101.993 148.377 100.009 145.783C96.9448 141.816 93.2699 138.268 89.468 135.267C85.5515 132.203 81.2918 129.762 76.8287 128.706C73.5863 127.905 70.3183 127.981 67.2539 129.368C63.9859 130.766 60.7435 132.966 56.9415 133.411Z" fill="#1C663A"/>
<path d="M88.7186 146.763C82.6278 156.401 50.7497 133.361 40.4374 143.8C40.5518 143.38 48.2957 116.245 65.6779 110.396C83.2127 104.496 102.757 112.405 87.5741 131.949C87.5741 131.936 94.8093 137.137 88.7186 146.763Z" fill="#278F51"/>
<path d="M88.7179 146.762C82.6271 156.401 50.749 133.36 40.4366 143.8C57.9715 116.932 87.5734 131.949 87.5734 131.949C87.5734 131.949 94.8087 137.137 88.7179 146.762Z" fill="#32B768"/>
<path fill-rule="evenodd" clip-rule="evenodd" d="M65.5247 74.1819C66.5419 74.4998 67.5717 75.0974 68.5891 75.7587C69.5936 76.4453 70.5599 77.2337 71.5391 77.8821C74.5781 80.0184 77.846 82.409 80.9486 85.1046C84.064 87.7876 86.9886 90.8139 89.4172 93.9928C93.2955 98.2144 96.042 102.309 99.6533 108.514C101.23 111.184 102.807 113.829 104.104 116.512C109.571 128.172 112.763 140.049 114.429 152.93C114.581 154.252 114.759 155.676 114.861 157.151C115.166 160.546 115.471 164.653 115.421 167.858C115.357 171.38 114.391 174.012 113.399 174.279C112.356 171.838 112.547 166.039 112.051 160.47C111.657 155.791 111.008 150.221 109.953 144.753C108.936 139.286 107.55 133.945 106.164 129.635C105.121 126.329 103.888 123.048 102.527 119.869C101.192 116.677 99.6787 113.588 98.1019 110.612C94.8849 104.509 91.0193 98.9773 86.8613 93.8148C83.8223 90.0638 80.7451 86.5034 77.2866 83.3499C73.599 79.993 69.6826 76.9285 65.5247 74.1819Z" fill="#1C663A"/>
<path d="M91.5926 80.1078C91.1984 86.2622 87.3201 92.1368 87.3201 92.1368L83.3401 87.8262L77.9359 66.7437C80.708 67.176 82.9586 67.85 84.777 68.7019C90.4355 71.3722 91.8596 75.81 91.5926 80.1078Z" fill="#278F51"/>
<path d="M83.3392 87.8261C83.3392 87.8261 86.6453 62.4329 71.6791 58.809C56.7127 55.1723 39 73.3175 39 73.3175C39 73.3175 63.7699 74.2838 83.3392 87.8261Z" fill="#32B768"/>
<path d="M91.5919 80.1074C89.1378 83.3753 87.3449 87.8258 87.3449 87.8258C84.7001 80.2981 84.789 68.7016 84.789 68.7016C90.4348 71.3717 91.8589 75.8095 91.5919 80.1074Z" fill="#1C663A"/>
<path fill-rule="evenodd" clip-rule="evenodd" d="M109.075 51.0271C110.881 52.5149 112.089 55.2487 113.131 57.5629C116.603 64.9379 118.815 74.4365 119.502 83.134C119.998 86.2366 120.239 89.1357 120.354 92.2384C120.405 93.7896 120.443 95.3919 120.443 97.0957C120.392 98.7995 120.341 100.605 120.277 102.563C120.188 105.946 120.354 109.315 120.252 112.545C119.959 119.526 119.68 126.303 119.4 133.094C119.095 139.884 118.815 146.687 118.345 153.756C118.243 155.206 118.116 156.757 117.963 158.372C117.607 162.072 117.251 166.561 116.615 170.019C115.941 173.822 114.53 176.517 113.487 176.658C112.915 173.847 114.072 167.591 114.581 161.463C115.509 151.175 116.119 136.73 116.704 126.685C117.111 118.979 117.543 111.147 117.849 103.733C118.408 96.0912 118.116 88.7034 117.416 81.43C116.895 76.1404 116.399 70.9651 115.242 65.9806C114.009 60.6655 112.165 55.5029 109.075 51.0271Z" fill="#1C663A"/>
<path d="M111.516 68.2438C98.7619 72.2238 90.7892 75.4155 87.6104 83.1847C87.6104 83.1847 82.6259 70.2275 87.6104 54.0914C92.5948 37.9553 107.141 27.5921 112.52 45.1268C112.52 45.1268 123.875 41.1469 128.656 48.115C133.437 55.0832 124.282 64.2512 111.516 68.2438Z" fill="#278F51"/>
<path d="M111.517 68.2439C98.763 72.2239 90.7904 75.4155 87.6115 83.1847C89.6079 54.0914 112.521 45.127 112.521 45.127C112.521 45.127 123.876 41.1469 128.657 48.115C133.438 55.0832 124.283 64.2512 111.517 68.2439Z" fill="#32B768"/>
<path fill-rule="evenodd" clip-rule="evenodd" d="M138.41 66.642C138.283 68.6638 137.113 70.9017 136.426 72.9998C134.29 79.6756 132.548 87.699 130.259 94.7944C129.166 100.033 127.78 104.382 126.267 110.918C125.593 113.728 125.237 116.576 124.639 119.272C122.198 130.97 120.163 142.046 118.396 153.947C118.205 155.168 118.014 156.478 117.798 157.839C117.289 160.966 116.933 164.756 116.412 167.681C115.878 170.897 114.721 173.237 113.678 173.415C112.864 171.024 113.666 165.544 114.327 160.267C115.395 151.379 117.557 139.134 119.311 130.665C120.621 124.155 122.083 117.581 123.685 111.35C125.351 104.954 127.004 98.7362 128.886 92.6708C129.585 90.471 130.348 88.3221 131.086 86.1859C131.862 84.0624 132.637 81.977 133.362 79.8789C134.176 77.6537 134.99 75.4412 135.79 73.2159C136.681 71.0289 137.545 68.8418 138.41 66.642Z" fill="#1C663A"/>
<path d="M159.073 59.5976C159.073 59.5976 143.687 66.3496 134.087 80.5529C134.087 80.5529 126.941 81.0233 129.942 71.6901C132.943 62.3696 148.862 54.8419 159.073 59.5976Z" fill="#32B768"/>
<path fill-rule="evenodd" clip-rule="evenodd" d="M177.651 80.667C176.964 79.5479 175.667 79.2301 174.446 79.0903C173.824 79.0139 173.187 79.0394 172.552 79.0394C171.916 79.0394 171.292 79.0394 170.695 79.1283C168.775 79.3064 166.829 79.815 164.884 80.4C162.952 81.0611 161.031 81.8623 159.175 82.8286C155.462 84.7741 151.99 87.2154 148.811 89.7204C146.713 91.7296 144.807 93.6114 142.899 95.7476C141.958 96.8285 140.991 97.9474 139.962 99.1427C139.008 100.402 137.978 101.711 136.923 103.199C136.07 104.509 135.244 105.844 134.468 107.166C133.744 108.527 133.032 109.875 132.294 111.159C126.165 122.552 122.528 134.327 119.858 147.106C119.566 148.416 119.299 149.827 118.993 151.289C118.294 154.659 117.773 158.766 117.175 161.958C116.527 165.454 115.344 168.01 114.301 168.188C113.538 165.581 114.429 159.592 115.382 153.845C116.171 149.013 117.328 143.253 118.828 137.62C120.303 131.974 122.223 126.481 124.016 122.056C126.763 115.266 130.183 108.59 134.328 102.767C136.439 99.7658 138.729 96.9683 141.144 94.3108C143.547 91.6532 146.192 89.2246 149.04 87.1138C153.173 83.9984 157.738 81.7732 162.443 80.2219C164.96 79.4208 167.567 78.8868 170.187 78.6833C171.497 78.5561 172.794 78.5816 174.128 78.6198C174.802 78.6833 175.488 78.8104 176.137 79.1029C176.811 79.3827 177.435 79.9422 177.651 80.667Z" fill="#1C663A"/>
<path d="M214.513 108.476C214.513 108.476 214.271 108.018 213.788 107.281C211.779 104.191 205.612 96.1547 196.025 96.2564C184.16 96.3835 165.037 105.946 159.823 99.4099C154.623 92.8741 156.479 86.3001 161.171 81.6589C161.171 81.6589 152.944 74.0423 164.413 66.7436C175.896 59.4447 212.644 71.7408 214.513 108.476Z" fill="#278F51"/>
<path d="M213.775 107.281C211.766 104.191 205.599 96.1552 196.012 96.2569C184.148 96.3841 165.023 105.946 159.81 99.4104C154.609 92.8746 156.465 86.3007 161.157 81.6594C161.183 81.6594 196.507 61.9884 213.775 107.281Z" fill="#32B768"/>
<path fill-rule="evenodd" clip-rule="evenodd" d="M185.941 140.138C184.529 139.184 183.45 137.417 182.051 136.209C179.85 134.301 177.091 132.737 174.18 131.529C171.255 130.309 168.165 129.52 165.203 128.859C163.015 128.681 161.019 128.567 158.87 128.579C156.721 128.605 154.433 128.77 151.761 129.33C149.46 129.813 147.299 130.703 145.226 131.504C140.725 133.246 136.631 135.598 132.867 138.396C129.128 141.193 125.733 144.487 122.999 148.403C122.72 148.81 122.44 149.23 122.147 149.662C121.868 150.107 121.588 150.552 121.308 151.01C119.998 153.146 119.007 155.969 118.358 158.169C117.608 160.559 116.718 162.454 115.675 162.67C114.582 160.712 115.484 155.791 117.493 151.684C118.307 149.942 119.35 148.098 120.621 146.305C121.893 144.525 123.368 142.783 124.957 141.18C128.124 137.938 131.786 135.319 134.901 133.411C139.696 130.487 145.048 128.223 150.466 127.181C155.983 126.1 161.642 125.985 166.932 127.282C170.785 128.223 174.268 129.927 177.435 131.936C180.804 134.085 183.741 136.883 185.941 140.138Z" fill="#1C663A"/>
<path d="M198.581 155.892C180.08 137.594 153.466 163 144.146 151.264C134.838 139.527 147.96 129.456 147.96 129.456C140.852 120.708 151.623 106.085 174.79 117.669C197.971 129.266 198.581 155.892 198.581 155.892Z" fill="#278F51"/>
<path d="M198.581 155.892C180.08 137.594 153.466 163 144.146 151.264C134.838 139.527 147.96 129.456 147.96 129.456C147.96 129.456 180.283 109.747 198.581 155.892Z" fill="#32B768"/>
<path d="M153.695 172.792V258.545C153.695 272.24 142.581 283.354 128.887 283.354H103.214C89.5069 283.354 78.4062 272.24 78.4062 258.545V172.792C78.4062 171.571 79.398 170.58 80.6188 170.58H151.482C152.704 170.58 153.695 171.571 153.695 172.792Z" fill="white"/>
<path opacity="0.36" d="M153.694 190.797H78.405V196.965H153.694V190.797Z" fill="#AFE1C4"/>
<path opacity="0.36" d="M153.694 204.25H78.405V210.418H153.694V204.25Z" fill="#AFE1C4"/>
<path opacity="0.36" d="M153.694 199.685H78.405V201.529H153.694V199.685Z" fill="#AFE1C4"/>
<path d="M53 133.15C53.0455 132.035 53.1596 130.947 53.326 129.842C53.347 129.702 54.0021 125.581 54.4424 125.889C54.9335 126.233 54.9147 127.878 55.0047 128.358C55.1455 129.11 55.3247 130.429 56.0152 130.95C56.2753 131.146 56.5387 127.809 56.6997 127.299C56.8511 126.82 57.0324 126.139 57.3679 125.751C57.9665 125.057 58.4935 128.223 58.5088 128.293C58.6546 128.959 58.7308 130.819 59.1037 130.249C60.0373 128.821 60.1868 126.94 61.2225 125.547C62.1176 124.343 63.2826 128.871 63.4635 129.385C63.4942 129.472 63.6143 130.054 63.7406 129.727C64.1259 128.732 64.5085 127.76 64.9874 126.802C65.0081 126.76 65.4805 125.618 65.6475 125.522C65.8015 125.434 65.8372 125.826 65.892 125.995C66.1039 126.648 66.2349 127.273 66.3646 127.951C66.5389 128.862 66.6237 129.799 66.9269 130.681C67.3135 131.805 67.3883 130.249 67.4647 129.931C67.8074 128.507 68.3233 127.15 68.8419 125.783C68.8981 125.635 69.3832 123.41 69.6406 124.659C69.7213 125.05 70.0384 129.551 70.7488 129.442C70.8495 129.427 70.9094 129.31 70.9607 129.222C71.3477 128.559 71.6128 127.831 71.9386 127.136C72.4706 126 72.972 124.85 73.5359 123.73C73.6775 123.448 74.1444 122.772 74.2204 123.078C74.5921 124.574 74.3652 126.458 74.3345 127.967C74.3202 128.667 73.8515 133.064 75.3939 130.33C75.9441 129.355 76.3332 128.282 76.9585 127.348C77.494 126.548 77.7121 127.26 77.806 127.951C78.0219 129.539 77.9364 131.168 77.9364 132.767C77.9364 133.192 78.3381 132.015 78.4905 131.618C79.2574 129.621 80.0584 127.645 80.8701 125.669" stroke="#AFE1C4" stroke-linecap="round" stroke-linejoin="round"/>
<path d="M96.5339 67.9821C95.8425 67.2577 95.2079 66.5087 94.5931 65.7184C94.5154 65.6185 92.2425 62.6502 92.6962 62.5802C93.2023 62.5021 94.2507 63.5424 94.6118 63.7888C95.177 64.1746 96.13 64.8926 96.8659 64.8064C97.143 64.774 95.1476 62.5297 94.9127 62.1146C94.6919 61.7245 94.3592 61.1909 94.3035 60.7474C94.2041 59.9565 96.5477 61.622 96.6017 61.6566C97.1147 61.986 98.3566 63.104 98.2057 62.5248C97.8279 61.0746 96.7039 59.8091 96.4075 58.3194C96.1512 57.0319 99.742 59.169 100.178 59.3824C100.252 59.4186 100.696 59.7106 100.559 59.4311C100.141 58.5785 99.7373 57.742 99.3985 56.8573C99.3838 56.8189 98.9222 55.8224 98.9576 55.6631C98.9903 55.5162 99.2633 55.74 99.4036 55.8128C99.947 56.0948 100.425 56.4073 100.937 56.7539C101.624 57.2197 102.276 57.7549 103.02 58.1256C103.968 58.5983 103.01 57.5802 102.849 57.3357C102.131 56.2404 101.557 55.0839 100.978 53.9196C100.915 53.7936 99.7639 52.1122 100.717 52.7396C101.016 52.9364 104.097 55.5622 104.439 55.0698C104.487 55.0001 104.447 54.8914 104.42 54.8058C104.218 54.1599 103.903 53.5468 103.644 52.9174C103.222 51.8896 102.772 50.8708 102.378 49.8337C102.279 49.5732 102.114 48.8715 102.355 49.0175C103.534 49.7314 104.615 51.0451 105.569 52.0073C106.011 52.4536 108.569 55.483 107.704 52.853C107.396 51.9148 106.93 51.0109 106.692 50.0538C106.487 49.2341 107.072 49.5494 107.571 49.9251C108.718 50.7892 109.718 51.8591 110.747 52.8594C111.021 53.1253 110.496 52.1493 110.329 51.81C109.488 50.1034 108.681 48.3897 107.879 46.6693" stroke="#AFE1C4" stroke-linecap="round" stroke-linejoin="round"/>
<path d="M154 134.285C154.192 130.975 154.132 127.485 154.636 124.196C154.72 123.642 155.036 122.633 155.858 123.137C156.674 123.637 156.921 125.181 157.154 125.965C157.379 126.723 157.257 127.912 158.001 128.181C158.74 128.449 158.867 126.846 159.101 126.095C159.297 125.469 159.434 124.825 159.623 124.196C159.718 123.878 159.944 122.565 160.177 123.675C160.534 125.377 160.619 127.223 160.715 128.955C160.77 129.938 160.767 132.83 161.057 131.889C161.205 131.41 161.776 126.589 162.182 126.788C162.71 127.046 163.141 128.338 163.314 128.841C163.639 129.78 163.524 129.376 163.632 128.222C163.642 128.123 163.851 123.476 164.765 124.082C165.464 124.545 166.541 127.801 166.615 128.002C167.089 129.298 167.45 130.635 167.951 131.922C168.366 132.986 168.698 130.872 168.75 130.716C168.77 130.656 169.706 127.47 169.956 127.611C170.515 127.925 170.581 130.613 170.706 131.156C171.221 133.392 171.978 129.605 172.156 129.151C172.338 128.688 173.024 126.941 173.134 128.605C173.214 129.81 172.99 131.006 172.873 132.199C172.773 133.223 173.277 131.896 173.346 131.759C173.432 131.589 174.772 129.263 174.829 129.42C175.163 130.333 174.772 131.799 174.748 132.737C174.732 133.368 174.637 134.264 175.367 133.511C176.123 132.731 176.731 131.787 177.29 130.862C177.695 130.193 177.915 129.156 177.991 130.569C178.03 131.288 177.88 132.637 178.651 133.087C179.081 133.338 179.326 132.99 179.311 133.682C179.268 135.718 180.965 131.66 181.397 132.908C181.755 133.94 181.227 135.356 182.147 136.208C182.822 136.833 183.887 136.091 184.486 136.77C185.068 137.431 184.404 139.502 185.244 139.712" stroke="#AFE1C4" stroke-linecap="round" stroke-linejoin="round"/>
<path d="M170 87.9872C170.104 84.5773 170.107 81.1703 170.155 77.76C170.159 77.4949 170.166 74.5411 170.554 74.5003C171.686 74.3812 171.909 80.1845 171.997 80.7589C172.291 82.6825 172.808 79.7432 172.852 79.5935C173.287 78.1289 173.783 76.739 174.433 75.356C174.655 74.8833 174.721 74.1446 175.224 74.0032C175.326 73.9745 175.4 74.1453 175.427 74.2477C175.549 74.6948 175.64 76.3807 175.656 76.6761C175.682 77.1892 175.694 77.7029 175.713 78.2163C175.731 78.742 175.49 79.98 175.973 79.7728C176.992 79.3364 177.909 76.8154 178.475 75.959C178.818 75.4409 179.511 74.091 179.975 75.2826C180.566 76.8046 180.522 78.4737 180.855 80.0499C181.168 81.5358 181.661 80.6389 182.15 79.8299C182.33 79.5333 182.498 79.2299 182.664 78.9253C182.803 78.6692 182.953 77.87 183.055 78.143C183.209 78.5545 182.915 79.0109 182.859 79.4468C182.744 80.3455 182.45 82.7622 183.12 82.1524C184.478 80.9164 185.15 78.6917 186.119 77.1651C186.68 76.2808 187.298 75.4179 187.309 76.9776C187.321 78.7952 186.92 80.6183 186.967 82.4294C187.019 84.4707 189.267 81.1208 189.313 81.0685C189.786 80.5384 190.243 79.9948 190.731 79.4794C191.099 79.0911 191.81 78.0892 192.052 78.5667C192.506 79.467 191.882 81.9514 191.783 82.8206C191.719 83.3806 191.603 83.9362 191.579 84.4993C191.568 84.7538 191.462 85.1204 191.677 85.2572C192.089 85.5197 193.992 83.4274 194.431 83.228C195.934 82.5454 193.85 86.1635 195.539 85.0372C196.595 84.3336 196.403 85.5958 196.403 86.4062C196.403 87.0857 196.352 87.7563 196.257 88.4272" stroke="#AFE1C4" stroke-linecap="round" stroke-linejoin="round"/>
</svg>
