<svg width="254" height="324" viewBox="0 0 254 324" fill="none" xmlns="http://www.w3.org/2000/svg">
<g clip-path="url(#clip0)">
<path d="M126.132 283.619C167.737 283.619 201.466 281.532 201.466 278.956C201.466 276.38 167.737 274.292 126.132 274.292C84.526 274.292 50.7979 276.38 50.7979 278.956C50.7979 281.532 84.526 283.619 126.132 283.619Z" fill="#D3E0D7"/>
<path d="M126.253 197.727C126.424 197.743 126.607 197.669 126.793 197.494C127.555 196.778 128.084 194.644 127.974 192.726C127.901 191.437 126.086 160.675 118.277 118.844C117.968 117.187 117.146 116.819 116.441 118.023C115.736 119.227 115.415 121.545 115.725 123.201C123.368 164.141 125.198 195.013 125.216 195.32C125.298 196.769 125.722 197.678 126.253 197.727Z" fill="#00752F"/>
<path d="M129.123 192.671C128.954 192.687 128.776 192.614 128.593 192.443C127.847 191.741 127.33 189.651 127.437 187.774C127.508 186.512 129.285 156.39 136.932 115.43C137.235 113.808 138.04 113.447 138.73 114.627C139.42 115.805 139.734 118.075 139.431 119.696C131.948 159.784 130.155 190.013 130.138 190.313C130.057 191.732 129.642 192.623 129.123 192.671Z" fill="#00752F"/>
<g clip-path="url(#clip1)">
<path d="M92.8214 74.7181C93.5886 75.6158 94.2898 76.4198 94.9281 77.1339C101.999 85.0461 101.623 82.2618 103.021 81.0669C104.548 79.7639 107.607 80.8434 98.3476 70.0009C95.9272 67.168 92.9048 63.801 89.734 60.3956C80.7694 50.7697 70.6123 40.8394 69.4863 41.7999C67.9593 43.1029 83.5616 63.8756 92.8214 74.7181Z" fill="#2B9F5A"/>
<path d="M89.7338 60.3954C89.8635 60.8273 89.9961 61.2625 90.129 61.7025C91.6088 66.5875 93.2406 71.8304 94.9281 77.134C101.999 85.0461 101.623 82.2618 103.021 81.0669C104.548 79.7639 107.607 80.8434 98.3475 70.0009C95.9271 67.1678 92.9046 63.8007 89.7338 60.3954Z" fill="#2B9F5A"/>
<path d="M82.9105 75.1045C86.4621 77.501 89.9228 79.754 92.8557 81.5675C94.5457 82.6124 95.9718 83.4561 97.1748 84.1315C104.605 88.2924 103.596 85.97 104.505 84.5016C104.662 84.2495 104.866 84.0368 105.059 83.833C106.183 82.6589 107.016 81.7833 96.6778 75.3895C95.7816 74.8346 94.8278 74.2554 93.8265 73.6585C81.2838 66.1545 61.5655 55.7596 60.5861 57.3413C59.7872 58.6349 71.7792 67.5828 82.9105 75.1045Z" fill="#2B9F5A"/>
<path d="M93.8268 73.6587C94.9194 77.1238 96.0456 80.6446 97.1749 84.1316C104.606 88.2926 103.596 85.9701 104.506 84.5018C104.662 84.2497 104.866 84.0369 105.059 83.8332C106.183 82.659 107.016 81.7835 96.678 75.3897C95.7819 74.8348 94.8281 74.2557 93.8268 73.6587Z" fill="#00752F"/>
<path d="M82.9108 75.1046C86.4624 77.5011 89.9231 79.7541 92.8559 81.5677C104.983 89.068 103.449 86.2088 104.506 84.5018C104.662 84.2497 104.866 84.0369 105.059 83.8332C103.787 83.2186 102.264 82.5424 100.443 81.7761C100.123 81.6411 99.7939 81.5049 99.4522 81.3632C94.7262 79.407 88.7407 77.1484 82.9108 75.1046Z" fill="#00752F"/>
<path d="M59.9247 71.7839C59.1579 73.637 82.4937 85.0523 95.6699 90.5044C97.2558 91.1609 98.623 91.7014 99.8007 92.14C108.411 95.3478 106.965 93.1571 107.64 91.5266C108.408 89.6714 111.624 89.2421 98.4471 83.792C97.9332 83.58 97.4016 83.3629 96.8543 83.1412C83.3888 77.699 60.661 70.0033 59.9247 71.7839Z" fill="#2B9F5A"/>
<path d="M98.4472 83.7921C97.9332 83.5801 97.4017 83.363 96.8543 83.1413C97.8355 86.1778 98.8238 89.1974 99.8006 92.14C108.411 95.3478 106.964 93.1571 107.64 91.5266C108.408 89.6715 111.624 89.2421 98.4472 83.7921Z" fill="#2B9F5A"/>
<path d="M60.4149 83.1992C60.0603 84.3857 69.2136 88.2585 79.4869 92.0081C79.4888 92.0089 79.4888 92.0089 79.4888 92.0089C85.8582 94.3347 92.6558 96.6124 97.8843 98.1728C99.5606 98.6722 100.998 99.0775 102.231 99.3949C111.044 101.679 109.393 99.6546 109.897 97.9673C109.959 97.7585 110.051 97.5649 110.15 97.3782C110.956 95.8423 112.146 94.8494 99.9612 91.212C99.7895 91.1615 99.6184 91.1094 99.4419 91.0593C85.6692 86.9878 60.9803 81.2985 60.4149 83.1992Z" fill="#2B9F5A"/>
<path d="M99.9611 91.2117C99.7893 91.1612 99.6182 91.1091 99.4418 91.059C100.387 93.9203 101.323 96.7161 102.231 99.3948C111.044 101.679 109.393 99.6545 109.897 97.9672C109.959 97.7584 110.051 97.5647 110.149 97.3781C110.956 95.8421 112.146 94.849 99.9611 91.2117Z" fill="#00752F"/>
<path d="M79.4889 92.0091C85.8583 94.3349 92.6559 96.6126 97.8844 98.173C111.549 102.251 109.322 99.8904 109.897 97.9673C109.959 97.7584 110.051 97.5648 110.15 97.3781C108.527 96.9432 106.52 96.4845 104.066 95.9842C97.0492 94.5552 87.4925 93.0111 79.4889 92.0091Z" fill="#00752F"/>
<path d="M63.4381 94.0951C63.0383 96.0611 88.1186 102.832 102.091 105.678C102.978 105.858 103.797 106.018 104.556 106.16C115.767 108.254 113.665 106.245 114.038 104.404C114.438 102.438 117.516 101.406 103.541 98.5599C102.989 98.4482 102.419 98.3333 101.833 98.2203C87.5766 95.4376 63.8248 92.2069 63.4381 94.0951Z" fill="#2B9F5A"/>
<path d="M101.832 98.2203C102.772 101 103.685 103.664 104.555 106.16C115.767 108.254 113.664 106.245 114.038 104.404C114.438 102.438 117.515 101.406 103.541 98.5597C102.989 98.4484 102.419 98.3333 101.832 98.2203Z" fill="#2B9F5A"/>
<path d="M61.8523 106.637C61.7151 108.365 74.3488 110.879 86.9962 112.647C92.622 113.436 98.2479 114.078 102.755 114.435C104.654 114.585 106.26 114.68 107.619 114.724C116.5 115.002 114.798 113.124 114.865 111.017C114.865 110.96 114.868 110.905 114.873 110.847C115.067 108.4 117.996 106.626 104.312 105.461C104.039 105.438 103.759 105.415 103.472 105.393C88.8329 104.229 62.0508 104.139 61.8523 106.637Z" fill="#2B9F5A"/>
<path d="M104.312 105.461C104.487 105.964 104.658 106.458 104.83 106.946C105.88 109.948 106.803 112.52 107.619 114.723C116.5 115.002 114.799 113.124 114.865 111.017C114.865 110.96 114.868 110.904 114.873 110.847C115.067 108.4 117.997 106.626 104.312 105.461Z" fill="#00752F"/>
<path d="M86.9965 112.647C92.6222 113.436 98.2482 114.078 102.755 114.435C117.063 115.572 114.788 113.446 114.865 111.017C112.731 110.729 109.666 110.721 105.184 110.967C99.9115 111.257 93.3309 111.872 86.9965 112.647Z" fill="#00752F"/>
<path d="M64.2474 120.396C64.3855 122.898 91.1612 123.457 105.828 122.649C107.7 122.546 109.284 122.426 110.623 122.289C119.771 121.354 117.474 119.655 117.354 117.472C117.224 115.081 119.754 112.978 107.171 113.501C106.59 113.527 105.977 113.556 105.328 113.592C90.6637 114.399 64.1094 117.894 64.2474 120.396Z" fill="#2B9F5A"/>
<path d="M107.171 113.502C108.586 117.368 109.701 120.2 110.623 122.29C119.771 121.354 117.474 119.655 117.353 117.472C117.223 115.081 119.754 112.979 107.171 113.502Z" fill="#2B9F5A"/>
<path d="M100.841 60.548C101.962 66.3281 103.228 72.1494 104.362 76.7025C107.805 90.5409 108.705 87.4232 110.651 86.9371C110.734 86.9172 110.82 86.9008 110.904 86.8899C112.781 86.625 114.706 88.1901 111.411 74.9491C107.968 61.1109 100.131 36.3416 98.1847 36.8274C96.8786 37.1528 98.5557 48.7607 100.841 60.548Z" fill="#2B9F5A"/>
<path d="M110.651 86.9374C110.734 86.9174 110.82 86.901 110.903 86.8902C107.668 78.136 104.118 68.835 100.841 60.5483C101.962 66.3284 103.227 72.1496 104.362 76.7028C107.805 90.541 108.705 87.4233 110.651 86.9374Z" fill="#2B9F5A"/>
<path d="M108.204 79.7896C108.129 80.7494 108.061 81.6881 107.999 82.6008C107.905 83.987 107.827 85.3076 107.767 86.5392C107.238 97.4158 108.283 98.0399 109.787 97.879C109.959 97.8615 110.138 97.8335 110.322 97.8079C110.559 97.7761 110.805 97.75 111.052 97.762C112.03 97.8095 112.891 98.4311 113.601 97.7251C113.86 97.468 114.101 97.0364 114.318 96.3336C114.795 94.7992 115.166 91.9789 115.411 86.9115C115.576 83.5064 115.671 79.4049 115.685 75.1599C115.686 75.1581 115.686 75.1581 115.687 75.1563C115.689 74.3171 115.69 73.4708 115.686 72.6249C115.642 60.4827 114.956 48.0698 113.471 47.9957C111.674 47.9101 109.286 65.9475 108.204 79.7896Z" fill="#2B9F5A"/>
<path d="M115.686 72.6249C113.929 78.9154 112.143 86.1439 110.912 91.9978C110.789 92.5865 110.671 93.1596 110.56 93.7141L110.52 93.9142C110.491 94.0601 110.462 94.2033 110.435 94.3457C110.181 95.6297 109.965 96.8046 109.787 97.8791C109.959 97.8615 110.138 97.8335 110.322 97.8079C110.559 97.7761 110.805 97.75 111.052 97.762C112.03 97.8095 112.891 98.4311 113.601 97.7251C113.861 97.468 114.101 97.0364 114.318 96.3336C114.795 94.7993 115.166 91.979 115.411 86.9115C115.576 83.5065 115.671 79.4049 115.685 75.16C115.686 75.1581 115.686 75.1581 115.687 75.1563C115.689 74.3173 115.69 73.4709 115.686 72.6249Z" fill="#00752F"/>
<path d="M108.204 79.7894C108.129 80.7492 108.061 81.6879 107.999 82.6006C107.905 83.9868 107.827 85.3074 107.767 86.539C107.178 98.6647 108.543 98.0481 110.322 97.8078C110.559 97.776 110.805 97.7499 111.052 97.7619C112.03 97.8094 112.892 98.431 113.601 97.725C113.861 97.4679 114.101 97.0363 114.318 96.3335C112.417 91.0803 110.34 85.4569 108.204 79.7894Z" fill="#00752F"/>
<path d="M112.891 92.414C112.768 92.9964 112.652 93.564 112.542 94.1121C112.501 94.3186 112.459 94.5224 112.422 94.7216C110.546 104.273 111.28 105.454 112.621 105.609C113.077 105.66 113.607 105.594 114.125 105.698C115.02 105.877 115.742 106.536 116.494 106.142C116.796 105.982 117.101 105.654 117.426 105.054C118.159 103.691 118.982 100.936 120.047 95.6152C120.514 93.2932 120.994 90.6351 121.46 87.8241C123.708 74.2928 125.63 57.1891 123.913 56.8437C121.926 56.4462 115.775 78.6943 112.891 92.414Z" fill="#2B9F5A"/>
<path d="M112.891 92.4139C112.768 92.9963 112.652 93.5639 112.542 94.112C112.501 94.3185 112.459 94.5224 112.422 94.7215C109.908 107.531 112.084 105.288 114.125 105.698C115.02 105.877 115.742 106.536 116.494 106.142C116.796 105.982 117.101 105.654 117.426 105.054C116.061 101.161 114.526 96.8864 112.891 92.4139Z" fill="#2B9F5A"/>
<path d="M114.476 112.248C114.91 112.389 115.411 112.477 115.867 112.702C117.222 113.369 117.86 115.074 119.944 112.552C121.097 111.152 122.694 108.458 125.102 103.571C126.959 99.7989 129.105 95.1129 131.198 90.2819C136.709 77.5539 141.843 63.8096 140.317 63.0574C138.21 62.0191 124.226 86.1053 117.474 99.8157C117.079 100.617 116.719 101.365 116.389 102.064C112.297 110.73 113.021 111.781 114.476 112.248Z" fill="#2B9F5A"/>
<path d="M116.39 102.064C112.297 110.73 113.021 111.781 114.476 112.249C114.91 112.39 115.411 112.478 115.867 112.702C117.222 113.369 117.86 115.075 119.944 112.552C119.095 109.905 118.013 106.703 116.65 102.81C116.564 102.563 116.477 102.314 116.39 102.064Z" fill="#00752F"/>
<path d="M114.476 112.249C114.91 112.39 115.411 112.478 115.867 112.702C117.972 113.74 118.349 117.281 125.102 103.571C126.959 99.7991 129.105 95.1131 131.198 90.2821C126.71 95.6339 122.1 101.452 118.665 106.133C116.812 108.658 115.453 110.646 114.476 112.249Z" fill="#00752F"/>
<path d="M117.026 119.845C118.363 120.827 118.609 122.91 121.958 119.478C123.259 118.148 125.023 115.99 127.5 112.618C136.361 100.545 150.971 77.4945 149.116 76.1323C147.261 74.7701 129.646 95.6171 120.785 107.688C120.172 108.524 119.615 109.296 119.112 110.01C112.367 119.595 115.301 118.58 117.026 119.845Z" fill="#2B9F5A"/>
<path d="M119.112 110.01C112.367 119.595 115.301 118.58 117.026 119.845C118.363 120.827 118.609 122.909 121.958 119.478C121.418 117.248 120.511 114.218 119.112 110.01Z" fill="#2B9F5A"/>
<path d="M107.312 106.078C116.095 131.18 115.9 125.7 117.794 125.037C119.687 124.374 122.952 128.781 114.169 103.679C105.386 78.5769 87.8802 33.4719 85.9866 34.1344C84.0929 34.7969 98.5282 80.9763 107.312 106.078Z" fill="#2B9F5A"/>
</g>
<g clip-path="url(#clip2)">
<path d="M169.887 89.9742C168.979 90.691 168.153 91.3304 167.405 91.8954C159.111 98.1552 160.001 95.552 158.885 94.139C157.665 92.5978 154.521 93.0546 165.472 84.3947C168.335 82.1323 171.877 79.4709 175.568 76.8008C186.005 69.2536 197.646 61.6402 198.545 62.7764C199.765 64.3176 180.838 81.3142 169.887 89.9742Z" fill="#2B9F5A"/>
<path d="M175.569 76.8007C175.362 77.1911 175.152 77.5839 174.941 77.9814C172.593 82.3935 170.032 87.1207 167.405 91.8955C159.112 98.1553 160.001 95.5521 158.885 94.1391C157.665 92.5978 154.521 93.0547 165.473 84.3948C168.335 82.1322 171.877 79.4707 175.569 76.8007Z" fill="#2B9F5A"/>
<path d="M179.334 92.2247C175.468 93.8534 171.716 95.3615 168.555 96.5475C166.733 97.2308 165.203 97.7709 163.92 98.1916C155.992 100.78 157.403 98.7401 156.807 97.1571C156.705 96.8852 156.549 96.6422 156.403 96.4098C155.546 95.0688 154.911 94.0697 166.055 89.8879C167.021 89.5248 168.047 89.1493 169.122 88.7656C182.594 83.9354 203.507 77.6887 204.148 79.3938C204.67 80.788 191.454 87.1097 179.334 92.2247Z" fill="#2B9F5A"/>
<path d="M169.122 88.7657C167.415 91.8873 165.666 95.0559 163.92 98.1916C155.992 100.78 157.403 98.7401 156.807 97.1571C156.705 96.8853 156.549 96.6423 156.402 96.4099C155.545 95.0688 154.911 94.0697 166.055 89.8879C167.021 89.5248 168.047 89.1493 169.122 88.7657Z" fill="#00752F"/>
<path d="M179.334 92.2246C175.468 93.8534 171.716 95.3615 168.555 96.5475C155.482 101.453 157.498 98.9972 156.807 97.157C156.705 96.8852 156.549 96.6422 156.402 96.4098C157.741 96.0608 159.332 95.6999 161.227 95.309C161.56 95.2401 161.902 95.1716 162.257 95.1003C167.168 94.1172 173.346 93.0825 179.334 92.2246Z" fill="#00752F"/>
<path d="M202.045 93.3934C202.43 95.3189 177.848 101.86 164.157 104.599C162.509 104.929 161.093 105.189 159.879 105.387C150.999 106.836 152.804 105.006 152.464 103.311C152.079 101.383 149.07 100.361 162.762 97.6242C163.296 97.5179 163.848 97.4102 164.415 97.301C178.383 94.6264 201.675 91.5432 202.045 93.3934Z" fill="#2B9F5A"/>
<path d="M162.762 97.6242C163.296 97.518 163.847 97.4103 164.415 97.301C162.897 100.032 161.375 102.745 159.879 105.387C150.999 106.836 152.804 105.006 152.464 103.311C152.078 101.384 149.07 100.361 162.762 97.6242Z" fill="#2B9F5A"/>
<path d="M199.41 104.266C199.525 105.473 189.998 107.458 179.418 109.112C179.416 109.113 179.416 109.113 179.416 109.113C172.856 110.139 165.894 111.038 160.576 111.546C158.871 111.708 157.413 111.824 156.168 111.895C147.269 112.418 149.239 110.787 149.074 109.07C149.055 108.858 149.003 108.655 148.944 108.457C148.46 106.828 147.505 105.649 159.9 104.465C160.075 104.449 160.249 104.431 160.428 104.417C174.431 103.117 199.227 102.333 199.41 104.266Z" fill="#2B9F5A"/>
<path d="M159.901 104.465C160.075 104.449 160.25 104.431 160.429 104.417C158.978 106.986 157.549 109.494 156.169 111.895C147.269 112.418 149.239 110.787 149.075 109.07C149.055 108.858 149.003 108.654 148.944 108.456C148.46 106.828 147.505 105.648 159.901 104.465Z" fill="#00752F"/>
<path d="M179.416 109.113C172.856 110.139 165.894 111.038 160.575 111.546C146.675 112.873 149.262 111.027 149.074 109.07C149.055 108.858 149.003 108.654 148.944 108.457C150.584 108.346 152.599 108.286 155.052 108.271C162.064 108.229 171.537 108.558 179.416 109.113Z" fill="#00752F"/>
<path d="M194.439 114.16C194.45 116.125 169.073 117.873 155.111 117.957C154.225 117.963 153.408 117.961 152.652 117.953C141.485 117.839 143.886 116.308 143.876 114.469C143.865 112.504 141.104 110.93 155.068 110.845C155.619 110.842 156.189 110.84 156.773 110.843C170.996 110.873 194.426 112.273 194.439 114.16Z" fill="#2B9F5A"/>
<path d="M156.774 110.843C155.344 113.335 153.962 115.72 152.653 117.953C141.485 117.839 143.886 116.308 143.876 114.469C143.865 112.504 141.104 110.929 155.068 110.845C155.62 110.842 156.189 110.84 156.774 110.843Z" fill="#2B9F5A"/>
<path d="M193.584 126.509C193.388 128.195 180.775 128.215 168.29 127.515C162.736 127.206 157.21 126.756 152.813 126.244C150.96 126.029 149.399 125.815 148.086 125.599C139.502 124.183 141.492 122.701 141.828 120.665C141.839 120.61 141.846 120.556 141.852 120.5C142.13 118.112 139.652 115.852 153.019 117.328C153.285 117.358 153.559 117.388 153.838 117.422C168.122 119.08 193.867 124.072 193.584 126.509Z" fill="#2B9F5A"/>
<path d="M153.019 117.328C152.756 117.778 152.497 118.22 152.24 118.657C150.661 121.342 149.288 123.637 148.086 125.599C139.502 124.183 141.492 122.701 141.828 120.664C141.839 120.61 141.846 120.556 141.852 120.5C142.13 118.112 139.652 115.852 153.019 117.328Z" fill="#00752F"/>
<path d="M168.29 127.515C162.737 127.206 157.21 126.755 152.813 126.244C138.853 124.624 141.441 123.012 141.828 120.664C143.932 120.792 146.879 121.366 151.137 122.452C156.147 123.731 162.352 125.569 168.29 127.515Z" fill="#00752F"/>
<path d="M188.675 139.272C188.068 141.65 162.24 137.11 148.304 133.552C146.524 133.099 145.025 132.682 143.766 132.298C135.155 129.664 137.683 128.467 138.213 126.393C138.791 124.121 136.759 121.622 148.748 124.51C149.301 124.644 149.885 124.789 150.501 124.947C164.435 128.503 189.281 136.896 188.675 139.272Z" fill="#2B9F5A"/>
<path d="M148.748 124.51C146.656 127.956 145.047 130.465 143.766 132.298C135.155 129.664 137.683 128.467 138.213 126.393C138.791 124.121 136.759 121.622 148.748 124.51Z" fill="#2B9F5A"/>
<path d="M164.869 74.841C162.697 80.1811 160.377 85.5332 158.424 89.692C152.493 102.333 152.219 99.1673 150.442 98.3313C150.366 98.2964 150.287 98.2644 150.208 98.2381C148.455 97.6276 146.309 98.7661 151.985 86.671C157.916 74.0303 170.142 51.722 171.919 52.5578C173.112 53.118 169.3 63.951 164.869 74.841Z" fill="#2B9F5A"/>
<path d="M150.442 98.3317C150.366 98.2968 150.287 98.2647 150.209 98.2385C154.977 90.4423 160.15 82.1806 164.87 74.8413C162.697 80.1815 160.378 85.5336 158.424 89.6924C152.493 102.333 152.22 99.1674 150.442 98.3317Z" fill="#2B9F5A"/>
<path d="M154.148 91.9291C154.038 92.8654 153.925 93.7801 153.812 94.6686C153.639 96.0181 153.464 97.3014 153.288 98.4959C151.733 109.045 150.612 109.446 149.197 109.006C149.035 108.957 148.869 108.896 148.697 108.837C148.475 108.761 148.244 108.69 148.004 108.654C147.056 108.514 146.11 108.948 145.563 108.135C145.362 107.839 145.212 107.379 145.137 106.663C144.97 105.098 145.148 102.319 145.874 97.4042C146.361 94.1018 147.048 90.1438 147.839 86.0632C147.839 86.0613 147.839 86.0613 147.839 86.0594C147.996 85.2528 148.155 84.4396 148.319 83.6277C150.663 71.9717 153.677 60.1776 155.117 60.3879C156.86 60.6466 155.733 78.4266 154.148 91.9291Z" fill="#2B9F5A"/>
<path d="M148.319 83.6276C148.814 90.0037 149.159 97.2863 149.232 103.143C149.238 103.732 149.243 104.305 149.244 104.859L149.245 105.059C149.245 105.204 149.246 105.347 149.245 105.489C149.245 106.771 149.229 107.94 149.197 109.006C149.035 108.957 148.869 108.896 148.697 108.837C148.475 108.761 148.244 108.689 148.004 108.654C147.056 108.514 146.11 108.948 145.562 108.135C145.362 107.839 145.212 107.379 145.137 106.663C144.97 105.098 145.148 102.318 145.874 97.4041C146.361 94.1017 147.048 90.1437 147.839 86.0631C147.839 86.0612 147.839 86.0612 147.838 86.0593C147.995 85.2529 148.155 84.4396 148.319 83.6276Z" fill="#00752F"/>
<path d="M154.148 91.9288C154.038 92.8651 153.925 93.7798 153.812 94.6683C153.639 96.0178 153.464 97.3012 153.288 98.4957C151.555 110.256 150.36 109.405 148.697 108.836C148.475 108.761 148.244 108.689 148.004 108.654C147.056 108.514 146.11 108.948 145.562 108.135C145.362 107.839 145.212 107.379 145.137 106.662C147.96 101.977 151.022 96.9684 154.148 91.9288Z" fill="#00752F"/>
<path d="M147.252 103.168C147.259 103.751 147.263 104.318 147.265 104.865C147.265 105.071 147.266 105.275 147.265 105.474C147.255 115.004 146.327 116.001 145.009 115.894C144.561 115.857 144.064 115.693 143.547 115.695C142.654 115.697 141.835 116.194 141.187 115.673C140.927 115.461 140.697 115.088 140.498 114.45C140.052 113.002 139.785 110.199 139.77 104.886C139.762 102.567 139.804 99.9224 139.89 97.1337C140.297 83.7088 141.693 66.9139 143.408 66.9077C145.392 66.9026 147.083 89.4414 147.252 103.168Z" fill="#2B9F5A"/>
<path d="M147.252 103.168C147.259 103.75 147.263 104.318 147.265 104.865C147.265 105.071 147.266 105.275 147.265 105.473C147.251 118.255 145.585 115.688 143.547 115.695C142.654 115.697 141.835 116.193 141.187 115.672C140.927 115.461 140.697 115.088 140.499 114.45C142.547 110.969 144.832 107.154 147.252 103.168Z" fill="#2B9F5A"/>
<path d="M141.968 121.921C141.524 121.974 141.027 121.964 140.546 122.093C139.117 122.477 138.181 123.994 136.658 121.175C135.816 119.613 134.792 116.721 133.406 111.57C132.337 107.594 131.164 102.686 130.07 97.6483C127.189 84.3763 124.863 70.1994 126.472 69.7662C128.693 69.1684 137.559 94.9582 141.446 109.409C141.673 110.254 141.877 111.04 142.061 111.775C144.35 120.876 143.454 121.748 141.968 121.921Z" fill="#2B9F5A"/>
<path d="M142.061 111.775C144.349 120.876 143.454 121.748 141.968 121.921C141.524 121.974 141.026 121.964 140.546 122.093C139.117 122.477 138.181 123.994 136.657 121.176C137.975 118.794 139.622 115.923 141.669 112.442C141.799 112.221 141.929 111.998 142.061 111.775Z" fill="#00752F"/>
<path d="M141.968 121.921C141.524 121.974 141.026 121.964 140.546 122.093C138.326 122.691 137.294 126.021 133.406 111.57C132.336 107.595 131.164 102.686 130.069 97.6486C133.366 103.641 136.691 110.104 139.104 115.252C140.404 118.029 141.333 120.197 141.968 121.921Z" fill="#00752F"/>
<path d="M138.078 128.736C136.607 129.425 135.976 131.379 133.41 127.447C132.412 125.923 131.127 123.516 129.387 119.806C123.164 106.529 113.5 81.615 115.54 80.6581C117.58 79.7013 130.549 103.068 136.772 116.343C137.202 117.263 137.591 118.111 137.938 118.892C142.601 129.379 139.975 127.847 138.078 128.736Z" fill="#2B9F5A"/>
<path d="M137.938 118.892C142.601 129.379 139.975 127.847 138.078 128.736C136.607 129.425 135.976 131.379 133.41 127.447C134.351 125.408 135.797 122.669 137.938 118.892Z" fill="#2B9F5A"/>
<path d="M150.02 117.353C136.823 139.801 138.049 134.573 136.356 133.577C134.662 132.582 130.69 136.196 143.888 113.747C157.085 91.2987 182.454 51.2884 184.148 52.2839C185.841 53.2794 163.218 94.904 150.02 117.353Z" fill="#2B9F5A"/>
</g>
<g clip-path="url(#clip3)">
<path d="M124.306 207.38C124.495 207.419 124.694 207.423 124.895 207.384C125.717 207.228 126.257 206.435 126.101 205.613C125.997 205.06 123.426 191.852 114.068 172.887C113.698 172.136 112.789 171.827 112.038 172.198C111.287 172.569 110.978 173.478 111.349 174.229C120.508 192.79 123.097 206.046 123.122 206.178C123.24 206.8 123.722 207.26 124.306 207.38Z" fill="#00752F"/>
<path d="M79.7049 131.866C80.6315 132.598 81.4752 133.251 82.2397 133.828C90.7093 140.221 89.8006 137.562 90.9408 136.119C92.1863 134.545 95.397 135.012 84.2131 126.168C81.2899 123.857 77.6727 121.139 73.9024 118.412C63.2434 110.705 51.3556 102.929 50.4369 104.09C49.1912 105.664 68.5208 123.022 79.7049 131.866Z" fill="#32B768"/>
<path d="M73.9023 118.412C74.1131 118.811 74.3275 119.212 74.5431 119.618C76.941 124.124 79.5571 128.952 82.2397 133.828C90.7094 140.221 89.8007 137.562 90.9408 136.119C92.1863 134.545 95.3971 135.012 84.2131 126.168C81.2898 123.857 77.6726 121.139 73.9023 118.412Z" fill="#32B768"/>
<path d="M70.0567 134.164C74.0051 135.827 77.8366 137.368 81.0652 138.579C82.9255 139.277 84.488 139.828 85.799 140.258C93.8947 142.901 92.4545 140.818 93.0626 139.201C93.1673 138.924 93.3259 138.676 93.476 138.438C94.3512 137.069 94.9993 136.048 83.6186 131.778C82.6319 131.407 81.5839 131.023 80.486 130.632C66.7276 125.699 45.3695 119.319 44.715 121.06C44.1817 122.484 57.6794 128.94 70.0567 134.164Z" fill="#32B768"/>
<path d="M80.4862 130.632C82.2291 133.82 84.0157 137.056 85.799 140.258C93.8947 142.901 92.4545 140.818 93.0626 139.202C93.1673 138.924 93.3259 138.676 93.476 138.438C94.3512 137.069 94.9993 136.048 83.6185 131.778C82.632 131.407 81.5841 131.023 80.4862 130.632Z" fill="#00752F"/>
<path d="M70.0569 134.164C74.0053 135.828 77.8368 137.368 81.0653 138.579C94.4157 143.589 92.357 141.081 93.0628 139.201C93.1675 138.924 93.3261 138.676 93.4762 138.438C92.1088 138.082 90.4839 137.713 88.5493 137.314C88.2087 137.244 87.8598 137.174 87.4971 137.101C82.4818 136.097 76.1722 135.04 70.0569 134.164Z" fill="#00752F"/>
<path d="M46.8628 135.358C46.4694 137.324 71.5741 144.004 85.5567 146.802C87.2397 147.139 88.6857 147.404 89.926 147.606C98.9948 149.086 97.1512 147.217 97.498 145.486C97.8919 143.518 100.965 142.474 86.9815 139.678C86.4361 139.57 85.8726 139.46 85.2927 139.348C71.0283 136.617 47.2404 133.468 46.8628 135.358Z" fill="#32B768"/>
<path d="M86.9815 139.679C86.4362 139.57 85.8727 139.46 85.2928 139.349C86.8434 142.138 88.3977 144.909 89.9259 147.606C98.9947 149.086 97.1511 147.217 97.4979 145.487C97.892 143.518 100.964 142.474 86.9815 139.679Z" fill="#32B768"/>
<path d="M49.5543 146.462C49.4362 147.695 59.1662 149.722 69.9712 151.411C69.9731 151.411 69.9731 151.411 69.9731 151.411C76.6723 152.459 83.7824 153.378 89.2141 153.896C90.9553 154.061 92.4439 154.181 93.7151 154.253C102.804 154.787 100.792 153.121 100.96 151.368C100.98 151.151 101.033 150.943 101.093 150.741C101.587 149.078 102.562 147.874 89.9037 146.665C89.7254 146.649 89.5475 146.631 89.3646 146.616C75.0642 145.288 49.7409 144.488 49.5543 146.462Z" fill="#32B768"/>
<path d="M89.9036 146.665C89.7253 146.648 89.5473 146.63 89.3645 146.615C90.846 149.239 92.3053 151.801 93.7149 154.253C102.804 154.787 100.792 153.121 100.96 151.368C100.98 151.151 101.033 150.943 101.093 150.741C101.587 149.078 102.563 147.873 89.9036 146.665Z" fill="#00752F"/>
<path d="M69.9734 151.411C76.6726 152.46 83.7827 153.378 89.2144 153.896C103.41 155.251 100.768 153.366 100.96 151.368C100.98 151.151 101.033 150.943 101.093 150.741C99.4178 150.629 97.3599 150.567 94.8548 150.552C87.6944 150.509 78.0196 150.845 69.9734 151.411Z" fill="#00752F"/>
<path d="M54.6303 156.566C54.6188 158.572 80.5355 160.358 94.7948 160.444C95.6999 160.449 96.5342 160.448 97.3059 160.44C108.711 160.323 106.259 158.76 106.269 156.881C106.281 154.875 109.1 153.267 94.8388 153.18C94.2757 153.178 93.694 153.175 93.0971 153.178C78.5719 153.209 54.6441 154.639 54.6303 156.566Z" fill="#32B768"/>
<path d="M93.0966 153.178C94.5572 155.723 95.968 158.16 97.3057 160.44C108.711 160.323 106.259 158.76 106.269 156.881C106.28 154.875 109.1 153.267 94.8386 153.18C94.2754 153.178 93.6937 153.176 93.0966 153.178Z" fill="#32B768"/>
<path d="M55.5034 169.178C55.7034 170.899 68.5848 170.92 81.3353 170.205C87.0072 169.889 92.651 169.43 97.1414 168.907C99.0345 168.687 100.628 168.469 101.97 168.248C110.736 166.802 108.703 165.289 108.361 163.209C108.349 163.153 108.342 163.098 108.335 163.041C108.052 160.602 110.583 158.294 96.9318 159.802C96.6593 159.832 96.3803 159.863 96.0946 159.897C81.507 161.591 55.2144 166.688 55.5034 169.178Z" fill="#32B768"/>
<path d="M96.9319 159.801C97.2002 160.261 97.4644 160.712 97.7272 161.159C99.3392 163.9 100.742 166.244 101.97 168.248C110.736 166.802 108.704 165.288 108.361 163.209C108.349 163.153 108.342 163.098 108.336 163.041C108.052 160.602 110.583 158.294 96.9319 159.801Z" fill="#00752F"/>
<path d="M81.3354 170.205C87.0073 169.889 92.6511 169.429 97.1416 168.907C111.399 167.252 108.755 165.607 108.361 163.209C106.212 163.339 103.202 163.926 98.8531 165.035C93.7368 166.34 87.3997 168.218 81.3354 170.205Z" fill="#00752F"/>
<path d="M60.5176 182.213C61.1375 184.64 87.5148 180.004 101.747 176.371C103.564 175.908 105.095 175.482 106.382 175.089C115.176 172.4 112.593 171.178 112.052 169.059C111.462 166.739 113.537 164.186 101.294 167.136C100.728 167.273 100.133 167.421 99.5027 167.582C85.2726 171.214 59.8978 179.785 60.5176 182.213Z" fill="#32B768"/>
<path d="M101.293 167.136C103.43 170.655 105.073 173.218 106.382 175.09C115.175 172.4 112.593 171.178 112.052 169.06C111.462 166.739 113.537 164.186 101.293 167.136Z" fill="#32B768"/>
<path d="M84.829 116.411C87.0477 121.864 89.4166 127.33 91.4115 131.578C97.4689 144.487 97.7481 141.254 99.5634 140.401C99.6409 140.365 99.7219 140.332 99.8019 140.305C101.592 139.682 103.784 140.845 97.9875 128.492C91.9299 115.583 79.4443 92.8002 77.629 93.6537C76.4107 94.2259 80.3039 105.289 84.829 116.411Z" fill="#32B768"/>
<path d="M99.5631 140.401C99.6406 140.365 99.7216 140.333 99.8016 140.306C94.9319 132.344 89.6483 123.906 84.8288 116.411C87.0474 121.865 89.4163 127.331 91.4113 131.578C97.4687 144.488 97.7478 141.255 99.5631 140.401Z" fill="#32B768"/>
<path d="M95.7787 133.862C95.891 134.819 96.0057 135.753 96.1219 136.66C96.2978 138.038 96.4775 139.349 96.6571 140.569C98.2443 151.342 99.3901 151.752 100.835 151.303C101 151.252 101.17 151.19 101.345 151.129C101.572 151.052 101.808 150.979 102.053 150.943C103.022 150.8 103.987 151.243 104.546 150.413C104.751 150.111 104.904 149.641 104.981 148.909C105.152 147.311 104.969 144.473 104.228 139.454C103.731 136.081 103.029 132.039 102.221 127.872C102.222 127.87 102.222 127.87 102.222 127.868C102.062 127.044 101.899 126.214 101.731 125.384C99.3371 113.48 96.2596 101.436 94.7888 101.65C93.0087 101.915 94.1595 120.073 95.7787 133.862Z" fill="#32B768"/>
<path d="M101.732 125.384C101.226 131.896 100.874 139.334 100.799 145.315C100.793 145.916 100.788 146.502 100.786 147.067L100.786 147.271C100.786 147.42 100.784 147.566 100.786 147.711C100.786 149.02 100.802 150.214 100.835 151.303C101 151.252 101.17 151.19 101.346 151.129C101.572 151.052 101.808 150.979 102.053 150.943C103.022 150.8 103.987 151.243 104.547 150.413C104.751 150.111 104.904 149.641 104.981 148.909C105.152 147.311 104.97 144.473 104.228 139.454C103.731 136.081 103.029 132.039 102.221 127.872C102.222 127.87 102.222 127.87 102.222 127.868C102.062 127.044 101.899 126.214 101.732 125.384Z" fill="#00752F"/>
<path d="M95.7787 133.862C95.8909 134.818 96.0057 135.752 96.1219 136.66C96.2977 138.038 96.4774 139.349 96.657 140.569C98.4266 152.579 99.6465 151.71 101.346 151.129C101.572 151.052 101.808 150.979 102.053 150.943C103.022 150.8 103.987 151.243 104.547 150.413C104.751 150.111 104.904 149.641 104.981 148.909C102.098 144.124 98.971 139.009 95.7787 133.862Z" fill="#00752F"/>
<path d="M102.821 145.34C102.814 145.935 102.81 146.515 102.808 147.074C102.808 147.284 102.806 147.492 102.808 147.695C102.818 157.428 103.766 158.446 105.112 158.337C105.569 158.3 106.077 158.132 106.605 158.134C107.517 158.136 108.354 158.643 109.015 158.111C109.28 157.895 109.515 157.514 109.718 156.863C110.174 155.384 110.447 152.521 110.462 147.095C110.47 144.727 110.427 142.026 110.34 139.178C109.924 125.467 108.498 108.315 106.746 108.309C104.72 108.304 102.994 131.322 102.821 145.34Z" fill="#32B768"/>
<path d="M102.821 145.34C102.814 145.935 102.81 146.514 102.808 147.073C102.808 147.284 102.806 147.492 102.808 147.695C102.822 160.748 104.523 158.127 106.605 158.133C107.517 158.136 108.354 158.643 109.015 158.111C109.28 157.895 109.515 157.514 109.718 156.862C107.626 153.307 105.292 149.411 102.821 145.34Z" fill="#32B768"/>
<path d="M108.218 164.492C108.671 164.546 109.179 164.536 109.67 164.668C111.129 165.06 112.085 166.609 113.641 163.731C114.501 162.135 115.546 159.182 116.962 153.921C118.054 149.861 119.251 144.848 120.369 139.703C123.311 126.149 125.686 111.671 124.043 111.228C121.775 110.618 112.72 136.956 108.751 151.714C108.519 152.577 108.31 153.38 108.122 154.13C105.785 163.424 106.7 164.315 108.218 164.492Z" fill="#32B768"/>
<path d="M108.123 154.13C105.785 163.425 106.7 164.315 108.218 164.492C108.671 164.547 109.179 164.536 109.67 164.668C111.129 165.06 112.085 166.61 113.641 163.731C112.296 161.298 110.613 158.367 108.523 154.812C108.39 154.586 108.257 154.359 108.123 154.13Z" fill="#00752F"/>
<path d="M108.218 164.492C108.671 164.547 109.179 164.536 109.67 164.668C111.936 165.278 112.991 168.679 116.962 153.921C118.054 149.861 119.252 144.848 120.369 139.703C117.002 145.823 113.607 152.424 111.143 157.681C109.814 160.518 108.866 162.731 108.218 164.492Z" fill="#00752F"/>
<path d="M112.19 171.452C113.692 172.156 114.337 174.151 116.958 170.136C117.977 168.579 119.289 166.121 121.066 162.332C127.422 148.772 137.291 123.329 135.207 122.352C133.124 121.374 119.879 145.238 113.524 158.796C113.085 159.735 112.687 160.601 112.333 161.399C107.571 172.108 110.253 170.544 112.19 171.452Z" fill="#32B768"/>
<path d="M112.333 161.399C107.571 172.108 110.253 170.544 112.19 171.452C113.692 172.156 114.337 174.151 116.958 170.136C115.996 168.053 114.519 165.256 112.333 161.399Z" fill="#32B768"/>
<path d="M99.9939 159.826C113.472 182.752 112.22 177.413 113.949 176.396C115.679 175.38 119.735 179.07 106.257 156.145C92.7787 133.219 66.8699 92.3573 65.1404 93.374C63.4109 94.3907 86.5157 136.901 99.9939 159.826Z" fill="#32B768"/>
</g>
<g clip-path="url(#clip4)">
<path d="M131.009 197.488C130.843 197.5 130.673 197.479 130.505 197.423C129.821 197.193 129.452 196.452 129.682 195.767C129.836 195.307 133.58 184.322 143.8 169.212C144.204 168.613 145.017 168.456 145.616 168.861C146.214 169.266 146.371 170.079 145.967 170.677C135.965 185.466 132.198 196.49 132.162 196.6C131.988 197.117 131.522 197.454 131.009 197.488Z" fill="#00752F"/>
<path d="M177.972 138.184C177.094 138.701 176.297 139.16 175.576 139.563C167.589 144.034 168.677 141.868 167.872 140.502C166.992 139.011 164.194 139.033 174.787 132.786C177.556 131.154 180.966 129.255 184.507 127.367C194.519 122.029 205.589 116.778 206.238 117.877C207.118 119.368 188.566 131.936 177.972 138.184Z" fill="#32B768"/>
<path d="M184.507 127.367C184.28 127.683 184.05 128.001 183.818 128.322C181.241 131.892 178.44 135.711 175.576 139.564C167.589 144.034 168.677 141.869 167.872 140.502C166.992 139.011 164.194 139.033 174.787 132.786C177.556 131.154 180.966 129.255 184.507 127.367Z" fill="#32B768"/>
<path d="M185.948 141.278C182.379 142.237 178.924 143.104 176.023 143.761C174.351 144.139 172.952 144.428 171.781 144.641C164.553 145.951 166.028 144.34 165.698 142.887C165.641 142.638 165.534 142.407 165.434 142.187C164.846 140.914 164.412 139.966 174.638 137.65C175.525 137.448 176.465 137.244 177.449 137.037C189.785 134.434 208.784 131.485 209.139 133.05C209.428 134.329 197.137 138.265 185.948 141.278Z" fill="#32B768"/>
<path d="M177.449 137.037C175.586 139.557 173.68 142.113 171.781 144.641C164.553 145.951 166.028 144.34 165.698 142.887C165.641 142.638 165.534 142.407 165.434 142.186C164.846 140.914 164.412 139.966 174.638 137.65C175.524 137.448 176.465 137.244 177.449 137.037Z" fill="#00752F"/>
<path d="M185.948 141.278C182.378 142.237 178.924 143.104 176.023 143.761C164.027 146.478 166.08 144.576 165.697 142.887C165.64 142.637 165.534 142.407 165.434 142.186C166.644 142.042 168.076 141.917 169.776 141.803C170.075 141.783 170.381 141.764 170.7 141.744C175.103 141.474 180.619 141.31 185.948 141.278Z" fill="#00752F"/>
<path d="M205.628 145.016C205.734 146.743 183.498 149.51 171.221 150.261C169.743 150.352 168.477 150.41 167.393 150.437C159.47 150.639 161.264 149.258 161.171 147.738C161.065 146.01 158.561 144.757 170.838 144.007C171.317 143.979 171.811 143.951 172.32 143.923C184.83 143.261 205.527 143.357 205.628 145.016Z" fill="#32B768"/>
<path d="M170.838 144.008C171.317 143.979 171.811 143.951 172.32 143.923C170.668 146.125 169.015 148.311 167.393 150.437C159.47 150.639 161.264 149.258 161.171 147.738C161.065 146.01 158.562 144.758 170.838 144.008Z" fill="#32B768"/>
<path d="M202.027 154.19C201.983 155.257 193.431 155.849 184 156.027C183.998 156.027 183.998 156.027 183.998 156.027C178.15 156.137 171.967 156.089 167.264 155.895C165.757 155.833 164.471 155.76 163.376 155.673C155.547 155.064 157.461 153.876 157.523 152.359C157.532 152.171 157.51 151.987 157.483 151.807C157.255 150.328 156.563 149.185 167.522 149.635C167.677 149.642 167.831 149.648 167.989 149.656C180.365 150.198 202.099 152.481 202.027 154.19Z" fill="#32B768"/>
<path d="M167.523 149.635C167.677 149.642 167.831 149.647 167.989 149.656C166.415 151.725 164.868 153.743 163.376 155.673C155.547 155.064 157.461 153.876 157.523 152.359C157.532 152.171 157.511 151.987 157.483 151.807C157.255 150.328 156.563 149.184 167.523 149.635Z" fill="#00752F"/>
<path d="M183.998 156.027C178.15 156.137 171.967 156.089 167.264 155.895C154.974 155.39 157.453 154.088 157.523 152.358C157.532 152.171 157.51 151.987 157.483 151.807C158.928 151.907 160.693 152.096 162.836 152.376C168.96 153.179 177.188 154.599 183.998 156.027Z" fill="#00752F"/>
<path d="M196.505 162.23C196.28 163.946 173.923 162.435 161.728 160.837C160.954 160.735 160.241 160.637 159.583 160.539C149.85 159.103 152.129 158.055 152.34 156.448C152.565 154.732 150.345 153.027 162.542 154.625C163.023 154.688 163.521 154.755 164.03 154.827C176.439 156.555 196.719 160.581 196.505 162.23Z" fill="#32B768"/>
<path d="M164.031 154.827C162.484 156.831 160.993 158.747 159.583 160.539C149.85 159.103 152.129 158.054 152.34 156.448C152.565 154.732 150.345 153.027 162.542 154.625C163.023 154.689 163.521 154.755 164.031 154.827Z" fill="#32B768"/>
<path d="M194.281 172.905C193.908 174.352 182.898 172.86 172.086 170.755C167.276 169.821 162.507 168.767 158.731 167.794C157.139 167.384 155.803 167.011 154.682 166.665C147.36 164.402 149.275 163.347 149.811 161.61C149.827 161.564 149.84 161.517 149.852 161.469C150.38 159.419 148.488 157.15 159.977 160.037C160.206 160.095 160.441 160.155 160.681 160.217C172.949 163.374 194.82 170.811 194.281 172.905Z" fill="#32B768"/>
<path d="M159.977 160.037C159.694 160.399 159.415 160.753 159.139 161.104C157.44 163.258 155.966 165.097 154.682 166.665C147.36 164.402 149.275 163.347 149.811 161.61C149.828 161.563 149.84 161.517 149.853 161.469C150.38 159.418 148.489 157.15 159.977 160.037Z" fill="#00752F"/>
<path d="M172.086 170.755C167.276 169.821 162.507 168.767 158.731 167.794C146.741 164.709 149.193 163.613 149.811 161.61C151.633 161.973 154.135 162.827 157.722 164.284C161.941 166 167.137 168.347 172.086 170.755Z" fill="#00752F"/>
<path d="M188.469 183.456C187.655 185.458 165.657 178.405 153.921 173.632C152.422 173.024 151.164 172.481 150.11 171.994C142.91 168.666 145.26 167.924 145.971 166.177C146.747 164.263 145.273 161.839 155.39 165.794C155.857 165.978 156.349 166.173 156.868 166.385C168.603 171.156 189.283 181.454 188.469 183.456Z" fill="#32B768"/>
<path d="M155.39 165.794C153.152 168.551 151.448 170.548 150.11 171.995C142.91 168.666 145.26 167.924 145.971 166.177C146.748 164.263 145.273 161.839 155.39 165.794Z" fill="#32B768"/>
<path d="M175.404 124.376C172.869 128.777 170.204 133.17 168.002 136.566C161.313 146.888 161.453 144.092 160.002 143.15C159.94 143.111 159.874 143.073 159.809 143.041C158.352 142.298 156.343 143.035 162.744 133.159C169.433 122.837 182.773 104.831 184.224 105.773C185.198 106.404 180.574 115.402 175.404 124.376Z" fill="#32B768"/>
<path d="M160.002 143.15C159.94 143.111 159.874 143.073 159.809 143.041C164.904 136.808 170.407 130.217 175.404 124.376C172.869 128.777 170.204 133.17 168.002 136.566C161.313 146.888 161.453 144.092 160.002 143.15Z" fill="#32B768"/>
<path d="M164.002 138.006C163.794 138.81 163.587 139.595 163.381 140.357C163.069 141.514 162.762 142.613 162.466 143.634C159.847 152.655 158.82 152.871 157.638 152.318C157.502 152.255 157.365 152.182 157.222 152.11C157.037 152.017 156.844 151.927 156.639 151.867C155.828 151.632 154.951 151.897 154.57 151.122C154.431 150.84 154.355 150.42 154.375 149.786C154.416 148.401 154.905 145.996 156.127 141.794C156.947 138.971 158.02 135.599 159.199 132.132C159.198 132.13 159.198 132.13 159.198 132.128C159.432 131.443 159.668 130.753 159.909 130.064C163.35 120.172 167.391 110.239 168.623 110.595C170.113 111.03 167.002 126.412 164.002 138.006Z" fill="#32B768"/>
<path d="M159.908 130.064C159.578 135.688 159.007 142.085 158.37 147.205C158.305 147.719 158.241 148.22 158.175 148.703L158.152 148.878C158.134 149.005 158.118 149.13 158.1 149.254C157.947 150.372 157.794 151.391 157.637 152.317C157.502 152.255 157.364 152.182 157.221 152.109C157.037 152.017 156.844 151.927 156.639 151.867C155.828 151.632 154.951 151.897 154.57 151.122C154.43 150.84 154.355 150.42 154.375 149.786C154.416 148.401 154.905 145.996 156.126 141.794C156.946 138.97 158.02 135.598 159.198 132.132C159.198 132.13 159.198 132.13 159.198 132.128C159.432 131.443 159.668 130.753 159.908 130.064Z" fill="#00752F"/>
<path d="M164.002 138.006C163.794 138.81 163.586 139.595 163.381 140.357C163.069 141.514 162.762 142.613 162.465 143.634C159.546 153.69 158.605 152.804 157.221 152.109C157.037 152.017 156.844 151.927 156.639 151.867C155.827 151.632 154.951 151.897 154.57 151.122C154.43 150.84 154.355 150.42 154.375 149.786C157.399 146.034 160.671 142.03 164.002 138.006Z" fill="#00752F"/>
<path d="M156.639 146.989C156.575 147.499 156.511 147.994 156.447 148.472C156.422 148.652 156.399 148.83 156.374 149.003C155.225 157.32 154.296 158.078 153.159 157.828C152.772 157.742 152.358 157.539 151.906 157.479C151.127 157.374 150.352 157.709 149.85 157.177C149.648 156.961 149.492 156.608 149.395 156.028C149.179 154.71 149.281 152.232 149.903 147.593C150.174 145.569 150.528 143.266 150.936 140.842C152.898 129.174 156.127 114.684 157.624 114.884C159.356 115.117 158.134 134.99 156.639 146.989Z" fill="#32B768"/>
<path d="M156.639 146.989C156.576 147.498 156.511 147.994 156.447 148.472C156.422 148.652 156.4 148.83 156.374 149.003C154.833 160.156 153.686 157.717 151.906 157.478C151.127 157.373 150.352 157.709 149.85 157.176C149.648 156.961 149.492 156.608 149.395 156.027C151.6 153.234 154.051 150.178 156.639 146.989Z" fill="#32B768"/>
<path d="M149.783 162.723C149.39 162.716 148.957 162.648 148.522 162.703C147.229 162.867 146.23 164.079 145.238 161.437C144.69 159.973 144.143 157.327 143.55 152.665C143.092 149.067 142.656 144.643 142.304 140.116C141.378 128.188 141.045 115.537 142.501 115.352C144.511 115.096 149.163 138.664 150.825 151.741C150.922 152.506 151.006 153.217 151.079 153.879C151.987 162.096 151.101 162.75 149.783 162.723Z" fill="#32B768"/>
<path d="M151.078 153.88C151.986 162.096 151.101 162.75 149.783 162.724C149.389 162.717 148.956 162.648 148.521 162.704C147.229 162.868 146.23 164.08 145.238 161.437C146.672 159.516 148.454 157.208 150.656 154.415C150.797 154.238 150.937 154.059 151.078 153.88Z" fill="#00752F"/>
<path d="M149.783 162.724C149.389 162.717 148.956 162.648 148.521 162.704C146.513 162.959 145.213 165.742 143.549 152.665C143.092 149.068 142.656 144.644 142.304 140.116C144.464 145.74 146.592 151.779 148.081 156.56C148.884 159.14 149.435 161.143 149.783 162.724Z" fill="#00752F"/>
<path d="M145.573 168.205C144.207 168.631 143.422 170.26 141.653 166.522C140.964 165.072 140.131 162.818 139.056 159.372C135.214 147.04 129.762 124.14 131.657 123.549C133.552 122.958 142.074 144.903 145.916 157.234C146.181 158.088 146.419 158.874 146.629 159.598C149.443 169.308 147.334 167.657 145.573 168.205Z" fill="#32B768"/>
<path d="M146.629 159.598C149.444 169.308 147.335 167.656 145.573 168.205C144.207 168.631 143.422 170.26 141.653 166.522C142.719 164.854 144.308 162.638 146.629 159.598Z" fill="#32B768"/>
<path d="M157.357 159.7C143.153 177.712 144.849 173.296 143.49 172.224C142.131 171.153 138.232 173.832 152.437 155.82C166.641 137.808 193.57 105.926 194.929 106.997C196.288 108.068 171.562 141.688 157.357 159.7Z" fill="#32B768"/>
</g>
<path d="M180.797 221.447C169.953 221.447 169.953 206.491 159.109 206.491L72.3578 206.376H72.1202V274.69H181.035V221.447H180.797Z" fill="white"/>
<path d="M180.797 221.447C173.763 221.447 171.291 215.157 167.463 210.736V261.118H72.1202V274.69H181.035V221.447H180.797Z" fill="white"/>
<path d="M181.035 188.108V222.126H180.797C169.953 222.126 169.953 207.17 159.109 207.17C148.265 207.17 148.265 222.126 137.421 222.126C126.577 222.126 126.577 207.17 115.733 207.17C104.89 207.17 104.89 222.126 94.0456 222.126C83.2017 222.126 83.2017 207.054 72.3578 207.054H72.1202V188.108H181.035Z" fill="#F4F6F6"/>
</g>
<defs>
<clipPath id="clip0">
<rect width="254" height="324" fill="white"/>
</clipPath>
<clipPath id="clip1">
<rect width="101.996" height="101.996" fill="white" transform="matrix(-0.921675 -0.387962 -0.387962 0.921675 165.264 65.0063)"/>
</clipPath>
<clipPath id="clip2">
<rect width="99.8725" height="99.8725" fill="white" transform="translate(102.137 66.908) rotate(-11.6617)"/>
</clipPath>
<clipPath id="clip3">
<rect width="101.996" height="101.996" fill="white" transform="matrix(-0.979358 -0.202132 -0.202132 0.979358 148.896 108.309)"/>
</clipPath>
<clipPath id="clip4">
<rect width="87.9772" height="87.9772" fill="white" transform="translate(121.605 109.945) rotate(-3.8535)"/>
</clipPath>
</defs>
</svg>
