<svg width="254" height="324" viewBox="0 0 254 324" fill="none" xmlns="http://www.w3.org/2000/svg">
<path d="M126.666 303.041C180.605 303.041 224.332 300.35 224.332 297.031C224.332 293.711 180.605 291.02 126.666 291.02C72.7265 291.02 29 293.711 29 297.031C29 300.35 72.7265 303.041 126.666 303.041Z" fill="#D3E0D7"/>
<path d="M187.943 212.816V292.284C187.943 294.798 185.904 296.845 183.383 296.845H69.386C66.8711 296.845 64.8249 294.805 64.8249 292.284V212.816C64.8249 210.302 66.8645 208.256 69.386 208.256H183.383C185.904 208.262 187.943 210.302 187.943 212.816Z" fill="white"/>
<g clip-path="url(#clip0)">
<path d="M148.556 157.503V208.256H134.941V157.503L141.748 154.156L148.556 157.503Z" fill="#2FAD62"/>
<path d="M148.556 106.75V157.503H134.941V106.75L141.748 103.403L148.556 106.75Z" fill="#2FAD62"/>
<path d="M148.556 106.753H134.941V157.503H148.556V106.753Z" fill="#278F51"/>
<path d="M118.603 157.503V208.256H104.988V157.503L111.796 154.156L118.603 157.503Z" fill="#278F51"/>
<path d="M148.556 56H134.941V106.753H148.556V56Z" fill="#2FAD62"/>
<path d="M118.603 106.75V157.503H104.988V106.75L111.796 103.403L118.603 106.75Z" fill="#2FAD62"/>
<path d="M166.927 94.8984C161.848 101.14 155.227 104.301 148.636 104.363C148.686 96.2626 151.258 88.1262 156.337 81.8844C161.416 75.6425 168.037 72.482 174.629 72.4197C174.578 80.5197 172.006 88.6566 166.927 94.8984Z" fill="#278F51"/>
<path d="M87.1023 145.65C92.1814 151.892 98.8022 155.053 105.394 155.115C105.343 147.015 102.771 138.878 97.6921 132.636C92.613 126.394 85.9921 123.234 79.4007 123.172C79.451 131.272 82.0231 139.408 87.1023 145.65Z" fill="#278F51"/>
<path d="M118.603 56H104.988V106.753H118.603V56Z" fill="#278F51"/>
</g>
<defs>
<clipPath id="clip0">
<rect width="123.894" height="152.256" fill="white" transform="translate(64.8249 56)"/>
</clipPath>
</defs>
</svg>
