<svg width="254" height="324" viewBox="0 0 254 324" fill="none" xmlns="http://www.w3.org/2000/svg">
<path d="M126.723 284.069C174.066 284.069 212.447 281.782 212.447 278.96C212.447 276.137 174.066 273.85 126.723 273.85C79.3795 273.85 41 276.137 41 278.96C41 281.782 79.3795 284.069 126.723 284.069Z" fill="#D3E0D7"/>
<path d="M91.2512 217.658L91.6883 222.8L96.3935 279.366H155.53L163.244 217.658H91.2512Z" fill="white"/>
<path d="M83.5377 202.231V217.658H91.2512H163.244H170.957V202.231H127.248H83.5377Z" fill="white"/>
<path d="M91.2512 217.658L91.6883 222.8H162.601L163.244 217.658H91.2512Z" fill="#EFEFEF"/>
<path d="M124.514 143.094H127.441V201.632H124.514V143.094Z" fill="#00665A"/>
<g clip-path="url(#clip0)">
<path d="M165.642 170.917L164.889 171.486C158.611 176.229 150.511 177.846 142.893 175.877C135.275 173.909 128.972 168.569 125.779 161.378L125.877 161.299C132.099 156.279 140.296 154.428 148.071 156.288C155.846 158.149 162.318 163.51 165.593 170.802L165.642 170.917Z" fill="#38876A"/>
<path d="M125.467 161.318L124.713 161.887C118.435 166.629 110.336 168.246 102.717 166.278C95.0999 164.309 88.7974 158.97 85.6033 151.78L85.7029 151.7C91.9243 146.68 100.122 144.829 107.897 146.689C115.671 148.55 122.143 153.91 125.419 161.203L125.467 161.318Z" fill="#38876A"/>
<path d="M125.779 161.378L127.829 164.719C130.486 169.047 131.049 174.343 129.362 179.133C127.675 183.924 123.917 187.698 119.134 189.406L119.066 189.431C115.58 185.747 113.937 180.69 114.594 175.66C115.252 170.631 118.139 166.165 122.455 163.501C124.492 162.243 125.838 161.393 125.779 161.378V161.378Z" fill="#58AF7A"/>
<path d="M125.779 161.378L123.728 158.038C121.071 153.71 120.508 148.414 122.195 143.623C123.883 138.832 127.641 135.058 132.424 133.35L132.491 133.326C135.976 137.01 137.617 142.067 136.96 147.096C136.303 152.125 133.417 156.59 129.103 159.255C127.066 160.514 125.72 161.364 125.779 161.378Z" fill="#58AF7A"/>
<path d="M90.0947 153.944L90.5946 151.854L100.376 154.196L98.7067 150.078L100.696 149.273L102.942 154.81L109.176 156.301L107.013 151.306L108.983 150.454L111.786 156.926L116.695 158.101L115.497 154.847L117.51 154.106L119.205 158.701L124.985 160.084L126.398 154.18L123.822 149.984L125.652 148.861L127.104 151.226L128.164 146.797L125.589 142.602L127.418 141.478L128.871 143.844L130.387 137.506L132.475 138.006L130.958 144.344L133.324 142.892L134.447 144.721L130.252 147.297L129.193 151.725L131.558 150.274L132.681 152.103L128.486 154.678L127.073 160.584L134.454 162.351L140.48 158.652L141.603 160.482L137.407 163.057L141.837 164.117L146.947 160.98L148.07 162.81L144.789 164.824L149.219 165.884L153.414 163.308L154.537 165.138L152.171 166.59L158.51 168.107L158.01 170.195L151.102 168.541L152.301 171.796L150.288 172.538L148.593 167.94L143.798 166.794L145.468 170.913L143.479 171.718L141.232 166.18L136.475 165.042L138.639 170.038L136.668 170.89L133.866 164.416L126.573 162.672L125.513 167.101L128.088 171.297L126.258 172.42L124.806 170.054L123.746 174.484L126.322 178.679L124.492 179.802L123.04 177.436L121.523 183.775L119.436 183.275L120.952 176.937L118.586 178.389L117.463 176.559L121.659 173.984L122.719 169.555L120.353 171.007L119.23 169.177L123.425 166.602L124.485 162.173L118.579 160.759L113.469 163.896L112.346 162.067L115.627 160.052L111.124 158.975L103.578 162.401L102.691 160.447L107.723 158.161L102.339 156.873L97.2283 160.01L96.1051 158.181L99.3866 156.166L90.0947 153.944Z" fill="#77C974"/>
</g>
<defs>
<clipPath id="clip0">
<rect width="58.6576" height="58.6576" fill="white" transform="matrix(-0.852246 0.523141 0.523141 0.852246 135.272 121)"/>
</clipPath>
</defs>
</svg>
