<svg width="254" height="324" viewBox="0 0 254 324" fill="none" xmlns="http://www.w3.org/2000/svg">
<g clip-path="url(#clip0)">
<path d="M117.762 189.293C117.762 189.293 117.762 136.724 189.362 136.724C189.68 136.722 189.957 136.941 190.027 137.253C190.098 137.563 189.942 137.881 189.654 138.014C158.743 152.67 141.599 163.78 133.094 189.293H117.762Z" fill="#2B9F5A"/>
<path d="M132.746 120.842C132.746 110.441 119.952 99.4891 106.811 99.4891C91.8552 99.4891 83.6497 104.552 79.5779 108.393C79.0632 108.871 78.9392 109.638 79.2774 110.254C79.6167 110.871 80.331 111.177 81.0104 110.999C106 103.905 116.713 121.55 117.589 135.159C118.163 135.351 118.737 135.559 119.304 135.798C121.888 129.388 126.647 124.093 132.746 120.842V120.842Z" fill="#2B9F5A"/>
<path d="M125.827 107.285C129.886 110.67 132.386 115.569 132.746 120.842C133.779 120.289 134.841 119.794 135.929 119.36C140.111 110.171 149.007 99.6598 163.203 97.6467C163.521 97.605 163.759 97.3366 163.763 97.0157C163.767 96.6959 163.535 96.4216 163.218 96.3722C154.612 95.1519 136.707 94.486 125.827 107.285V107.285Z" fill="#AFE1C4"/>
<path d="M132.529 101.46C126.85 79.3793 107.529 75.6555 97.5523 75.2523C97.0047 75.2368 96.5249 75.6148 96.4125 76.1498C96.3 76.6848 96.5869 77.2247 97.0938 77.4302C110.623 83.2456 115.693 92.9816 117.212 101.71C120.382 103.062 123.295 104.947 125.827 107.285C127.755 105.016 130.015 103.053 132.529 101.46Z" fill="#278F51"/>
<path d="M126.83 89.131C129.505 92.8383 131.439 97.0283 132.525 101.469C133.401 100.91 134.299 100.416 135.206 99.9554C135.552 93.761 138.183 81.5564 152.593 73.3227C153.052 73.0571 153.262 72.5066 153.095 72.0026C152.929 71.4996 152.432 71.1817 151.905 71.2418C141.038 72.525 131.58 79.2729 126.83 89.131Z" fill="#2B9F5A"/>
<path d="M117.762 62.253C117.59 62.2181 117.416 62.3053 117.341 62.4643C117.266 62.6232 117.31 62.8132 117.447 62.9237C123.621 68.0267 125.533 79.8088 125.03 86.9143C125.649 87.6131 126.256 88.34 126.83 89.1222C129.225 84.2401 132.789 80.0269 137.206 76.8565C135.34 66.5942 122.106 63.1117 117.762 62.253V62.253Z" fill="#278F51"/>
<path d="M87.0972 141.105C78.3973 141.171 69.9921 144.27 63.3305 149.866C62.9806 150.193 62.906 150.718 63.1512 151.129C63.3954 151.54 63.8927 151.724 64.3463 151.573C93.1646 142.15 117.762 189.293 117.762 189.293C118.253 180.473 121.011 171.928 125.768 164.485C116.148 155.419 99.074 141.105 87.0972 141.105V141.105Z" fill="#278F51"/>
<path d="M148.427 117.012C135.752 116.603 124.148 124.088 119.295 135.805C125.735 138.499 131.454 144.207 132.77 155.685C132.924 155.529 133.099 155.38 133.257 155.226C135.885 127.209 164.456 125.719 179.183 126.846C179.862 126.897 180.476 126.449 180.635 125.788C180.794 125.127 180.45 124.448 179.823 124.185C169.907 119.825 159.253 117.391 148.427 117.012V117.012Z" fill="#278F51"/>
<path d="M99.46 135.02C115.253 140.556 117.421 146.253 117.712 157.316C120.71 159.831 123.451 162.308 125.766 164.487C127.77 161.304 130.121 158.353 132.775 155.687C129.886 130.465 105.691 133.126 99.4948 134.243C99.3136 134.279 99.1808 134.434 99.1731 134.618C99.1643 134.802 99.2826 134.968 99.46 135.02V135.02Z" fill="#AFE1C4"/>
</g>
<path d="M188.045 304.799C188.045 308.158 160.18 310.87 125.812 310.87C91.4433 310.87 63.5785 308.144 63.5785 304.799C63.5785 301.439 91.4433 298.727 125.812 298.727C160.18 298.727 188.045 301.454 188.045 304.799Z" fill="#D3E0D7"/>
<path d="M165.537 187.096V279.216C165.537 293.927 153.599 305.865 138.888 305.865H111.309C96.5843 305.865 84.6597 293.927 84.6597 279.216V187.096C84.6597 185.785 85.7251 184.72 87.0364 184.72H163.16C164.472 184.72 165.537 185.785 165.537 187.096Z" fill="white"/>
<path opacity="0.36" d="M165.536 220.89H84.6583V227.515H165.536V220.89Z" fill="#AFE1C4"/>
<defs>
<clipPath id="clip0">
<rect width="127.048" height="127.048" fill="white" transform="translate(63 62.2452)"/>
</clipPath>
</defs>
</svg>
