<svg width="254" height="324" viewBox="0 0 254 324" fill="none" xmlns="http://www.w3.org/2000/svg">
<path d="M212 273.501C212 278.203 173.941 282 127 282C80.0586 282 42 278.184 42 273.501C42 268.797 80.0586 265 127 265C173.941 265 212 268.818 212 273.501Z" fill="#D3E0D7"/>
<path d="M157.2 166.776H139.528V142.651H157.2C167.698 142.651 176.21 134.139 176.21 123.641V90.4602C176.21 83.7979 181.61 78.3973 188.272 78.3973C194.935 78.3973 200.335 83.7979 200.335 90.4602V123.641C200.335 147.464 181.023 166.776 157.2 166.776Z" fill="#32B768"/>
<path d="M188.272 78.3973V124.331C188.272 140.668 175.029 153.911 158.692 153.911H139.529V166.776H157.2C181.023 166.776 200.336 147.464 200.336 123.641V90.4602C200.335 83.7979 194.935 78.3973 188.272 78.3973Z" fill="#AFE1C4"/>
<path d="M123.002 133.451H79.8527C64.837 133.451 52.6642 121.279 52.6642 106.263V83.8759C52.6642 77.2765 58.0137 71.9269 64.6131 71.9269C71.2125 71.9269 76.5621 77.2765 76.5621 83.8759V106.263C76.5621 108.08 78.0354 109.553 79.8527 109.553H123.002V133.451Z" fill="#32B768"/>
<path d="M79.2466 120.655H123.002V109.553H79.8527C78.0354 109.553 76.5621 108.08 76.5621 106.263V83.8759C76.5621 77.2765 71.2125 71.9269 64.6131 71.9269V106.022C64.6131 114.103 71.1646 120.655 79.2466 120.655Z" fill="#AFE1C4"/>
<path d="M126.385 43C112.592 43 101.411 54.1815 101.411 67.9744V217.855H151.359V67.9744C151.359 54.1815 140.178 43 126.385 43Z" fill="#32B768"/>
<path d="M135.251 217.855V75.6161C135.251 55.8649 131.281 43 126.385 43V217.855H135.251Z" fill="#278F51"/>
<path d="M158.508 270H94.4925C85.9299 270 78.9884 261.357 78.9884 250.696V194.773H174.012V250.697C174.012 261.357 167.07 270 158.508 270Z" fill="white"/>
<path d="M150.088 194.773V250.697C150.088 261.357 143.072 270 134.419 270H158.343C166.996 270 174.012 261.357 174.012 250.697V194.773H150.088Z" fill="#E3FAEC"/>
</svg>
