<svg width="254" height="324" viewBox="0 0 254 324" fill="none" xmlns="http://www.w3.org/2000/svg">
<path d="M127.291 284.145C174.948 284.145 213.582 281.604 213.582 278.468C213.582 275.332 174.948 272.791 127.291 272.791C79.6337 272.791 41 275.332 41 278.468C41 281.604 79.6337 284.145 127.291 284.145Z" fill="#D3E0D7"/>
<path d="M91.5832 217.644L92.0232 222.82L96.7596 279.761H156.289L164.053 217.644H91.5832Z" fill="white"/>
<path d="M83.8184 202.114V217.644H91.5831H164.053H171.818V202.114H127.818H83.8184Z" fill="white"/>
<path d="M91.5832 217.644L92.0232 222.82H163.406L164.053 217.644H91.5832Z" fill="#EFEFEF"/>
<g clip-path="url(#clip0)">
<path d="M145.619 151.096C146.746 150.035 147.281 148.929 146.908 148.146C146.535 147.364 145.339 147.083 143.805 147.29C144.152 146.644 144.246 146.13 144.015 145.852C143.55 145.294 141.919 145.847 140.036 147.107C140.468 145.544 140.377 144.301 139.674 143.861C138.485 143.117 135.996 144.949 134.116 147.953L134.106 147.968C133.976 148.174 133.66 148.017 133.745 147.788C134.027 147.035 134.294 146.311 134.537 145.651C135.846 142.088 137.198 139.199 135.931 138.393C135.181 137.916 133.938 138.401 132.626 139.539C132.977 137.138 132.76 135.306 132.007 135.114C131.631 135.019 131.178 135.347 130.713 135.98C130.206 134.402 129.385 133.375 128.456 133.375C128.446 133.375 128.436 133.377 128.426 133.377C128.416 133.377 128.407 133.375 128.397 133.375C127.468 133.375 126.646 134.402 126.139 135.98C125.675 135.346 125.221 135.019 124.846 135.114C124.093 135.306 123.876 137.138 124.226 139.539C122.914 138.401 121.671 137.916 120.922 138.393C119.654 139.199 121.007 142.088 122.316 145.65C122.559 146.311 122.825 147.034 123.107 147.788C123.192 148.017 122.876 148.174 122.746 147.968L122.737 147.953C120.856 144.949 118.368 143.117 117.179 143.861C116.476 144.301 116.385 145.544 116.817 147.107C114.934 145.847 113.302 145.294 112.838 145.851C112.606 146.13 112.701 146.644 113.048 147.29C111.514 147.083 110.318 147.363 109.944 148.146C109.571 148.929 110.107 150.035 111.234 151.096C110.513 151.233 110.054 151.484 109.984 151.839C109.843 152.551 111.3 153.47 113.465 154.139C111.978 154.788 111.07 155.641 111.171 156.464C111.341 157.857 114.305 158.205 117.85 158.205C120.881 158.205 123.185 162.17 124.686 165.836C125.308 167.356 126.783 168.352 128.426 168.352C130.069 168.352 131.544 167.356 132.167 165.836C133.667 162.17 135.971 158.205 139.003 158.205C142.547 158.205 145.511 157.857 145.681 156.464C145.782 155.641 144.874 154.788 143.387 154.139C145.552 153.47 147.009 152.551 146.868 151.839C146.798 151.484 146.34 151.233 145.619 151.096V151.096Z" fill="#32B768"/>
<path d="M162.156 185.695C162.558 184.66 161.105 183.081 158.715 181.757C159.831 181.195 160.478 180.517 160.407 179.84C160.262 178.46 157.188 177.587 153.452 177.827C153.857 177.722 154.268 177.602 154.684 177.464C158.575 176.174 161.342 173.959 160.864 172.517C160.637 171.835 159.726 171.448 158.417 171.366C160.122 169.105 160.822 166.985 159.99 166.153C159.158 165.321 157.038 166.021 154.777 167.726C154.695 166.417 154.308 165.506 153.626 165.28C152.184 164.802 149.969 167.568 148.679 171.46C148.542 171.875 148.421 172.287 148.316 172.691C148.556 168.955 147.683 165.882 146.303 165.736C145.626 165.665 144.949 166.312 144.386 167.428C143.062 165.038 141.483 163.585 140.448 163.987C139.413 164.388 139.227 166.526 139.861 169.184C138.693 168.738 137.757 168.718 137.305 169.227C136.349 170.304 138.033 173.227 140.819 176.012C142.584 177.777 141.263 182.119 139.188 184.849C138.733 185.449 138.788 186.291 139.32 186.823C139.853 187.356 140.695 187.411 141.294 186.955C144.025 184.881 148.366 183.56 150.131 185.325C152.917 188.111 155.84 189.794 156.917 188.839C157.426 188.387 157.405 187.45 156.96 186.283C159.617 186.916 161.755 186.73 162.156 185.695Z" fill="#32B768"/>
<path d="M94.6966 185.695C94.2951 184.66 95.748 183.081 98.1377 181.757C97.0216 181.195 96.3747 180.517 96.4459 179.84C96.5912 178.46 99.665 177.587 103.401 177.827C102.996 177.722 102.585 177.602 102.169 177.464C98.278 176.174 95.5111 173.959 95.9893 172.517C96.2153 171.835 97.1266 171.448 98.4354 171.366C96.7309 169.105 96.0307 166.985 96.8629 166.153C97.6951 165.321 99.815 166.021 102.075 167.726C102.158 166.417 102.545 165.506 103.226 165.28C104.669 164.802 106.884 167.568 108.173 171.46C108.311 171.875 108.432 172.287 108.537 172.691C108.297 168.955 109.17 165.882 110.55 165.736C111.227 165.665 111.904 166.312 112.466 167.428C113.791 165.038 115.37 163.585 116.405 163.987C117.439 164.388 117.626 166.526 116.992 169.184C118.16 168.738 119.096 168.718 119.548 169.227C120.504 170.304 118.82 173.227 116.034 176.012C114.269 177.777 115.59 182.119 117.664 184.849C118.12 185.449 118.065 186.291 117.533 186.823C117 187.356 116.158 187.411 115.558 186.955C112.828 184.881 108.487 183.56 106.722 185.325C103.936 188.111 101.013 189.794 99.936 188.839C99.4268 188.387 99.4477 187.45 99.8929 186.283C97.2355 186.916 95.0981 186.73 94.6966 185.695V185.695Z" fill="#32B768"/>
<path d="M161.113 181.658C161.755 180.89 161.823 180.159 161.775 179.696C161.639 178.405 160.543 177.533 158.985 177.014C159.456 176.727 159.887 176.428 160.271 176.121C162.496 174.34 162.415 172.827 162.169 172.084C161.987 171.534 161.57 170.904 160.649 170.477C161.931 168.198 162.066 166.284 160.962 165.181C159.859 164.077 157.945 164.212 155.666 165.494C155.239 164.573 154.609 164.156 154.059 163.974C152.278 163.384 150.51 164.903 149.131 167.164C148.613 165.603 147.74 164.505 146.446 164.369C145.985 164.32 145.254 164.388 144.485 165.03C142.974 162.994 141.372 162.153 139.951 162.705C138.53 163.256 137.914 164.956 138.17 167.48C137.171 167.524 136.585 167.966 136.276 168.314C134.051 170.821 138.446 175.584 139.847 176.984C140.857 177.995 139.972 181.544 138.093 184.017C137.526 184.764 137.379 185.717 137.628 186.571L129.802 194.397V169.548C131.423 169.124 132.781 167.966 133.44 166.357C135.228 161.987 137.204 159.581 139.003 159.581C142.993 159.581 146.729 159.223 147.047 156.631C147.111 156.108 147.034 155.291 146.274 154.441C147.764 153.616 148.43 152.644 148.218 151.572C148.161 151.287 148.032 150.964 147.764 150.665C148.448 149.569 148.593 148.485 148.15 147.555C147.707 146.625 146.773 146.055 145.491 145.896C145.427 145.499 145.258 145.196 145.072 144.972C144.373 144.133 143.198 144.038 141.619 144.676C141.437 143.55 140.851 142.976 140.404 142.696C139.39 142.062 138.2 142.257 137.014 142.949C137.3 142.148 137.531 141.419 137.67 140.76C138.027 139.069 137.69 137.883 136.67 137.233C136.193 136.93 135.358 136.63 134.157 137.019C134.085 135.454 133.625 134.107 132.347 133.782C132.043 133.705 131.665 133.685 131.243 133.825C130.512 132.647 129.544 132 128.456 132C128.437 132 128.417 132 128.397 132C127.309 132 126.341 132.647 125.611 133.825C125.188 133.685 124.811 133.705 124.507 133.782C123.229 134.107 122.769 135.453 122.696 137.018C121.496 136.63 120.66 136.93 120.184 137.233C119.163 137.883 118.826 139.069 119.183 140.76C119.322 141.419 119.554 142.148 119.839 142.949C118.654 142.257 117.462 142.062 116.45 142.696C116.002 142.976 115.416 143.55 115.234 144.676C113.655 144.038 112.481 144.133 111.782 144.972C111.596 145.196 111.427 145.499 111.363 145.896C110.081 146.055 109.147 146.625 108.704 147.555C108.261 148.485 108.406 149.569 109.09 150.665C108.821 150.964 108.692 151.286 108.636 151.572C108.424 152.643 109.09 153.616 110.58 154.441C109.819 155.291 109.743 156.108 109.807 156.632C110.124 159.223 113.86 159.581 117.85 159.581C119.649 159.581 121.625 161.987 123.414 166.357C124.072 167.966 125.43 169.124 127.052 169.548V194.397L119.226 186.571C119.474 185.717 119.328 184.764 118.76 184.017C116.881 181.544 115.996 177.995 117.007 176.985C118.407 175.584 122.802 170.821 120.577 168.314C120.268 167.966 119.683 167.524 118.683 167.48C118.94 164.957 118.323 163.256 116.902 162.705C115.482 162.154 113.88 162.994 112.368 165.03C111.6 164.389 110.869 164.321 110.406 164.369C109.113 164.505 108.241 165.603 107.722 167.164C106.344 164.903 104.576 163.384 102.794 163.974C102.244 164.157 101.614 164.573 101.187 165.494C98.9081 164.212 96.9946 164.077 95.8911 165.181C94.7877 166.284 94.9228 168.198 96.2042 170.477C95.2833 170.904 94.8668 171.534 94.6846 172.084C94.4382 172.827 94.3573 174.34 96.5819 176.121C96.9659 176.428 97.3976 176.727 97.8681 177.014C96.3102 177.533 95.2147 178.405 95.0787 179.697C95.03 180.159 95.0985 180.89 95.7401 181.658C93.7039 183.17 92.8638 184.772 93.4149 186.192V186.192C93.9661 187.613 95.6663 188.229 98.1898 187.973C98.234 188.972 98.6761 189.558 99.024 189.867C99.5154 190.303 100.093 190.485 100.715 190.484C103.269 190.484 106.569 187.422 107.694 186.297C108.705 185.286 112.254 186.171 114.727 188.05C115.474 188.617 116.427 188.764 117.281 188.516L127.052 198.286V201.02C127.052 201.78 127.667 202.395 128.427 202.395C129.186 202.395 129.802 201.78 129.802 201.02V198.286L139.572 188.515C140.426 188.764 141.379 188.617 142.126 188.05C144.599 186.171 148.148 185.286 149.159 186.297C150.284 187.422 153.584 190.485 156.138 190.484C156.76 190.484 157.338 190.303 157.829 189.867C158.177 189.558 158.619 188.972 158.663 187.973C161.187 188.229 162.887 187.613 163.438 186.192C163.989 184.771 163.149 183.17 161.113 181.658V181.658ZM105.75 184.352C103.482 186.621 101.665 187.588 100.935 187.72C100.95 187.528 101.01 187.215 101.178 186.772C101.36 186.296 101.263 185.759 100.927 185.376C100.663 185.074 100.284 184.908 99.8937 184.908C99.7877 184.908 99.6808 184.92 99.575 184.945C97.7362 185.383 96.5615 185.3 96.0891 185.155C96.3399 184.729 97.1516 183.876 98.8048 182.959C99.2506 182.712 99.5231 182.239 99.5129 181.729C99.5027 181.22 99.2116 180.758 98.7566 180.529C98.3175 180.308 98.0593 180.111 97.9221 179.978C98.4989 179.564 100.392 179.012 103.313 179.2C104.022 179.245 104.646 178.746 104.759 178.046C104.871 177.347 104.434 176.676 103.748 176.497C103.358 176.395 102.973 176.282 102.602 176.159C99.3089 175.067 97.6627 173.586 97.3592 172.977C97.52 172.899 97.8656 172.779 98.5225 172.738C99.0274 172.706 99.474 172.399 99.6853 171.94C99.8966 171.48 99.8385 170.942 99.5338 170.538C98.2539 168.84 97.8861 167.632 97.8834 167.173C98.343 167.176 99.5508 167.543 101.248 168.823C101.652 169.128 102.191 169.186 102.65 168.975C103.11 168.764 103.417 168.317 103.448 167.812C103.49 167.155 103.609 166.81 103.687 166.649C104.297 166.952 105.778 168.599 106.869 171.892C106.992 172.262 107.106 172.647 107.208 173.038C107.387 173.723 108.057 174.161 108.757 174.048C109.456 173.935 109.956 173.309 109.91 172.602C109.722 169.681 110.274 167.789 110.688 167.212C110.821 167.349 111.018 167.607 111.239 168.046C111.469 168.501 111.931 168.792 112.44 168.802C112.951 168.811 113.423 168.54 113.67 168.094C114.586 166.441 115.44 165.629 115.866 165.379C116.011 165.851 116.094 167.026 115.656 168.865C115.538 169.36 115.703 169.881 116.086 170.217C116.469 170.553 117.007 170.65 117.483 170.468C117.926 170.299 118.238 170.24 118.431 170.225C118.299 170.955 117.331 172.771 115.063 175.04C113.428 176.675 113.599 179.363 114.497 181.842L111.232 178.577C110.695 178.04 109.825 178.04 109.288 178.577C108.751 179.114 108.751 179.984 109.288 180.521L112.552 183.786C110.073 182.888 107.385 182.717 105.75 184.352V184.352ZM125.959 165.315C123.654 159.685 120.926 156.831 117.85 156.831C114.341 156.831 113.086 156.452 112.66 156.243C112.85 156.046 113.257 155.731 114.015 155.399C114.542 155.17 114.87 154.636 114.838 154.063C114.806 153.489 114.42 152.995 113.871 152.826C113.105 152.589 112.534 152.351 112.124 152.144C112.326 151.973 112.477 151.745 112.554 151.481C112.699 150.985 112.553 150.45 112.177 150.096C111.459 149.419 111.25 148.933 111.21 148.749C111.377 148.665 111.886 148.521 112.865 148.653C113.376 148.722 113.884 148.498 114.179 148.074C114.335 147.848 114.417 147.586 114.423 147.322C114.841 147.511 115.386 147.804 116.052 148.25C116.53 148.57 117.156 148.559 117.622 148.223C118.088 147.886 118.296 147.295 118.142 146.742C117.903 145.876 117.91 145.342 117.954 145.093C118.553 145.254 120.081 146.301 121.572 148.683L121.583 148.7C122.015 149.388 122.89 149.634 123.617 149.274C124.346 148.914 124.68 148.068 124.395 147.307C124.114 146.556 123.849 145.835 123.607 145.177C123.422 144.673 123.235 144.182 123.056 143.708C122.519 142.291 121.804 140.406 121.781 139.615C122.06 139.692 122.588 139.938 123.326 140.578C123.76 140.954 124.383 141.021 124.887 140.745C125.391 140.469 125.67 139.909 125.587 139.34C125.449 138.392 125.423 137.677 125.444 137.166C125.716 137.325 126.039 137.39 126.36 137.338C126.871 137.255 127.291 136.893 127.449 136.401C127.835 135.2 128.285 134.808 128.41 134.752C128.421 134.752 128.433 134.752 128.444 134.752C128.569 134.808 129.019 135.2 129.405 136.401C129.563 136.893 129.984 137.255 130.494 137.338C130.816 137.39 131.138 137.325 131.41 137.166C131.431 137.677 131.405 138.393 131.267 139.34C131.184 139.909 131.463 140.469 131.967 140.745C132.472 141.021 133.094 140.954 133.528 140.578C134.266 139.938 134.793 139.692 135.073 139.615C135.05 140.406 134.335 142.292 133.798 143.709C133.618 144.182 133.432 144.673 133.247 145.176C133.005 145.835 132.74 146.556 132.459 147.307C132.174 148.068 132.508 148.913 133.237 149.274C133.964 149.634 134.839 149.387 135.27 148.702L135.282 148.683C136.773 146.301 138.301 145.254 138.9 145.092C138.943 145.342 138.951 145.875 138.711 146.741C138.558 147.295 138.766 147.886 139.232 148.222C139.698 148.559 140.324 148.57 140.801 148.25C141.468 147.804 142.013 147.51 142.431 147.322C142.437 147.586 142.519 147.848 142.675 148.073C142.97 148.498 143.477 148.723 143.989 148.653C144.967 148.521 145.476 148.665 145.644 148.749C145.604 148.933 145.395 149.419 144.677 150.095C144.301 150.45 144.155 150.985 144.3 151.481C144.377 151.745 144.528 151.973 144.73 152.144C144.32 152.351 143.749 152.589 142.982 152.826C142.433 152.995 142.048 153.489 142.016 154.062C141.984 154.636 142.312 155.169 142.839 155.399C143.597 155.73 144.004 156.046 144.194 156.243C143.768 156.452 142.512 156.831 139.004 156.831C135.928 156.831 133.2 159.685 130.895 165.315C130.671 165.863 130.283 166.304 129.802 166.594V153.324C129.802 152.565 129.186 151.949 128.427 151.949C127.668 151.949 127.052 152.565 127.052 153.324V166.594C126.571 166.304 126.183 165.863 125.959 165.315V165.315ZM157.278 184.945C156.783 184.827 156.262 184.992 155.926 185.375C155.59 185.758 155.494 186.296 155.675 186.772C155.844 187.215 155.903 187.528 155.918 187.72C155.188 187.588 153.371 186.62 151.103 184.352C150.22 183.469 149.031 183.113 147.733 183.113C146.627 183.113 145.442 183.373 144.302 183.786L147.566 180.521C148.103 179.984 148.103 179.114 147.566 178.577C147.029 178.04 146.159 178.04 145.622 178.577L142.357 181.842C143.255 179.362 143.426 176.674 141.791 175.04C139.522 172.771 138.555 170.955 138.423 170.225C138.615 170.239 138.928 170.299 139.371 170.468C139.847 170.65 140.384 170.553 140.767 170.217C141.15 169.881 141.316 169.36 141.198 168.865C140.76 167.026 140.843 165.851 140.988 165.379C141.414 165.629 142.268 166.441 143.184 168.094C143.431 168.54 143.906 168.812 144.414 168.802C144.923 168.792 145.385 168.501 145.614 168.046C145.835 167.607 146.033 167.349 146.165 167.212C146.579 167.788 147.131 169.681 146.943 172.602C146.898 173.309 147.397 173.935 148.097 174.048C148.796 174.16 149.467 173.723 149.646 173.038C149.747 172.649 149.861 172.263 149.984 171.892C151.076 168.598 152.557 166.952 153.166 166.649C153.244 166.809 153.364 167.155 153.405 167.812C153.437 168.317 153.744 168.763 154.203 168.975C154.663 169.186 155.201 169.128 155.605 168.823C157.303 167.543 158.511 167.175 158.97 167.173C158.968 167.632 158.6 168.84 157.32 170.538C157.015 170.942 156.957 171.48 157.168 171.94C157.38 172.399 157.826 172.706 158.331 172.738C158.988 172.779 159.334 172.899 159.495 172.977C159.191 173.586 157.545 175.067 154.251 176.159C153.881 176.281 153.496 176.395 153.105 176.497C152.42 176.676 151.982 177.347 152.095 178.046C152.207 178.746 152.834 179.243 153.541 179.199C156.462 179.011 158.355 179.563 158.931 179.978C158.794 180.11 158.536 180.308 158.097 180.529C157.642 180.758 157.351 181.22 157.341 181.729C157.331 182.239 157.603 182.712 158.049 182.959C159.702 183.875 160.514 184.729 160.764 185.155C160.292 185.3 159.117 185.383 157.278 184.945Z" fill="#42C276"/>
</g>
<defs>
<clipPath id="clip0">
<rect width="70.3953" height="70.3953" fill="white" transform="translate(93.2288 132)"/>
</clipPath>
</defs>
</svg>
