<svg width="254" height="324" viewBox="0 0 254 324" fill="none" xmlns="http://www.w3.org/2000/svg">
<path d="M126.37 287.861C172.823 287.861 210.481 285.543 210.481 282.686C210.481 279.827 172.823 277.509 126.37 277.509C79.917 277.509 42.2595 279.827 42.2595 282.686C42.2595 285.543 79.917 287.861 126.37 287.861Z" fill="#D3E0D7"/>
<path d="M219.872 193.126C219.872 193.126 209.077 207.4 214.449 212.591C219.822 217.781 223.817 200.772 219.872 193.126Z" fill="#32B768"/>
<path d="M219.872 193.127C219.872 193.127 234.294 182.525 239.41 187.971C244.526 193.411 227.46 197.174 219.872 193.127Z" fill="#32B768"/>
<path d="M210.742 183.781C210.742 183.781 200.634 201.687 206.416 203.973C212.191 206.259 215.426 190.187 210.742 183.781Z" fill="#32B768"/>
<path d="M210.743 183.781C210.743 183.781 225.762 169.734 229.344 174.811C232.93 179.887 218.076 186.823 210.743 183.781Z" fill="#32B768"/>
<path d="M195.502 175.072C195.502 175.072 189.681 197.111 196.542 196.873C203.404 196.628 203.494 177.585 195.502 175.072Z" fill="#32B768"/>
<path d="M195.502 175.072C195.502 175.072 209.316 156.938 213.341 162.497C217.371 168.057 202.398 179.83 195.502 175.072Z" fill="#32B768"/>
<path d="M178.237 172.912C178.146 172.884 176.918 195.315 183.779 193.991C190.641 192.655 186.298 175.311 178.237 172.912Z" fill="#32B768"/>
<path d="M193.056 163.68C190.896 167.711 186.052 171.894 181.465 172.838C180.362 173.065 179.271 173.105 178.236 172.912C178.208 172.906 178.879 171.377 179.97 169.239C180.907 167.397 182.17 165.106 183.58 162.958C184.188 162.02 184.831 161.116 185.484 160.281C187.974 157.108 190.674 155.033 192.811 156.716C194.762 158.246 194.534 160.928 193.056 163.68Z" fill="#32B768"/>
<path d="M157.466 178.182C157.466 178.182 167.164 194.82 172.342 192.052C177.521 189.283 169.192 175.63 157.466 178.182Z" fill="#32B768"/>
<path fill-rule="evenodd" clip-rule="evenodd" d="M231.872 213.369C231.372 212.17 230.917 210.8 230.382 209.407C229.854 208.015 229.251 206.593 228.563 205.332C226.369 201.307 223.271 197.418 220.003 193.616C216.722 189.823 213.136 186.208 209.411 183.115C208.019 182.081 206.637 181.143 205.233 180.262C203.835 179.369 202.386 178.574 200.856 177.818C197.803 176.306 194.359 175.049 190.107 174.248C186.434 173.565 182.723 173.537 179.186 173.713C171.512 174.094 164.174 176.095 157.476 179.358C150.775 182.644 144.675 187.163 139.183 192.632C138.627 193.2 138.035 193.775 137.449 194.388C136.869 195.008 136.273 195.644 135.665 196.293C132.907 199.305 129.98 203.267 127.746 206.395C125.279 209.811 123.141 212.256 122.289 212.193C123.084 209.203 127.03 203.069 131.469 197.674C133.328 195.4 135.46 192.968 137.871 190.609C140.281 188.248 142.936 185.941 145.75 183.849C148.557 181.757 151.514 179.864 154.481 178.329C157.443 176.783 160.382 175.532 163.104 174.623C171.427 171.774 180.59 170.837 189.067 172.286C193.404 173.025 197.599 174.344 201.464 176.26C205.33 178.17 208.843 180.643 211.97 183.434C216.546 187.516 220.201 192.16 223.641 196.833C225.477 199.34 227.194 201.938 228.631 204.689C230.081 207.435 231.229 210.345 231.872 213.369Z" fill="#1C663A"/>
<path d="M226.182 201.528C226.182 201.528 226.171 218.94 234.242 218.94C242.316 218.935 234.555 204.734 226.182 201.528Z" fill="#32B768"/>
<path d="M193.058 163.68C191.62 163.447 187.987 162.651 185.492 160.281C187.982 157.108 190.681 155.033 192.819 156.716C194.763 158.246 194.535 160.928 193.058 163.68Z" fill="#1C663A"/>
<path d="M183.58 162.952C183.58 162.952 186.969 164.698 185.399 168.807C184.57 170.974 182.114 170.331 179.97 169.239L183.58 162.952Z" fill="#1C663A"/>
<path fill-rule="evenodd" clip-rule="evenodd" d="M223.823 146.905C223.737 146.569 223.528 146.273 223.265 146.081C222.998 145.888 222.702 145.768 222.396 145.677C221.777 145.496 221.117 145.473 220.451 145.41C219.127 145.29 217.769 145.092 216.484 145.052C212.408 144.847 207.974 144.926 203.506 145.296C199.037 145.665 194.542 146.308 190.283 147.109C189.909 147.2 189.533 147.297 189.163 147.388C188.794 147.491 188.43 147.599 188.072 147.7C187.344 147.9 186.628 148.099 185.912 148.292C185.201 148.514 184.497 148.742 183.781 148.963C183.063 149.179 182.342 149.4 181.631 149.679C180.909 149.941 180.181 150.202 179.432 150.475C178.692 150.765 177.948 151.101 177.169 151.425C176.782 151.589 176.39 151.76 175.992 151.93C175.606 152.124 175.207 152.322 174.81 152.521C174.406 152.72 174.003 152.925 173.581 153.136C173.372 153.237 173.161 153.345 172.951 153.453C172.746 153.573 172.536 153.692 172.332 153.817C171.614 154.244 170.905 154.676 170.187 155.102C169.489 155.546 168.835 156.046 168.159 156.518C166.805 157.438 165.561 158.473 164.327 159.473C161.655 161.656 159.149 163.993 156.614 166.279C154.084 168.57 151.565 170.842 149.047 173.117C144.022 177.665 138.945 182.173 134.709 187.619C133.846 188.733 132.953 189.954 132.095 191.263C131.106 192.768 130.145 194.503 129.339 196.27C128.525 198.039 127.877 199.835 127.388 201.438C126.302 204.928 125.666 207.697 124.881 208.033C124.506 206.685 124.506 204.303 125.12 201.574C125.705 198.84 126.922 195.805 128.405 193.007C129.644 190.654 131.254 188.193 133.135 185.823C135.012 183.441 137.155 181.138 139.371 178.949C141.588 176.766 143.886 174.698 146.073 172.741C148.263 170.797 150.343 168.945 152.218 167.279C155.112 164.726 157.961 162.118 160.921 159.588C162.406 158.332 163.929 157.109 165.509 155.972C166.3 155.403 167.129 154.898 167.931 154.363C168.34 154.107 168.732 153.823 169.147 153.584C169.568 153.352 169.983 153.112 170.398 152.88C173.804 150.946 177.339 149.355 180.96 148.15C184.576 146.933 188.231 145.978 191.92 145.376C197.293 144.454 202.562 144.29 207.752 144.307C209.139 144.33 210.526 144.325 211.903 144.409L213.971 144.506L216.029 144.665C217.405 144.762 218.769 144.91 220.134 145.063L221.157 145.177C221.503 145.217 221.867 145.278 222.214 145.381C222.566 145.484 222.913 145.632 223.226 145.876C223.55 146.104 223.794 146.489 223.823 146.905Z" fill="#1C663A"/>
<path d="M156.693 154.483C156.29 160.218 153.663 167.489 153.595 167.665C151.264 165.63 149.793 160.417 149.661 155.819C149.598 153.652 149.838 151.617 150.417 150.116C151.111 148.332 152.288 147.303 154.033 147.677C155.273 147.945 156.017 148.877 156.398 150.196C156.398 150.196 156.398 150.196 156.398 150.202C156.745 151.385 156.808 152.873 156.693 154.483Z" fill="#32B768"/>
<path d="M153.595 167.665C153.595 167.665 172.996 163.663 173.435 170.143C173.872 176.623 156.989 172.957 153.595 167.665Z" fill="#32B768"/>
<path d="M166.634 156.677C164.156 152.408 163.161 147.916 163.179 144.147C163.189 141.619 163.661 139.418 164.446 137.826C165.481 135.723 167.066 134.683 168.874 135.365C174.098 137.338 166.634 156.677 166.634 156.677Z" fill="#32B768"/>
<path d="M166.635 156.677C166.635 156.677 180.189 172.367 184.383 168.683C188.579 165.005 179.255 156.227 166.635 156.677Z" fill="#32B768"/>
<path d="M176.636 151.054C176.636 151.054 192.694 134.996 186.623 129.999C180.551 125.007 174.975 146.285 176.636 151.054Z" fill="#32B768"/>
<path d="M176.635 151.054C176.635 151.054 199.231 153.334 197.686 161.043C196.145 168.756 178.363 155.802 176.635 151.054Z" fill="#32B768"/>
<path d="M192.302 146.376C192.302 146.376 207.07 133.489 202.358 129.248C197.651 125.008 191.563 137.951 192.302 146.376Z" fill="#32B768"/>
<path d="M192.301 146.376C192.301 146.376 210.868 152.647 208.139 158.365C205.404 164.084 194.831 154.443 192.301 146.376Z" fill="#32B768"/>
<path d="M204.2 144.926C204.2 144.926 225.495 131.556 222.22 126.747C218.945 121.938 205.939 136.594 204.2 144.926Z" fill="#32B768"/>
<path d="M204.2 144.926C204.2 144.926 227.098 155.318 224.493 160.525C221.895 165.732 207.042 152.953 204.2 144.926Z" fill="#32B768"/>
<path d="M215.871 144.926C215.871 144.926 231.333 159.809 236.244 154.539C241.161 149.269 227.342 141.504 215.871 144.926Z" fill="#32B768"/>
<path d="M156.693 154.483C155.517 155.852 151.032 155.852 149.661 155.819C149.598 153.652 149.838 151.617 150.417 150.117C152.725 149.616 156.398 150.202 156.398 150.202C156.398 150.202 156.398 150.202 156.398 150.207C156.745 151.385 156.808 152.873 156.693 154.483Z" fill="#1C663A"/>
<path d="M166.17 140.618C165.999 142.243 164.288 143.501 163.185 144.154C163.197 141.624 163.669 139.424 164.453 137.833C164.448 137.826 166.426 138.202 166.17 140.618Z" fill="#1C663A"/>
<path fill-rule="evenodd" clip-rule="evenodd" d="M191.756 85.7771C190.414 85.8794 188.942 86.1523 187.52 86.7208C186.1 87.2779 184.734 88.1078 183.598 89.0572C181.802 90.5749 180.198 92.4224 178.664 94.3836C177.129 96.3448 175.555 98.3572 173.968 100.381C170.802 104.44 167.488 108.47 164.509 112.444C160.529 118.333 157.966 123.842 153.913 131.84C152.195 135.302 150.667 138.798 149.075 142.124C145.635 149.32 142.429 156.369 139.514 163.543C136.597 170.723 133.931 178.022 131.356 185.634C130.827 187.192 130.253 188.874 129.661 190.614C128.297 194.616 126.82 199.488 125.518 203.245C124.091 207.372 122.476 210.317 121.652 210.448C121.806 207.299 124.125 200.317 126.274 193.569C128.081 187.896 130.344 181.143 132.806 174.504C135.249 167.857 137.922 161.344 140.264 156.068C143.856 147.968 147.785 139.895 151.707 132.278C153.73 128.367 155.68 124.518 157.693 120.687C158.71 118.777 159.779 116.884 160.961 115.065C162.139 113.245 163.395 111.506 164.702 109.823C166.606 107.367 168.601 105.071 170.569 102.808C172.536 100.546 174.485 98.306 176.407 96.055C178.447 93.6674 180.465 91.1661 182.944 89.1253C184.178 88.1135 185.52 87.1812 187.02 86.5729C188.51 85.9476 190.147 85.6407 191.756 85.7771Z" fill="#1C663A"/>
<path d="M184.291 88.2277C184.291 88.2277 189.868 81.9348 197.599 81.3607C205.33 80.7864 206.274 85.914 200.777 88.4607C195.28 91.0018 184.291 88.2277 184.291 88.2277Z" fill="#32B768"/>
<path d="M174.77 99.0736C174.77 99.0736 185.918 80.0073 179.307 78.12C172.696 76.2327 170.837 95.2081 174.77 99.0736Z" fill="#32B768"/>
<path d="M174.77 99.0735C174.77 99.0735 194.997 90.2055 196.111 96.9929C197.22 103.78 178.159 103.428 174.77 99.0735Z" fill="#32B768"/>
<path d="M164.469 111.95C164.469 111.95 163.368 109.465 162.197 106.168C161.565 104.389 160.917 102.371 160.411 100.376C159.758 97.8005 159.343 95.2708 159.512 93.338C159.712 91.1494 160.655 89.7339 162.856 89.8874C163.89 89.9613 164.703 90.3479 165.323 90.9675C169.762 95.3901 164.601 111.768 164.469 111.95Z" fill="#32B768"/>
<path d="M164.469 111.949C164.669 111.785 185.508 103.906 186.588 112.307C187.668 120.715 164.469 111.949 164.469 111.949Z" fill="#32B768"/>
<path d="M157.825 122.944C153.067 122.404 149.093 118.971 147.092 115.378C144.932 111.507 145.068 107.465 148.99 106.68C152.009 106.072 154.022 108.545 155.358 111.734C157.364 116.532 157.825 122.944 157.825 122.944Z" fill="#32B768"/>
<path d="M157.823 122.949C157.823 122.949 173.098 113.751 176.208 120.806C179.324 127.855 164.435 130.385 157.823 122.949Z" fill="#32B768"/>
<path d="M148.092 142.238C146.512 141.772 145.141 140.976 143.982 139.987C141.083 137.519 139.485 133.808 139.224 130.76C138.98 127.935 139.877 125.678 141.935 125.502C142.658 125.44 143.289 125.718 143.857 126.247C145.881 128.134 146.984 133.2 147.552 137.133C147.95 139.918 148.087 142.135 148.092 142.238Z" fill="#32B768"/>
<path d="M148.092 142.237C148.092 142.237 163.35 134.262 165.617 138.923C167.88 143.584 155.163 148.707 148.092 142.237Z" fill="#32B768"/>
<path d="M142.277 154.539C142.277 154.539 142.061 154.312 141.703 153.913C140.606 152.709 138.173 149.93 136.36 147.172C134.222 143.92 132.955 140.692 135.762 140.089C138.503 139.498 140.1 142.488 141.021 145.898C141.811 148.798 142.113 152.01 142.221 153.573C142.266 154.181 142.277 154.539 142.277 154.539Z" fill="#32B768"/>
<path d="M142.277 154.539C142.277 154.539 155.585 146.121 157.882 151.782C160.185 157.438 142.277 154.539 142.277 154.539Z" fill="#32B768"/>
<path d="M165.323 90.9675C165.323 90.9675 162.861 92.8435 159.514 93.338C159.713 91.1494 160.657 89.7339 162.856 89.8874C163.891 89.9613 164.703 90.3479 165.323 90.9675Z" fill="#1C663A"/>
<path d="M162.195 106.168C161.564 104.389 160.916 102.37 160.411 100.375C160.411 100.375 162.486 99.8862 163.298 101.501C163.913 102.706 162.792 105.059 162.195 106.168Z" fill="#1C663A"/>
<path d="M155.358 111.734C155.358 111.734 152.293 114.542 147.092 115.378C144.932 111.506 145.068 107.465 148.99 106.68C152.009 106.078 154.027 108.545 155.358 111.734Z" fill="#1C663A"/>
<path d="M147.546 137.127L143.976 139.986C141.077 137.519 139.479 133.808 139.218 130.76C140.912 128.799 143.851 126.247 143.851 126.247C145.879 128.134 146.982 133.2 147.546 137.127Z" fill="#1C663A"/>
<path d="M142.225 153.573L141.702 153.913C140.605 152.709 138.171 149.928 136.359 147.172C138.934 145.273 141.02 145.893 141.02 145.893C141.816 148.803 142.117 152.01 142.225 153.573Z" fill="#1C663A"/>
<path d="M102.866 185.049C102.866 185.049 106.061 167.819 99.8589 167.671C93.657 167.523 102.866 185.049 102.866 185.049Z" fill="#32B768"/>
<path d="M90.9559 181.667C90.9559 181.667 87.7498 166.341 80.661 167.671C73.5665 168.995 90.9559 181.667 90.9559 181.667Z" fill="#32B768"/>
<path d="M102.865 185.049C102.865 185.049 88.4827 188.795 90.1085 193.519C91.7343 198.242 102.109 191.614 102.865 185.049Z" fill="#32B768"/>
<path d="M41.6364 219.145C41.6364 219.145 26.8846 230.447 33.979 235.614C41.0736 240.781 41.6364 219.145 41.6364 219.145Z" fill="#32B768"/>
<path d="M50.7889 202.995C50.7889 202.995 43.251 199.618 36.8445 202.995C30.4321 206.372 28.0161 218.377 50.7889 202.995Z" fill="#32B768"/>
<path d="M60.8102 191.381C60.8102 191.381 51.4078 181.257 44.6145 187.169C37.8156 193.076 60.8102 191.381 60.8102 191.381Z" fill="#32B768"/>
<path d="M50.7885 202.995C50.7885 202.995 45.8144 221.288 52.0846 222.618C58.3491 223.949 50.7885 202.995 50.7885 202.995Z" fill="#32B768"/>
<path d="M60.8096 191.381C60.8096 191.381 52.7374 212.358 59.974 212.835C67.2105 213.314 64.1522 195.451 60.8096 191.381Z" fill="#32B768"/>
<path d="M73.4477 182.587C73.4477 182.587 65.8814 168.995 55.8365 174.02C45.7975 179.04 67.5299 183.986 73.4477 182.587Z" fill="#32B768"/>
<path d="M90.9563 181.667C90.9563 181.667 83.498 183.076 79.712 188.464C75.926 193.848 81.1219 195.707 83.9414 194.15C86.7611 192.592 90.9563 181.667 90.9563 181.667Z" fill="#32B768"/>
<path d="M73.4483 182.587C73.4483 182.587 67.5647 188.63 65.9105 195.554C64.2562 202.478 66.9963 205.126 69.6794 205.349C72.3682 205.57 77.2798 190.767 73.4483 182.587Z" fill="#32B768"/>
<path fill-rule="evenodd" clip-rule="evenodd" d="M38.2881 229.128C38.5496 226.922 39.6637 224.329 40.5676 222.038C41.9547 218.372 43.626 214.444 45.6667 210.613C47.6962 206.781 50.1179 203.069 52.7954 199.817C54.5405 197.356 56.3653 195.224 58.4288 193.064C60.5094 190.915 62.7719 188.682 65.7734 186.316C68.3542 184.298 71.1568 182.439 74.2265 181.451C75.8694 180.888 77.5635 180.535 79.2574 180.308C80.9515 180.085 82.6512 179.989 84.3338 180.029C87.7048 180.085 91.0076 180.564 94.2536 181.228C95.8794 181.575 97.4711 181.939 99.0969 182.383C100.717 182.838 102.383 183.411 103.929 184.355C105.498 185.293 106.794 186.612 107.868 187.999C108.948 189.403 109.824 190.881 110.688 192.37C111.393 193.599 112.086 194.958 112.757 196.383C114.309 199.664 115.884 203.762 116.651 207.094C117.527 210.754 117.254 213.654 116.577 214.063C115.98 212.864 115.446 210.772 114.741 208.299C114.025 205.832 113.132 202.983 111.99 200.289C111.04 198.021 109.847 195.599 108.443 193.167C107.027 190.739 105.475 188.266 103.309 186.72C101.143 185.173 98.3125 184.509 95.6009 183.843C92.895 183.195 90.3027 182.723 87.955 182.451C84.3622 182.047 80.7071 182.052 77.2394 182.775C75.5056 183.133 73.8399 183.702 72.254 184.412C70.6679 185.134 69.1728 186.044 67.746 187.039C64.824 189.09 62.2035 191.597 59.7022 194.127C57.2123 196.674 54.9101 199.352 52.7555 202.119C49.629 206.161 46.7923 210.254 44.4843 214.626C41.9887 219.287 39.9593 224.142 38.2881 229.128Z" fill="#1C663A"/>
<path d="M32.3637 135.359C32.3637 135.359 22.2109 136.383 16.8559 141.419C11.5009 146.456 14.2864 148.918 20.1758 147.524C26.0707 146.126 31.9146 137.866 32.3637 135.359Z" fill="#32B768"/>
<path d="M45.4775 133.211C45.4775 133.211 38.4456 117.641 32.363 120.426C26.2804 123.206 36.5015 133.461 45.4775 133.211Z" fill="#32B768"/>
<path d="M61.9415 136.53C61.9415 136.53 62.385 117.1 55.3132 118.283C48.2415 119.454 54.2161 133.625 61.9415 136.53Z" fill="#32B768"/>
<path d="M75.7216 142.056C75.7216 142.056 81.0254 118.601 73.0953 118.226C65.1709 117.851 71.0601 138.521 75.7216 142.056Z" fill="#32B768"/>
<path d="M45.478 133.21C45.478 133.21 36.246 139.401 34.6373 147.911C33.0285 156.415 38.0652 156.205 40.9587 153.953C43.8521 151.697 46.143 137.428 45.478 133.21Z" fill="#32B768"/>
<path d="M61.9415 136.531C61.9415 136.531 55.2222 140.346 52.1639 144.848C49.1055 149.345 49.3329 152.772 52.1639 153.631C54.9891 154.483 62.3621 144.427 61.9415 136.531Z" fill="#32B768"/>
<path d="M75.7212 142.056C75.7212 142.056 66.9896 146.343 63.3457 150.197C59.7019 154.051 56.706 160.804 63.3457 159.622C69.9855 158.445 75.7212 142.056 75.7212 142.056Z" fill="#32B768"/>
<path d="M93.5927 139.145C92.3819 143.363 89.8863 148.23 87.8852 150.907C87.8852 150.907 86.1458 143.222 86.7938 137.457V137.429C86.953 136.024 87.2543 134.74 87.7603 133.705C88.4253 132.341 89.4372 131.414 90.9436 131.261C93.155 131.028 94.1271 132.221 94.2976 134.155C94.417 135.524 94.1327 137.275 93.5927 139.145Z" fill="#32B768"/>
<path d="M91.9044 155.279C91.9044 155.279 85.5433 151.828 78.6023 156.199C71.6613 160.571 72.946 165.454 78.6023 164.425C84.2528 163.397 91.9044 155.279 91.9044 155.279Z" fill="#32B768"/>
<path d="M108.1 149.458C108.027 149.855 107.902 150.293 107.731 150.759C107.248 152.096 106.401 153.676 105.417 155.284C102.637 159.827 98.7549 164.568 98.7549 164.568C98.7549 164.568 99.1642 158.786 100.733 153.88C101.592 151.185 102.802 148.752 104.491 147.684C104.894 147.428 105.321 147.252 105.781 147.167C106.008 147.127 106.242 147.104 106.48 147.11C107.953 147.132 108.356 148.054 108.1 149.458Z" fill="#32B768"/>
<path fill-rule="evenodd" clip-rule="evenodd" d="M24.121 139.605C26.0026 137.918 29.0042 136.695 31.6248 135.728C35.7916 134.155 40.6009 133.08 45.5637 133.012C50.532 132.904 55.5515 133.984 60.0652 135.559C63.3737 136.491 66.3467 137.61 69.5131 138.821C72.6624 140.061 76.0675 141.408 79.7739 143.699C82.9574 145.672 85.9588 147.895 88.5397 150.385C94.0993 155.819 98.4367 162.02 102.405 168.354C106.361 174.703 110.045 181.298 113.007 188.534C113.626 190.012 114.206 191.637 114.78 193.331C116.093 197.232 117.367 202.058 117.787 205.935C117.844 206.463 117.895 206.981 117.935 207.475C117.975 207.97 117.958 208.453 117.958 208.908C117.935 209.817 117.929 210.631 117.799 211.329C117.571 212.716 117.253 213.598 116.883 213.779C116.656 213.051 116.48 212.08 116.343 210.925C116.252 210.352 116.15 209.726 116.059 209.073C116.019 208.742 115.974 208.402 115.928 208.055C115.872 207.709 115.815 207.355 115.752 206.991C115.332 204.099 114.649 200.762 113.694 197.561C112.148 192.16 109.533 185.931 106.446 179.99C104.9 177.017 103.24 174.112 101.597 171.377C99.9545 168.638 98.3287 166.073 96.7995 163.817C92.1267 156.893 86.5273 150.401 79.9161 145.899L78.6427 145.052L77.3295 144.273C76.4655 143.745 75.5559 143.29 74.6463 142.84C72.8159 141.954 70.9343 141.175 69.0299 140.419C65.2098 138.924 61.4351 137.434 57.6378 136.258C54.8637 135.399 52.1066 134.7 49.3211 134.303C46.5414 133.927 43.7332 133.836 40.959 134.092C35.0243 134.655 29.2429 136.542 24.121 139.605Z" fill="#1C663A"/>
<path d="M93.5936 139.145C90.4727 138.793 86.7891 137.457 86.7891 137.457V137.429C86.9482 136.025 87.2495 134.74 87.7554 133.705L94.2928 134.148C94.4179 135.524 94.1336 137.275 93.5936 139.145Z" fill="#1C663A"/>
<path d="M107.731 150.759C107.248 152.096 106.401 153.676 105.418 155.284C102.41 154.87 100.733 153.88 100.733 153.88C101.592 151.185 102.803 148.752 104.491 147.684C105.98 148.951 107.731 150.759 107.731 150.759Z" fill="#1C663A"/>
<path d="M108.1 149.458C106.366 148.229 105.781 147.161 105.781 147.161C106.008 147.121 106.241 147.098 106.48 147.104C107.952 147.132 108.356 148.053 108.1 149.458Z" fill="#1C663A"/>
<path fill-rule="evenodd" clip-rule="evenodd" d="M75.5947 76.3298C76.7316 76.9663 77.8345 77.984 78.8121 79.1493C79.7843 80.3203 80.654 81.6278 81.4556 82.8501C86.3273 90.7801 91.779 100.291 95.6899 109.466C96.4574 111.074 97.1793 112.638 97.8843 114.201C98.231 114.985 98.5835 115.77 98.9359 116.554C99.26 117.356 99.584 118.163 99.9194 118.982C100.573 120.625 101.25 122.319 101.966 124.126C102.642 125.951 103.353 127.884 104.132 129.982C104.831 131.783 105.479 133.597 106.127 135.383C106.769 137.173 107.446 138.929 108.003 140.692C108.594 142.602 109.18 144.501 109.765 146.388L110.203 147.803L110.601 149.224C110.862 150.174 111.124 151.117 111.385 152.061C112.477 155.824 113.335 159.621 114.267 163.407C114.705 165.306 115.08 167.222 115.495 169.131C115.694 170.087 115.899 171.048 116.104 172.003C116.28 172.969 116.45 173.935 116.627 174.902C116.968 176.841 117.343 178.784 117.661 180.746C117.957 182.713 118.252 184.697 118.548 186.692C118.815 188.323 118.991 190.102 119.19 191.939C119.708 196.157 120.197 201.245 120.43 205.229C120.566 209.613 120.094 212.938 119.367 213.342C118.878 211.84 118.565 209.266 118.315 206.184C118.207 204.644 118.002 202.984 117.866 201.267C117.695 199.551 117.582 197.777 117.366 196.032C116.661 190.154 115.785 183.138 114.506 176.233C113.33 169.308 111.772 162.515 110.436 156.95C108.293 148.434 105.684 139.918 102.949 131.852C100.135 123.581 96.861 115.707 93.5071 108.01C92.2337 105.231 91.0911 102.434 89.7892 99.7505C88.5216 97.0504 87.2938 94.3558 85.8953 91.7579C84.4344 88.9667 83.0416 86.1414 81.4385 83.481C79.8241 80.8376 77.9765 78.3137 75.5947 76.3298Z" fill="#1C663A"/>
<path d="M82.0177 83.561C82.2963 83.5894 78.9764 65.7396 73.1496 67.894C67.3285 70.0429 74.2126 82.8277 82.0177 83.561Z" fill="#32B768"/>
<path d="M87.6223 93.5944C87.6223 93.5944 84.2684 76.239 92.0678 76.1423C99.8671 76.0514 87.6223 93.5944 87.6223 93.5944Z" fill="#32B768"/>
<path d="M104.933 95.0325C102.881 99.9782 98.3504 105.254 93.7572 105.998C93.7572 105.998 93.9107 94.879 97.3613 89.2172C98.6119 87.1649 100.294 85.829 102.557 85.9996C106.61 86.3008 106.798 90.5303 104.933 95.0325Z" fill="#32B768"/>
<path d="M87.6234 93.5942C87.6234 93.5942 76.3848 83.8451 71.4505 89.8537C66.5219 95.8568 82.2799 98.3181 87.6234 93.5942Z" fill="#32B768"/>
<path d="M93.7574 105.998C93.7574 105.998 84.2639 101.593 77.4537 104.282C70.6435 106.97 69.8363 112.888 78.1756 112.797C86.5093 112.712 93.7574 105.998 93.7574 105.998Z" fill="#32B768"/>
<path d="M110.261 112.365C109.227 114.133 107.817 116.066 105.981 118.016C104.901 119.158 103.678 120.307 102.291 121.432C101.819 121.819 101.325 122.205 100.813 122.581C100.813 122.581 100.648 121.444 100.586 119.772C100.472 116.879 100.648 112.365 102.467 109.301C103.076 108.278 103.786 107.408 104.548 106.692C107.379 104.009 110.875 103.389 112.149 104.378C113.052 105.077 112.637 108.306 110.261 112.365Z" fill="#32B768"/>
<path d="M101.59 124.604C101.59 124.604 96.8207 119.164 89.1975 118.715C81.5802 118.266 79.3404 121.614 80.5057 124.604C81.671 127.589 99.3675 127.265 101.59 124.604Z" fill="#32B768"/>
<path d="M106.07 137.338C106.07 137.338 101.431 132.153 94.3252 131.233C87.2194 130.306 83.4619 132.336 83.3026 135.359C83.1435 138.384 102.289 139.971 106.07 137.338Z" fill="#32B768"/>
<path d="M110.759 153.346C110.759 153.346 96.6327 140.26 92.5967 145.104C88.5605 149.946 103.056 157.473 110.759 153.346Z" fill="#32B768"/>
<path d="M114 167.194C114 167.194 107.935 159.48 104.575 161.657C101.215 163.829 107.451 170.281 114 167.194Z" fill="#32B768"/>
<path d="M117.321 128.083C116.314 129.499 115.092 130.925 113.705 132.25C111.494 134.371 108.867 136.223 106.071 137.338C106.11 137.213 107.27 133.717 109.032 129.789C109.032 129.789 109.032 129.789 109.032 129.783C110.203 127.174 111.642 124.371 113.199 122.234C114.825 120 116.582 118.488 118.298 118.681C121.567 119.039 120.584 123.496 117.321 128.083Z" fill="#32B768"/>
<path d="M118.61 147.979L118.598 147.991C117.018 149.411 115.221 150.77 113.385 151.907C112.515 152.447 111.629 152.936 110.753 153.352C110.753 153.352 110.901 152.481 111.236 151.157C111.816 148.837 112.97 145.119 114.897 142.243C116.466 139.901 118.541 138.122 121.242 138.094C126.693 138.037 123.794 143.323 118.61 147.979Z" fill="#32B768"/>
<path d="M114.002 167.193C114.002 167.193 114.314 154.591 118.908 155.495C123.506 156.398 118.51 164.874 114.002 167.193Z" fill="#32B768"/>
<path d="M118.61 147.979L118.599 147.991C117.019 149.413 115.222 150.77 113.386 151.908C112.596 151.68 111.88 151.425 111.237 151.164C111.817 148.843 112.971 145.126 114.898 142.25C116.786 144.632 118.61 147.979 118.61 147.979Z" fill="#1C663A"/>
<path d="M105.979 118.016C104.899 119.158 103.676 120.307 102.289 121.432C101.795 121.586 101.471 121.677 101.471 121.677L100.584 119.772C100.584 119.772 100.999 116.981 105.979 118.016Z" fill="#1C663A"/>
<path d="M117.337 128.083C116.331 129.499 115.108 130.926 113.721 132.25C111.05 131.301 109.048 129.783 109.048 129.783C109.048 129.783 109.048 129.783 109.048 129.777C110.219 127.168 111.658 124.365 113.215 122.228C115.08 123.922 117.337 128.083 117.337 128.083Z" fill="#1C663A"/>
<path d="M110.259 112.365C105.91 110.097 104.631 106.908 104.546 106.692C107.377 104.009 110.873 103.389 112.146 104.378C113.05 105.077 112.635 108.306 110.259 112.365Z" fill="#1C663A"/>
<path d="M104.933 95.0325C97.0716 93.6909 97.3615 89.2172 97.3615 89.2172C98.612 87.1649 100.295 85.829 102.557 85.9996C106.61 86.3008 106.798 90.5303 104.933 95.0325Z" fill="#1C663A"/>
<path d="M107.15 67.7122C107.15 67.7122 102.682 44.7178 96.7016 47.5715C90.7213 50.4309 96.389 65.1429 107.15 67.7122Z" fill="#32B768"/>
<path d="M113.03 80.9741C113.03 80.9741 110.71 56.4107 120.363 58.7244C130.021 61.0323 113.03 80.9741 113.03 80.9741Z" fill="#32B768"/>
<path d="M113.028 80.9742C113.028 80.9742 102.949 70.179 96.6052 73.8059C90.2611 77.427 100.698 84.6466 113.028 80.9742Z" fill="#32B768"/>
<path d="M132.407 81.3606C130.076 86.8407 123.488 93.3439 116.666 93.5941C116.666 93.5941 121.862 72.3789 130.281 73.9308C131.14 74.09 131.804 74.4197 132.282 74.8802C133.67 76.2161 133.555 78.6662 132.407 81.3606Z" fill="#32B768"/>
<path d="M119.299 115.508C119.299 115.508 101.13 110.165 103.467 101.257C105.797 92.3492 118.554 104.02 119.299 115.508Z" fill="#32B768"/>
<path d="M120.316 133.211C120.316 133.211 112.318 116.68 103.256 118.226C94.1951 119.767 108.537 132.779 120.316 133.211Z" fill="#32B768"/>
<path d="M121.306 152.028C121.306 152.028 111.238 135.07 105.025 139.145C98.8056 143.222 108.97 153.187 121.306 152.028Z" fill="#32B768"/>
<path d="M116.661 93.5942C116.661 93.5942 104.535 77.4156 98.7538 84.8682C92.9782 92.3208 105.246 96.1579 116.661 93.5942Z" fill="#32B768"/>
<path d="M130.548 109.415C127.228 112.723 122.715 115.458 119.298 115.509C119.298 115.509 121.498 104.725 126.131 100.012L126.268 99.8758C127.61 98.557 129.155 97.7498 130.906 97.8635C131.333 97.8862 131.776 97.9714 132.225 98.1136C133.607 98.5456 134.437 99.2733 134.811 100.183C135.795 102.576 133.715 106.26 130.548 109.415Z" fill="#32B768"/>
<path d="M132.34 125.44L132.329 125.451C131.573 126.213 130.697 126.992 129.726 127.759C127.82 129.266 125.558 130.732 123.137 131.942C122.216 132.404 121.272 132.829 120.317 133.205C120.317 133.205 121.107 130.761 122.557 127.879C122.562 127.867 122.568 127.862 122.568 127.85C124.302 124.4 126.968 120.324 130.327 119.056C131.055 118.777 131.817 118.635 132.608 118.658C136.762 118.777 135.814 121.932 132.34 125.44Z" fill="#32B768"/>
<path d="M135.761 140.094C135.721 140.81 135.54 141.612 135.233 142.453C134.204 145.267 131.766 148.508 128.541 150.435C127.626 150.981 126.649 151.423 125.62 151.719C124.261 152.112 122.812 152.242 121.311 152.033C121.311 152.033 123.306 148.257 125.87 144.511C126.814 143.13 127.832 141.755 128.855 140.566C129.576 139.73 130.299 138.997 130.992 138.423C132.317 137.331 133.561 136.82 134.556 137.343C135.46 137.815 135.83 138.821 135.761 140.094Z" fill="#32B768"/>
<path fill-rule="evenodd" clip-rule="evenodd" d="M100.885 57.8832C102.795 59.9581 104.478 63.1359 106.03 65.8702C107.275 68.0417 108.491 70.3498 109.679 72.7429C110.833 75.1532 111.987 77.6432 112.977 80.224C113.988 82.7992 114.904 85.4312 115.654 88.0972C116.433 90.7519 117.035 93.4352 117.496 96.0785C119.235 103.588 119.417 110.194 120.134 119.755C120.441 123.888 120.901 127.964 121.174 131.909C122.345 149.008 123.118 165.187 122.555 182.525C122.476 184.299 122.419 186.215 122.288 188.193C122.123 190.467 122.026 192.979 121.799 195.446C121.697 196.68 121.595 197.908 121.492 199.091C121.367 200.273 121.225 201.415 121.089 202.478C120.804 204.815 120.338 206.838 119.866 208.31C119.4 209.784 118.923 210.71 118.53 210.858C118.439 210.021 118.439 208.908 118.508 207.589C118.576 206.275 118.729 204.758 118.849 203.104C119.15 199.801 119.502 195.969 119.747 192.2C120.162 185.856 120.395 178.268 120.418 170.718C120.441 163.174 120.247 155.677 120.008 149.526C119.639 140.084 119.008 130.516 118.474 121.347C118.184 116.646 117.934 111.996 117.553 107.442C117.177 102.883 116.558 98.4206 115.66 94.0321C114.369 87.6367 112.624 81.5201 110.248 75.6762C107.684 69.4459 104.541 63.5054 100.885 57.8832Z" fill="#1C663A"/>
<path d="M128.538 150.43C127.622 150.975 126.644 151.418 125.615 151.714L125.866 144.506C125.866 144.506 128.106 147.667 128.538 150.43Z" fill="#1C663A"/>
<path d="M135.762 140.095C135.723 140.811 135.54 141.612 135.233 142.454C130.804 143.415 128.855 140.561 128.855 140.561C129.576 139.725 130.299 138.992 130.992 138.418L135.762 140.095Z" fill="#1C663A"/>
<path d="M132.339 125.44L132.327 125.451L129.724 127.759C127.819 129.265 125.557 130.732 123.135 131.942C122.629 130.09 122.555 127.969 122.555 127.878C122.561 127.867 122.567 127.861 122.567 127.85C124.301 124.399 126.967 120.324 130.326 119.056C131.77 121.301 132.321 125.326 132.339 125.44Z" fill="#1C663A"/>
<path d="M130.548 109.415C126.512 105.492 126.131 100.012 126.131 100.012L126.268 99.8758C127.61 98.557 129.156 97.7498 130.907 97.8635L134.812 100.183C135.796 102.576 133.715 106.26 130.548 109.415Z" fill="#1C663A"/>
<path d="M132.406 81.3605C131.07 78.234 132.241 74.9881 132.281 74.8801C133.668 76.216 133.555 78.6661 132.406 81.3605Z" fill="#1C663A"/>
<path fill-rule="evenodd" clip-rule="evenodd" d="M165.021 57.4447C163.885 58.434 162.816 59.7016 161.929 61.1568C161.031 62.6065 160.28 64.1981 159.627 65.6932C155.494 75.2435 150.389 86.3115 146.023 96.4985C144.648 100.228 143.402 103.684 142.221 107.424C141.032 111.159 139.958 115.207 138.797 120.056C137.797 124.245 136.973 128.424 136.025 132.426C131.948 149.759 127.799 166.028 125.2 183.723C125.07 184.628 124.939 185.572 124.802 186.537C124.66 187.504 124.53 188.499 124.404 189.511C123.779 194.167 123.393 199.8 123.069 204.201C122.699 209.026 122.028 212.671 121.267 213.085C120.886 211.38 120.766 208.463 120.863 204.99C120.954 201.516 121.267 197.486 121.642 193.547C122.273 186.913 123.438 179.029 124.939 171.281C126.434 163.527 128.191 155.897 129.691 149.656C132 140.077 134.375 130.39 136.718 121.136C137.922 116.389 139.105 111.671 140.583 107.066C142.067 102.467 143.801 98.0105 145.693 93.6788C148.467 87.3632 151.565 81.4796 154.471 75.5618C156.022 72.4012 157.564 69.2518 159.047 66.0855C159.798 64.5108 160.502 62.8907 161.423 61.3671C162.333 59.8495 163.498 58.4112 165.021 57.4447Z" fill="#1C663A"/>
<path d="M160.66 63.6301C160.66 63.6301 163.73 40.0444 173.367 42.1307C182.996 44.2226 160.66 63.6301 160.66 63.6301Z" fill="#32B768"/>
<path d="M153.941 78.1938C153.941 78.1938 161.092 47.7011 153.941 47.468C146.79 47.235 149.251 74.2201 153.941 78.1938Z" fill="#32B768"/>
<path d="M147.216 92.8264C147.216 92.8264 142.987 69.7409 135.057 72.0716C127.128 74.4024 136.268 92.4626 147.216 92.8264Z" fill="#32B768"/>
<path d="M139.377 115.508C139.377 115.508 138.349 89.1311 129.038 91.1038C119.726 93.0763 130.686 113.922 139.377 115.508Z" fill="#32B768"/>
<path d="M132.738 142.237C132.738 142.237 135.165 116.901 126.479 117.788C117.793 118.669 123.909 141.845 132.738 142.237Z" fill="#32B768"/>
<path d="M129.276 156.648C129.276 156.648 127.315 140.469 121.306 141.072C115.298 141.669 120.004 154.3 129.276 156.648Z" fill="#32B768"/>
<path d="M153.942 78.1939C153.942 78.1939 169.29 63.3512 175.373 67.5693C181.45 71.7872 162.23 82.7417 153.942 78.1939Z" fill="#32B768"/>
<path d="M147.216 92.8261C147.216 92.8261 161.855 76.9204 168.222 83.7193C174.589 90.5181 156.529 95.0375 147.216 92.8261Z" fill="#32B768"/>
<path d="M139.379 115.508C139.379 115.508 148.502 115.923 155.562 111.313C162.623 106.703 163.509 102.877 162.526 101.115C161.542 99.3525 148.105 99.4036 139.379 115.508Z" fill="#32B768"/>
<path d="M132.738 142.237C132.738 142.237 144.078 118.669 153.69 123.182C163.31 127.69 143.76 142.072 132.738 142.237Z" fill="#32B768"/>
<path d="M129.277 156.648C129.277 156.648 132.802 148.78 138.98 146.33C145.166 143.875 155.421 152.294 129.277 156.648Z" fill="#32B768"/>
<path d="M179.375 210.159V278.598C179.375 280.763 177.619 282.525 175.448 282.525H77.2731C75.1073 282.525 73.3451 280.769 73.3451 278.598V210.159C73.3451 207.994 75.1016 206.232 77.2731 206.232H175.448C177.619 206.237 179.375 207.994 179.375 210.159Z" fill="white"/>
</svg>
