<svg width="254" height="324" viewBox="0 0 254 324" fill="none" xmlns="http://www.w3.org/2000/svg">
<path d="M124.625 288.13C166.189 288.13 199.884 286.045 199.884 283.471C199.884 280.898 166.189 278.812 124.625 278.812C83.0614 278.812 49.367 280.898 49.367 283.471C49.367 286.045 83.0614 288.13 124.625 288.13Z" fill="#D3E0D7"/>
<path d="M92.3589 76.2967C92.3589 76.2967 78.2899 56.748 65.4116 64.8518C52.5332 72.9557 57.7817 82.2618 49.9091 85.1172C42.0364 87.9727 36.0828 86.308 35.3661 94.6546C34.6493 103.001 25.112 102.527 27.9789 113.013C30.8343 123.498 15.1007 125.382 28.4529 144.943L92.3589 76.2967Z" fill="#32B768"/>
<path fill-rule="evenodd" clip-rule="evenodd" d="M68.5791 92.1812C70.6484 93.0136 72.7409 94.921 74.6715 96.4469C80.8678 101.198 87.8156 107.383 92.7519 114.204C96.6825 118.77 99.457 123.128 103.249 129.66C104.867 132.493 106.543 135.255 107.931 138.053C113.85 150.203 117.826 162.376 121.017 175.59C121.341 176.942 121.676 178.41 121.977 179.948C122.682 183.474 123.41 187.855 123.156 191.37C123.04 193.289 122.555 194.954 121.988 196.086C121.422 197.23 120.74 197.844 120.289 197.855C120.196 196.503 120.462 194.445 120.497 191.937C120.543 189.439 120.335 186.503 119.826 183.648C118 173.983 114.301 160.596 110.925 151.66C108.382 144.769 105.295 137.983 101.942 131.718C98.5321 125.279 94.5669 119.348 90.3011 113.799C87.1913 109.753 84.0585 105.892 80.5673 102.424C76.7638 98.7128 72.7986 95.3024 68.5791 92.1812Z" fill="#1C663A"/>
<path d="M30.7874 166.492C30.7874 166.492 48.0471 112.17 97.7338 91.9389C97.7338 91.9389 101.803 77.8004 96.601 70.0087C91.3988 62.217 78.0697 67.4076 74.6015 77.8004C71.1334 88.1932 71.0294 85.4188 65.0179 88.3667C59.0065 91.3146 61.0874 102.921 52.602 102.401C44.1166 101.881 37.0069 105.002 35.4463 112.447C33.8857 119.892 37.1805 130.285 33.0187 133.579C28.8685 136.874 19.5508 152.285 30.7874 166.492Z" fill="#278F51"/>
<path d="M189.409 74.1929C189.409 74.1929 201.998 56.8755 214.633 59.9852C227.27 63.095 216.182 90.0076 222.598 97.5334C229.014 105.059 233.478 114.967 229.79 120.793C226.101 126.619 223.188 127.394 222.992 131.094C222.795 134.781 225.131 150.514 211.535 151.301C197.929 152.063 189.409 74.1929 189.409 74.1929Z" fill="#32B768"/>
<path fill-rule="evenodd" clip-rule="evenodd" d="M187.398 97.2673C185.618 98.539 182.994 99.3367 180.878 100.493C174.093 104.123 167.283 109.972 161.353 115.487C157.445 119.799 154.035 123.394 149.781 129.324C147.954 131.891 146.428 134.607 144.879 137.163C141.515 142.711 138.591 148.307 135.908 154.029C133.226 159.751 130.73 165.578 128.914 171.786C128.556 173.057 128.162 174.433 127.827 175.866C127.007 179.161 126.556 183.196 126.394 186.341C126.163 189.774 125.77 192.456 124.88 192.907C124.567 192.317 124.302 191.474 124.082 190.467C123.92 189.45 123.747 188.26 123.747 186.953C123.666 184.34 123.966 181.323 124.452 178.399C125.261 173.485 126.972 167.774 129.18 162.364C131.388 156.942 133.897 151.763 136.081 147.544C139.434 141.081 143.191 134.688 147.387 128.966C151.677 123.105 156.324 117.671 161.526 112.978C165.318 109.556 169.375 106.712 173.503 104.088C175.723 102.701 177.988 101.429 180.301 100.273C182.6 99.1517 184.971 98.146 187.398 97.2673Z" fill="#1C663A"/>
<path d="M196.046 174.076C196.046 174.076 198.347 157.197 191.109 137.671C183.873 118.146 175.099 100.597 175.099 83.4874C175.099 66.378 174.66 52.7829 189.353 55.8464C204.046 58.9215 200.544 80.632 207.78 90.5046C215.018 100.377 220.716 117.267 218.093 127.799C215.456 138.33 215.676 137.671 215.896 149.289C216.115 160.919 196.046 174.076 196.046 174.076Z" fill="#278F51"/>
<path fill-rule="evenodd" clip-rule="evenodd" d="M128.197 86.6088C127.781 88.5047 126.613 90.5971 126.047 92.6664C124.174 99.2096 124.405 107.14 123.619 114.273C123.584 119.429 123.11 123.787 122.833 130.238C122.729 133.024 122.821 135.775 122.764 138.434C122.475 149.926 122.486 160.746 123.157 172.284C123.226 173.462 123.295 174.734 123.365 176.051C123.457 177.566 123.619 179.23 123.758 180.872C123.92 182.514 124.081 184.132 124.162 185.554C124.382 188.675 123.897 191.115 123.018 191.509C122.394 190.479 121.954 188.641 121.596 186.41C121.284 184.178 121.018 181.578 120.798 179.034C119.931 170.445 119.735 158.468 119.897 150.145C120.001 143.763 120.209 137.29 120.625 131.116C121.053 124.781 121.457 118.62 122.035 112.55C122.463 108.134 123.053 103.845 123.827 99.6026C124.66 95.0826 125.977 90.6087 128.197 86.6088Z" fill="#1C663A"/>
<path d="M165.088 86.7364C161.99 93.8345 161.747 92.2738 161.747 97.5338C161.747 102.794 156.984 108.724 152.925 112.308C148.88 115.88 150.07 136.388 146.013 139.105C141.966 141.822 135.041 132.805 125.99 126.377C116.927 119.938 121.701 105.152 115.505 101.337C109.308 97.5223 104.777 91.5687 107.632 77.4997C110.499 63.4307 91.6555 55.558 109.782 43.1652C127.909 30.7724 137.921 50.3211 137.921 50.3211C138.556 43.2114 149.966 34.1249 158.197 36.3561C166.429 38.5872 167.48 46.5062 166.764 51.0378C166.047 55.5695 167.237 55.8007 169.145 61.7659C171.053 67.7195 168.197 79.6383 165.088 86.7364Z" fill="#278F51"/>
<path d="M165.088 86.7358C161.988 93.8338 161.747 92.2732 161.747 97.5332C161.747 102.793 156.984 108.724 152.925 112.307C148.88 115.88 150.07 136.388 146.012 139.104C130.093 109.498 137.909 50.3089 137.909 50.3089C138.544 43.1992 149.955 34.1127 158.186 36.3439C166.417 38.575 167.469 46.4939 166.753 51.0256C166.035 55.5573 167.226 55.7885 169.133 61.7537C171.053 67.7189 168.197 79.6377 165.088 86.7358Z" fill="#32B768"/>
<path d="M153.676 281.727H93.4236C93.4236 281.727 67.482 265.843 72.083 236.548C73.5049 227.497 75.5627 219.046 77.7361 211.694C81.6203 198.538 85.8399 188.873 87.3774 185.521C87.7358 184.735 88.5219 184.238 89.389 184.238H157.723C158.589 184.238 159.365 184.735 159.734 185.521C161.272 188.873 165.503 198.538 169.375 211.694C171.549 219.046 173.607 227.497 175.029 236.548C179.63 265.843 153.676 281.727 153.676 281.727Z" fill="white"/>
<path d="M169.375 211.693C162.508 210.734 162.197 199.254 154.728 199.254C146.936 199.254 146.936 211.762 139.145 211.762C131.353 211.762 131.353 199.254 123.561 199.254C115.769 199.254 115.769 211.762 107.978 211.762C100.186 211.762 100.186 199.254 92.3942 199.254C84.9262 199.254 84.6141 210.734 77.7472 211.693C81.6315 198.537 85.851 188.872 87.3886 185.519C87.7469 184.734 88.533 184.236 89.4001 184.236H157.733C158.601 184.236 159.375 184.734 159.745 185.519C161.271 188.872 165.49 198.537 169.375 211.693Z" fill="#AFE1C4"/>
</svg>
