<svg width="254" height="324" viewBox="0 0 254 324" fill="none" xmlns="http://www.w3.org/2000/svg">
<g clip-path="url(#clip0)">
<path d="M21.3805 200.722C21.8569 200.298 22.586 200.34 23.0108 200.816C23.0253 200.832 23.0391 200.849 23.0527 200.866C24.2237 202.257 51.6813 235.213 45.3156 264.007C45.1734 264.648 44.5391 265.052 43.8983 264.91C43.2578 264.767 42.8536 264.133 42.9961 263.492C49.1408 235.811 21.5649 202.706 21.2095 202.43C20.7808 201.958 20.8157 201.228 21.2874 200.799C21.306 200.783 21.3246 200.766 21.3439 200.751L21.3805 200.722Z" fill="#278F51"/>
<path d="M29.3739 214.618C29.3739 214.618 40.7937 227.491 24.5592 237.762C24.5444 237.706 16.8586 221.155 29.3739 214.618Z" fill="#32B768"/>
<path d="M30.8449 212.706C30.8449 212.706 38.2872 228.234 53.9386 217.057C53.9389 217.057 41.679 203.591 30.8449 212.706Z" fill="#32B768"/>
<path d="M38.5778 231.456C38.5778 231.456 46.2292 245.247 29.5712 251.169C29.5716 251.169 26.0388 234.803 38.5778 231.456Z" fill="#32B768"/>
<path d="M40.2615 230.059C40.2615 230.059 43.7986 245.479 60.0563 238.603C60.0563 238.603 51.759 224.062 40.2615 230.059Z" fill="#32B768"/>
<path d="M43.8596 250.935C43.8596 250.935 47.3145 264.332 31.9159 265.677C31.9153 265.678 32.4906 251.024 43.8596 250.935Z" fill="#32B768"/>
<path d="M45.6006 250.123C45.6006 250.123 45.2284 263.97 60.5205 261.708C60.5286 261.715 56.7128 247.54 45.6006 250.123Z" fill="#32B768"/>
<path d="M44.6019 262.592C44.6019 262.592 51.9749 277.57 34.1147 283.026C34.1152 283.026 31.1721 265.524 44.6019 262.592Z" fill="#32B768"/>
<path d="M158.987 107.948C158.799 107.247 159.211 106.526 159.911 106.333C161.867 105.809 207.903 93.4735 233.97 113.325C234.513 113.812 234.557 114.647 234.071 115.19C233.635 115.675 232.91 115.77 232.364 115.412C207.301 96.3693 161.077 108.745 160.611 108.87C159.908 109.064 159.18 108.652 158.987 107.948V107.948Z" fill="#278F51"/>
<path d="M198.001 104.94C198.001 104.94 215.501 103.694 213.673 123.205C213.673 123.205 195.529 119.144 198.001 104.94Z" fill="#32B768"/>
<path d="M197.381 102.59C197.381 102.59 214.568 106.209 215.225 86.6113C215.226 86.6112 196.723 88.1761 197.381 102.59V102.59Z" fill="#32B768"/>
<path d="M220.111 108.716C220.111 108.716 235.226 111.492 229.404 127.643C229.396 127.615 214.902 120.191 220.111 108.716V108.716Z" fill="#32B768"/>
<path d="M220.091 106.555C220.091 106.555 233.897 113.385 238.736 96.9184C238.736 96.9184 222.696 94.1909 220.091 106.555Z" fill="#32B768"/>
<path d="M232.206 113.369C232.206 113.369 250.795 112.909 247.877 133.491C247.877 133.491 228.905 128.315 232.206 113.369Z" fill="#32B768"/>
<path d="M116.456 130.055C116.685 130.535 117.26 130.74 117.741 130.511C117.757 130.503 117.773 130.495 117.789 130.486C119.141 129.795 150.946 113.328 155.375 89.108C155.473 88.569 155.115 88.0525 154.576 87.9546C154.037 87.8565 153.521 88.2137 153.423 88.753C149.185 112.045 117.24 128.588 116.877 128.685C116.395 128.91 116.185 129.483 116.409 129.965C116.418 129.984 116.427 130.003 116.437 130.021L116.456 130.055Z" fill="#278F51"/>
<path d="M100.626 147.766C101.128 147.944 101.678 147.682 101.857 147.18C101.863 147.163 101.868 147.146 101.873 147.128C102.34 145.683 113.173 111.546 99.1702 91.2934C98.8583 90.8431 98.2405 90.7307 97.7899 91.043C97.3396 91.3549 97.2272 91.9727 97.5395 92.4232C111.02 111.885 100.143 146.175 99.9551 146.5C99.7726 147 100.03 147.553 100.53 147.736C100.549 147.743 100.569 147.75 100.589 147.756L100.626 147.766Z" fill="#278F51"/>
<path d="M113.498 142.962C113.1 143.103 112.664 142.895 112.523 142.497C112.518 142.484 112.514 142.47 112.51 142.457C112.141 141.312 103.562 114.278 114.651 98.2388C114.898 97.8822 115.387 97.7932 115.744 98.0405C116.1 98.2875 116.189 98.7768 115.942 99.1336C105.266 114.546 113.88 141.701 114.029 141.959C114.174 142.355 113.97 142.793 113.574 142.938C113.559 142.944 113.543 142.949 113.527 142.954L113.498 142.962Z" fill="#278F51"/>
<path d="M132.5 133.461C132.103 133.602 131.667 133.394 131.526 132.996C131.521 132.983 131.516 132.969 131.512 132.955C131.143 131.811 122.564 104.776 133.653 88.7377C133.9 88.3811 134.389 88.292 134.746 88.5393C135.103 88.7863 135.192 89.2756 134.944 89.6324C124.269 105.045 132.883 132.2 133.031 132.458C133.176 132.854 132.972 133.292 132.576 133.437C132.561 133.442 132.546 133.448 132.53 133.453L132.5 133.461Z" fill="#278F51"/>
<path d="M162.457 110.629C162.091 110.419 161.965 109.953 162.174 109.587C162.181 109.575 162.189 109.563 162.197 109.551C162.824 108.525 177.742 84.4013 197.134 82.3625C197.565 82.3175 197.952 82.6307 197.997 83.0625C198.042 83.4939 197.728 83.8803 197.297 83.9251C178.649 85.8694 163.663 110.098 163.564 110.379C163.358 110.747 162.893 110.878 162.525 110.672C162.511 110.663 162.497 110.655 162.483 110.646L162.457 110.629Z" fill="#278F51"/>
<path d="M127.108 121.95C127.108 121.95 140.066 115.744 130.9 102.581C130.871 102.619 119.595 112.866 127.108 121.95Z" fill="#32B768"/>
<path d="M127.621 123.899C127.621 123.899 138.378 114.36 146.802 128.031C146.802 128.031 133.005 134.423 127.621 123.899Z" fill="#32B768"/>
<path d="M139.645 111.975C139.645 111.975 150.001 103.841 139.1 93.8876C139.1 93.8875 131.08 105.338 139.645 111.975Z" fill="#32B768"/>
<path d="M140.488 113.595C140.488 113.595 148.205 102.875 158.489 113.433C158.489 113.433 147.394 121.934 140.488 113.595Z" fill="#32B768"/>
<path d="M150.019 98.6963C150.019 98.6963 157.018 89.5053 145.604 83.4824C145.604 83.4815 141.3 94.9446 150.019 98.6963Z" fill="#32B768"/>
<path d="M151.096 99.8844C151.096 99.8844 155.295 89.1087 166.331 95.8025C166.339 95.8002 158.811 105.472 151.096 99.8844Z" fill="#32B768"/>
<path d="M154.367 89.9661C154.367 89.9661 164.892 80.8281 152.916 70.8441C152.916 70.844 144.982 83.3592 154.367 89.9661Z" fill="#32B768"/>
<path d="M34.541 145.24C34.1021 144.939 33.5025 145.049 33.2002 145.488C33.1899 145.503 33.1801 145.518 33.1706 145.534C32.3456 146.808 13.0349 176.971 21.3097 200.161C21.4942 200.677 22.0618 200.945 22.5779 200.76C23.0936 200.576 23.3623 200.008 23.1775 199.492C15.2019 177.202 34.595 146.903 34.8606 146.637C35.1665 146.201 35.0616 145.601 34.6261 145.294C34.609 145.283 34.5919 145.271 34.5742 145.26L34.541 145.24Z" fill="#278F51"/>
<path d="M29.3678 157.585C29.3678 157.585 21.2494 169.439 35.7687 176.256C35.7751 176.208 40.4168 161.696 29.3678 157.585Z" fill="#32B768"/>
<path d="M27.95 156.154C27.95 156.154 23.4035 169.794 9.27275 162.166C9.27244 162.166 18.0249 149.733 27.95 156.154Z" fill="#32B768"/>
<path d="M23.4985 172.493C23.4985 172.493 18.5975 184.715 33.0143 187.884C33.014 187.885 34.2346 173.959 23.4985 172.493Z" fill="#32B768"/>
<path d="M21.958 171.511C21.958 171.511 20.6352 184.654 6.45052 180.652C6.45052 180.652 11.8084 167.742 21.958 171.511Z" fill="#32B768"/>
<path d="M21.1535 189.179C21.1535 189.179 19.688 200.638 32.5844 200.147C32.585 200.148 30.5809 188.069 21.1535 189.179Z" fill="#32B768"/>
<path d="M19.6267 188.689C19.6267 188.689 21.3783 200.121 8.47454 199.841C8.46844 199.847 10.152 187.707 19.6267 188.689Z" fill="#32B768"/>
<path d="M21.7536 198.914C21.7536 198.914 17.2071 212.09 32.5712 214.748C32.5709 214.749 33.1845 199.943 21.7536 198.914Z" fill="#32B768"/>
<path d="M102.423 134.502C102.423 134.502 107.191 120.949 91.4013 118.129C91.4076 118.177 90.6858 133.396 102.423 134.502Z" fill="#32B768"/>
<path d="M104.163 135.517C104.163 135.517 105.019 121.165 120.644 124.87C120.644 124.87 115.413 139.147 104.163 135.517Z" fill="#32B768"/>
<path d="M104.228 118.583C104.228 118.583 105.793 105.508 91.0477 106.184C91.0479 106.184 93.4785 119.95 104.228 118.583Z" fill="#32B768"/>
<path d="M105.97 119.132C105.97 119.132 103.841 106.096 118.578 106.284C118.578 106.284 116.75 120.142 105.97 119.132Z" fill="#32B768"/>
<path d="M102.168 101.859C102.168 101.859 100.613 90.4117 88.2845 94.2286C88.2837 94.2281 93.3502 105.375 102.168 101.859Z" fill="#32B768"/>
<path d="M103.769 101.937C103.769 101.937 99.1146 91.3499 111.65 88.2752C111.654 88.2678 113.175 100.429 103.769 101.937Z" fill="#32B768"/>
<path d="M99.0648 92.6129C99.0648 92.6129 100.041 78.708 84.5128 80.1231C84.513 80.1227 87.7578 94.5814 99.0648 92.6129Z" fill="#32B768"/>
<path d="M112.075 132.458C112.075 132.458 108.299 121.724 120.803 119.491C120.798 119.529 121.37 131.582 112.075 132.458Z" fill="#32B768"/>
<path d="M110.697 133.261C110.697 133.261 110.019 121.896 97.6449 124.829C97.6446 124.829 101.787 136.136 110.697 133.261Z" fill="#32B768"/>
<path d="M110.646 119.85C110.646 119.85 109.406 109.496 121.083 110.031C121.083 110.031 119.158 120.933 110.646 119.85Z" fill="#32B768"/>
<path d="M109.266 120.285C109.266 120.285 110.952 109.961 99.2808 110.11C99.2808 110.11 100.729 121.085 109.266 120.285Z" fill="#32B768"/>
<path d="M112.277 106.606C112.277 106.606 113.508 97.5405 123.272 100.563C123.272 100.563 119.26 109.391 112.277 106.606Z" fill="#32B768"/>
<path d="M111.009 106.668C111.009 106.668 114.695 98.2836 104.768 95.8486C104.764 95.8427 103.56 105.474 111.009 106.668Z" fill="#32B768"/>
<path d="M114.734 99.2837C114.734 99.2837 113.961 88.272 126.259 89.3926C126.258 89.3923 123.689 100.843 114.734 99.2837Z" fill="#32B768"/>
<path d="M131.077 122.957C131.077 122.957 127.301 112.223 139.806 109.99C139.801 110.028 140.372 122.081 131.077 122.957Z" fill="#32B768"/>
<path d="M129.699 123.76C129.699 123.76 129.021 112.394 116.647 115.328C116.647 115.328 120.789 126.635 129.699 123.76Z" fill="#32B768"/>
<path d="M129.648 110.349C129.648 110.349 128.408 99.995 140.086 100.53C140.085 100.53 138.161 111.432 129.648 110.349Z" fill="#32B768"/>
<path d="M128.268 110.784C128.268 110.784 129.954 100.46 118.283 100.609C118.283 100.609 119.731 111.584 128.268 110.784Z" fill="#32B768"/>
<path d="M131.279 97.1049C131.279 97.1049 132.51 88.0394 142.274 91.0621C142.274 91.0618 138.262 99.8896 131.279 97.1049Z" fill="#32B768"/>
<path d="M130.011 97.1666C130.011 97.1666 133.697 88.7824 123.77 86.3474C123.767 86.3415 122.562 95.9727 130.011 97.1666Z" fill="#32B768"/>
<path d="M133.737 89.7826C133.737 89.7826 132.964 78.7708 145.261 79.8914C145.261 79.8911 142.691 91.3416 133.737 89.7826Z" fill="#32B768"/>
<path d="M169.498 102.705C169.498 102.705 175.179 92.8472 185.021 100.877C184.989 100.898 176.219 109.185 169.498 102.705Z" fill="#32B768"/>
<path d="M167.99 102.184C167.99 102.184 176.17 94.2635 165.882 86.7886C165.882 86.7885 160.005 97.298 167.99 102.184Z" fill="#32B768"/>
<path d="M178.13 93.4065C178.13 93.4065 185.177 85.7191 192.38 94.926C192.38 94.9257 182.856 100.569 178.13 93.4065Z" fill="#32B768"/>
<path d="M176.901 92.643C176.901 92.643 185.831 87.1949 178.113 78.4389C178.113 78.4389 170.732 86.6882 176.901 92.643Z" fill="#32B768"/>
<path d="M189.24 86.014C189.24 86.014 196.919 81.0409 200.988 90.4166C200.988 90.4168 191.678 93.1254 189.24 86.014Z" fill="#32B768"/>
<path d="M188.367 85.0919C188.367 85.0919 197.129 82.4251 192.507 73.3081C192.509 73.3016 184.419 78.6638 188.367 85.0919Z" fill="#32B768"/>
<path d="M196.396 83.1067C196.396 83.1067 204.245 75.3452 211.408 85.4037C211.408 85.4034 201.048 90.9152 196.396 83.1067Z" fill="#32B768"/>
<path d="M98.7411 109.365C98.9688 108.742 98.6494 108.053 98.026 107.824C98.0051 107.816 97.9837 107.809 97.962 107.803C96.1681 107.203 53.7801 93.2681 28.3698 110.451C27.8048 110.834 27.6568 111.602 28.04 112.167C28.4228 112.732 29.191 112.88 29.7563 112.497C54.1743 95.9543 96.7519 109.946 97.1549 110.184C97.7757 110.418 98.4681 110.105 98.7024 109.485C98.711 109.46 98.7197 109.436 98.7275 109.411L98.7411 109.365Z" fill="#278F51"/>
<path d="M82.2403 106.956C82.2403 106.956 65.4178 100.841 61.7011 120.475C61.7609 120.468 80.7112 121.563 82.2403 106.956Z" fill="#32B768"/>
<path d="M83.5271 104.801C83.5271 104.801 65.6588 103.55 70.4749 84.1323C70.4752 84.1318 88.1934 90.8321 83.5271 104.801Z" fill="#32B768"/>
<path d="M62.4316 104.502C62.4316 104.502 46.1637 102.383 46.8157 120.762C46.8152 120.761 63.9965 117.911 62.4316 104.502Z" fill="#32B768"/>
<path d="M63.138 102.339C63.138 102.339 46.8703 104.823 47.2947 86.4663C47.2947 86.4663 64.5346 88.9227 63.138 102.339Z" fill="#32B768"/>
<path d="M41.5706 106.853C41.5706 106.853 27.2899 108.642 31.8861 124.05C31.8856 124.051 45.8376 117.883 41.5706 106.853Z" fill="#32B768"/>
<path d="M41.6884 104.859C41.6884 104.859 28.4396 110.521 24.7707 94.8656C24.7615 94.8601 39.9315 93.1225 41.6884 104.859Z" fill="#32B768"/>
<path d="M30.0123 110.599C30.0123 110.599 12.7026 109.205 14.2654 128.567C14.2649 128.567 32.319 124.711 30.0123 110.599Z" fill="#32B768"/>
<g clip-path="url(#clip1)">
<path d="M122.845 64.5298V42.8253C122.845 42.291 122.633 41.7785 122.255 41.4007C121.878 41.0228 121.365 40.8105 120.831 40.8105C120.296 40.8105 119.784 41.0228 119.406 41.4007C119.028 41.7785 118.816 42.291 118.816 42.8253V64.5298L79.1112 104.235L81.9601 107.084L118.816 70.2284V105.695C118.816 106.23 119.028 106.742 119.406 107.12C119.784 107.498 120.296 107.71 120.831 107.71C121.365 107.71 121.878 107.498 122.255 107.12C122.633 106.742 122.845 106.23 122.845 105.695V70.2284L159.701 107.084L162.55 104.235L122.845 64.5298Z" fill="#AFE1C4"/>
<path d="M58.8959 104.485C58.8959 138.691 86.627 167.913 120.829 167.913C155.032 167.913 182.763 138.691 182.763 104.485H58.8959Z" fill="white"/>
<path d="M166.127 104.485C162.189 135.097 136.194 159.856 104.712 159.856C98.4623 159.859 92.2519 158.874 86.3099 156.939C96.4125 164.063 108.468 167.896 120.83 167.915C155.036 167.915 182.763 138.693 182.763 104.487L166.127 104.485Z" fill="#D3E0D7"/>
<path d="M59.2019 103.29C58.8088 102.9 58.175 102.9 57.7821 103.29C56.6944 104.386 31.0836 130.195 34.351 154.977C34.4683 155.52 35.0043 155.867 35.5479 155.75C36.0342 155.645 36.3715 155.201 36.3415 154.704C33.229 130.894 58.938 104.976 59.1972 104.715C59.5917 104.323 59.5943 103.685 59.2019 103.29V103.29Z" fill="#278F51"/>
<path d="M42.4278 127.983C42.4278 127.983 34.9718 139.099 48.5835 145.281C48.5835 145.281 52.7696 131.728 42.4278 127.983Z" fill="#32B768"/>
<path d="M41.1068 126.682C41.1068 126.682 36.9907 139.433 23.7654 132.443C23.7652 132.443 31.8119 120.785 41.1068 126.682V126.682Z" fill="#32B768"/>
<path d="M36.5506 144.053C36.5506 144.053 32.6616 155.114 45.5618 157.378C45.5462 157.362 46.1224 144.952 36.5506 144.053V144.053Z" fill="#32B768"/>
<path d="M35.1276 143.222C35.1276 143.222 34.4186 154.951 21.682 151.916C21.682 151.916 25.9536 140.262 35.1276 143.222Z" fill="#32B768"/>
<path d="M35.0488 153.825C35.0488 153.825 27.7008 165.959 42.4349 171.826C42.4351 171.826 46.1963 157.302 35.0488 153.825Z" fill="#32B768"/>
<path d="M183.448 102.799C183.868 102.381 184.546 102.382 184.964 102.802C184.978 102.816 184.992 102.831 185.005 102.846C186.162 104.075 213.303 133.215 208.879 160.232C208.78 160.833 208.213 161.24 207.612 161.141C207.011 161.042 206.604 160.475 206.703 159.873C210.979 133.9 183.721 104.628 183.377 104.39C182.956 103.975 182.95 103.297 183.366 102.875C183.382 102.859 183.398 102.843 183.416 102.827L183.448 102.799Z" fill="#278F51"/>
<path d="M191.57 115.27C191.57 115.27 202.815 126.616 188.294 136.969C188.277 136.918 180.305 121.97 191.57 115.27Z" fill="#32B768"/>
<path d="M192.835 113.421C192.835 113.421 200.53 127.433 214.465 116.27C214.465 116.27 202.41 104.417 192.835 113.421Z" fill="#32B768"/>
<path d="M200.965 130.405C200.965 130.405 208.764 142.796 193.627 149.139C193.628 149.139 189.514 134.15 200.965 130.405Z" fill="#32B768"/>
<path d="M202.454 129.023C202.454 129.023 206.523 143.135 221.24 135.928C221.24 135.928 212.804 122.875 202.454 129.023Z" fill="#32B768"/>
<path d="M206.859 148.189C206.859 148.189 210.749 160.431 196.544 162.467C196.544 162.468 196.326 148.855 206.859 148.189Z" fill="#32B768"/>
<path d="M208.432 147.348C208.432 147.348 208.797 160.201 222.855 157.321C222.863 157.326 218.599 144.383 208.432 147.348Z" fill="#32B768"/>
<path d="M208.145 158.956C208.145 158.956 215.747 172.462 199.472 178.435C199.473 178.435 195.847 162.363 208.145 158.956Z" fill="#32B768"/>
<path d="M207.579 143.783C206.905 143.51 206.139 143.834 205.865 144.508C205.856 144.53 205.847 144.554 205.839 144.577C205.115 146.518 188.273 192.398 206.131 220.859C206.529 221.492 207.364 221.682 207.997 221.284C208.63 220.886 208.821 220.051 208.422 219.418C191.228 192.067 208.14 145.982 208.416 145.55C208.695 144.879 208.378 144.109 207.708 143.83C207.682 143.819 207.656 143.809 207.629 143.799L207.579 143.783Z" fill="#278F51"/>
<path d="M204.323 161.756C204.323 161.756 196.998 179.942 218.353 184.747C218.347 184.681 220.256 163.977 204.323 161.756Z" fill="#32B768"/>
<path d="M202.012 160.267C202.012 160.267 199.973 179.78 178.897 173.78C178.897 173.78 186.895 154.635 202.012 160.267Z" fill="#32B768"/>
<path d="M200.895 183.349C200.895 183.349 197.966 201.078 218.109 201.053C218.109 201.053 215.632 182.138 200.895 183.349Z" fill="#32B768"/>
<path d="M198.553 182.494C198.553 182.494 200.663 200.395 180.584 199.243C180.584 199.243 183.919 180.463 198.553 182.494Z" fill="#32B768"/>
<path d="M202.687 206.273C202.687 206.273 204.11 221.973 221.149 217.519C221.15 217.52 214.921 202.015 202.687 206.273Z" fill="#32B768"/>
<path d="M200.508 206.07C200.508 206.07 206.21 220.785 188.934 224.215C188.928 224.225 187.594 207.553 200.508 206.07Z" fill="#32B768"/>
<path d="M206.354 219.066C206.354 219.066 204.179 237.963 225.434 236.978C225.433 236.978 221.889 217.07 206.354 219.066Z" fill="#32B768"/>
<path d="M60.0391 103.051C59.673 102.84 59.2058 102.965 58.9946 103.332C58.9873 103.344 58.9806 103.357 58.9741 103.369C58.4024 104.429 45.0425 129.502 53.0534 147.315C53.2319 147.711 53.6978 147.887 54.0941 147.708C54.4902 147.53 54.6668 147.064 54.488 146.668C46.7706 129.547 60.187 104.362 60.3803 104.135C60.5945 103.771 60.4736 103.303 60.1098 103.088C60.0956 103.08 60.0813 103.072 60.0666 103.064L60.0391 103.051Z" fill="#278F51"/>
<path d="M56.73 113.14C56.73 113.14 51.061 123.027 62.973 127.497C62.9751 127.459 65.7267 115.691 56.73 113.14Z" fill="#32B768"/>
<path d="M55.5182 112.098C55.5182 112.098 52.7865 123.171 41.1304 118.034C41.1302 118.034 47.2638 107.649 55.5182 112.098Z" fill="#32B768"/>
<path d="M53.0326 125.299C53.0326 125.299 49.931 135.273 61.5311 136.867C61.5309 136.867 61.6145 125.778 53.0326 125.299Z" fill="#32B768"/>
<path d="M51.7524 124.62C51.7524 124.62 51.5384 135.096 40.0691 132.829C40.0691 132.829 43.4884 122.282 51.7524 124.62Z" fill="#32B768"/>
<path d="M52.2346 138.642C52.2346 138.642 51.8011 147.795 61.9674 146.59C61.9679 146.591 59.6186 137.167 52.2346 138.642Z" fill="#32B768"/>
<path d="M50.9963 138.35C50.9963 138.35 53.1049 147.279 42.8842 147.874C42.8797 147.88 43.4425 138.174 50.9963 138.35Z" fill="#32B768"/>
<path d="M53.3253 146.3C53.3253 146.3 50.5643 157.007 62.8811 158.136C62.8809 158.137 62.4289 146.391 53.3253 146.3Z" fill="#32B768"/>
<path d="M52.7321 144.388C52.4061 144.355 52.1146 144.591 52.0808 144.917C52.0795 144.928 52.0787 144.939 52.0782 144.951C52.0083 145.882 50.4693 167.874 61.7782 177.963C62.03 178.187 62.4159 178.165 62.6402 177.913C62.8645 177.661 62.8423 177.275 62.5902 177.051C51.7082 167.359 53.2515 145.27 53.3167 145.049C53.3535 144.723 53.1196 144.429 52.794 144.392C52.7814 144.391 52.7687 144.39 52.7559 144.389L52.7321 144.388Z" fill="#278F51"/>
<path d="M53.5773 152.584C53.5773 152.584 52.6865 161.382 62.5411 160.783C62.5305 160.756 60.7591 151.546 53.5773 152.584Z" fill="#32B768"/>
<path d="M52.3892 152.228C52.3892 152.228 53.9548 160.938 44.0709 160.984C44.0706 160.984 45.1332 151.686 52.3892 152.228Z" fill="#32B768"/>
<path d="M54.8021 162.369C54.8021 162.369 55.7582 170.417 64.482 167.878C64.4819 167.879 61.0349 159.995 54.8021 162.369Z" fill="#32B768"/>
<path d="M53.6802 162.292C53.6802 162.292 56.841 169.783 47.9971 171.804C47.9971 171.804 47.085 163.249 53.6802 162.292Z" fill="#32B768"/>
<path d="M58.4556 172.076C58.4556 172.076 61.0428 178.699 67.8658 174.631C67.8663 174.631 63.2216 168.696 58.4556 172.076Z" fill="#32B768"/>
<path d="M57.4861 172.261C57.4861 172.261 61.8034 177.921 54.7492 181.575C54.7477 181.58 52.0775 174.525 57.4861 172.261Z" fill="#32B768"/>
<path d="M61.6502 177.158C61.6502 177.158 63.0793 185.618 72.1641 182.524C72.1641 182.524 68.1298 174.344 61.6502 177.158Z" fill="#32B768"/>
<path d="M57.9049 171.27C58.2778 171.149 58.6778 171.352 58.7991 171.725C58.8034 171.738 58.8071 171.751 58.8105 171.764C59.1256 172.836 66.4329 198.168 55.7344 212.799C55.4961 213.124 55.0393 213.195 54.7138 212.956C54.3885 212.718 54.3178 212.261 54.5564 211.936C64.8553 197.877 57.5184 172.432 57.3866 172.188C57.262 171.817 57.462 171.415 57.8335 171.29C57.848 171.285 57.8625 171.281 57.8772 171.277L57.9049 171.27Z" fill="#278F51"/>
<path d="M58.969 181.065C58.969 181.065 62.2143 191.132 50.5399 192.9C50.5454 192.865 50.3105 181.651 58.969 181.065Z" fill="#32B768"/>
<path d="M60.2694 180.353C60.2694 180.353 60.6199 190.931 72.1901 188.509C72.1904 188.509 68.619 177.901 60.2694 180.353Z" fill="#32B768"/>
<path d="M59.9872 192.815C59.9872 192.815 60.8849 202.467 50.047 201.683C50.0472 201.683 52.1038 191.6 59.9872 192.815Z" fill="#32B768"/>
<path d="M61.2801 192.445C61.2801 192.445 59.4598 201.997 70.3082 202.145C70.3082 202.145 69.2324 191.912 61.2801 192.445Z" fill="#32B768"/>
<path d="M58.1458 205.082C58.1458 205.082 56.779 213.476 47.781 210.427C47.7804 210.427 51.7257 202.323 58.1458 205.082Z" fill="#32B768"/>
<path d="M59.3259 205.056C59.3259 205.056 55.6945 212.756 64.8591 215.263C64.8621 215.268 66.2178 206.349 59.3259 205.056Z" fill="#32B768"/>
<path d="M55.6826 211.826C55.6826 211.826 56.1301 222.077 44.7309 220.734C44.731 220.734 47.4003 210.157 55.6826 211.826Z" fill="#32B768"/>
<path d="M184.134 103.404C184.507 103.283 184.907 103.487 185.029 103.86C185.033 103.872 185.037 103.885 185.04 103.898C185.355 104.971 192.662 130.303 181.964 144.933C181.726 145.259 181.269 145.329 180.943 145.091C180.618 144.853 180.547 144.396 180.786 144.07C191.085 130.011 183.748 104.566 183.616 104.323C183.492 103.951 183.692 103.549 184.063 103.425C184.078 103.42 184.092 103.415 184.107 103.411L184.134 103.404Z" fill="#278F51"/>
<path d="M185.199 113.2C185.199 113.2 188.444 123.266 176.77 125.034C176.775 124.999 176.54 113.786 185.199 113.2Z" fill="#32B768"/>
<path d="M186.499 112.487C186.499 112.487 186.85 123.065 198.42 120.643C198.42 120.643 194.849 110.035 186.499 112.487Z" fill="#32B768"/>
<path d="M186.217 124.95C186.217 124.95 187.114 134.602 176.277 133.818C176.277 133.818 178.333 123.735 186.217 124.95Z" fill="#32B768"/>
<path d="M187.51 124.58C187.51 124.58 185.689 134.132 196.538 134.28C196.538 134.28 195.462 124.047 187.51 124.58Z" fill="#32B768"/>
<path d="M184.375 137.217C184.375 137.217 183.009 145.611 174.011 142.562C174.01 142.562 177.955 134.458 184.375 137.217Z" fill="#32B768"/>
<path d="M185.555 137.191C185.555 137.191 181.924 144.891 191.089 147.397C191.092 147.403 192.447 138.483 185.555 137.191Z" fill="#32B768"/>
<path d="M181.912 143.96C181.912 143.96 182.36 154.212 170.96 152.868C170.961 152.868 173.63 142.292 181.912 143.96Z" fill="#32B768"/>
<path d="M185.365 135.307C185.8 135.257 186.193 135.569 186.243 136.004C186.245 136.019 186.246 136.034 186.247 136.049C186.354 137.293 188.735 166.661 173.77 180.311C173.437 180.614 172.921 180.591 172.617 180.257C172.314 179.924 172.338 179.408 172.671 179.104C187.072 165.992 184.684 136.494 184.593 136.198C184.539 135.763 184.847 135.367 185.282 135.313C185.299 135.311 185.316 135.309 185.333 135.308L185.365 135.307Z" fill="#278F51"/>
<path d="M184.356 146.272C184.356 146.272 185.676 158.018 172.497 157.363C172.511 157.326 174.743 144.992 184.356 146.272Z" fill="#32B768"/>
<path d="M185.939 145.78C185.939 145.78 183.975 157.444 197.185 157.359C197.185 157.359 195.628 144.948 185.939 145.78Z" fill="#32B768"/>
<path d="M182.863 159.368C182.863 159.368 181.704 170.138 170.008 166.874C170.008 166.874 174.498 156.287 182.863 159.368Z" fill="#32B768"/>
<path d="M184.362 159.249C184.362 159.249 180.248 169.307 192.097 171.877C192.097 171.877 193.19 160.43 184.362 159.249Z" fill="#32B768"/>
<path d="M178.124 172.395C178.124 172.395 174.764 181.285 165.585 175.948C165.584 175.948 171.704 167.948 178.124 172.395Z" fill="#32B768"/>
<path d="M179.422 172.628C179.422 172.628 173.736 180.256 183.217 185.035C183.219 185.042 186.684 175.573 179.422 172.628Z" fill="#32B768"/>
<path d="M173.929 179.234C173.929 179.234 172.144 190.561 159.957 186.56C159.957 186.56 165.228 175.568 173.929 179.234Z" fill="#32B768"/>
</g>
<path d="M203.224 213.27C202.67 212.951 201.963 213.14 201.643 213.694C201.632 213.713 201.622 213.732 201.612 213.752C200.748 215.355 180.535 253.289 192.655 280.239C192.925 280.838 193.63 281.105 194.229 280.834C194.829 280.564 195.096 279.859 194.825 279.26C183.149 253.358 203.447 215.253 203.74 214.91C204.064 214.359 203.881 213.651 203.331 213.326C203.309 213.314 203.288 213.302 203.265 213.29L203.224 213.27Z" fill="#278F51"/>
<path d="M198.217 228.534C198.217 228.534 189.64 243.492 207.662 250.256C207.666 250.198 211.829 232.393 198.217 228.534Z" fill="#32B768"/>
<path d="M196.384 226.957C196.384 226.957 192.251 243.71 174.616 235.938C174.615 235.938 183.895 220.226 196.384 226.957Z" fill="#32B768"/>
<path d="M192.623 246.93C192.623 246.93 187.931 262.021 205.481 264.431C205.481 264.432 205.607 247.655 192.623 246.93Z" fill="#32B768"/>
<path d="M190.686 245.903C190.686 245.903 190.362 261.752 173.01 258.323C173.01 258.323 178.183 242.366 190.686 245.903Z" fill="#32B768"/>
<path d="M191.416 267.117C191.416 267.117 190.76 280.966 206.141 279.143C206.142 279.144 202.587 264.885 191.416 267.117Z" fill="#32B768"/>
<path d="M189.542 266.676C189.542 266.676 192.733 280.184 177.269 281.086C177.262 281.093 178.114 266.409 189.542 266.676Z" fill="#32B768"/>
<path d="M193.066 278.704C193.066 278.704 188.889 294.903 207.524 296.611C207.523 296.612 206.839 278.841 193.066 278.704Z" fill="#32B768"/>
<path d="M126.547 41.9118C127.033 39.0246 125.086 36.29 122.199 35.8039C119.312 35.3178 116.577 37.2643 116.091 40.1515C115.605 43.0387 117.551 45.7733 120.439 46.2594C123.326 46.7455 126.06 44.799 126.547 41.9118Z" fill="#E2F4EA"/>
</g>
<defs>
<clipPath id="clip0">
<rect width="254" height="324" fill="white"/>
</clipPath>
<clipPath id="clip1">
<rect width="206.311" height="206.311" fill="white" transform="translate(17.4847 32)"/>
</clipPath>
</defs>
</svg>
