<svg width="254" height="324" viewBox="0 0 254 324" fill="none" xmlns="http://www.w3.org/2000/svg">
<path d="M121.339 302.991C163.615 302.991 197.888 300.87 197.888 298.252C197.888 295.635 163.615 293.514 121.339 293.514C79.0623 293.514 44.7904 295.635 44.7904 298.252C44.7904 300.87 79.0623 302.991 121.339 302.991Z" fill="#D3E0D7"/>
<rect x="124.552" y="82.9965" width="2.61512" height="149.062" fill="#1C663A"/>
<rect x="145.473" y="116.993" width="2.61512" height="115.065" fill="#1C663A"/>
<rect x="107.553" y="126.146" width="2.61512" height="105.912" fill="#1C663A"/>
<path d="M172.495 169.296C162.279 212.29 151.151 233.303 137.353 237.345C132.379 222.09 145.567 199.775 172.495 169.296V169.296Z" fill="#32B768"/>
<path d="M160.727 171.911C150.511 214.905 139.383 235.918 125.585 239.96C120.611 224.705 133.799 202.39 160.727 171.911V171.911Z" fill="#42D57D"/>
<path d="M148.959 184.986C138.743 227.981 127.615 248.994 113.817 253.035C108.843 237.781 122.031 215.466 148.959 184.986V184.986Z" fill="#32B768"/>
<path d="M81.4021 173.218C106.808 204.971 118.897 227.905 113.19 242.897C99.6047 238.191 89.5125 216.664 81.4021 173.218V173.218Z" fill="#32B768"/>
<path d="M87.9399 171.911C113.346 203.664 125.435 226.598 119.728 241.59C106.142 236.883 96.0503 215.356 87.9399 171.911V171.911Z" fill="#42D57D"/>
<path d="M99.7079 179.756C125.114 211.509 137.203 234.443 131.495 249.435C117.91 244.728 107.818 223.201 99.7079 179.756V179.756Z" fill="#32B768"/>
<path d="M167.02 248.667V248.752L165.375 288.922C165.286 291.13 164.346 293.218 162.752 294.749C161.158 296.28 159.034 297.136 156.824 297.137H96.9001C94.6901 297.136 92.5661 296.28 90.9723 294.749C89.3785 293.218 88.4384 291.13 88.3488 288.922L86.699 248.752V248.667H167.02Z" fill="white"/>
<path d="M151.755 248.667L150.512 279.013C150.422 281.221 149.482 283.309 147.889 284.84C146.295 286.371 144.171 287.227 141.961 287.228H88.2794L88.3488 288.922C88.4384 291.13 89.3785 293.218 90.9722 294.749C92.566 296.28 94.6901 297.136 96.9001 297.137H156.824C159.034 297.136 161.158 296.28 162.752 294.749C164.346 293.218 165.286 291.13 165.375 288.922L167.02 248.752V248.667H151.755Z" fill="#F4F6F6"/>
<path d="M82.7653 231.822L83.7561 249.162H169.963L170.954 231.822H82.7653Z" fill="white"/>
<path d="M134.461 84.4554C134.813 84.4538 135.16 84.5327 135.476 84.6861C135.792 84.8395 136.069 85.0633 136.286 85.3403C136.502 85.6173 136.652 85.9402 136.724 86.2842C136.796 86.6281 136.788 86.9841 136.702 87.3246C136.068 89.7185 134.66 91.8355 132.697 93.3459C130.735 94.8563 128.328 95.6753 125.852 95.6754V91.0601C127.306 91.0604 128.719 90.581 129.873 89.6964C131.027 88.8118 131.856 87.5713 132.233 86.1671C132.365 85.6764 132.654 85.2426 133.057 84.9331C133.46 84.6236 133.953 84.4557 134.461 84.4554V84.4554Z" fill="#BF6EE5"/>
<path d="M125.852 91.0597V95.6749C123.376 95.6743 120.969 94.8551 119.007 93.3449C117.044 91.8346 115.636 89.7181 115.002 87.3246C114.856 86.7346 114.949 86.111 115.261 85.5892C115.572 85.0673 116.077 84.6892 116.665 84.5368C117.253 84.3845 117.878 84.4701 118.403 84.7752C118.929 85.0803 119.313 85.5803 119.472 86.1667C119.849 87.5705 120.678 88.8108 121.832 89.6954C122.985 90.5801 124.398 91.0596 125.852 91.0597V91.0597Z" fill="#BF6EE5"/>
<path d="M125.852 104.334V108.949C123.376 108.949 120.969 108.13 119.007 106.619C117.044 105.109 115.636 102.993 115.002 100.599C114.856 100.009 114.949 99.3856 115.261 98.8637C115.572 98.3419 116.077 97.9638 116.665 97.8114C117.253 97.659 117.878 97.7447 118.403 98.0498C118.929 98.3549 119.313 98.8548 119.472 99.4412C119.849 100.845 120.678 102.085 121.832 102.97C122.985 103.855 124.398 104.334 125.852 104.334V104.334Z" fill="#BF6EE5"/>
<path d="M134.461 97.7294C134.813 97.7278 135.16 97.8067 135.476 97.9601C135.792 98.1134 136.069 98.3372 136.286 98.6143C136.502 98.8913 136.652 99.2142 136.724 99.5581C136.796 99.9021 136.788 100.258 136.702 100.599C136.068 102.992 134.66 105.109 132.697 106.62C130.735 108.13 128.328 108.949 125.852 108.949V104.334C127.306 104.334 128.719 103.855 129.873 102.97C131.027 102.086 131.856 100.845 132.233 99.4411C132.365 98.9504 132.654 98.5166 133.057 98.2071C133.46 97.8976 133.953 97.7297 134.461 97.7294V97.7294Z" fill="#BF6EE5"/>
<path d="M134.461 111.003C134.813 111.002 135.16 111.081 135.476 111.234C135.792 111.387 136.069 111.611 136.286 111.888C136.502 112.165 136.652 112.488 136.724 112.832C136.796 113.176 136.788 113.532 136.702 113.873C136.068 116.266 134.66 118.383 132.697 119.894C130.735 121.404 128.328 122.223 125.852 122.223V117.608C127.306 117.608 128.719 117.129 129.873 116.244C131.027 115.36 131.856 114.119 132.233 112.715C132.365 112.224 132.654 111.791 133.057 111.481C133.46 111.172 133.953 111.004 134.461 111.003V111.003Z" fill="#BF6EE5"/>
<path d="M125.852 117.608V122.223C123.376 122.223 120.969 121.404 119.007 119.893C117.044 118.383 115.636 116.267 115.002 113.873C114.856 113.283 114.949 112.659 115.261 112.138C115.572 111.616 116.077 111.238 116.665 111.085C117.253 110.933 117.878 111.019 118.403 111.324C118.929 111.629 119.313 112.129 119.472 112.715C119.849 114.119 120.678 115.359 121.832 116.244C122.985 117.129 124.398 117.608 125.852 117.608Z" fill="#BF6EE5"/>
<path d="M155.846 118.452C156.198 118.45 156.545 118.529 156.861 118.683C157.177 118.836 157.454 119.06 157.671 119.337C157.887 119.614 158.037 119.937 158.109 120.281C158.181 120.625 158.173 120.981 158.087 121.321C157.453 123.715 156.045 125.832 154.082 127.342C152.12 128.853 149.713 129.672 147.237 129.672V125.057C148.69 125.057 150.104 124.578 151.258 123.693C152.411 122.808 153.241 121.568 153.618 120.164C153.749 119.673 154.039 119.239 154.442 118.93C154.845 118.62 155.338 118.452 155.846 118.452V118.452Z" fill="#BF6EE5"/>
<path d="M147.237 125.056V129.671C144.76 129.671 142.354 128.852 140.392 127.341C138.429 125.831 137.021 123.715 136.387 121.321C136.241 120.731 136.334 120.108 136.646 119.586C136.957 119.064 137.461 118.686 138.05 118.533C138.638 118.381 139.262 118.467 139.788 118.772C140.314 119.077 140.698 119.577 140.857 120.163C141.234 121.567 142.063 122.807 143.217 123.692C144.37 124.577 145.783 125.056 147.237 125.056V125.056Z" fill="#BF6EE5"/>
<path d="M147.237 138.331V142.946C144.76 142.945 142.354 142.126 140.392 140.616C138.429 139.106 137.021 136.989 136.387 134.596C136.241 134.006 136.334 133.382 136.646 132.86C136.957 132.338 137.461 131.96 138.05 131.808C138.638 131.656 139.262 131.741 139.788 132.046C140.314 132.351 140.698 132.851 140.857 133.438C141.234 134.842 142.063 136.082 143.217 136.967C144.37 137.851 145.783 138.331 147.237 138.331V138.331Z" fill="#BF6EE5"/>
<path d="M155.846 131.726C156.198 131.724 156.545 131.803 156.861 131.957C157.177 132.11 157.454 132.334 157.671 132.611C157.887 132.888 158.037 133.211 158.109 133.555C158.181 133.899 158.173 134.255 158.087 134.595C157.452 136.989 156.045 139.106 154.082 140.616C152.12 142.126 149.713 142.945 147.237 142.946V138.331C148.69 138.331 150.104 137.852 151.258 136.967C152.411 136.082 153.241 134.842 153.618 133.438C153.749 132.947 154.039 132.513 154.442 132.204C154.845 131.894 155.338 131.726 155.846 131.726V131.726Z" fill="#BF6EE5"/>
<path d="M155.846 145C156.198 144.998 156.545 145.077 156.861 145.231C157.177 145.384 157.454 145.608 157.671 145.885C157.887 146.162 158.037 146.485 158.109 146.829C158.181 147.173 158.173 147.529 158.087 147.869C157.452 150.263 156.045 152.38 154.082 153.89C152.12 155.401 149.713 156.219 147.237 156.22V151.605C148.69 151.605 150.104 151.126 151.258 150.241C152.411 149.356 153.241 148.116 153.618 146.712C153.749 146.221 154.039 145.787 154.442 145.478C154.845 145.168 155.338 145 155.846 145V145Z" fill="#BF6EE5"/>
<path d="M147.237 151.605V156.22C144.76 156.219 142.354 155.4 140.392 153.89C138.429 152.38 137.021 150.263 136.387 147.87C136.241 147.28 136.334 146.656 136.646 146.134C136.957 145.612 137.461 145.234 138.05 145.082C138.638 144.929 139.262 145.015 139.788 145.32C140.314 145.625 140.698 146.125 140.857 146.712C141.234 148.115 142.063 149.356 143.217 150.24C144.37 151.125 145.783 151.605 147.237 151.605Z" fill="#BF6EE5"/>
<path d="M117.927 127.605C118.279 127.603 118.626 127.682 118.942 127.836C119.258 127.989 119.535 128.213 119.751 128.49C119.968 128.767 120.118 129.09 120.19 129.434C120.262 129.778 120.254 130.134 120.167 130.474C119.533 132.868 118.125 134.985 116.163 136.495C114.201 138.006 111.794 138.825 109.317 138.825V134.21C110.771 134.21 112.185 133.731 113.338 132.846C114.492 131.961 115.322 130.721 115.699 129.317C115.83 128.826 116.12 128.392 116.523 128.083C116.925 127.773 117.419 127.605 117.927 127.605V127.605Z" fill="#BF6EE5"/>
<path d="M109.317 134.209V138.824C106.841 138.824 104.435 138.005 102.472 136.494C100.51 134.984 99.1021 132.868 98.4675 130.474C98.3221 129.884 98.4151 129.261 98.7264 128.739C99.0378 128.217 99.5422 127.839 100.13 127.686C100.719 127.534 101.343 127.62 101.869 127.925C102.394 128.23 102.778 128.73 102.938 129.316C103.315 130.72 104.144 131.96 105.298 132.845C106.451 133.73 107.864 134.209 109.317 134.209V134.209Z" fill="#BF6EE5"/>
<path d="M109.317 147.484V152.099C106.841 152.098 104.435 151.279 102.472 149.769C100.51 148.259 99.1021 146.142 98.4675 143.749C98.3221 143.159 98.4151 142.535 98.7264 142.013C99.0378 141.491 99.5422 141.113 100.13 140.961C100.719 140.808 101.343 140.894 101.869 141.199C102.394 141.504 102.778 142.004 102.938 142.591C103.315 143.995 104.144 145.235 105.298 146.119C106.451 147.004 107.864 147.484 109.317 147.484V147.484Z" fill="#BF6EE5"/>
<path d="M117.927 140.879C118.279 140.877 118.626 140.956 118.942 141.11C119.258 141.263 119.535 141.487 119.751 141.764C119.968 142.041 120.118 142.364 120.19 142.708C120.262 143.052 120.254 143.408 120.167 143.748C119.533 146.142 118.125 148.259 116.163 149.769C114.201 151.279 111.794 152.098 109.317 152.098V147.484C110.771 147.484 112.185 147.005 113.338 146.12C114.492 145.235 115.322 143.995 115.699 142.591C115.83 142.1 116.12 141.666 116.523 141.357C116.925 141.047 117.419 140.879 117.927 140.879V140.879Z" fill="#BF6EE5"/>
<path d="M117.927 154.153C118.279 154.151 118.626 154.23 118.942 154.384C119.258 154.537 119.535 154.761 119.751 155.038C119.968 155.315 120.118 155.638 120.19 155.982C120.262 156.326 120.254 156.682 120.167 157.022C119.533 159.416 118.125 161.533 116.163 163.043C114.201 164.553 111.794 165.372 109.317 165.373V160.758C110.771 160.758 112.185 160.279 113.338 159.394C114.492 158.509 115.322 157.269 115.699 155.865C115.83 155.374 116.12 154.94 116.523 154.631C116.925 154.321 117.419 154.153 117.927 154.153V154.153Z" fill="#BF6EE5"/>
<path d="M109.317 160.758V165.373C106.841 165.372 104.435 164.553 102.472 163.043C100.51 161.533 99.1021 159.416 98.4675 157.023C98.3221 156.432 98.4151 155.809 98.7264 155.287C99.0378 154.765 99.5422 154.387 100.13 154.235C100.719 154.082 101.343 154.168 101.869 154.473C102.394 154.778 102.778 155.278 102.938 155.865C103.315 157.268 104.144 158.509 105.298 159.393C106.451 160.278 107.864 160.757 109.317 160.758Z" fill="#BF6EE5"/>
</svg>
