<svg width="254" height="324" viewBox="0 0 254 324" fill="none" xmlns="http://www.w3.org/2000/svg">
<path d="M127.291 284.249C174.948 284.249 213.582 281.708 213.582 278.572C213.582 275.436 174.948 272.895 127.291 272.895C79.6337 272.895 41 275.436 41 278.572C41 281.708 79.6337 284.249 127.291 284.249Z" fill="#D3E0D7"/>
<path d="M91.5831 217.748L92.0231 222.924L96.7595 279.865H156.288L164.053 217.748H91.5831Z" fill="white"/>
<path d="M83.8183 202.219V217.748H91.583H164.053H171.818V202.219H127.818H83.8183Z" fill="white"/>
<path d="M91.5831 217.748L92.0231 222.924H163.406L164.053 217.748H91.5831Z" fill="#EFEFEF"/>
<g clip-path="url(#clip0)">
<path d="M127.239 187.966C127.26 188.818 127.478 189.654 127.875 190.408C128.33 191.174 129.165 191.631 130.055 191.6C130.355 192.173 130.752 192.689 131.231 193.124C131.552 193.369 132.004 193.344 132.295 193.063C132.606 192.76 133.083 192.707 133.452 192.934C134.3 193.443 135.202 193.856 136.141 194.166C136.428 194.264 136.746 194.194 136.965 193.984L137.551 193.416C138.134 194.238 138.847 194.959 139.663 195.552C139.983 195.762 140.392 195.782 140.732 195.603C141.072 195.426 141.288 195.078 141.298 194.694C141.297 194.607 141.339 194.525 141.409 194.474C141.479 194.422 141.569 194.407 141.653 194.433C142.198 194.594 143.288 195.3 144.389 195.752C144.744 195.897 145.147 195.858 145.466 195.646C145.786 195.435 145.98 195.08 145.986 194.697C145.987 194.615 146.029 194.539 146.097 194.495C146.165 194.45 146.252 194.442 146.327 194.475C147.21 194.843 148.14 195.088 149.09 195.201C149.478 195.24 149.863 195.107 150.144 194.838C150.456 194.539 150.933 194.492 151.297 194.727L152.417 195.454C152.651 195.61 152.952 195.622 153.198 195.485C153.443 195.348 153.591 195.085 153.581 194.804C153.514 193.687 153.481 192.681 151.315 191.127C150.953 190.873 150.833 190.392 151.033 189.997L151.156 189.759C151.277 189.522 151.288 189.243 151.185 188.997C151.083 188.751 150.877 188.562 150.623 188.481C149.942 188.243 149.235 188.082 148.518 188.001C148.149 187.967 147.866 187.66 147.862 187.29V186.646C147.861 186.513 147.802 186.386 147.702 186.298C147.601 186.209 147.468 186.168 147.335 186.184C146.483 186.137 145.652 186.455 145.049 187.058V185.877C145.046 185.704 144.969 185.54 144.836 185.428C144.704 185.315 144.529 185.265 144.358 185.291C143.805 185.354 143.268 185.514 142.771 185.763C142.665 185.828 142.532 185.832 142.422 185.774C142.313 185.715 142.242 185.603 142.237 185.478V184.127C142.233 183.94 142.144 183.765 141.994 183.653C141.844 183.541 141.651 183.504 141.471 183.554C140.999 183.678 140.537 183.837 140.088 184.031C139.945 184.096 139.78 184.085 139.647 184.001C139.514 183.919 139.431 183.775 139.426 183.618V183.419C139.421 183.174 139.313 182.943 139.13 182.782C138.946 182.621 138.703 182.545 138.46 182.573C136.286 182.776 130.903 183.706 127.239 187.966V187.966Z" fill="#2B9F5A"/>
<path d="M127.239 154.306C127.26 155.158 127.478 155.993 127.875 156.747C128.33 157.513 129.165 157.97 130.055 157.939C130.353 158.512 130.75 159.028 131.227 159.463C131.548 159.709 132 159.683 132.291 159.402C132.602 159.099 133.079 159.046 133.448 159.273C134.298 159.783 135.201 160.196 136.141 160.505C136.428 160.603 136.746 160.533 136.965 160.324L137.552 159.756C138.135 160.578 138.848 161.299 139.663 161.891C139.984 162.101 140.394 162.121 140.733 161.943C141.073 161.765 141.289 161.417 141.298 161.034C141.298 160.946 141.34 160.864 141.41 160.813C141.48 160.761 141.571 160.746 141.653 160.773C142.199 160.934 143.288 161.64 144.39 162.092C144.744 162.235 145.147 162.195 145.465 161.984C145.784 161.773 145.978 161.418 145.984 161.036C145.985 160.955 146.027 160.879 146.095 160.834C146.164 160.789 146.25 160.782 146.325 160.814C147.208 161.183 148.138 161.427 149.088 161.541C149.475 161.58 149.861 161.447 150.142 161.177C150.454 160.878 150.932 160.832 151.295 161.067L152.416 161.793C152.649 161.95 152.951 161.963 153.197 161.825C153.443 161.689 153.591 161.425 153.581 161.143C153.514 160.026 153.481 159.021 151.315 157.467C150.953 157.213 150.833 156.731 151.033 156.337L151.156 156.099C151.277 155.861 151.287 155.583 151.185 155.336C151.083 155.091 150.877 154.902 150.623 154.821C149.941 154.583 149.235 154.421 148.517 154.34C148.148 154.308 147.863 154.002 147.858 153.632V152.986C147.857 152.852 147.799 152.725 147.698 152.637C147.598 152.549 147.464 152.507 147.332 152.524C146.48 152.477 145.649 152.794 145.046 153.397V152.221C145.044 152.048 144.967 151.884 144.835 151.771C144.703 151.659 144.529 151.608 144.358 151.633C143.805 151.697 143.268 151.856 142.771 152.105C142.665 152.17 142.532 152.174 142.423 152.116C142.313 152.058 142.242 151.946 142.237 151.821V150.466C142.233 150.279 142.144 150.104 141.994 149.992C141.844 149.88 141.651 149.844 141.471 149.893C140.999 150.017 140.537 150.177 140.088 150.371C139.945 150.435 139.78 150.424 139.647 150.341C139.514 150.258 139.431 150.114 139.426 149.958V149.758C139.422 149.513 139.315 149.281 139.131 149.119C138.947 148.957 138.703 148.881 138.46 148.909C136.285 149.116 130.903 150.046 127.239 154.306Z" fill="#2B9F5A"/>
<path d="M127.239 154.304C127.239 154.304 144.715 153.314 153.508 161.489C153.565 161.383 153.59 161.263 153.581 161.143C153.517 160.026 153.481 159.018 151.31 157.465C150.953 157.209 150.834 156.732 151.028 156.338L151.156 156.102C151.278 155.864 151.288 155.584 151.185 155.338C151.082 155.091 150.875 154.902 150.62 154.822C149.937 154.584 149.231 154.422 148.512 154.34C148.145 154.307 147.862 154.001 147.858 153.632V152.987C147.856 152.853 147.797 152.727 147.697 152.639C147.596 152.551 147.464 152.509 147.332 152.524C146.482 152.474 145.651 152.791 145.052 153.395V152.224C145.049 152.05 144.972 151.886 144.84 151.773C144.708 151.66 144.533 151.609 144.361 151.633C143.808 151.696 143.27 151.857 142.772 152.106C142.666 152.17 142.534 152.174 142.424 152.116C142.315 152.059 142.243 151.948 142.236 151.824V150.462C142.231 150.276 142.141 150.103 141.992 149.992C141.844 149.88 141.653 149.842 141.473 149.889C141.002 150.015 140.54 150.176 140.092 150.371C139.948 150.436 139.782 150.424 139.648 150.34C139.515 150.256 139.432 150.111 139.429 149.953V149.753C139.421 149.509 139.313 149.279 139.128 149.118C138.943 148.958 138.7 148.882 138.457 148.909C136.286 149.117 130.9 150.044 127.239 154.304Z" fill="#32B768"/>
<path d="M127.239 178.883C127.741 178.883 128.148 178.476 128.148 177.975C128.148 172.922 134.195 167.075 138.139 167.075C138.641 167.075 139.048 166.668 139.048 166.167C139.048 165.665 138.641 165.258 138.139 165.258C133.261 165.258 126.331 171.835 126.331 177.975C126.331 178.476 126.738 178.883 127.239 178.883V178.883Z" fill="#2B9F5A"/>
<path d="M127.239 187.966C127.239 187.966 144.715 186.976 153.508 195.151C153.565 195.046 153.59 194.926 153.581 194.806C153.517 193.689 153.481 192.68 151.31 191.127C150.953 190.871 150.834 190.395 151.028 190.001L151.156 189.756C151.277 189.519 151.287 189.241 151.184 188.995C151.08 188.75 150.874 188.563 150.62 188.484C149.938 188.242 149.231 188.081 148.512 188.003C148.145 187.969 147.862 187.663 147.858 187.294V186.649C147.859 186.515 147.801 186.387 147.7 186.298C147.599 186.209 147.465 186.169 147.332 186.186C146.482 186.136 145.651 186.453 145.052 187.058V185.886C145.049 185.713 144.972 185.548 144.84 185.435C144.708 185.323 144.533 185.272 144.361 185.296C143.808 185.359 143.27 185.519 142.772 185.768C142.666 185.832 142.534 185.836 142.424 185.779C142.315 185.721 142.243 185.61 142.236 185.487V184.124C142.234 183.937 142.145 183.762 141.995 183.65C141.846 183.538 141.653 183.502 141.473 183.552C141.002 183.678 140.54 183.839 140.092 184.033C139.948 184.096 139.783 184.084 139.65 184C139.517 183.917 139.434 183.772 139.429 183.616V183.416C139.421 183.171 139.313 182.941 139.128 182.781C138.943 182.62 138.7 182.544 138.457 182.571C136.286 182.78 130.9 183.706 127.239 187.966V187.966Z" fill="#32B768"/>
<path d="M127.239 202.5C127.741 202.5 128.148 202.093 128.148 201.591V148.909C128.148 148.407 127.741 148 127.239 148C126.738 148 126.331 148.407 126.331 148.909V201.591C126.331 202.093 126.738 202.5 127.239 202.5V202.5Z" fill="#32B768"/>
<path d="M127.239 154.306C127.218 155.158 127.001 155.993 126.604 156.747C126.149 157.513 125.313 157.97 124.424 157.939C124.125 158.512 123.729 159.028 123.252 159.463C122.931 159.709 122.478 159.683 122.187 159.402C121.876 159.099 121.4 159.046 121.03 159.273C120.181 159.783 119.278 160.196 118.338 160.505C118.051 160.603 117.733 160.533 117.514 160.324L116.927 159.756C116.344 160.578 115.63 161.299 114.815 161.891C114.495 162.101 114.085 162.121 113.745 161.943C113.406 161.765 113.19 161.417 113.18 161.034C113.18 160.946 113.139 160.864 113.069 160.813C112.999 160.761 112.908 160.746 112.825 160.773C112.28 160.934 111.19 161.64 110.088 162.092C109.734 162.235 109.332 162.195 109.013 161.984C108.694 161.773 108.5 161.418 108.494 161.036C108.494 160.955 108.452 160.879 108.383 160.834C108.315 160.789 108.229 160.782 108.153 160.814C107.271 161.183 106.34 161.427 105.39 161.541C105.003 161.58 104.618 161.447 104.337 161.177C104.024 160.878 103.547 160.832 103.183 161.067L102.063 161.793C101.829 161.95 101.527 161.963 101.281 161.825C101.035 161.689 100.887 161.425 100.898 161.143C100.965 160.026 100.998 159.021 103.163 157.467C103.526 157.213 103.646 156.731 103.446 156.337L103.323 156.099C103.202 155.861 103.191 155.583 103.294 155.336C103.396 155.091 103.602 154.902 103.855 154.821C104.537 154.583 105.243 154.421 105.961 154.34C106.33 154.309 106.615 154.002 106.62 153.632V152.986C106.622 152.852 106.68 152.725 106.78 152.637C106.881 152.549 107.015 152.507 107.147 152.524C107.999 152.477 108.829 152.794 109.432 153.397V152.221C109.435 152.048 109.512 151.884 109.644 151.771C109.775 151.659 109.95 151.608 110.121 151.633C110.674 151.697 111.21 151.856 111.708 152.105C111.814 152.17 111.946 152.174 112.056 152.116C112.166 152.058 112.237 151.946 112.242 151.821V150.466C112.245 150.279 112.335 150.104 112.485 149.992C112.634 149.88 112.827 149.844 113.008 149.893C113.48 150.017 113.942 150.177 114.39 150.371C114.533 150.435 114.699 150.424 114.832 150.341C114.965 150.258 115.048 150.114 115.053 149.958V149.758C115.057 149.513 115.164 149.281 115.348 149.119C115.532 148.957 115.775 148.881 116.019 148.909C118.193 149.116 123.576 150.046 127.239 154.306V154.306Z" fill="#2B9F5A"/>
<path d="M127.239 154.304C127.239 154.304 109.763 153.314 100.97 161.489C100.913 161.383 100.889 161.263 100.898 161.143C100.961 160.026 100.998 159.018 103.169 157.465C103.526 157.209 103.644 156.732 103.45 156.338L103.323 156.102C103.201 155.864 103.19 155.584 103.294 155.338C103.397 155.091 103.604 154.902 103.859 154.822C104.541 154.584 105.248 154.422 105.966 154.34C106.334 154.307 106.617 154.001 106.62 153.632V152.987C106.623 152.853 106.682 152.727 106.782 152.639C106.882 152.551 107.015 152.509 107.147 152.524C107.997 152.474 108.827 152.791 109.427 153.395V152.224C109.43 152.05 109.507 151.886 109.639 151.773C109.771 151.66 109.945 151.609 110.117 151.633C110.671 151.696 111.209 151.857 111.707 152.106C111.813 152.17 111.945 152.174 112.054 152.116C112.164 152.059 112.236 151.948 112.243 151.824V150.462C112.248 150.276 112.338 150.103 112.486 149.992C112.635 149.88 112.826 149.842 113.006 149.889C113.477 150.015 113.939 150.176 114.387 150.371C114.53 150.436 114.697 150.424 114.83 150.34C114.964 150.256 115.046 150.111 115.049 149.953V149.753C115.057 149.509 115.166 149.279 115.351 149.118C115.535 148.958 115.778 148.882 116.022 148.909C118.192 149.117 123.579 150.044 127.239 154.304V154.304Z" fill="#32B768"/>
<path d="M127.239 187.966C127.218 188.818 127.001 189.654 126.604 190.408C126.149 191.174 125.313 191.631 124.424 191.6C124.124 192.173 123.726 192.689 123.248 193.124C122.927 193.369 122.475 193.344 122.184 193.063C121.873 192.76 121.396 192.707 121.027 192.934C120.179 193.443 119.277 193.856 118.338 194.166C118.051 194.264 117.733 194.194 117.514 193.984L116.928 193.416C116.345 194.238 115.632 194.959 114.816 195.552C114.496 195.762 114.086 195.782 113.747 195.604C113.407 195.426 113.191 195.078 113.181 194.694C113.182 194.607 113.14 194.525 113.07 194.474C113 194.422 112.909 194.407 112.826 194.433C112.281 194.594 111.191 195.3 110.089 195.752C109.735 195.896 109.333 195.855 109.014 195.645C108.696 195.434 108.501 195.079 108.495 194.697C108.494 194.615 108.453 194.539 108.385 194.495C108.316 194.45 108.229 194.442 108.155 194.475C107.271 194.843 106.342 195.088 105.391 195.201C105.004 195.24 104.619 195.107 104.338 194.838C104.025 194.539 103.548 194.492 103.184 194.727L102.064 195.454C101.83 195.611 101.528 195.624 101.281 195.487C101.035 195.35 100.887 195.086 100.898 194.804C100.965 193.687 100.998 192.681 103.163 191.127C103.526 190.873 103.646 190.392 103.446 189.997L103.323 189.759C103.202 189.522 103.191 189.243 103.294 188.997C103.396 188.751 103.602 188.562 103.855 188.481C104.537 188.243 105.243 188.082 105.961 188.001C106.329 187.967 106.612 187.661 106.617 187.29V186.646C106.618 186.513 106.676 186.386 106.777 186.298C106.877 186.209 107.011 186.168 107.143 186.184C107.995 186.137 108.827 186.455 109.43 187.058V185.877C109.432 185.704 109.51 185.54 109.642 185.428C109.775 185.315 109.949 185.265 110.121 185.291C110.674 185.354 111.21 185.514 111.708 185.763C111.814 185.828 111.946 185.832 112.056 185.774C112.166 185.715 112.237 185.603 112.242 185.478V184.127C112.245 183.94 112.335 183.765 112.485 183.653C112.634 183.541 112.827 183.504 113.008 183.554C113.48 183.678 113.942 183.837 114.39 184.031C114.533 184.096 114.699 184.085 114.832 184.001C114.965 183.919 115.048 183.775 115.053 183.618V183.419C115.058 183.174 115.165 182.943 115.349 182.782C115.533 182.621 115.776 182.545 116.019 182.573C118.193 182.776 123.576 183.706 127.239 187.966V187.966Z" fill="#2B9F5A"/>
<path d="M127.24 187.966C127.24 187.966 109.763 186.976 100.971 195.151C100.914 195.046 100.889 194.926 100.898 194.806C100.961 193.689 100.998 192.681 103.169 191.128C103.526 190.871 103.645 190.395 103.45 190.001L103.323 189.756C103.202 189.519 103.192 189.241 103.295 188.995C103.399 188.75 103.605 188.563 103.859 188.484C104.54 188.242 105.247 188.081 105.966 188.003C106.334 187.97 106.617 187.664 106.62 187.294V186.649C106.62 186.515 106.678 186.387 106.779 186.298C106.879 186.21 107.014 186.169 107.147 186.186C107.997 186.136 108.828 186.454 109.427 187.058V185.886C109.43 185.713 109.507 185.548 109.639 185.435C109.771 185.323 109.946 185.272 110.117 185.296C110.671 185.359 111.209 185.519 111.707 185.768C111.813 185.832 111.945 185.837 112.055 185.779C112.164 185.721 112.236 185.61 112.243 185.487V184.124C112.245 183.938 112.334 183.762 112.484 183.65C112.633 183.538 112.826 183.502 113.006 183.552C113.477 183.678 113.939 183.839 114.387 184.033C114.531 184.096 114.696 184.084 114.829 184C114.962 183.917 115.045 183.773 115.05 183.616V183.416C115.057 183.171 115.166 182.941 115.351 182.781C115.535 182.62 115.778 182.544 116.022 182.571C118.193 182.78 123.579 183.706 127.24 187.966V187.966Z" fill="#32B768"/>
<path d="M127.239 185.241C127.741 185.241 128.148 184.835 128.148 184.333C128.148 178.194 121.217 171.617 116.339 171.617C115.838 171.617 115.431 172.023 115.431 172.525C115.431 173.027 115.838 173.433 116.339 173.433C120.284 173.433 126.331 179.28 126.331 184.333C126.331 184.835 126.738 185.241 127.239 185.241V185.241Z" fill="#32B768"/>
</g>
<defs>
<clipPath id="clip0">
<rect width="54.4996" height="54.4996" fill="white" transform="matrix(-1 0 0 1 154.541 148)"/>
</clipPath>
</defs>
</svg>
