<svg width="254" height="324" viewBox="0 0 254 324" fill="none" xmlns="http://www.w3.org/2000/svg">
<path d="M186.904 276.508C186.904 279.72 160.256 282.314 127.389 282.314C94.5216 282.314 67.8739 279.707 67.8739 276.508C67.8739 273.295 94.5216 270.701 127.389 270.701C160.256 270.701 186.904 273.31 186.904 276.508Z" fill="#D3E0D7"/>
<path d="M147.598 140.387C147.598 140.387 129.655 143.573 130.164 169.702L124.856 168.515V153.635C124.856 153.635 129.437 133.62 148.949 138.087L147.598 140.387Z" fill="#96D1AF"/>
<path d="M188.482 152.904C188.458 152.506 188.265 152.141 187.97 151.875C184.983 149.224 180.926 147.537 177.445 146.491C175.891 146.023 176.069 143.766 177.68 143.552C179.695 143.287 181.55 143.127 183.185 143.04C184.307 142.976 184.968 141.754 184.407 140.78C181.834 136.304 178.139 131.748 173.604 127.902C173.342 127.679 173.01 127.553 172.666 127.546C168.307 127.483 163.408 128.518 159.939 129.444C158.488 129.83 157.439 128.092 158.44 126.976C159.755 125.507 161.068 124.24 162.28 123.169C163.116 122.436 162.896 121.073 161.864 120.65C159.788 119.797 157.625 119.118 155.396 118.653C152.069 117.963 149.23 116.137 144.422 126.678C142.573 130.732 141.474 133.317 140.823 134.964C140.22 136.491 140.953 138.216 142.467 138.85C149.897 141.948 171.441 152.289 181.357 171.486C181.93 172.596 183.514 172.587 184.057 171.462C185.921 167.589 188.917 160.135 188.482 152.904V152.904ZM166.247 141.963C163.354 141.963 161.007 140.482 161.007 138.653C161.007 136.825 163.354 135.344 166.247 135.344C169.143 135.344 171.487 136.825 171.487 138.653C171.487 140.482 169.143 141.963 166.247 141.963Z" fill="#278F51"/>
<path d="M183.185 143.04C181.55 143.127 179.695 143.287 177.68 143.552C177.668 143.555 177.656 143.555 177.643 143.559C177.631 143.332 177.565 143.106 177.441 142.889C174.868 138.412 171.173 133.86 166.639 130.014C166.376 129.791 166.045 129.661 165.701 129.658C161.342 129.591 156.443 130.629 152.974 131.555C151.526 131.942 150.473 130.204 151.474 129.085C152.79 127.616 154.102 126.349 155.314 125.281C156.15 124.545 155.93 123.184 154.901 122.759C152.823 121.905 150.66 121.227 148.431 120.765C148.247 120.726 148.066 120.684 147.885 120.642C150.775 117.028 152.953 118.147 155.396 118.654C157.625 119.118 159.788 119.797 161.864 120.651C162.895 121.073 163.116 122.437 162.28 123.17C161.068 124.24 159.755 125.507 158.44 126.977C157.439 128.093 158.488 129.83 159.939 129.444C163.408 128.518 168.307 127.483 172.666 127.547C173.01 127.553 173.342 127.679 173.604 127.903C178.139 131.749 181.834 136.304 184.407 140.781C184.968 141.754 184.307 142.976 183.185 143.04Z" fill="#32B768"/>
<path d="M184.057 171.462C183.514 172.587 181.93 172.596 181.357 171.486C180.741 170.297 180.084 169.142 179.387 168.023C180.699 164.237 181.794 159.579 181.517 155.016C181.493 154.617 181.303 154.249 181.004 153.984C178.018 151.335 173.96 149.646 170.482 148.599C168.925 148.132 169.103 145.875 170.714 145.664C172.729 145.398 174.585 145.238 176.22 145.148C176.271 145.145 176.325 145.139 176.373 145.133C176.401 145.715 176.747 146.282 177.444 146.49C180.925 147.537 184.983 149.223 187.969 151.875C188.265 152.141 188.458 152.505 188.482 152.904C188.917 160.135 185.921 167.589 184.057 171.462V171.462Z" fill="#32B768"/>
<path d="M118.02 123.787C121.813 149.124 121.241 181.895 121.241 181.895H132.547C132.547 156.534 125.936 133.143 124.851 123.787H118.02Z" fill="#AFE1C4"/>
<path d="M124.587 123.787H118.02C118.958 130.133 119.619 136.959 120.082 143.597C122.614 142.117 125.016 140.425 127.264 138.528C126.041 132.191 124.967 127.09 124.587 123.787Z" fill="#AFE1C4"/>
<path d="M139.925 99.8663C139.912 99.1331 139.367 98.5176 138.642 98.4087C134.557 97.8016 127.148 97.1586 119.845 98.8628C118.296 99.2239 117.301 97.2787 118.513 96.2511C122.984 92.4679 129.803 87.9438 136.112 88.7713C137.22 88.9165 138.101 87.8445 137.73 86.7889C136.123 82.1798 133.601 78.5345 130.077 77.5968C119.252 74.7161 112.567 78.1638 109.74 80.2428C108.973 80.8068 107.871 80.5134 107.485 79.6428C106.066 76.4338 101.979 70.1199 91.1532 67.2391C82.2842 64.879 70.4114 80.5549 68.0512 89.424C67.371 91.9806 66.8679 94.4687 66.528 96.8819C66.3985 97.8016 67.137 98.6122 68.0632 98.5876C74.9829 98.3961 80.6128 100.861 84.5802 103.457C86.001 104.387 85.0481 106.584 83.3996 106.183C77.6506 104.787 71.3352 104.441 67.5382 104.369C66.6782 104.355 65.9769 105.057 66.0006 105.918C66.0805 108.851 66.4138 111.652 66.9701 114.32C67.1555 115.217 68.1051 115.725 68.9657 115.409C76.8348 112.505 84.6798 114.355 89.355 116.095C90.7169 116.601 90.6507 118.56 89.2554 118.953C82.7061 120.799 77.1876 124.606 73.5844 127.613C72.9988 128.102 72.8743 128.957 73.2957 129.6C77.794 136.44 83.9735 141.688 90.675 145.168C91.0109 145.342 91.3816 145.44 91.7597 145.456C105.731 146.03 121.163 140.457 131.136 126.037C131.462 125.563 131.487 124.94 131.199 124.442C127.501 118.067 119.384 114.616 112.979 112.815C111.328 112.354 111.616 109.933 113.331 109.863C123.962 109.412 131.915 112.061 135.726 113.686C136.529 114.031 137.455 113.62 137.738 112.794C138.231 111.36 138.687 109.872 139.097 108.329C139.704 106.053 139.988 103.076 139.925 99.8663V99.8663ZM93.3921 91.6459C91.2829 94.4986 87.4464 93.4029 83.7442 90.6655C80.0429 87.9253 77.0418 85.7048 79.9867 81.7274C82.9284 77.7491 85.9295 79.9696 89.6317 82.7069C93.333 85.4474 95.6908 88.5382 93.3921 91.6459ZM112.359 122.893C115.881 124.947 117.956 127.952 116.988 129.609C116.024 131.267 112.386 130.947 108.863 128.897C105.339 126.846 103.268 123.838 104.233 122.181C105.198 120.523 108.839 120.843 112.359 122.893Z" fill="#278F51"/>
<path d="M131.136 126.038C121.164 140.46 105.73 146.03 91.7583 145.456C91.3788 145.44 91.0081 145.338 90.6708 145.163C90.669 145.162 90.6673 145.161 90.6655 145.16C102.394 143.761 114.276 137.89 122.47 126.038C122.796 125.564 122.822 124.94 122.533 124.442C118.835 118.068 110.72 114.617 104.313 112.816C102.662 112.355 102.952 109.935 104.665 109.863C107.501 109.742 110.146 109.845 112.575 110.089C111.573 110.713 111.613 112.433 112.979 112.816C119.383 114.617 127.501 118.068 131.199 124.442C131.489 124.94 131.462 125.564 131.136 126.038V126.038Z" fill="#32B768"/>
<path d="M136.111 88.7707C129.803 87.9441 122.982 92.4691 118.512 96.252C117.975 96.7077 117.872 97.3411 118.059 97.8749C115.83 98.0195 113.498 98.3244 111.179 98.8643C109.631 99.2233 108.636 97.2775 109.848 96.252C114.319 92.4691 121.136 87.9444 127.447 88.7707C128.554 88.9154 129.435 87.8445 129.064 86.7889C127.456 82.1796 124.935 78.5354 121.411 77.5972C120.198 77.2745 119.037 77.03 117.927 76.8581C121.152 76.285 125.191 76.297 130.078 77.5972C133.601 78.5354 136.123 82.1796 137.731 86.7889C138.102 87.8445 137.221 88.9157 136.111 88.7707V88.7707Z" fill="#32B768"/>
<path d="M139.097 108.33C138.687 109.872 138.231 111.359 137.74 112.795C137.456 113.622 136.53 114.032 135.728 113.688C134.243 113.055 132.135 112.267 129.48 111.567C129.818 110.518 130.135 109.438 130.43 108.33C131.037 106.053 131.32 103.075 131.26 99.8658C131.245 99.1328 130.702 98.5173 129.975 98.4087C128.822 98.2397 127.408 98.0649 125.806 97.944C130.961 97.5097 135.676 97.968 138.641 98.4087C139.368 98.5173 139.911 99.1325 139.923 99.8658C139.987 103.075 139.703 106.053 139.097 108.33Z" fill="#32B768"/>
<path d="M110.756 79.552C108.602 85.4495 102.388 103.248 101.767 114.288C101.697 115.492 100.702 116.424 99.5103 116.424C99.4652 116.424 99.4227 116.424 99.3806 116.421C98.1317 116.352 97.1785 115.281 97.2479 114.035C97.9206 102.152 104.37 83.7904 106.56 77.8507C106.952 78.5113 107.254 79.1178 107.487 79.6425C107.873 80.5143 108.974 80.8071 109.74 80.2428C110.035 80.0255 110.373 79.7933 110.756 79.552V79.552Z" fill="#32B768"/>
<path d="M165.379 163.947V252.042C165.379 266.111 153.962 277.528 139.894 277.528H113.52C99.438 277.528 88.0342 266.111 88.0342 252.042V163.947C88.0342 162.692 89.053 161.674 90.3071 161.674H163.106C164.361 161.674 165.379 162.692 165.379 163.947Z" fill="white"/>
<path opacity="0.36" d="M165.378 182.444H88.033V188.78H165.378V182.444Z" fill="#AFE1C4"/>
<path opacity="0.36" d="M165.378 196.264H88.033V202.6H165.378V196.264Z" fill="#AFE1C4"/>
<path opacity="0.36" d="M165.378 191.574H88.033V193.468H165.378V191.574Z" fill="#AFE1C4"/>
</svg>
