<svg width="254" height="324" viewBox="0 0 254 324" fill="none" xmlns="http://www.w3.org/2000/svg">
<path d="M126.581 302.527C164.302 302.527 194.881 300.634 194.881 298.299C194.881 295.963 164.302 294.071 126.581 294.071C88.8597 294.071 58.2806 295.963 58.2806 298.299C58.2806 300.634 88.8597 302.527 126.581 302.527Z" fill="#D3E0D7"/>
<path d="M136.45 135.284V217.493C136.45 224.17 132.12 229.582 126.778 229.582C121.436 229.582 117.107 224.17 117.107 217.493V189.917C115.952 188.663 115.172 186.326 115.172 183.642C115.172 180.959 115.952 178.621 117.107 177.367V151.231C115.952 149.976 115.172 147.64 115.172 144.955C115.172 142.273 115.952 139.934 117.107 138.68V135.284C117.107 128.608 121.436 123.194 126.778 123.194C132.12 123.194 136.45 128.608 136.45 135.284Z" fill="#285803"/>
<path d="M136.621 152.66V170.302C136.621 173.548 133.99 176.18 130.743 176.18C127.496 176.18 124.866 173.548 124.866 170.302V128.968C124.866 125.722 127.496 123.09 130.743 123.09C133.99 123.09 136.621 125.722 136.621 128.968V142.818C137.753 143.802 138.517 145.636 138.517 147.739C138.517 149.844 137.753 151.676 136.621 152.66Z" fill="#164F2D"/>
<path d="M178.335 222.735C178.335 231.317 177.634 239.883 176.239 248.35L169.431 289.664C156.649 295.86 142.301 299.337 127.141 299.337C111.981 299.337 97.6332 295.86 84.851 289.664L78.0429 248.35C76.6476 239.883 75.9469 231.317 75.9469 222.735C75.9469 220.641 77.6445 218.943 79.739 218.943H174.543C176.637 218.943 178.335 220.641 178.335 222.735Z" fill="#F4F6F7"/>
<path d="M176.239 248.35L172.936 268.401C164.209 277.732 152.679 283.41 140.034 283.41C112.808 283.41 90.7363 257.094 90.7363 224.631C90.7363 222.713 90.8163 220.816 90.9674 218.943H174.543C176.637 218.943 178.335 220.641 178.335 222.735C178.335 231.317 177.634 239.883 176.239 248.35Z" fill="white"/>
<path d="M127.024 124.106C126.593 120.151 140.729 113.859 154.44 113.592C158.543 113.514 178.476 113.699 187.375 127.653C190.932 133.231 193.188 141.802 190.123 144.374C186.682 147.259 179.283 140.207 164.223 134.145C142.157 125.263 127.458 128.085 127.024 124.106V124.106Z" fill="#32B768"/>
<path d="M128.713 126.749C124.682 123.511 128.761 104.737 141.119 91.8924C144.816 88.0484 163.303 69.9024 184.306 74.5478C192.701 76.4053 202.652 82.2091 202.196 87.3892C201.685 93.2019 188.405 93.5218 168.994 101.79C140.556 113.906 132.768 130.006 128.713 126.749V126.749Z" fill="#32B768"/>
<path d="M128.042 126.503C125.778 128.295 129.904 127.706 128.713 126.749C124.682 123.511 128.761 104.737 141.119 91.8924C144.816 88.0484 163.303 69.9024 184.306 74.5478C191.627 76.1668 200.128 80.7885 201.883 85.3791C198.543 83.326 194.395 81.6595 190.569 80.8122C169.567 76.1668 151.08 94.3128 147.383 98.1568C139.215 106.648 129.025 119.031 128.042 126.503Z" fill="#32B768"/>
<path d="M211.173 121.788C207.109 126.431 193.987 114.288 171.795 113.228C150.198 112.197 134.318 122.347 128.246 125.853C128.154 127.211 127.968 128.013 127.716 128.081C127.486 128.143 127.269 127.589 126.978 126.558C126.169 126.979 125.691 127.137 125.569 126.925C125.432 126.684 125.796 126.023 126.577 125.057C125.032 119.137 121.548 105.666 109.703 94.8995C96.8276 83.1986 82.8367 82.6565 83.1581 77.8348C83.45 73.4324 95.5226 67.8878 105.153 70.8194C123.201 76.3165 128.185 110.225 128.311 123.118C138.658 112.355 175.604 83.8415 197.648 95.5942C208.991 101.641 214.885 117.549 211.173 121.788V121.788Z" fill="#09AF73"/>
<path d="M211.172 121.788C207.109 126.431 193.986 114.288 171.795 113.228C150.242 112.2 134.383 122.305 128.284 125.831C128.653 126.374 128.809 126.755 128.713 126.925C128.698 126.951 128.675 126.97 128.65 126.985C128.69 127.165 98.0924 133.356 79.779 153.506C62.5455 172.467 61.7471 193.075 54.6457 192.602C48.1605 192.171 39.9955 174.389 44.3135 160.207C53.1555 131.171 111.932 125.092 125.75 126.22C125.817 126.103 125.9 125.97 125.996 125.829C119.902 122.307 104.047 112.198 82.4854 113.228C60.2954 114.288 47.171 126.431 43.1078 121.788C39.3956 117.547 45.2912 101.641 56.6336 95.5943C78.7673 83.7927 115.927 112.591 126.098 123.25C124.323 116.694 120.465 104.682 109.701 94.8996C96.8274 83.1987 82.8364 82.6566 83.1564 77.8349C83.2468 76.4736 84.4673 75.0012 86.393 73.705C91.1125 76.3003 100.861 78.9681 110.047 87.3153C125.846 101.675 128.299 122.276 128.308 123.121C131.358 119.947 136.72 115.23 143.336 110.456C150.897 107.455 160.574 104.971 171.795 105.507C193.985 106.566 207.109 118.71 211.172 114.068C211.327 113.891 211.458 113.688 211.58 113.472C212.599 117.106 212.535 120.233 211.172 121.788Z" fill="#278F51"/>
<path d="M43.1096 121.788C39.3974 117.547 45.293 101.641 56.6339 95.5942C61.3726 93.0686 66.8001 92.4094 72.5017 93.0271C69.5509 93.3871 66.7379 94.2063 64.1353 95.5942C52.8359 101.617 46.9447 117.424 50.5709 121.736C47.001 122.992 44.5139 123.394 43.1096 121.788ZM67.1112 137.843C56.2029 143.033 47.3387 150.278 44.3139 160.207C39.9959 174.389 48.1609 192.171 54.6475 192.602C57.1183 192.766 58.8263 190.376 60.7297 186.391C54.9941 182.175 49.4911 167.337 53.2003 155.155C55.3467 148.107 60.4379 142.411 67.1112 137.843V137.843Z" fill="#1C663A"/>
<path d="M124.25 126.645C124.25 126.645 116.536 126.633 100.881 128.304C81.5598 130.368 73.1594 140.261 69.6057 136.853C66.2831 133.664 69.4087 120.956 77.7188 115.239C94.739 103.531 129.348 124.006 128.651 126.411C128.548 126.765 127.698 126.651 124.25 126.645V126.645Z" fill="#32B768"/>
<path d="M199.244 192.602C192.144 193.075 191.344 172.468 174.11 153.506C152.96 130.235 124.722 128.875 125.239 126.976C126.075 123.911 199.602 127.451 209.576 160.207C213.895 174.389 205.73 192.171 199.244 192.602ZM77.7188 115.239C69.4087 120.956 66.2831 133.664 69.6057 136.853C71.0189 138.208 73.2023 137.457 76.5308 135.935C74.3888 131.717 77.6388 120.51 85.3002 115.239C88.0895 113.319 91.3543 112.269 94.8561 111.859C88.5427 111.219 82.4501 111.983 77.7188 115.239Z" fill="#32B768"/>
</svg>
