<svg width="254" height="324" viewBox="0 0 254 324" fill="none" xmlns="http://www.w3.org/2000/svg">
<path d="M127.291 283.738C174.948 283.738 213.582 281.198 213.582 278.061C213.582 274.925 174.948 272.384 127.291 272.384C79.6337 272.384 41 274.925 41 278.061C41 281.198 79.6337 283.738 127.291 283.738Z" fill="#D3E0D7"/>
<path d="M91.5832 217.237L92.0232 222.414L96.7596 279.355H156.289L164.053 217.237H91.5832Z" fill="white"/>
<path d="M83.8184 201.708V217.237H91.5831H164.053H171.818V201.708H127.818H83.8184Z" fill="white"/>
<path d="M91.5832 217.237L92.0232 222.414H163.406L164.053 217.237H91.5832Z" fill="#EFEFEF"/>
<g clip-path="url(#clip0)">
<path d="M120.518 167.448L119.043 166.856C117.966 166.425 117.35 165.288 117.577 164.15C117.837 162.847 119.105 162.003 120.409 162.264L120.716 162.325C121.122 162.407 121.544 162.301 121.865 162.039C122.185 161.776 122.371 161.383 122.37 160.969C122.37 160.543 122.174 160.141 121.839 159.88C121.503 159.618 121.066 159.525 120.653 159.628C119.539 159.906 118.36 159.731 117.376 159.141L116.83 158.813C115.441 157.98 114.591 156.48 114.592 154.861V154.269C114.592 152.523 115.578 150.927 117.139 150.146C118.748 149.342 120.676 149.547 122.08 150.67L123.538 151.836C123.901 152.126 124.352 152.285 124.817 152.284H124.931C125.561 152.286 126.158 151.996 126.546 151.498C126.934 151.001 127.071 150.352 126.917 149.741C126.772 149.161 126.381 148.674 125.846 148.407L123.121 147.044C122.127 146.549 121.499 145.534 121.499 144.424C121.498 143.575 121.866 142.768 122.508 142.212C123.149 141.656 124 141.405 124.84 141.525L127.548 141.911L126.381 140.157C126.018 139.612 125.824 138.972 125.825 138.316C125.825 136.485 127.309 135.001 129.14 135H131.15C132.981 135.001 134.465 136.485 134.465 138.316C134.465 138.972 134.271 139.612 133.908 140.157L132.739 141.913L135.447 141.527C136.287 141.408 137.137 141.658 137.777 142.214C138.418 142.77 138.786 143.576 138.786 144.424C138.786 145.534 138.159 146.548 137.167 147.044L134.442 148.407C133.907 148.674 133.516 149.161 133.372 149.741C133.217 150.352 133.354 151.001 133.743 151.498C134.131 151.996 134.727 152.286 135.358 152.284H135.471C135.936 152.284 136.386 152.126 136.749 151.836L138.212 150.668C139.616 149.546 141.545 149.341 143.153 150.145C144.714 150.926 145.7 152.522 145.701 154.268V154.86C145.7 156.479 144.851 157.978 143.463 158.812L142.917 159.14C141.932 159.73 140.753 159.905 139.64 159.627C139.227 159.523 138.789 159.616 138.454 159.878C138.118 160.14 137.922 160.542 137.922 160.968C137.922 161.382 138.107 161.775 138.428 162.037C138.748 162.3 139.169 162.405 139.575 162.324L139.884 162.263C141.187 162.001 142.454 162.846 142.715 164.149C142.943 165.286 142.327 166.424 141.25 166.855L139.153 167.693C136.065 168.929 133.286 170.826 131.01 173.251L130.36 173.943H129.496C127.084 171.072 124.001 168.84 120.518 167.448V167.448Z" fill="#32B768"/>
<path d="M140.706 189.727L142.296 191.855C142.789 192.514 143.563 192.905 144.386 192.91C145.198 192.916 145.966 192.548 146.47 191.912C146.974 191.276 147.157 190.444 146.965 189.655C146.875 189.28 147.019 188.888 147.33 188.66C147.642 188.432 148.06 188.415 148.389 188.616L149.165 189.09L150.652 190.46C151.574 191.312 152.921 191.523 154.058 190.992C154.892 190.604 155.509 189.866 155.744 188.978C155.979 188.09 155.807 187.143 155.275 186.394L154.875 185.827C154.312 185.039 154.449 183.952 155.189 183.329C155.594 182.987 156.125 182.835 156.65 182.911L158.506 183.177C159.263 183.285 160.025 183.011 160.54 182.445C161.055 181.879 161.255 181.095 161.075 180.351L160.807 179.248L160.191 176.705C160.01 175.961 159.473 175.355 158.756 175.087C158.04 174.82 157.237 174.925 156.613 175.369L155.085 176.456C154.653 176.763 154.111 176.87 153.596 176.752C152.655 176.536 152.038 175.636 152.175 174.682L152.273 174C152.402 173.092 152.121 172.173 151.507 171.492C150.891 170.811 150.006 170.438 149.089 170.475C147.836 170.525 146.738 171.326 146.308 172.503L145.61 174.399L145.137 175.175C144.935 175.504 144.556 175.68 144.175 175.62C143.794 175.56 143.487 175.278 143.396 174.903C143.204 174.115 142.661 173.458 141.922 173.124C141.182 172.789 140.33 172.814 139.611 173.191C138.882 173.573 138.374 174.274 138.236 175.086L137.727 178.108C137.275 180.787 135.691 183.141 133.379 184.569L132.951 184.833L133.219 185.936C136.17 185.959 138.941 187.362 140.706 189.727V189.727Z" fill="#32B768"/>
<path d="M119.909 189.727L118.319 191.855C117.826 192.514 117.052 192.905 116.229 192.91C115.418 192.916 114.649 192.548 114.145 191.912C113.641 191.276 113.459 190.444 113.649 189.655C113.74 189.28 113.596 188.887 113.285 188.66C112.973 188.432 112.555 188.415 112.226 188.616L111.45 189.09L109.964 190.46C109.041 191.312 107.696 191.522 106.558 190.991C105.724 190.604 105.107 189.866 104.872 188.978C104.637 188.09 104.809 187.143 105.342 186.394L105.741 185.827C106.304 185.039 106.168 183.952 105.428 183.329C105.021 182.987 104.488 182.836 103.963 182.914L102.107 183.18C101.35 183.289 100.588 183.015 100.073 182.449C99.5583 181.883 99.3582 181.098 99.5384 180.355L99.8056 179.251L100.422 176.708C100.603 175.965 101.141 175.36 101.857 175.093C102.574 174.826 103.376 174.932 104 175.375L105.528 176.463C105.96 176.769 106.502 176.877 107.018 176.759C107.958 176.542 108.575 175.642 108.438 174.688L108.34 174.007C108.21 173.098 108.49 172.177 109.106 171.495C109.721 170.813 110.608 170.44 111.526 170.477C112.779 170.527 113.877 171.329 114.307 172.506L115.001 174.405L115.474 175.182C115.674 175.512 116.054 175.688 116.435 175.628C116.817 175.569 117.124 175.285 117.215 174.909C117.406 174.121 117.949 173.464 118.688 173.129C119.427 172.794 120.28 172.818 120.999 173.195C121.728 173.577 122.237 174.279 122.374 175.09L122.884 178.113C123.335 180.792 124.92 183.146 127.232 184.573L127.659 184.838L127.392 185.941C124.444 185.964 121.675 187.365 119.909 189.727Z" fill="#32B768"/>
<path d="M132.665 183.775L131.375 184.48L131.262 184.518V174.772L131.317 172.875C131.319 172.803 131.314 172.732 131.303 172.661C129.904 163.94 129.863 155.054 131.182 146.32L131.263 145.766L129.017 145.426L128.934 145.978C127.585 154.909 127.621 163.993 129.041 172.913L128.992 174.739V184.517L127.217 183.926L126.491 183.458C120.953 179.876 114.289 178.464 107.775 179.491L108.128 181.734C114.091 180.797 120.19 182.09 125.259 185.367L126.106 185.914C126.186 185.966 126.272 186.008 126.362 186.038L128.992 186.912V201.989H131.263V186.912L133.893 186.036L133.796 185.746C140.108 182.299 147.252 180.666 154.434 181.03L154.548 178.759C146.93 178.373 139.354 180.109 132.665 183.775V183.775Z" fill="#278F51"/>
</g>
<defs>
<clipPath id="clip0">
<rect width="66.9891" height="66.9891" fill="white" transform="translate(96.635 135)"/>
</clipPath>
</defs>
</svg>
