<svg width="254" height="324" viewBox="0 0 254 324" fill="none" xmlns="http://www.w3.org/2000/svg">
<path d="M210.385 282.216C210.385 285.344 173.688 287.869 128.432 287.869C83.1744 287.869 46.4777 285.33 46.4777 282.216C46.4777 279.089 83.1744 276.565 128.432 276.565C173.701 276.565 210.385 279.103 210.385 282.216Z" fill="#D3E0D7"/>
<path d="M216.656 181.425C216.656 181.425 207.259 169.702 196.679 174.533C186.113 179.365 182.883 195.145 182.883 195.145L167.802 190.034C167.789 190.034 194.328 143.241 216.656 181.425Z" fill="#278F51"/>
<path d="M194.112 190.899V267.561C194.112 273.932 189.61 279.234 183.608 280.481C182.731 280.658 181.827 280.76 180.899 280.76H82.4934C81.5652 280.76 80.6624 280.658 79.785 280.481C73.7959 279.234 69.2819 273.919 69.2819 267.561V190.899C69.2819 189.487 70.4263 188.343 71.8378 188.343H191.542C192.966 188.343 194.112 189.487 194.112 190.899Z" fill="white"/>
<path d="M71.8509 188.342C70.4395 188.342 69.295 189.487 69.295 190.899V230.037C73.1861 246.097 81.7946 262.602 81.7946 262.602C107.099 250.547 114.016 225.332 113.482 209.832C113.444 208.561 113.342 207.365 113.202 206.246L129.579 220.958C129.579 220.958 132.262 201.35 127.546 188.635C128.36 189.741 129.301 190.772 130.33 191.7C138.938 199.405 141.953 211.142 141.953 211.142C141.953 211.142 156.791 198.02 161.737 188.559C161.775 188.482 161.814 188.406 161.851 188.331H71.8509V188.342ZM99.9143 195.069C98.8589 195.298 97.8797 195.616 97.0151 195.946C97.0024 195.031 96.9134 194.141 96.7481 193.276C96.5828 192.412 96.3412 191.585 96.0106 190.796L100.614 194.929C100.385 194.981 100.156 195.031 99.9143 195.069Z" fill="#D3E0D7"/>
<path fill-rule="evenodd" clip-rule="evenodd" d="M89.6263 99.9056C90.3256 99.2444 91.4572 99.4732 92.3473 99.5114C93.8096 99.5241 95.4372 99.7022 97.0266 100.249C98.6035 100.783 100.129 101.648 101.261 102.83C103.232 104.14 104.414 105.895 105.762 108.489C106.347 109.608 107.034 110.701 107.428 111.858C109.094 116.906 109.297 121.916 109.106 127.117C109.081 127.651 109.03 128.236 108.967 128.821C108.814 130.194 108.738 131.847 108.42 133.118C108.064 134.504 106.996 135.382 105.991 135.294C105.114 134.135 105.661 131.936 105.8 129.736C106.067 126.062 106.195 120.912 105.737 117.453C105.419 114.796 104.732 112.189 103.779 109.875C102.8 107.471 101.325 105.475 99.519 103.822C98.222 102.614 96.836 101.47 95.1957 100.796C93.4664 100.096 91.5716 99.7657 89.6263 99.9056Z" fill="#1C663A"/>
<path fill-rule="evenodd" clip-rule="evenodd" d="M141.175 137.124C141.023 136.12 141.811 135.268 142.154 134.364C143.261 131.466 143.769 127.867 144.291 124.726C144.202 123.569 144.164 122.514 144.037 121.408C143.909 120.301 143.706 119.119 143.171 117.835C142.688 116.716 141.887 115.838 141.15 115.05C139.56 113.321 137.386 112.227 135.276 112.125C133.178 111.998 131.168 113.054 129.388 114.668C129.019 115.012 128.626 115.38 128.218 115.762C127.277 116.677 126.324 118 125.484 118.915C124.543 119.92 123.259 120.314 122.344 119.869C121.975 118.407 123.564 116.41 125.128 114.567C126.438 113.015 128.218 111.159 130.685 109.989C131.906 109.404 133.292 109.061 134.639 109.048C135.975 109.023 137.221 109.29 138.263 109.671C141.455 110.828 144.088 113.473 145.206 116.487C146.389 119.538 146.592 122.717 146.083 125.642C145.703 127.791 144.837 129.673 144.062 131.504C143.197 133.487 142.206 135.331 141.175 137.124Z" fill="#1C663A"/>
<path fill-rule="evenodd" clip-rule="evenodd" d="M148.384 132.496C148.194 131.797 148.803 131.428 149.008 130.881C149.643 129.139 149.237 127.028 149.362 125.235C148.893 123.976 148.868 122.87 148.206 121.37C147.914 120.721 147.379 120.212 147.024 119.666C145.46 117.301 143.526 115.292 141.199 113.918C140.958 113.778 140.716 113.626 140.45 113.473C139.839 113.117 139.026 112.939 138.454 112.672C137.843 112.367 137.411 111.464 137.424 110.447C138.148 109.404 139.788 109.849 141.162 110.422C142.356 110.867 143.653 111.668 144.786 112.609C145.917 113.55 146.884 114.63 147.608 115.559C148.727 116.983 149.731 118.572 150.316 120.289C150.914 122.018 151.347 123.824 151.245 125.604C151.182 126.914 150.724 128.122 150.316 129.253C149.897 130.449 149.224 131.568 148.384 132.496Z" fill="#1C663A"/>
<path fill-rule="evenodd" clip-rule="evenodd" d="M78.2197 181.057C77.4695 181.07 77.2023 180.306 76.7318 179.9C75.295 178.577 73.2223 177.216 72.2306 175.284C71.6584 174.749 71.2006 174.177 70.8192 173.516C70.4123 172.868 70.0308 172.143 69.5603 171.304C69.1152 170.592 68.5812 169.918 68.1871 169.206C66.6611 166.052 65.6821 162.835 65.1607 159.288C65.1225 158.919 65.0843 158.524 65.059 158.118C64.9954 157.177 64.8555 156.045 64.9699 155.155C65.1352 154.175 66.0253 153.502 67.0298 153.502C68.098 154.214 67.8945 155.676 68.0598 157.113C68.3013 159.517 68.9118 162.81 69.6239 165.034C70.1197 166.752 70.8954 168.392 71.5566 169.994C72.256 171.634 73.1842 173.097 74.0235 174.597C74.3413 175.131 74.6337 175.69 74.9008 176.25C75.206 176.797 75.5111 177.33 75.8417 177.852C76.2233 178.374 76.6047 178.908 76.999 179.454C77.3931 179.976 77.8 180.509 78.2197 181.057Z" fill="#1C663A"/>
<path fill-rule="evenodd" clip-rule="evenodd" d="M87.0698 194.243C86.4085 193.493 86.5865 192.335 86.3959 191.382C85.8745 188.343 84.9209 184.719 85.2768 181.375C85.137 180.179 85.1115 179.061 85.2259 177.878C85.2768 177.28 85.3276 176.669 85.3785 176.022C85.4549 175.372 85.5311 174.686 85.6328 173.936C85.7346 172.639 85.7727 171.342 85.938 170.095C86.8663 164.768 88.443 159.834 90.7826 154.863C91.037 154.354 91.3295 153.821 91.6347 153.273C92.3213 152.002 93.1351 150.45 93.9489 149.357C94.9026 148.187 96.2377 147.754 97.1151 148.25C97.4458 149.726 95.9833 151.582 94.9279 153.629C93.0969 157.024 91.0243 161.971 89.9689 165.543C89.0915 168.265 88.583 171.126 88.0361 173.835C87.5021 176.632 87.3495 179.404 87.1207 182.138C87.0698 183.129 86.9808 184.122 86.879 185.1C86.8155 186.08 86.7773 187.059 86.7646 188.025C86.8028 189.056 86.8282 190.085 86.8663 191.128C86.9299 192.158 86.9934 193.187 87.0698 194.243Z" fill="#1C663A"/>
<path d="M91.6487 173.935L100.969 183.039C100.969 183.039 138.735 184.464 138.709 183.93C138.684 183.395 135.467 146.203 135.467 146.203L100.244 154.074L91.6487 173.935Z" fill="#2D5000"/>
<path d="M159.626 164.679C159.626 164.679 172.062 165.912 175.954 166.752C175.954 166.752 166.481 174.928 161.877 175.907L159.626 164.679Z" fill="#278F51"/>
<path d="M167.32 144.105C166.265 152.561 163.303 158.397 159.627 162.416C150.498 172.396 136.917 171.227 136.917 171.227C136.917 171.227 127.278 151.251 139.41 144.105C143.848 141.498 148.781 140.798 153.245 140.951C160.987 141.231 167.32 144.105 167.32 144.105Z" fill="#32B768"/>
<path d="M159.627 162.416C150.498 172.396 136.917 171.227 136.917 171.227C136.917 171.227 127.278 151.251 139.41 144.105C143.848 141.498 148.781 140.798 153.245 140.951L137.921 158.347C137.921 158.347 146.975 160.203 148.603 163.776C148.616 163.776 154.655 160.661 159.627 162.416Z" fill="#1C663A"/>
<path d="M167.32 127.244L133.332 160.368L125.88 167.628C125.664 167.501 125.46 167.374 125.244 167.235C122.282 165.353 119.751 163.229 117.946 160.801C113.673 155.053 113.393 147.577 120.845 137.569C122.701 135.076 125.282 133.144 128.297 131.631C142.842 124.332 167.32 127.244 167.32 127.244Z" fill="#278F51"/>
<path d="M117.944 160.788C113.672 155.041 113.392 147.564 120.843 137.556C122.7 135.063 125.281 133.131 128.295 131.618C128.295 131.618 130.189 147.97 117.944 160.788Z" fill="#1C663A"/>
<path d="M133.329 160.368L125.878 167.628C125.662 167.501 125.459 167.374 125.242 167.234C127.862 160.698 133.329 160.368 133.329 160.368Z" fill="#1C663A"/>
<path d="M83.6632 257.91C83.6632 257.91 72.1555 235.834 69.7395 217.918C69.1673 213.646 69.1038 209.602 69.8286 206.157C73.6433 188.266 88.6731 183.866 95.5777 192.857C95.5777 192.857 96.9002 192.017 98.8838 191.254C99.7357 190.923 100.728 190.606 101.783 190.377C105.025 189.678 108.942 189.792 112.032 192.857C113.825 194.636 115.134 199.164 115.338 205.14C115.885 220.64 108.967 245.855 83.6632 257.91Z" fill="#278F51"/>
<path d="M83.6638 257.91C85.2659 238.836 88.1777 222.802 90.7082 211.434C93.3403 199.659 95.5783 192.868 95.5783 192.868C95.5783 192.868 96.9007 192.029 98.8844 191.267C99.7363 190.936 100.728 190.617 101.783 190.389C105.026 189.689 108.942 189.804 112.032 192.868C113.825 194.649 115.135 199.175 115.338 205.152C115.885 220.64 108.968 245.855 83.6638 257.91Z" fill="#32B768"/>
<path d="M93.1367 209.183C92.4374 210.01 91.6109 210.747 90.7208 211.434C84.7698 215.935 75.1441 217.436 69.7527 217.931C69.1805 213.659 69.1169 209.615 69.8417 206.17C73.6565 188.279 88.6863 183.879 95.5909 192.87C95.5909 192.87 96.9132 192.03 98.8969 191.267C98.8969 191.267 100.601 200.461 93.1367 209.183Z" fill="#1C663A"/>
<path d="M115.351 205.152L101.796 190.389C105.039 189.689 108.955 189.804 112.045 192.868C113.838 194.649 115.147 199.175 115.351 205.152Z" fill="#1C663A"/>
<path d="M127.15 130.003C126.616 131.008 126.018 131.923 125.344 132.737L110.391 129.546L99.5317 127.231C99.5317 127.231 99.4808 124.866 100.778 121.497C103.206 115.215 110.353 105.399 131.309 100.745C131.309 100.757 132.694 119.627 127.15 130.003Z" fill="#278F51"/>
<path d="M127.15 130.003C126.616 131.008 126.019 131.923 125.345 132.737L110.391 129.545C110.226 128.248 110.2 126.989 110.277 125.781C111.281 109.874 131.321 100.744 131.321 100.744C131.321 100.744 132.694 119.627 127.15 130.003Z" fill="#32B768"/>
<path d="M127.15 130.003C126.616 131.008 126.018 131.923 125.344 132.75L110.391 129.558L99.5317 127.244C99.5317 127.244 99.4808 124.879 100.778 121.509C100.778 121.509 107.136 122.971 107.021 127.244C107.021 127.244 108.318 126.57 110.264 125.794C115.744 123.594 126.336 120.632 127.15 130.003Z" fill="#1C663A"/>
<path d="M68.4168 167.095C68.2133 167.4 61.0164 178.462 47.3853 175.308C33.5634 172.105 34.7713 148.466 52.5858 127.244C52.5858 127.244 74.8382 128.515 79.6193 145.465C84.4257 162.416 77.6356 170.502 68.4168 167.095Z" fill="#278F51"/>
<path d="M68.4168 167.095C68.2133 167.4 61.0164 178.462 47.3853 175.308C33.5634 172.105 34.7713 148.466 52.5858 127.244C68.8237 141.46 68.4168 167.095 68.4168 167.095Z" fill="#32B768"/>
<path d="M115.885 160.292C107.353 166.979 99.3929 175.766 96.9896 178.474C96.5193 179.009 96.265 179.314 96.265 179.314C73.8346 163.089 83.2442 124.84 93.2641 122.043C103.271 119.233 106.285 128.452 106.285 128.452C140.108 112.023 126.096 152.281 115.885 160.292Z" fill="#278F51"/>
<path d="M115.884 160.291C107.352 166.979 99.3918 175.766 96.9886 178.474C84.5272 145.579 106.271 128.439 106.271 128.439C140.107 112.023 126.095 152.281 115.884 160.291Z" fill="#32B768"/>
<path d="M99.5183 101.774C99.5183 101.774 100.675 91.0296 94.5465 88.601C88.4175 86.1723 78.0289 91.2585 75.0153 101.075L99.5183 101.774Z" fill="#32B768"/>
<path d="M61.5758 124.548L99.5191 101.774C99.5191 101.774 93.7462 89.7579 81.2086 94.844C68.671 99.9302 63.1398 116.918 61.5758 124.548Z" fill="#278F51"/>
<path d="M106.958 174.737C106.958 174.737 123.857 170.376 129.07 183.041C134.27 195.706 131.46 216.279 131.46 216.279L106.958 174.737Z" fill="#32B768"/>
<path d="M93.1363 181.832L131.461 216.279C131.449 216.279 128.129 153.616 93.1363 181.832Z" fill="#278F51"/>
<path d="M90.8105 208.128C80.0658 217.473 54.0751 216.215 54.0751 216.215C47.6918 176.517 69.6391 168.735 77.5863 169.51C85.5208 170.286 87.7079 179.314 87.7079 179.314C102.636 180.7 101.555 198.782 90.8105 208.128Z" fill="#278F51"/>
<path d="M90.8113 208.128C80.0666 217.473 54.076 216.215 54.076 216.215C62.481 184.617 87.6959 179.314 87.6959 179.314C102.637 180.7 101.556 198.782 90.8113 208.128Z" fill="#32B768"/>
<path d="M163.619 183.88C158.672 193.34 143.833 206.463 143.833 206.463C143.833 206.463 140.82 194.726 132.211 187.021C123.59 179.302 122.293 164.692 132.211 160.775C142.13 156.847 148.538 164.298 148.538 164.298C167.612 155.753 168.566 174.42 163.619 183.88Z" fill="#32B768"/>
<path d="M143.846 206.462C143.846 206.462 140.833 194.726 132.225 187.019C123.603 179.301 122.306 164.691 132.225 160.775C142.143 156.845 148.551 164.298 148.551 164.298C148.551 164.298 159.283 177.076 143.846 206.462Z" fill="#278F51"/>
</svg>
