<svg width="254" height="324" viewBox="0 0 254 324" fill="none" xmlns="http://www.w3.org/2000/svg">
<path d="M104.538 195.356C105.928 195.902 107.44 194.888 107.454 193.394C107.513 186.913 105.889 173.311 91.7866 169.38C65.1681 161.961 47.4202 212.311 47.0002 242.323C46.97 244.488 49.7965 245.333 50.9521 243.501C60.6929 228.065 87.5817 188.689 104.538 195.356V195.356Z" fill="#32B768"/>
<path d="M149.07 193.129C147.68 193.675 146.168 192.661 146.154 191.167C146.096 184.686 147.72 171.084 161.822 167.154C188.44 159.734 206.188 210.085 206.608 240.096C206.639 242.262 203.812 243.106 202.656 241.275C192.915 225.838 166.026 186.462 149.07 193.129V193.129Z" fill="#32B768"/>
<path d="M126.464 227.96C142.708 227.96 155.877 215.703 155.877 200.582C155.877 185.461 142.708 173.204 126.464 173.204C110.22 173.204 97.0518 185.461 97.0518 200.582C97.0518 215.703 110.22 227.96 126.464 227.96Z" fill="#6DC17D"/>
<path d="M87.6513 198.034C87.3079 198.045 86.9575 198.003 86.6101 197.902C84.839 197.385 83.8219 195.531 84.3385 193.76L118.673 76.546C119.189 74.7749 121.044 73.7582 122.814 74.2743C124.585 74.7909 125.602 76.6448 125.086 78.4159L90.7517 195.63C90.3367 197.054 89.0572 197.99 87.6513 198.034Z" fill="#AFE1C4"/>
<path d="M164.386 198.034C164.729 198.045 165.08 198.003 165.427 197.902C167.198 197.385 168.216 195.531 167.699 193.76L133.365 76.546C132.848 74.7749 130.993 73.7582 129.223 74.2743C127.452 74.7909 126.435 76.6448 126.951 78.4159L161.286 195.63C161.701 197.054 162.981 197.99 164.386 198.034Z" fill="#AFE1C4"/>
<path d="M126.019 281.82C94.8585 281.82 68.2445 256.739 63.0354 222.464L61.6656 213.449C61.2318 210.595 63.4407 208.026 66.3264 208.026H126.515L127.424 208.46L128.452 208.026H185.711C188.597 208.026 190.806 210.596 190.372 213.449L189.002 222.464C183.793 256.739 157.179 281.82 126.019 281.82V281.82Z" fill="white"/>
<path d="M185.711 208.026H172.351C175.237 208.026 177.446 210.596 177.012 213.449L175.642 222.464C170.81 254.26 147.554 278.141 119.338 281.428C121.537 281.684 123.766 281.82 126.018 281.82C157.179 281.82 183.792 256.739 189.002 222.464L190.372 213.449C190.806 210.596 188.598 208.026 185.711 208.026V208.026Z" fill="white"/>
<path d="M135.877 72.1248C136.79 66.7021 133.134 61.566 127.712 60.6531C122.289 59.7401 117.153 63.396 116.24 68.8187C115.327 74.2414 118.983 79.3775 124.406 80.2904C129.828 81.2034 134.964 77.5475 135.877 72.1248Z" fill="#E2F4EA"/>
<path d="M119.672 204.606C121.158 204.759 122.343 203.376 121.954 201.933C120.27 195.675 115.054 183.008 100.414 183.008C72.781 183.008 69.2032 236.274 76.8567 265.297C77.4089 267.391 80.3583 267.445 80.98 265.371C86.2185 247.886 101.548 202.737 119.672 204.606V204.606Z" fill="#278F51"/>
<path d="M127.424 208.461C127.424 208.461 119.507 188.532 103.468 194.468C87.8302 200.256 86.6612 239.783 101.339 259.917C101.339 259.918 101.342 259.921 101.342 259.919C101.364 259.598 105.129 205.843 127.424 208.461Z" fill="#32B768"/>
<path d="M135.176 204.606C133.69 204.759 132.506 203.376 132.894 201.933C134.578 195.675 139.794 183.008 154.434 183.008C182.067 183.008 185.645 236.274 177.992 265.297C177.439 267.391 174.49 267.445 173.868 265.371C168.63 247.886 153.301 202.737 135.176 204.606V204.606Z" fill="#278F51"/>
<path d="M127.424 208.461C127.424 208.461 135.342 188.532 151.38 194.468C167.018 200.256 168.187 239.783 153.509 259.917C153.508 259.918 153.506 259.921 153.506 259.919C153.484 259.6 149.72 205.843 127.424 208.461Z" fill="#32B768"/>
</svg>
