<svg width="254" height="324" viewBox="0 0 254 324" fill="none" xmlns="http://www.w3.org/2000/svg">
<path d="M127.291 283.874C174.948 283.874 213.582 281.333 213.582 278.197C213.582 275.061 174.948 272.52 127.291 272.52C79.6337 272.52 41 275.061 41 278.197C41 281.333 79.6337 283.874 127.291 283.874Z" fill="#D3E0D7"/>
<path d="M91.5831 217.373L92.0231 222.549L96.7596 279.49H156.289L164.053 217.373H91.5831Z" fill="white"/>
<path d="M83.8184 201.844V217.373H91.5831H164.053H171.818V201.844H127.818H83.8184Z" fill="white"/>
<path d="M91.5831 217.373L92.0231 222.549H163.406L164.053 217.373H91.5831Z" fill="#EFEFEF"/>
<g clip-path="url(#clip0)">
<path d="M111.839 138.866C111.112 138.867 110.45 139.285 110.138 139.942C109.826 140.599 109.92 141.376 110.379 141.94L123.129 157.633C123.486 158.073 124.022 158.33 124.589 158.33C124.694 158.324 124.799 158.309 124.901 158.285C125.56 158.177 126.112 157.726 126.349 157.102C126.586 156.477 126.473 155.775 126.053 155.256L123.362 151.943L113.302 139.563C112.945 139.122 112.407 138.865 111.839 138.866V138.866Z" fill="#278F51"/>
<path d="M129.767 158.285C129.87 158.309 129.975 158.324 130.081 158.33H130.086C130.653 158.33 131.19 158.073 131.546 157.633L144.297 141.94C144.755 141.376 144.849 140.599 144.537 139.942C144.225 139.285 143.564 138.867 142.837 138.866H142.831C142.264 138.867 141.728 139.123 141.371 139.563L131.308 151.943L128.617 155.256C128.196 155.775 128.083 156.477 128.32 157.102C128.557 157.726 129.109 158.177 129.767 158.285Z" fill="#278F51"/>
<path d="M124.508 172.32L119.427 158.725C119.294 158.43 119.283 158.095 119.397 157.793C119.511 157.491 119.741 157.246 120.035 157.114C120.33 156.981 120.665 156.97 120.967 157.084C121.269 157.198 121.513 157.427 121.646 157.722L126.726 171.317C126.859 171.612 126.871 171.947 126.756 172.249C126.642 172.551 126.413 172.796 126.118 172.928C125.824 173.061 125.489 173.072 125.187 172.958C124.885 172.844 124.64 172.615 124.508 172.32Z" fill="#278F51"/>
<path d="M128.551 192.392C128.257 192.26 128.027 192.015 127.913 191.713C127.799 191.411 127.81 191.076 127.943 190.781L133.023 177.186C133.156 176.891 133.4 176.662 133.702 176.548C134.004 176.434 134.339 176.445 134.633 176.578C134.928 176.71 135.157 176.955 135.271 177.257C135.386 177.559 135.375 177.894 135.242 178.189L130.162 191.784C130.029 192.079 129.785 192.308 129.482 192.422C129.181 192.536 128.846 192.525 128.551 192.392Z" fill="#278F51"/>
<path d="M124.508 191.784L119.427 178.189C119.294 177.894 119.283 177.559 119.397 177.257C119.511 176.955 119.741 176.71 120.035 176.578C120.33 176.445 120.665 176.434 120.967 176.548C121.269 176.662 121.513 176.891 121.646 177.186L126.726 190.781C126.859 191.076 126.871 191.411 126.756 191.713C126.642 192.015 126.413 192.26 126.118 192.392C125.824 192.525 125.489 192.536 125.187 192.422C124.885 192.308 124.64 192.079 124.508 191.784Z" fill="#278F51"/>
<path d="M128.551 172.928C128.257 172.796 128.027 172.551 127.913 172.249C127.799 171.947 127.81 171.612 127.943 171.317L133.023 157.722C133.156 157.427 133.4 157.198 133.702 157.084C134.004 156.97 134.339 156.981 134.633 157.114C134.928 157.246 135.157 157.491 135.271 157.793C135.386 158.095 135.375 158.43 135.242 158.725L130.162 172.32C130.029 172.615 129.785 172.844 129.482 172.958C129.181 173.072 128.846 173.061 128.551 172.928Z" fill="#278F51"/>
<path d="M129.767 202.124V154.437C129.767 153.784 129.504 153.159 129.037 152.701C128.092 151.774 126.578 151.774 125.631 152.701C125.165 153.159 124.902 153.784 124.901 154.437V202.124H129.767Z" fill="#278F51"/>
<path d="M127.334 134C125.991 134 124.901 135.089 124.901 136.433V149.68L127.334 154.004L129.767 149.68V136.433C129.767 135.089 128.678 134 127.334 134Z" fill="#278F51"/>
<path d="M127.269 173.504L114.519 157.811C114.162 157.37 113.625 157.114 113.059 157.114C112.332 157.114 111.67 157.533 111.358 158.19C111.046 158.846 111.14 159.624 111.599 160.188L124.349 175.881C124.706 176.321 125.242 176.577 125.809 176.578C125.913 176.571 126.016 176.557 126.118 176.533C126.777 176.425 127.328 175.974 127.565 175.35C127.802 174.725 127.69 174.023 127.269 173.504V173.504Z" fill="#1C663A"/>
<path d="M128.87 176.578C129.437 176.577 129.973 176.321 130.329 175.881L143.08 160.188C143.539 159.624 143.632 158.846 143.321 158.19C143.009 157.533 142.347 157.114 141.62 157.114H141.614C141.047 157.114 140.511 157.37 140.154 157.811L127.404 173.504C126.983 174.022 126.87 174.724 127.106 175.348C127.343 175.972 127.893 176.423 128.551 176.533C128.654 176.557 128.758 176.572 128.864 176.578H128.87Z" fill="#1C663A"/>
<path d="M111.586 178.435L124.336 194.128C124.693 194.569 125.229 194.825 125.796 194.825C125.904 194.82 126.012 194.805 126.118 194.78C126.777 194.672 127.328 194.221 127.565 193.597C127.802 192.973 127.69 192.27 127.269 191.752L114.519 176.059C114.162 175.618 113.626 175.362 113.059 175.361C112.329 175.357 111.663 175.774 111.348 176.431C111.032 177.089 111.125 177.87 111.586 178.435Z" fill="#1C663A"/>
<path d="M128.87 194.825C129.437 194.825 129.973 194.569 130.329 194.128L143.08 178.435C143.539 177.872 143.632 177.094 143.321 176.438C143.009 175.781 142.347 175.362 141.62 175.361H141.614C141.047 175.362 140.511 175.618 140.154 176.059L127.404 191.752C126.983 192.269 126.87 192.972 127.106 193.596C127.343 194.22 127.893 194.671 128.551 194.78C128.654 194.804 128.758 194.82 128.864 194.825H128.87Z" fill="#1C663A"/>
<path d="M121.801 151.602L115.535 140.46C115.206 139.876 115.212 139.162 115.55 138.584C115.888 138.005 116.507 137.65 117.176 137.65H117.717C118.398 137.65 119.025 138.017 119.359 138.611L127.334 152.788L135.31 138.611C135.644 138.017 136.272 137.65 136.952 137.65H137.492C138.162 137.65 138.781 138.005 139.119 138.584C139.457 139.162 139.463 139.876 139.135 140.46L132.867 151.602C131.832 153.444 130.548 155.135 129.051 156.627C128.102 157.572 126.567 157.572 125.618 156.627C124.121 155.135 122.836 153.444 121.801 151.602Z" fill="#1C663A"/>
</g>
<defs>
<clipPath id="clip0">
<rect width="68.1245" height="68.1245" fill="white" transform="translate(93.2288 134)"/>
</clipPath>
</defs>
</svg>
