<svg width="254" height="324" viewBox="0 0 254 324" fill="none" xmlns="http://www.w3.org/2000/svg">
<g clip-path="url(#clip0)">
<g clip-path="url(#clip1)">
<g clip-path="url(#clip2)">
<path d="M82.9604 111.067C83.1673 111.347 83.4785 111.533 83.8238 111.582C84.1692 111.63 84.5199 111.537 84.7957 111.323C84.9152 111.229 85.0469 111.138 85.1793 111.048C85.8839 110.515 86.6006 109.987 87.3127 109.471C88.6354 108.486 89.9616 107.529 91.3043 106.565C91.689 106.294 91.8991 105.838 91.8547 105.371C91.8103 104.903 91.5179 104.495 91.0895 104.302C90.6606 104.109 90.1616 104.16 89.7819 104.438C88.3067 105.492 86.8397 106.564 85.3842 107.64L83.2339 109.224L83.2294 109.236C82.652 109.668 82.5318 110.486 82.9604 111.067Z" fill="#32B768"/>
<path d="M114.69 167.485C114.848 167.529 115.009 167.561 115.171 167.582C116.058 167.751 116.96 167.824 117.862 167.797C122.022 167.638 126.125 166.773 129.995 165.24C133.584 163.777 143.825 159.85 142.357 155.867C140.872 151.893 131.063 156.529 127.592 158.162C123.916 159.957 120.466 162.182 117.314 164.791C116.511 165.473 115.763 166.216 115.077 167.015C114.94 167.165 114.811 167.321 114.69 167.485Z" fill="#32B768"/>
<path d="M110.197 155.658C110.951 155.787 111.714 155.85 112.478 155.845C113.38 155.86 114.28 155.826 115.177 155.742C118.671 155.396 122.106 154.606 125.4 153.389C129.02 151.952 138.369 148.165 136.933 144.209C135.485 140.247 126.477 144.318 123.035 145.989C119.84 147.642 116.822 149.615 114.028 151.879C113.241 152.521 112.511 153.156 111.865 153.795C111.265 154.375 110.707 154.998 110.197 155.658Z" fill="#32B768"/>
<path d="M108.003 142.934C108.931 143.165 109.885 143.28 110.842 143.275C114.151 143.23 117.421 142.556 120.479 141.289C123.656 139.951 131.721 136.227 130.185 132.499C128.653 128.759 120.876 132.312 117.791 133.964C114.771 135.807 112.057 138.11 109.747 140.791C109.093 141.524 108.497 142.252 108.003 142.934Z" fill="#32B768"/>
<path d="M103.025 131.877C103.729 131.936 104.436 131.945 105.142 131.904C108.348 131.672 111.492 130.901 114.441 129.624C117.17 128.327 124.105 124.891 122.519 121.816C120.944 118.746 113.658 122.483 111.062 124.026C108.401 125.648 106.048 127.73 104.114 130.173C103.707 130.712 103.343 131.281 103.025 131.877Z" fill="#32B768"/>
<path d="M96.1819 123.057C97.1635 123.076 98.1436 122.99 99.1065 122.801C101.616 122.347 104.052 121.555 106.349 120.445C108.594 119.275 114.864 116.008 113.287 113.58C111.701 111.136 105.466 114.794 103.232 116.193C101.173 117.51 99.3047 119.106 97.6814 120.934C97.103 121.583 96.6 122.295 96.1819 123.057Z" fill="#32B768"/>
<path d="M89.5773 115.391C90.6355 115.414 91.6926 115.304 92.7239 115.064L92.7366 115.069C94.4451 114.71 96.0964 114.116 97.6422 113.304C99.5328 112.224 103.96 109.314 102.365 107.229C100.758 105.14 96.0268 108.077 94.1942 109.374C92.8481 110.354 91.6891 111.568 90.7733 112.958C90.251 113.702 89.8476 114.523 89.5773 115.391V115.391Z" fill="#32B768"/>
<path d="M115.077 167.015C115.102 167.206 115.145 167.39 115.172 167.582C116.058 167.751 116.96 167.824 117.862 167.797C117.71 166.788 117.516 165.777 117.314 164.791C116.511 165.473 115.763 166.216 115.077 167.015V167.015Z" fill="#278F51"/>
<path d="M111.865 153.795C112.083 154.479 112.289 155.158 112.479 155.845C113.38 155.86 114.281 155.826 115.177 155.742C114.825 154.447 114.431 153.151 114.028 151.879C113.241 152.521 112.511 153.156 111.865 153.795Z" fill="#278F51"/>
<path d="M108.002 142.934C108.931 143.165 109.885 143.28 110.842 143.275C110.501 142.433 110.139 141.61 109.747 140.791C109.093 141.524 108.497 142.252 108.002 142.934Z" fill="#278F51"/>
<path d="M104.114 130.173C103.707 130.712 103.343 131.281 103.025 131.877C103.729 131.936 104.436 131.945 105.142 131.904C104.816 131.319 104.461 130.738 104.114 130.173Z" fill="#278F51"/>
<path d="M96.1819 123.058C97.1636 123.076 98.1436 122.99 99.1066 122.801C98.6457 122.165 98.1681 121.538 97.6814 120.934C97.103 121.583 96.6001 122.295 96.1819 123.058Z" fill="#278F51"/>
<path d="M89.5772 115.391C90.6354 115.414 91.6925 115.304 92.7238 115.064C92.0964 114.352 91.4391 113.643 90.7732 112.958C90.2509 113.702 89.8475 114.523 89.5772 115.391Z" fill="#278F51"/>
<path d="M83.2338 109.224C83.8866 109.833 84.5391 110.443 85.1792 111.048C85.8838 110.515 86.6005 109.987 87.3126 109.471C86.6768 108.854 86.0369 108.249 85.3841 107.64L83.2338 109.224Z" fill="#278F51"/>
<path d="M77.9172 115.578C78.3143 115.728 78.7597 115.677 79.1118 115.439C80.9763 114.184 81.8049 113.346 83.7238 111.866C84.2964 111.424 84.4028 110.601 83.9612 110.028C83.5191 109.455 82.6964 109.349 82.1235 109.791C80.2496 111.236 79.4671 112.042 77.6485 113.266C77.2412 113.539 77.0217 114.017 77.0779 114.504C77.1346 114.991 77.4586 115.406 77.917 115.579L77.9172 115.578Z" fill="#278F51"/>
<path d="M99.8302 169.731C103.284 168.279 110.216 166.552 114.448 167.584C111.784 170.974 105.616 175.119 102.27 176.736C98.9249 178.353 88.6812 182.442 87.3396 178.581C85.9977 174.719 96.3772 171.182 99.8302 169.731Z" fill="#278F51"/>
<path d="M97.0205 156.997C101.52 155.374 106.307 154.702 111.08 155.025C107.855 158.669 103.982 161.684 99.6566 163.915C96.3991 165.5 87.0079 169.441 85.6314 165.751C84.2554 162.062 93.7012 158.375 97.0205 156.997V156.997Z" fill="#278F51"/>
<path d="M93.7122 145.367C96.9442 143.976 103.81 141.817 107.81 143.022C105.312 146.496 98.8785 150.807 95.6671 152.351C92.4561 153.895 84.208 157.84 82.8114 154.314C81.4148 150.788 90.4809 146.758 93.7122 145.367V145.367Z" fill="#278F51"/>
<path d="M89.6048 134.951C86.697 136.366 78.8316 140.479 80.4287 143.417C82.0265 146.355 90.1257 141.634 92.889 140.216C95.6523 138.798 101.224 135.366 102.838 131.97C99.0031 131.481 92.5123 133.534 89.6048 134.951V134.951Z" fill="#278F51"/>
<path d="M85.5216 125.802C83.1823 126.903 76.9258 130.65 78.3213 132.967C79.7171 135.283 86.0981 131.034 88.2938 129.833C90.4892 128.631 94.718 125.803 96.0352 123.134C92.9842 122.985 87.8603 124.702 85.5216 125.802V125.802Z" fill="#278F51"/>
<path d="M81.8887 117.52C80.218 118.487 76.1968 120.915 77.4825 122.698C78.7681 124.482 83.1261 121.951 84.8462 120.92C86.9756 119.684 88.6157 117.755 89.4926 115.454C86.8293 115.527 84.2223 116.236 81.8887 117.52V117.52Z" fill="#278F51"/>
<path d="M116.398 189.832C116.809 189.986 117.269 189.924 117.625 189.668C117.981 189.411 118.185 188.993 118.169 188.555C116.795 152.783 105.333 127.317 81.0012 105.988C80.6493 105.679 80.1592 105.581 79.7162 105.732C79.2726 105.883 78.9436 106.258 78.8521 106.717C78.761 107.176 78.9214 107.649 79.2733 107.958C103.02 128.774 114.207 153.662 115.549 188.655C115.569 189.182 115.904 189.646 116.398 189.832V189.832Z" fill="#1C663A"/>
</g>
<g clip-path="url(#clip3)">
<path d="M166.738 118.313C166.489 118.576 166.145 118.728 165.784 118.734C165.422 118.74 165.073 118.6 164.816 118.345C164.705 118.233 164.581 118.123 164.456 118.013C163.798 117.376 163.127 116.742 162.46 116.121C161.223 114.938 159.979 113.786 158.719 112.624C158.357 112.297 158.199 111.801 158.304 111.325C158.408 110.849 158.761 110.466 159.226 110.322C159.692 110.177 160.199 110.293 160.555 110.627C161.94 111.899 163.314 113.188 164.676 114.479L166.689 116.382L166.692 116.395C167.232 116.913 167.252 117.77 166.738 118.313Z" fill="#32B768"/>
<path d="M126.94 172.369C126.772 172.395 126.602 172.407 126.432 172.408C125.498 172.471 124.56 172.431 123.636 172.289C119.373 171.599 115.26 170.19 111.47 168.122C107.962 166.163 97.9172 160.824 99.9326 156.911C101.964 153.008 111.474 159.021 114.839 161.141C118.396 163.453 121.666 166.18 124.58 169.265C125.32 170.068 125.996 170.928 126.601 171.836C126.723 172.008 126.836 172.186 126.94 172.369Z" fill="#32B768"/>
<path d="M133.061 160.765C132.269 160.802 131.475 160.77 130.689 160.669C129.76 160.57 128.837 160.421 127.924 160.221C124.371 159.423 120.936 158.175 117.7 156.505C114.155 154.569 105.012 149.488 106.99 145.597C108.982 141.703 117.738 147.032 121.071 149.188C124.15 151.293 127.007 153.706 129.596 156.391C130.325 157.15 130.996 157.896 131.58 158.636C132.124 159.309 132.62 160.02 133.061 160.765Z" fill="#32B768"/>
<path d="M136.93 147.945C135.945 148.066 134.948 148.064 133.964 147.937C130.564 147.472 127.283 146.365 124.296 144.674C121.195 142.895 113.365 138.041 115.417 134.398C117.468 130.742 125.023 135.384 127.99 137.474C130.865 139.753 133.367 142.467 135.405 145.519C135.985 146.357 136.507 147.181 136.93 147.945Z" fill="#32B768"/>
<path d="M143.452 137.194C142.72 137.166 141.991 137.086 141.27 136.954C137.999 136.31 134.86 135.119 131.987 133.431C129.342 131.751 122.639 127.336 124.66 124.372C126.669 121.411 133.696 126.18 136.173 128.096C138.707 130.103 140.865 132.543 142.547 135.303C142.897 135.909 143.2 136.541 143.452 137.194Z" fill="#32B768"/>
<path d="M151.612 128.983C150.599 128.877 149.601 128.665 148.634 128.348C146.108 127.564 143.7 126.44 141.477 125.007C139.314 123.519 133.274 119.363 135.205 117.063C137.146 114.748 143.101 119.302 145.224 121.024C147.177 122.642 148.897 124.52 150.337 126.607C150.85 127.349 151.278 128.145 151.612 128.983Z" fill="#32B768"/>
<path d="M159.38 121.927C158.288 121.817 157.213 121.57 156.182 121.192L156.169 121.195C154.456 120.61 152.831 119.79 151.343 118.759C149.533 117.408 145.345 113.852 147.25 111.908C149.169 109.961 153.667 113.582 155.389 115.15C156.65 116.328 157.69 117.725 158.457 119.271C158.9 120.104 159.211 120.999 159.38 121.927V121.927Z" fill="#32B768"/>
<path d="M126.601 171.836C126.551 172.031 126.483 172.214 126.432 172.409C125.498 172.471 124.56 172.431 123.636 172.29C123.92 171.27 124.247 170.254 124.58 169.265C125.32 170.068 125.996 170.928 126.601 171.836V171.836Z" fill="#278F51"/>
<path d="M131.58 158.636C131.269 159.312 130.971 159.986 130.689 160.669C129.759 160.57 128.836 160.421 127.924 160.221C128.451 158.933 129.02 157.648 129.596 156.391C130.325 157.15 130.995 157.896 131.58 158.636Z" fill="#278F51"/>
<path d="M136.93 147.945C135.945 148.066 134.948 148.064 133.964 147.937C134.421 147.113 134.898 146.313 135.405 145.519C135.985 146.357 136.507 147.181 136.93 147.945Z" fill="#278F51"/>
<path d="M142.545 135.303C142.895 135.908 143.198 136.54 143.45 137.193C142.718 137.165 141.99 137.085 141.27 136.953C141.678 136.393 142.117 135.84 142.545 135.303Z" fill="#278F51"/>
<path d="M151.612 128.982C150.599 128.877 149.601 128.665 148.634 128.348C149.189 127.752 149.76 127.167 150.337 126.607C150.85 127.348 151.278 128.145 151.612 128.982Z" fill="#278F51"/>
<path d="M159.38 121.928C158.288 121.817 157.213 121.57 156.182 121.192C156.918 120.539 157.684 119.892 158.457 119.271C158.9 120.104 159.211 120.999 159.38 121.928Z" fill="#278F51"/>
<path d="M166.689 116.382C165.94 116.927 165.191 117.472 164.456 118.013C163.798 117.376 163.127 116.742 162.46 116.121C163.192 115.566 163.927 115.024 164.676 114.479L166.689 116.382Z" fill="#278F51"/>
<path d="M171.358 123.595C170.93 123.699 170.478 123.59 170.146 123.301C168.385 121.773 167.639 120.805 165.851 119.039C165.317 118.512 165.312 117.651 165.839 117.118C166.366 116.584 167.227 116.579 167.76 117.107C169.506 118.83 170.21 119.759 171.927 121.249C172.311 121.582 172.477 122.101 172.357 122.595C172.237 123.089 171.852 123.475 171.358 123.596L171.358 123.595Z" fill="#278F51"/>
<path d="M141.951 176.561C138.58 174.63 131.663 171.975 127.177 172.503C129.489 176.328 135.314 181.376 138.553 183.463C141.792 185.551 151.818 191.055 153.688 187.251C155.557 183.446 145.321 178.492 141.951 176.561Z" fill="#278F51"/>
<path d="M146.454 163.81C142.028 161.57 137.186 160.273 132.232 160.002C135.09 164.161 138.696 167.753 142.865 170.597C146.018 172.64 155.185 177.885 157.069 174.262C158.952 170.638 149.696 165.649 146.454 163.81V163.81Z" fill="#278F51"/>
<path d="M151.331 152.258C148.18 150.417 141.387 147.326 137.116 148.06C139.249 151.952 145.325 157.203 148.435 159.199C151.545 161.195 159.535 166.299 161.419 162.846C163.302 159.394 154.481 154.098 151.331 152.258V152.258Z" fill="#278F51"/>
<path d="M156.876 142.056C159.69 143.881 167.266 149.11 165.25 151.932C163.234 154.754 155.494 148.87 152.83 147.06C150.165 145.251 144.864 141.014 143.632 137.314C147.642 137.295 154.063 140.23 156.876 142.056V142.056Z" fill="#278F51"/>
<path d="M162.237 133.156C164.505 134.585 170.471 139.234 168.741 141.442C167.012 143.65 160.981 138.469 158.873 136.955C156.766 135.44 152.771 131.993 151.753 129.08C154.912 129.312 159.969 131.728 162.237 133.156V133.156Z" fill="#278F51"/>
<path d="M167.024 125.091C168.622 126.298 172.453 129.306 170.904 130.978C169.355 132.652 165.19 129.495 163.55 128.217C161.514 126.675 160.07 124.482 159.459 122.003C162.191 122.415 164.785 123.474 167.024 125.091V125.091Z" fill="#278F51"/>
<path d="M122.354 195.155C121.912 195.262 121.446 195.14 121.112 194.831C120.778 194.521 120.621 194.065 120.693 193.616C126.633 156.97 141.653 132.209 169.397 113.333C169.798 113.06 170.315 113.022 170.752 113.233C171.189 113.444 171.481 113.872 171.517 114.356C171.552 114.84 171.327 115.306 170.926 115.58C143.85 134.001 129.186 158.203 123.377 194.051C123.289 194.591 122.886 195.026 122.354 195.155V195.155Z" fill="#1C663A"/>
</g>
<g clip-path="url(#clip4)">
<path d="M14.8984 173.82C15.2457 173.788 15.5658 173.618 15.7862 173.348C16.0062 173.077 16.1082 172.729 16.068 172.382C16.0487 172.231 16.0396 172.072 16.0306 171.911C15.9396 171.033 15.8589 170.147 15.7862 169.27C15.6272 167.628 15.4949 165.998 15.3652 164.35C15.3329 163.881 15.0516 163.466 14.6283 163.261C14.205 163.057 13.7044 163.096 13.3177 163.363C12.9306 163.63 12.7165 164.084 12.7572 164.552C12.896 166.36 13.0534 168.17 13.2206 169.972L13.4632 172.632L13.4712 172.642C13.5422 173.36 14.1799 173.886 14.8984 173.82Z" fill="#32B768"/>
<path d="M79.5941 175.873C79.7137 175.761 79.8243 175.64 79.9265 175.511C80.5302 174.841 81.0591 174.106 81.503 173.321C83.5206 169.679 84.904 165.721 85.5952 161.616C86.2012 157.788 88.1418 146.992 83.9741 146.188C79.8051 145.401 78.6947 156.193 78.2956 160.008C77.9284 164.083 78.0466 168.186 78.6478 172.234C78.8152 173.273 79.0642 174.298 79.3921 175.299C79.4495 175.494 79.5169 175.685 79.5941 175.873Z" fill="#32B768"/>
<path d="M67.1499 173.596C67.6501 173.018 68.0988 172.397 68.4907 171.741C68.9698 170.977 69.4065 170.189 69.7988 169.378C71.3119 166.21 72.4134 162.861 73.077 159.413C73.7216 155.572 75.3201 145.613 71.1915 144.794C67.0528 143.983 65.873 153.796 65.5214 157.607C65.2815 161.196 65.4076 164.8 65.899 168.362C66.0403 169.368 66.2064 170.321 66.4184 171.204C66.604 172.018 66.8484 172.818 67.1499 173.596Z" fill="#32B768"/>
<path d="M55.1262 168.887C55.805 168.213 56.3972 167.456 56.8878 166.635C58.5624 163.78 59.6785 160.634 60.1766 157.362C60.6767 153.951 61.6646 145.122 57.6801 144.507C53.6867 143.881 52.7018 152.375 52.518 155.87C52.5315 159.408 53.0976 162.922 54.196 166.285C54.485 167.225 54.7992 168.111 55.1262 168.887Z" fill="#32B768"/>
<path d="M43.0893 167.424C43.5044 166.852 43.8783 166.251 44.2082 165.626C45.6697 162.763 46.6374 159.674 47.0706 156.489C47.3732 153.484 48.0226 145.771 44.5709 145.537C41.129 145.295 40.5557 153.463 40.5315 156.483C40.5428 159.6 41.1061 162.69 42.1953 165.61C42.4456 166.237 42.7444 166.843 43.0893 167.424Z" fill="#32B768"/>
<path d="M32.0014 168.714C32.5254 167.883 32.9591 167 33.2954 166.078C34.2065 163.696 34.7896 161.202 35.0286 158.663C35.1897 156.135 35.6398 149.08 32.7459 149.173C29.8336 149.265 29.7362 156.492 29.7767 159.128C29.8383 161.572 30.2367 163.996 30.9606 166.331C31.2167 167.162 31.5653 167.961 32.0014 168.714Z" fill="#32B768"/>
<path d="M22.0236 170.397C22.5909 169.503 23.044 168.542 23.372 167.535L23.3826 167.527C23.96 165.879 24.3067 164.159 24.4121 162.416C24.4664 160.239 24.2676 154.945 21.6589 155.23C19.0395 155.524 19.1032 161.092 19.2648 163.332C19.4063 164.991 19.8451 166.611 20.5603 168.114C20.9271 168.946 21.4203 169.716 22.0236 170.397V170.397Z" fill="#32B768"/>
<path d="M79.3922 175.299C79.5694 175.376 79.7489 175.434 79.9266 175.512C80.5303 174.841 81.0593 174.106 81.5031 173.321C80.561 172.929 79.5962 172.571 78.6479 172.234C78.8153 173.273 79.0643 174.298 79.3922 175.299V175.299Z" fill="#278F51"/>
<path d="M66.4184 171.204C67.1166 171.372 67.8049 171.547 68.4907 171.741C68.9698 170.977 69.4065 170.189 69.7988 169.378C68.5086 169.01 67.1959 168.675 65.899 168.362C66.0403 169.368 66.2064 170.321 66.4184 171.204Z" fill="#278F51"/>
<path d="M55.1261 168.887C55.805 168.213 56.3971 167.456 56.8877 166.635C55.9907 166.49 55.0996 166.374 54.196 166.285C54.485 167.225 54.7992 168.111 55.1261 168.887Z" fill="#278F51"/>
<path d="M42.1954 165.61C42.4456 166.237 42.7445 166.843 43.0893 167.424C43.5044 166.852 43.8784 166.251 44.2083 165.626C43.5396 165.602 42.8582 165.605 42.1954 165.61Z" fill="#278F51"/>
<path d="M32.0014 168.714C32.5254 167.883 32.9591 167 33.2954 166.078C32.5133 166.144 31.7289 166.227 30.9606 166.332C31.2168 167.162 31.5654 167.961 32.0014 168.714Z" fill="#278F51"/>
<path d="M22.0236 170.397C22.5909 169.503 23.044 168.542 23.372 167.535C22.4381 167.703 21.491 167.898 20.5603 168.114C20.9272 168.946 21.4203 169.716 22.0236 170.397Z" fill="#278F51"/>
<path d="M13.4631 172.632C14.3223 172.389 15.1819 172.146 16.0304 171.912C15.9395 171.033 15.8588 170.147 15.7861 169.27C14.9287 169.495 14.0798 169.729 13.2205 169.972L13.4631 172.632Z" fill="#278F51"/>
<path d="M16.1482 180.47C16.4823 180.208 16.6686 179.8 16.6478 179.376C16.5389 177.131 16.2503 175.988 15.9772 173.58C15.8958 172.862 15.2465 172.345 14.5279 172.426C13.8089 172.508 13.2922 173.157 13.374 173.876C13.64 176.227 13.9248 177.314 14.0307 179.503C14.0538 179.993 14.3488 180.428 14.7943 180.632C15.2404 180.835 15.7631 180.773 16.1486 180.471L16.1482 180.47Z" fill="#278F51"/>
<path d="M73.8245 189.75C74.3703 186.044 76.4803 179.218 79.5541 176.132C81.0753 180.165 81.4295 187.589 81.0815 191.288C80.7335 194.988 78.9297 205.869 74.9317 205.018C70.9328 204.167 73.2788 193.456 73.8245 189.75Z" fill="#278F51"/>
<path d="M61.4748 185.563C62.4151 180.873 64.3183 176.43 67.0648 172.513C68.5139 177.158 69.0882 182.033 68.7585 186.888C68.4282 190.496 66.9397 200.571 63.0703 199.839C59.2014 199.107 60.9363 189.117 61.4748 185.563V185.563Z" fill="#278F51"/>
<path d="M49.8117 182.374C50.2941 178.889 52.0007 171.897 55.1024 169.097C56.7814 173.034 57.14 180.769 56.7988 184.316C56.4585 187.863 55.5643 196.962 51.8247 196.332C48.0851 195.702 49.3293 185.859 49.8117 182.374V182.374Z" fill="#278F51"/>
<path d="M38.7731 180.497C38.4793 183.718 37.9274 192.576 41.2678 192.73C44.6085 192.884 44.7615 183.511 44.9782 180.412C45.1949 177.314 45.143 170.771 43.0725 167.631C40.6687 170.66 39.0661 177.276 38.7731 180.497V180.497Z" fill="#278F51"/>
<path d="M28.8321 179.255C28.5628 181.827 28.5311 189.12 31.2358 189.125C33.9401 189.129 33.6072 181.47 33.7161 178.97C33.8241 176.469 33.5925 171.387 31.991 168.879C30.2841 171.412 29.1009 176.685 28.8321 179.255V179.255Z" fill="#278F51"/>
<path d="M19.8654 178.077C19.8275 180.007 19.8237 184.704 22.0151 184.527C24.2068 184.351 24.2967 179.312 24.3053 177.307C24.3499 174.845 23.5479 172.443 22.0333 170.502C20.7173 172.818 19.9741 175.415 19.8654 178.077V178.077Z" fill="#278F51"/>
<path d="M99.5988 185.979C99.9432 185.707 100.129 185.281 100.094 184.843C100.058 184.406 99.8061 184.015 99.4224 183.802C68.1045 166.462 40.3829 163.089 9.53845 172.867C9.09201 173.008 8.7549 173.377 8.65461 173.834C8.55385 174.292 8.70456 174.768 9.04988 175.083C9.39602 175.399 9.88338 175.507 10.3298 175.365C40.4319 165.822 67.5173 169.132 98.1528 186.096C98.6141 186.351 99.184 186.305 99.5988 185.979V185.979Z" fill="#1C663A"/>
</g>
<g clip-path="url(#clip5)">
<path d="M39.645 130.339C39.9537 130.501 40.3148 130.533 40.6467 130.426C40.9785 130.318 41.2534 130.082 41.4082 129.769C41.4743 129.631 41.5533 129.493 41.6329 129.353C42.0342 128.567 42.4485 127.779 42.864 127.004C43.6234 125.539 44.3987 124.099 45.1857 122.646C45.4138 122.235 45.4037 121.733 45.1595 121.331C44.9153 120.93 44.4739 120.69 44.0044 120.704C43.5343 120.717 43.1079 120.982 42.8873 121.397C42.0207 122.99 41.1688 124.594 40.3292 126.198L39.0864 128.562L39.0876 128.575C38.7569 129.216 39.006 130.004 39.645 130.339Z" fill="#00752F"/>
<path d="M92.8244 167.24C92.9858 167.211 93.1443 167.17 93.2999 167.118C94.1714 166.883 95.0146 166.554 95.8141 166.137C99.4878 164.177 102.801 161.608 105.613 158.538C108.203 155.656 115.702 147.65 112.642 144.709C109.571 141.782 102.77 150.235 100.361 153.22C97.8375 156.44 95.7052 159.948 94.009 163.672C93.5843 164.635 93.2359 165.631 92.9672 166.649C92.9093 166.844 92.8617 167.041 92.8244 167.24Z" fill="#00752F"/>
<path d="M83.6187 158.563C84.3529 158.35 85.0671 158.072 85.7526 157.735C86.5698 157.355 87.3651 156.931 88.1352 156.464C91.1279 154.627 93.873 152.416 96.3047 149.883C98.9343 147.01 105.691 139.521 102.672 136.588C99.6393 133.657 93.3131 141.252 90.9458 144.259C88.7931 147.14 86.9393 150.233 85.4146 153.491C84.9865 154.411 84.6077 155.301 84.3052 156.158C84.0185 156.942 83.7887 157.746 83.6187 158.563Z" fill="#00752F"/>
<path d="M76.088 148.074C77.0245 147.877 77.9331 147.563 78.7914 147.141C81.749 145.656 84.3966 143.622 86.5938 141.147C88.8681 138.556 94.498 131.683 91.4884 129.001C88.477 126.304 83.0322 132.897 80.9775 135.73C79.0651 138.707 77.6292 141.964 76.7223 145.384C76.454 146.33 76.2356 147.245 76.088 148.074Z" fill="#00752F"/>
<path d="M66.7822 140.3C67.4415 140.046 68.0819 139.745 68.6986 139.4C71.4819 137.792 73.9738 135.725 76.0691 133.288C77.9573 130.93 82.696 124.811 79.9267 122.737C77.1697 120.662 72.2468 127.206 70.5845 129.727C68.8993 132.349 67.6917 135.249 67.0183 138.291C66.8874 138.954 66.8083 139.625 66.7822 140.3Z" fill="#00752F"/>
<path d="M56.7751 135.354C57.6663 134.942 58.5105 134.436 59.2941 133.845C61.3539 132.342 63.1997 130.565 64.7809 128.564C66.2904 126.531 70.5043 120.855 68.0251 119.359C65.5312 117.852 61.5194 123.865 60.1202 126.099C58.8428 128.184 57.8591 130.435 57.1969 132.788C56.9601 133.625 56.8183 134.485 56.7751 135.354Z" fill="#00752F"/>
<path d="M47.4861 131.341C48.4481 130.899 49.3511 130.339 50.1739 129.672L50.1874 129.671C51.5678 128.602 52.7941 127.347 53.8302 125.942C55.0594 124.144 57.7714 119.593 55.4268 118.414C53.0686 117.236 50.0944 121.944 49.0123 123.911C48.2291 125.381 47.7165 126.979 47.4994 128.629C47.3547 129.527 47.35 130.441 47.4861 131.341V131.341Z" fill="#00752F"/>
<path d="M92.9673 166.649C93.0739 166.81 93.1928 166.957 93.3001 167.118C94.1715 166.883 95.0147 166.554 95.8143 166.137C95.237 165.295 94.6216 164.471 94.0091 163.672C93.5844 164.635 93.236 165.631 92.9673 166.649V166.649Z" fill="#278F51"/>
<path d="M84.3054 156.158C84.8003 156.678 85.2824 157.2 85.7528 157.735C86.57 157.355 87.3653 156.93 88.1354 156.463C87.253 155.453 86.3329 154.458 85.4148 153.491C84.9867 154.411 84.6079 155.301 84.3054 156.158Z" fill="#278F51"/>
<path d="M76.0881 148.074C77.0246 147.877 77.9332 147.563 78.7915 147.141C78.1172 146.532 77.4323 145.95 76.7223 145.384C76.454 146.33 76.2356 147.244 76.0881 148.074Z" fill="#278F51"/>
<path d="M67.0183 138.291C66.8874 138.954 66.8083 139.625 66.7821 140.3C67.4415 140.046 68.0819 139.745 68.6985 139.4C68.1504 139.016 67.577 138.648 67.0183 138.291Z" fill="#278F51"/>
<path d="M56.7753 135.354C57.6666 134.942 58.5107 134.436 59.2943 133.846C58.6023 133.475 57.8985 133.119 57.1971 132.788C56.9603 133.625 56.8185 134.485 56.7753 135.354Z" fill="#278F51"/>
<path d="M47.4862 131.341C48.4481 130.899 49.3512 130.339 50.1739 129.672C49.2987 129.306 48.3976 128.954 47.4995 128.629C47.3547 129.527 47.3501 130.441 47.4862 131.341Z" fill="#278F51"/>
<path d="M39.0864 128.562C39.9397 128.825 40.793 129.089 41.6328 129.353C42.0342 128.567 42.4484 127.779 42.8639 127.004C42.0223 126.726 41.1824 126.461 40.3291 126.198L39.0864 128.562Z" fill="#278F51"/>
<path d="M37.078 136.6C37.5009 136.562 37.879 136.321 38.0922 135.954C39.2215 134.01 39.6008 132.894 40.6808 130.725C41.0032 130.077 40.7395 129.29 40.0921 128.968C39.4442 128.646 38.6578 128.909 38.3354 129.557C37.2802 131.675 36.9284 132.742 35.8266 134.637C35.5796 135.061 35.5907 135.586 35.8538 136C36.1174 136.413 36.59 136.645 37.0781 136.601L37.078 136.6Z" fill="#278F51"/>
<path d="M80.4366 175.75C82.91 172.936 88.392 168.355 92.65 167.436C91.7337 171.648 87.9942 178.071 85.6906 180.987C83.3871 183.902 75.9567 192.053 73.0639 189.165C70.1704 186.277 77.9637 178.563 80.4366 175.75Z" fill="#278F51"/>
<path d="M72.3489 165.521C75.6881 162.096 79.7016 159.401 84.1361 157.608C82.8264 162.294 80.658 166.697 77.7411 170.593C75.5024 173.441 68.7747 181.087 65.9254 178.369C63.0766 175.651 69.9647 168.21 72.3489 165.521V165.521Z" fill="#278F51"/>
<path d="M64.2946 156.502C66.5948 153.84 71.8287 148.9 75.954 148.237C75.2228 152.453 71.3175 159.14 69.1026 161.931C66.8883 164.723 61.1904 171.873 58.3945 169.311C55.5985 166.749 61.995 159.165 64.2946 156.502V156.502Z" fill="#278F51"/>
<path d="M56.0513 148.925C54.0534 151.468 48.7733 158.603 51.493 160.548C54.2132 162.494 59.4383 154.71 61.3049 152.228C63.1716 149.745 66.6858 144.226 66.6553 140.465C62.9913 141.7 58.0486 146.381 56.0513 148.925V148.925Z" fill="#278F51"/>
<path d="M48.3834 142.477C46.7593 144.489 42.7671 150.592 45.0342 152.067C47.3013 153.542 51.1866 146.933 52.6375 144.893C54.0877 142.854 56.657 138.462 56.6768 135.486C53.8669 136.684 50.0068 140.466 48.3834 142.477V142.477Z" fill="#278F51"/>
<path d="M41.4987 136.613C40.4176 138.212 37.8602 142.152 39.7956 143.195C41.731 144.239 44.5465 140.058 45.6439 138.38C47.02 136.339 47.6529 133.887 47.4373 131.434C45.0732 132.663 43.0372 134.438 41.4987 136.613V136.613Z" fill="#278F51"/>
<path d="M104.118 186.599C104.555 186.558 104.943 186.302 105.151 185.915C105.359 185.529 105.36 185.064 105.154 184.677C88.299 153.095 66.8679 135.19 35.6647 126.625C35.2132 126.501 34.7297 126.627 34.397 126.956C34.0637 127.286 33.9315 127.767 34.0496 128.22C34.1683 128.673 34.519 129.028 34.9705 129.152C65.4227 137.511 86.3546 155.016 102.841 185.911C103.089 186.376 103.593 186.648 104.118 186.599V186.599Z" fill="#1C663A"/>
</g>
<g clip-path="url(#clip6)">
<path d="M207.112 147.928C206.758 148 206.389 147.926 206.09 147.724C205.79 147.52 205.585 147.205 205.522 146.849C205.496 146.693 205.458 146.532 205.419 146.37C205.247 145.47 205.063 144.565 204.874 143.673C204.543 141.995 204.189 140.336 203.827 138.661C203.719 138.185 203.874 137.689 204.234 137.36C204.594 137.031 205.103 136.92 205.566 137.07C206.03 137.22 206.378 137.607 206.477 138.084C206.878 139.921 207.261 141.766 207.632 143.606L208.184 146.32L208.179 146.333C208.322 147.067 207.845 147.78 207.112 147.928Z" fill="#32B768"/>
<path d="M143.461 169.246C143.309 169.17 143.163 169.083 143.023 168.986C142.224 168.499 141.479 167.927 140.804 167.28C137.715 164.263 135.161 160.744 133.252 156.872C131.509 153.251 126.365 143.105 130.264 141.064C134.171 139.04 138.49 149.43 140.023 153.1C141.602 157.038 142.708 161.149 143.317 165.349C143.46 166.431 143.518 167.524 143.49 168.615C143.492 168.826 143.482 169.036 143.461 169.246Z" fill="#32B768"/>
<path d="M155.143 163.276C154.474 162.85 153.844 162.367 153.259 161.833C152.555 161.217 151.887 160.564 151.255 159.875C148.808 157.179 146.716 154.181 145.03 150.954C143.245 147.331 138.689 137.914 142.546 135.87C146.416 133.832 150.512 143.228 151.997 146.909C153.304 150.402 154.253 154.019 154.826 157.704C154.986 158.745 155.105 159.741 155.157 160.682C155.216 161.546 155.211 162.413 155.143 163.276Z" fill="#32B768"/>
<path d="M165.684 155.016C164.808 154.548 163.995 153.973 163.263 153.303C160.749 150.967 158.702 148.174 157.233 145.072C155.72 141.833 152.107 133.357 155.882 131.559C159.662 129.748 163.171 137.891 164.395 141.308C165.436 144.826 165.921 148.486 165.832 152.154C165.825 153.173 165.777 154.148 165.684 155.016Z" fill="#32B768"/>
<path d="M177.204 149.975C176.621 149.531 176.071 149.046 175.557 148.523C173.252 146.115 171.37 143.334 169.991 140.3C168.795 137.405 165.851 129.937 169.21 128.676C172.557 127.41 175.56 135.353 176.484 138.346C177.402 141.445 177.763 144.682 177.551 147.907C177.489 148.604 177.373 149.296 177.204 149.975Z" fill="#32B768"/>
<path d="M188.602 147.952C187.834 147.284 187.14 146.536 186.531 145.72C184.916 143.626 183.594 141.321 182.6 138.871C181.687 136.408 179.137 129.535 182.04 128.764C184.96 127.987 187.21 135.138 187.955 137.768C188.622 140.214 188.949 142.741 188.926 145.276C188.919 146.178 188.811 147.075 188.602 147.952Z" fill="#32B768"/>
<path d="M199.015 146.651C198.185 145.932 197.448 145.113 196.822 144.21L196.809 144.205C195.745 142.741 194.888 141.135 194.264 139.435C193.561 137.289 192.181 131.971 194.857 131.477C197.547 130.989 199.143 136.539 199.65 138.811C200.003 140.501 200.05 142.241 199.788 143.947C199.671 144.883 199.411 145.795 199.015 146.651V146.651Z" fill="#32B768"/>
<path d="M143.49 168.615C143.337 168.745 143.176 168.856 143.023 168.986C142.223 168.499 141.479 167.927 140.804 167.28C141.623 166.609 142.475 165.967 143.316 165.349C143.46 166.431 143.518 167.524 143.49 168.615V168.615Z" fill="#278F51"/>
<path d="M155.157 160.682C154.514 161.056 153.882 161.436 153.259 161.832C152.556 161.217 151.887 160.564 151.255 159.875C152.427 159.125 153.632 158.402 154.826 157.704C154.986 158.745 155.105 159.741 155.157 160.682Z" fill="#278F51"/>
<path d="M165.684 155.016C164.808 154.548 163.994 153.973 163.262 153.303C164.11 152.892 164.961 152.512 165.832 152.154C165.825 153.173 165.777 154.148 165.684 155.016Z" fill="#278F51"/>
<path d="M177.55 147.906C177.488 148.603 177.372 149.294 177.203 149.972C176.62 149.528 176.071 149.044 175.557 148.522C176.214 148.299 176.891 148.099 177.55 147.906Z" fill="#278F51"/>
<path d="M188.602 147.952C187.834 147.284 187.14 146.536 186.531 145.72C187.328 145.552 188.132 145.402 188.926 145.276C188.919 146.178 188.811 147.075 188.602 147.952Z" fill="#278F51"/>
<path d="M199.015 146.651C198.185 145.932 197.448 145.113 196.822 144.21C197.8 144.099 198.799 144.011 199.788 143.947C199.671 144.883 199.411 145.795 199.015 146.651Z" fill="#278F51"/>
<path d="M208.184 146.32C207.258 146.335 206.332 146.35 205.419 146.37C205.247 145.47 205.063 144.566 204.875 143.673C205.793 143.641 206.706 143.621 207.632 143.606L208.184 146.32Z" fill="#278F51"/>
<path d="M207.852 154.906C207.442 154.745 207.136 154.396 207.03 153.968C206.469 151.706 206.415 150.484 205.969 148.011C205.836 147.273 206.327 146.566 207.065 146.433C207.803 146.3 208.51 146.791 208.643 147.529C209.079 149.944 209.12 151.108 209.667 153.315C209.791 153.808 209.627 154.328 209.245 154.663C208.863 154.999 208.325 155.092 207.852 154.907L207.852 154.906Z" fill="#278F51"/>
<path d="M153.327 181.311C151.681 177.792 147.551 171.641 143.578 169.491C143.269 173.95 145.129 181.43 146.577 185.001C148.025 188.572 153.059 198.843 156.777 196.806C160.496 194.77 154.974 184.829 153.327 181.311Z" fill="#278F51"/>
<path d="M164.347 173.472C162.015 169.093 158.8 165.247 154.905 162.175C154.85 167.221 155.732 172.234 157.506 176.958C158.909 180.443 163.39 190.008 167.016 188.127C170.641 186.247 165.94 176.841 164.347 173.472V173.472Z" fill="#278F51"/>
<path d="M174.981 166.829C173.463 163.51 169.685 157.074 165.77 155.217C165.275 159.627 167.224 167.418 168.62 170.84C170.015 174.261 173.614 183.033 177.141 181.293C180.668 179.553 176.499 170.146 174.981 166.829V166.829Z" fill="#278F51"/>
<path d="M185.387 161.675C186.638 164.786 189.826 173.421 186.554 174.57C183.281 175.718 180.336 166.453 179.198 163.44C178.059 160.426 176.161 153.912 177.282 150.176C180.572 152.468 184.136 158.563 185.387 161.675V161.675Z" fill="#278F51"/>
<path d="M194.891 157.479C195.925 159.953 198.13 167.188 195.445 167.999C192.76 168.809 190.808 161.102 189.955 158.651C189.103 156.199 187.818 151.082 188.662 148.113C191.112 150.121 193.858 155.006 194.891 157.479V157.479Z" fill="#278F51"/>
<path d="M203.447 153.637C204.06 155.542 205.463 160.207 203.234 160.684C201.004 161.162 199.413 156.184 198.807 154.194C198.029 151.762 198.11 149.138 199.036 146.758C201.034 148.667 202.546 151.025 203.447 153.637V153.637Z" fill="#278F51"/>
<path d="M126.602 185.245C126.178 185.077 125.867 184.71 125.772 184.265C125.677 183.82 125.811 183.356 126.128 183.031C152.069 156.474 178.6 144.863 212.152 145.385C212.638 145.392 213.083 145.658 213.318 146.082C213.555 146.506 213.547 147.024 213.298 147.44C213.048 147.857 212.596 148.109 212.111 148.102C179.366 147.592 153.448 158.951 128.073 184.93C127.691 185.322 127.111 185.445 126.602 185.245V185.245Z" fill="#1C663A"/>
</g>
<g clip-path="url(#clip7)">
<path d="M232.608 181.03C232.254 180.958 231.943 180.746 231.747 180.442C231.551 180.138 231.485 179.768 231.566 179.415C231.603 179.261 231.631 179.098 231.658 178.934C231.852 178.039 232.036 177.134 232.211 176.239C232.562 174.565 232.883 172.899 233.205 171.216C233.291 170.736 233.629 170.339 234.088 170.177C234.548 170.015 235.059 170.112 235.428 170.431C235.796 170.75 235.965 171.242 235.87 171.72C235.521 173.568 235.153 175.416 234.775 177.254L234.223 179.969L234.213 179.978C234.058 180.71 233.341 181.18 232.608 181.03Z" fill="#27AF5E"/>
<path d="M165.688 175.783C165.577 175.654 165.477 175.517 165.386 175.373C164.84 174.613 164.378 173.795 164.01 172.935C162.345 168.952 161.37 164.714 161.124 160.404C160.935 156.39 160.163 145.041 164.551 144.686C168.938 144.349 168.854 155.6 168.831 159.578C168.746 163.819 168.157 168.036 167.077 172.14C166.786 173.192 166.413 174.22 165.961 175.214C165.88 175.409 165.788 175.598 165.688 175.783Z" fill="#27AF5E"/>
<path d="M178.774 174.852C178.324 174.199 177.932 173.508 177.603 172.788C177.196 171.946 176.836 171.084 176.523 170.203C175.324 166.765 174.57 163.188 174.278 159.559C174.051 155.526 173.537 145.078 177.886 144.704C182.244 144.339 182.343 154.588 182.272 158.557C182.111 162.283 181.571 165.984 180.659 169.6C180.399 170.62 180.119 171.584 179.8 172.47C179.516 173.288 179.173 174.085 178.774 174.852Z" fill="#27AF5E"/>
<path d="M191.704 171.367C191.081 170.595 190.556 169.747 190.144 168.845C188.743 165.712 187.951 162.341 187.809 158.912C187.682 155.339 187.669 146.126 191.846 145.945C196.033 145.755 196.082 154.622 195.874 158.246C195.457 161.891 194.474 165.449 192.959 168.791C192.554 169.727 192.129 170.605 191.704 171.367Z" fill="#27AF5E"/>
<path d="M204.277 171.228C203.915 170.591 203.598 169.93 203.329 169.248C202.148 166.131 201.502 162.836 201.418 159.504C201.448 156.372 201.656 148.348 205.241 148.499C208.816 148.641 208.478 157.127 208.159 160.242C207.793 163.453 206.86 166.575 205.405 169.46C205.076 170.078 204.699 170.669 204.277 171.228Z" fill="#27AF5E"/>
<path d="M215.56 173.82C215.114 172.904 214.768 171.945 214.526 170.956C213.858 168.397 213.541 165.759 213.583 163.115C213.705 160.492 214.044 153.168 217.016 153.593C220.008 154.019 219.285 161.48 218.944 164.192C218.602 166.705 217.916 169.158 216.904 171.483C216.545 172.31 216.095 173.094 215.56 173.82Z" fill="#27AF5E"/>
<path d="M225.653 176.69C225.17 175.705 224.813 174.662 224.589 173.587L224.579 173.577C224.171 171.813 224.01 170 224.099 168.192C224.291 165.942 225.099 160.507 227.755 161.099C230.422 161.7 229.722 167.432 229.301 169.722C228.966 171.416 228.33 173.036 227.421 174.504C226.949 175.32 226.353 176.057 225.653 176.69V176.69Z" fill="#27AF5E"/>
<path d="M165.961 175.214C165.769 175.274 165.578 175.314 165.386 175.373C164.84 174.613 164.378 173.795 164.01 172.935C165.026 172.638 166.061 172.38 167.077 172.14C166.786 173.192 166.413 174.22 165.961 175.214V175.214Z" fill="#278F51"/>
<path d="M179.8 172.47C179.061 172.563 178.332 172.666 177.603 172.788C177.196 171.946 176.836 171.083 176.523 170.203C177.895 169.97 179.286 169.775 180.659 169.6C180.399 170.62 180.119 171.584 179.8 172.47Z" fill="#278F51"/>
<path d="M191.703 171.367C191.08 170.595 190.556 169.747 190.144 168.845C191.085 168.798 192.017 168.78 192.958 168.791C192.553 169.727 192.129 170.605 191.703 171.367Z" fill="#278F51"/>
<path d="M205.404 169.459C205.075 170.076 204.698 170.667 204.277 171.226C203.915 170.589 203.598 169.929 203.329 169.247C204.021 169.299 204.722 169.379 205.404 169.459Z" fill="#278F51"/>
<path d="M215.56 173.82C215.114 172.905 214.768 171.945 214.526 170.956C215.325 171.113 216.124 171.288 216.904 171.483C216.545 172.31 216.095 173.094 215.56 173.82Z" fill="#278F51"/>
<path d="M225.653 176.69C225.17 175.705 224.812 174.662 224.589 173.587C225.532 173.867 226.487 174.176 227.421 174.504C226.948 175.32 226.352 176.057 225.653 176.69Z" fill="#278F51"/>
<path d="M234.223 179.969C233.365 179.62 232.506 179.272 231.658 178.934C231.852 178.039 232.036 177.134 232.211 176.239C233.069 176.568 233.917 176.906 234.775 177.255L234.223 179.969Z" fill="#278F51"/>
<path d="M230.563 187.742C230.248 187.434 230.103 186.993 230.172 186.558C230.54 184.256 230.968 183.111 231.523 180.66C231.689 179.929 232.417 179.469 233.149 179.635C233.88 179.801 234.339 180.529 234.173 181.261C233.631 183.654 233.214 184.742 232.856 186.987C232.776 187.489 232.423 187.904 231.94 188.063C231.457 188.222 230.925 188.099 230.563 187.743L230.563 187.742Z" fill="#278F51"/>
<path d="M170.055 190.744C169.915 186.862 168.516 179.586 165.699 176.055C163.672 180.039 162.462 187.651 162.4 191.504C162.338 195.357 162.959 206.778 167.176 206.356C171.395 205.934 170.196 194.626 170.055 190.744Z" fill="#278F51"/>
<path d="M183.262 187.834C182.826 182.892 181.37 178.095 178.985 173.746C176.962 178.369 175.816 183.328 175.603 188.371C175.533 192.127 175.921 202.682 179.992 202.367C184.064 202.053 183.412 191.558 183.262 187.834V187.834Z" fill="#278F51"/>
<path d="M195.647 185.874C195.546 182.226 194.583 174.825 191.704 171.586C189.525 175.453 188.275 183.386 188.223 187.08C188.171 190.775 188.057 200.256 191.983 200.032C195.91 199.808 195.747 189.521 195.647 185.874V185.874Z" fill="#278F51"/>
<path d="M207.239 185.195C207.175 188.548 206.736 197.743 203.275 197.521C199.814 197.299 200.723 187.62 200.852 184.402C200.981 181.183 201.78 174.445 204.271 171.444C206.404 174.839 207.303 181.842 207.239 185.195V185.195Z" fill="#278F51"/>
<path d="M217.627 185.047C217.612 187.728 216.815 195.249 214.026 194.946C211.238 194.643 212.453 186.786 212.625 184.197C212.798 181.607 213.616 176.394 215.552 173.991C217.023 176.797 217.642 182.366 217.627 185.047V185.047Z" fill="#278F51"/>
<path d="M227.004 184.853C226.823 186.846 226.292 191.689 224.054 191.257C221.815 190.825 222.295 185.621 222.515 183.553C222.749 181.01 223.849 178.626 225.631 176.797C226.724 179.335 227.195 182.097 227.004 184.853V184.853Z" fill="#278F51"/>
<path d="M143.917 183.923C143.593 183.604 143.45 183.144 143.536 182.697C143.622 182.25 143.927 181.876 144.346 181.7C178.602 167.39 207.56 167.068 238.241 180.658C238.685 180.854 238.991 181.273 239.042 181.755C239.094 182.238 238.885 182.712 238.493 182.998C238.1 183.284 237.585 183.339 237.141 183.143C207.199 169.88 178.903 170.209 145.394 184.209C144.89 184.42 144.307 184.307 143.917 183.923V183.923Z" fill="#1C663A"/>
</g>
<path d="M57.5676 184.177C57.5676 222.643 88.7517 255.503 127.213 255.503C165.674 255.503 196.858 222.643 196.858 184.177H57.5676Z" fill="white"/>
<path d="M178.151 184.177C173.723 218.601 144.491 246.443 109.088 246.443C102.061 246.446 95.077 245.338 88.3951 243.162C99.7556 251.174 113.312 255.484 127.213 255.506C165.679 255.506 196.858 222.645 196.858 184.179L178.151 184.177Z" fill="#F4F6F6"/>
</g>
<path d="M92.7946 188.237C92.4878 188.246 92.1747 188.209 91.8643 188.118C90.2817 187.657 89.3728 186 89.8344 184.417L120.514 79.6786C120.976 78.096 122.633 77.1875 124.215 77.6487C125.797 78.1103 126.706 79.7669 126.245 81.3495L95.5651 186.088C95.1942 187.36 94.0509 188.197 92.7946 188.237Z" fill="#AFE1C4"/>
<path d="M161.363 188.237C161.669 188.246 161.983 188.209 162.293 188.118C163.876 187.657 164.784 186 164.323 184.417L133.643 79.6786C133.181 78.096 131.524 77.1875 129.942 77.6487C128.359 78.1103 127.451 79.7669 127.912 81.3495L158.592 186.088C158.963 187.36 160.107 188.197 161.363 188.237Z" fill="#AFE1C4"/>
<path d="M135.888 75.728C136.704 70.8824 133.437 66.293 128.591 65.4772C123.746 64.6614 119.156 67.9282 118.341 72.7738C117.525 77.6193 120.792 82.2087 125.637 83.0245C130.483 83.8403 135.072 80.5735 135.888 75.728Z" fill="#E2F4EA"/>
</g>
<defs>
<clipPath id="clip0">
<rect width="254" height="324" fill="white"/>
</clipPath>
<clipPath id="clip1">
<rect width="232" height="232" fill="white" transform="translate(11 102.667)"/>
</clipPath>
<clipPath id="clip2">
<rect width="77.3333" height="77.3333" fill="white" transform="matrix(-0.935873 -0.352337 -0.352337 0.935873 154.812 124.39)"/>
</clipPath>
<clipPath id="clip3">
<rect width="80.198" height="80.198" fill="white" transform="translate(91.0952 122.936) rotate(-13.6221)"/>
</clipPath>
<clipPath id="clip4">
<rect width="77.3333" height="77.3333" fill="white" transform="matrix(-0.785874 0.618387 0.618387 0.785874 63.4885 119.238)"/>
</clipPath>
<clipPath id="clip5">
<rect width="77.3333" height="77.3333" fill="white" transform="matrix(-0.99579 0.0916619 0.0916619 0.99579 110.103 110.952)"/>
</clipPath>
<clipPath id="clip6">
<rect width="80.198" height="80.198" fill="white" transform="translate(142.583 108.19) rotate(21.4996)"/>
</clipPath>
<clipPath id="clip7">
<rect width="80.198" height="80.198" fill="white" transform="translate(188.734 119.238) rotate(44.4988)"/>
</clipPath>
</defs>
</svg>
