<svg width="254" height="324" viewBox="0 0 254 324" fill="none" xmlns="http://www.w3.org/2000/svg">
<path d="M127.116 311.028C183.513 311.028 229.232 308.199 229.232 304.707C229.232 301.215 183.513 298.385 127.116 298.385C70.7188 298.385 25 301.215 25 304.707C25 308.199 70.7188 311.028 127.116 311.028Z" fill="#D3E0D7"/>
<path d="M166.534 302.34H84.7789C84.7789 302.34 49.5796 280.787 55.8225 241.039C57.7519 228.757 60.544 217.29 63.493 207.315C68.7634 189.464 74.4888 176.35 76.575 171.801C77.0613 170.735 78.1279 170.06 79.3045 170.06H172.025C173.2 170.06 174.252 170.735 174.753 171.801C176.841 176.35 182.581 189.464 187.835 207.315C190.784 217.29 193.577 228.757 195.506 241.039C201.749 280.787 166.534 302.34 166.534 302.34Z" fill="white"/>
<g clip-path="url(#clip0)">
<path d="M174.859 44.9794C174.966 44.8348 175.053 44.7174 175.12 44.6283C153.157 84.1025 159.746 167.918 159.746 167.918V168.027H139.104V167.963C139.104 167.963 137.416 146.492 139.439 123.235V123.23C149.076 80.797 171.532 49.4533 174.859 44.9794V44.9794Z" fill="#278F51"/>
<path d="M139.439 123.235C137.416 146.492 139.104 167.963 139.104 167.963V168.027H121.626V167.963C121.346 161.56 121.607 155.145 122.408 148.786C123.163 142.772 124.334 136.819 125.911 130.965C133.306 103.372 147.639 83.371 149.872 80.3655C149.945 80.2688 150.004 80.1905 150.049 80.1296C143.792 91.3873 140.789 107.705 139.439 123.23V123.235Z" fill="#32B768"/>
<path d="M121.626 167.963V168.027H106.968V168.002C106.968 168.002 111.531 124.09 96.3302 103.397C96.3752 103.442 96.4346 103.5 96.5049 103.573C99.6159 106.726 102.522 110.073 105.203 113.593C111.39 121.671 119.07 133.995 122.408 148.785C121.607 155.145 121.346 161.559 121.626 167.963V167.963Z" fill="#278F51"/>
<path d="M96.3303 103.397C111.531 124.09 106.968 168.002 106.968 168.002V168.027H92.3876V167.932C92.3876 167.932 98.0901 96.9667 79.0878 63.5426C79.1471 63.6176 79.2229 63.7143 79.3163 63.8393C81.7319 67.0209 95.815 86.2428 105.203 113.593C102.522 110.073 99.616 106.727 96.5049 103.573C96.4346 103.5 96.3753 103.442 96.3303 103.397V103.397Z" fill="#32B768"/>
<path d="M173.877 171.182H75.1682C73.6149 171.182 72.356 169.937 72.356 168.4C72.356 166.863 73.6149 165.617 75.1682 165.617L124.5 165L173.877 165.617C175.431 165.617 176.69 166.863 176.69 168.4C176.69 169.937 175.431 171.182 173.877 171.182Z" fill="white"/>
</g>
<g clip-path="url(#clip1)">
<path d="M96.3272 72.2823C96.5169 71.966 96.8846 71.7687 97.2494 71.8008L97.7192 71.8282C102.659 72.1143 105.902 74.3356 106.101 74.4217H110.992H115.883C116.099 74.3284 119.328 72.118 124.332 71.8282L124.802 71.8008C125.176 71.7829 125.535 71.9651 125.724 72.2823C125.913 72.5995 125.9 72.9923 125.693 73.2982C125.525 73.4945 123.503 76.838 119.387 79.1452C116.995 80.485 114.275 81.278 111.522 81.4376H110.992H110.463C107.709 81.278 104.989 80.485 102.598 79.1452C98.4116 76.7988 96.5332 73.503 96.3584 73.2982C96.1512 72.9923 96.1385 72.5995 96.3272 72.2823V72.2823Z" fill="#FF9100"/>
<path d="M102.597 79.1453C98.4114 76.7989 96.533 73.503 96.3582 73.2982C96.151 72.9923 96.1383 72.5995 96.327 72.2823C96.5167 71.966 96.8844 71.7687 97.2492 71.8008L97.719 71.8282C102.659 72.1143 105.902 74.3356 106.101 74.4217H110.992V81.4376H110.463C107.709 81.278 104.989 80.485 102.597 79.1453V79.1453Z" fill="#FF641A"/>
<path d="M102.525 66.2663C102.852 66.084 103.258 66.0954 103.572 66.2965L103.964 66.5486C106.269 68.0261 108.216 70.0324 109.597 72.354L109.888 72.863L110.991 81.4669C109.471 81.4669 105.739 77.4701 104.419 75.2526C103.039 72.93 102.222 70.2902 102.058 67.6173L102.029 67.1613C102.007 66.7959 102.199 66.4494 102.525 66.2663V66.2663Z" fill="#E63950"/>
<path d="M112.096 72.863L112.388 72.3522C113.768 70.0324 115.716 68.0261 118.02 66.5476L118.412 66.2965C118.727 66.0954 119.133 66.084 119.459 66.2663C119.786 66.4494 119.978 66.7959 119.955 67.1613L119.927 67.6173C119.762 70.2902 118.945 72.93 117.565 75.2526C115.479 78.7569 111.781 81.4669 110.993 81.4669L112.096 72.863Z" fill="#FF6C6C"/>
<path d="M92.0244 82.2193C92.1276 81.7793 92.5312 81.4668 92.9962 81.4668H110.992H117.965C122.257 81.4668 126 86.7832 126 91.1347V96.0331C126 96.5675 125.554 96.9999 125.004 96.9999H123.019C122.753 96.9999 122.498 96.897 122.311 96.7139C122.124 96.5307 122.021 96.2824 122.022 96.0247L122.016 95.1041C122.063 92.0555 122.062 90.0924 121.389 89.4287C121.234 89.2757 121.05 89.2011 120.827 89.2011C119.616 89.2011 115.707 88.8955 110.992 88.1758C105.097 87.2761 97.7834 85.7279 92.5662 83.306C92.147 83.1105 91.9223 82.6602 92.0244 82.2193Z" fill="#278F51"/>
<path d="M92.0244 82.2193C92.1275 81.7793 92.5312 81.4668 92.9962 81.4668H110.992V88.1758C105.097 87.2761 97.7834 85.7279 92.5662 83.306C92.147 83.1105 91.9223 82.6602 92.0244 82.2193V82.2193Z" fill="#32B768"/>
<path d="M109.891 64.8993L110.101 64.4915C110.27 64.1638 110.631 64 110.992 64C111.353 64 111.714 64.1638 111.883 64.4915L112.093 64.8993C113.328 67.2964 113.98 70.0862 113.98 72.7656C113.98 77.5472 111.993 80.6463 111.883 80.9323C111.714 81.26 111.37 81.4667 110.992 81.4667C110.615 81.4667 110.27 81.26 110.101 80.9323C110.011 80.6973 108.004 77.4387 108.004 72.7656C108.004 70.0862 108.657 67.2964 109.891 64.8993V64.8993Z" fill="#FFD567"/>
<path d="M110.101 80.9323C110.011 80.6973 108.004 77.4387 108.004 72.7656C108.004 70.0862 108.657 67.2964 109.891 64.8993L110.101 64.4915C110.27 64.1638 110.631 64 110.992 64V81.4667C110.615 81.4667 110.27 81.26 110.101 80.9323Z" fill="#FFBE46"/>
</g>
<rect x="122" y="93" width="4" height="72" fill="#278F51"/>
<defs>
<clipPath id="clip0">
<rect width="131.19" height="129.81" fill="white" transform="translate(56.613 41)"/>
</clipPath>
<clipPath id="clip1">
<rect width="34" height="33" fill="white" transform="matrix(-1 0 0 1 126 64)"/>
</clipPath>
</defs>
</svg>
