<svg width="254" height="324" viewBox="0 0 254 324" fill="none" xmlns="http://www.w3.org/2000/svg">
<path d="M141.921 55.237C142.544 59.1833 143.604 69.9777 137.966 76.2606L128.324 72.2668C128.779 63.8374 137.162 56.9542 140.392 54.6038C141.009 54.155 141.802 54.4836 141.921 55.237Z" fill="#FFC850"/>
<path d="M105.879 137.927C105.256 133.981 104.196 123.187 109.834 116.904L119.476 120.897C119.02 129.327 110.638 136.21 107.407 138.56C106.791 139.009 105.998 138.68 105.879 137.927Z" fill="#FFC850"/>
<path d="M82.555 78.5609C86.5012 77.9385 97.2956 76.8784 103.579 82.5165L99.5848 92.1582C91.1553 91.7025 84.2722 83.3199 81.9217 80.0897C81.473 79.4729 81.8015 78.6798 82.555 78.5609Z" fill="#FFC850"/>
<path d="M165.245 114.603C161.299 115.226 150.504 116.286 144.222 110.648L148.215 101.006C156.645 101.461 163.528 109.844 165.878 113.074C166.327 113.691 165.998 114.484 165.245 114.603Z" fill="#FFC850"/>
<path d="M107.407 54.6038C110.638 56.9542 119.02 63.8374 119.476 72.2668L109.834 76.2606C104.196 69.9779 105.256 59.1835 105.879 55.2372C105.997 54.4836 106.791 54.155 107.407 54.6038Z" fill="#FFC850"/>
<path d="M140.393 138.56C137.162 136.21 128.779 129.327 128.324 120.897L137.965 116.904C143.604 123.186 142.544 133.981 141.921 137.927C141.802 138.68 141.009 139.009 140.393 138.56Z" fill="#FFC850"/>
<path d="M81.9217 113.075C84.2722 109.844 91.1553 101.461 99.5848 101.006L103.579 110.648C97.2959 116.286 86.5015 115.226 82.5552 114.603C81.8015 114.484 81.473 113.691 81.9217 113.075Z" fill="#FFC850"/>
<path d="M165.878 80.0893C163.528 83.3198 156.645 91.7024 148.215 92.1581L144.221 82.5164C150.504 76.878 161.298 77.9384 165.245 78.5605C165.998 78.6797 166.327 79.4728 165.878 80.0893Z" fill="#FFC850"/>
<path d="M113.099 157.164C113.348 157.356 117.828 160.834 121.783 165.327V118.19H125.731V165.327C129.686 160.834 134.166 157.356 134.415 157.164L136.784 160.411C136.715 160.465 130.388 165.382 126.466 170.782C125.972 171.462 125.731 172.3 125.731 173.149V192.95C125.731 194.072 124.847 194.98 123.757 194.98C122.668 194.98 121.784 194.072 121.784 192.95V173.15C121.784 172.301 121.543 171.462 121.049 170.782C117.131 165.392 110.8 160.465 110.731 160.41L113.099 157.164Z" fill="#32B768"/>
<path d="M172.328 135.009C169.66 140.977 160.143 157.208 134.052 162.05C133.065 162.233 132.328 161.114 132.835 160.214C136.044 154.516 146.586 139.464 170.981 133.309C171.928 133.07 172.739 134.089 172.328 135.009Z" fill="#32B768"/>
<path d="M75.1912 135.009C77.9506 140.977 87.7961 157.208 114.787 162.05C115.808 162.233 116.57 161.114 116.045 160.214C112.726 154.516 101.82 139.464 76.5845 133.309C75.6043 133.07 74.766 134.089 75.1912 135.009Z" fill="#32B768"/>
<path d="M124.727 51.4879C126.812 54.8957 131.923 64.4625 129.118 72.4247H118.682C115.877 64.4625 120.988 54.8954 123.073 51.4879C123.471 50.8374 124.329 50.8374 124.727 51.4879Z" fill="#FFC850"/>
<path d="M123.073 141.676C120.987 138.269 115.877 128.702 118.682 120.74H129.118C131.922 128.702 126.812 138.269 124.727 141.676C124.329 142.327 123.471 142.327 123.073 141.676Z" fill="#FFC850"/>
<path d="M78.8057 95.7549C82.2135 93.6697 91.7804 88.5594 99.7426 91.3641V101.8C91.7804 104.605 82.2133 99.4945 78.8057 97.4095C78.1552 97.0113 78.1552 96.1529 78.8057 95.7549Z" fill="#FFC850"/>
<path d="M168.994 97.4093C165.586 99.4945 156.02 104.605 148.057 101.8V91.3641C156.02 88.5595 165.587 93.6698 168.994 95.7547C169.645 96.1527 169.645 97.0113 168.994 97.4093Z" fill="#FFC850"/>
<path d="M92.5984 64.1106C96.4824 65.0458 106.861 68.1972 110.508 75.8104L103.128 83.1898C95.5149 79.5431 92.3637 69.1644 91.4282 65.2805C91.2499 64.5391 91.8571 63.9322 92.5984 64.1106Z" fill="#FFC850"/>
<path d="M155.201 129.053C151.317 128.118 140.939 124.967 137.292 117.354L144.671 109.974C152.285 113.621 155.436 123.999 156.372 127.883C156.55 128.625 155.943 129.232 155.201 129.053Z" fill="#FFC850"/>
<path d="M91.4285 127.883C92.3637 123.999 95.5151 113.621 103.128 109.974L110.508 117.354C106.861 124.967 96.4824 128.118 92.5985 129.054C91.8571 129.232 91.25 128.625 91.4285 127.883Z" fill="#FFC850"/>
<path d="M156.371 65.2804C155.436 69.1644 152.285 79.543 144.671 83.1898L137.292 75.8103C140.939 68.1969 151.317 65.0457 155.201 64.1102C155.943 63.9319 156.55 64.5391 156.371 65.2804Z" fill="#FFC850"/>
<path d="M124.443 122.304C110.054 122.304 98.3892 110.639 98.3892 96.2496C98.3892 81.8605 110.054 70.1957 124.443 70.1957C138.832 70.1957 150.497 81.8605 150.497 96.2496C150.497 110.639 138.832 122.304 124.443 122.304Z" fill="#965A50"/>
<path d="M123.758 116.819C112.776 116.819 103.874 107.917 103.874 96.9353C103.874 85.9541 112.776 77.0521 123.758 77.0521C134.739 77.0521 143.641 85.9541 143.641 96.9353C143.641 107.917 134.739 116.819 123.758 116.819Z" fill="#643C3E"/>
<path d="M126.5 303.309C189.736 303.309 241 300.239 241 296.454C241 292.667 189.736 289.597 126.5 289.597C63.2632 289.597 12 292.667 12 296.454C12 300.239 63.2632 303.309 126.5 303.309Z" fill="#D3E0D7"/>
<path d="M176.551 197.602V291.089C176.551 294.046 174.848 296.453 172.742 296.453H77.5166C75.4159 296.453 73.7066 294.055 73.7066 291.089V197.602C73.7066 194.645 75.4104 192.238 77.5166 192.238H172.742C174.848 192.245 176.551 194.645 176.551 197.602Z" fill="white"/>
<path d="M176.551 232.004H73.7066V244.345H176.551V232.004Z" fill="#D3E0D7"/>
</svg>
