<svg width="254" height="324" viewBox="0 0 254 324" fill="none" xmlns="http://www.w3.org/2000/svg">
<path d="M126.65 287.688C165.668 287.688 197.3 285.157 197.3 282.035C197.3 278.914 165.668 276.383 126.65 276.383C87.631 276.383 56 278.914 56 282.035C56 285.157 87.631 287.688 126.65 287.688Z" fill="#D3E0D7"/>
<path d="M133.211 165.647V158.108L122.079 163.005L133.211 165.647Z" fill="#BFD79C"/>
<path d="M133.211 158.108L122.079 155.06V163.005L133.211 158.108Z" fill="#A0C276"/>
<path d="M133.214 158.108V150.022L122.081 155.06L133.214 158.108Z" fill="#81AA4B"/>
<path d="M133.214 150.022H122.081V155.06L133.214 150.022Z" fill="#278F51"/>
<path d="M162.576 210.951H91.4505C91.4505 198.938 96.0478 193.231 103.111 186.732C105.066 184.935 107.198 183.086 109.487 181.025C120.039 171.496 122.082 162.988 122.082 162.988L133.214 165.63C134.641 173.134 142.021 177.819 148.856 182.786C151.48 184.706 154.016 186.661 156.113 188.845C164.268 197.371 162.576 210.951 162.576 210.951Z" fill="#AFE1C4"/>
<g opacity="0.35">
<path opacity="0.35" d="M162.575 210.951H91.4492C91.4492 198.938 96.0465 193.231 103.11 186.732C103.11 186.89 103.092 187.031 103.092 187.173C102.828 191.541 103.392 195.944 104.713 200.101C104.959 200.876 105.294 201.721 106.034 202.057C107.179 202.585 108.429 201.616 109.187 200.612C112.04 196.895 113.009 191.875 116.338 188.582C116.884 188.035 117.642 187.507 118.399 187.718C119.104 187.912 119.491 188.652 119.773 189.321C120.953 191.981 122.133 194.64 123.313 197.283C123.93 198.674 124.564 200.065 125.55 201.211C126.554 202.356 127.998 203.201 129.514 203.113C131.539 202.99 133.16 201.229 133.759 199.291C134.358 197.353 134.164 195.274 133.97 193.266C133.882 192.386 133.812 191.434 134.198 190.624C134.763 189.48 136.206 188.951 137.475 189.127C138.744 189.303 139.871 190.025 140.875 190.836C143.993 193.373 146.248 196.842 149.4 199.344C150.193 199.978 151.197 200.559 152.148 200.277C153.17 199.978 153.699 198.816 153.628 197.758C153.557 196.701 153.047 195.733 152.571 194.8C150.968 191.594 149.788 188.177 149.031 184.689C148.889 184.09 148.801 183.402 148.855 182.786C151.478 184.706 154.015 186.661 156.112 188.845C164.267 197.371 162.575 210.951 162.575 210.951Z" fill="#AFE1C4"/>
</g>
<path fill-rule="evenodd" clip-rule="evenodd" d="M157.767 198.129C157.555 198.041 157.626 197.846 157.555 197.688C157.361 197.213 156.939 196.755 156.798 196.243C156.533 195.945 156.446 195.628 156.199 195.223C156.094 195.047 155.917 194.923 155.812 194.747C155.336 194.059 154.861 193.426 154.332 192.774C154.262 192.686 154.227 192.65 154.173 192.563C154.051 192.387 153.839 192.211 153.733 192.017C153.628 191.822 153.733 191.488 153.98 191.241C154.367 191.118 154.596 191.454 154.877 191.735C155.336 192.211 155.865 192.968 156.199 193.496C156.464 193.901 156.727 194.324 156.921 194.764C157.116 195.205 157.326 195.628 157.468 196.085C157.555 196.419 157.573 196.755 157.644 197.071C157.697 197.441 157.749 197.794 157.767 198.129Z" fill="#AFE1C4"/>
<path fill-rule="evenodd" clip-rule="evenodd" d="M99.1992 208.714C98.9526 208.467 98.9879 208.044 98.9174 207.71C98.6708 206.654 98.2656 205.403 98.3185 204.223C98.1776 203.377 98.2304 202.656 98.3185 201.598C98.3537 201.14 98.3361 200.682 98.4065 200.241C98.7061 198.357 99.3577 196.614 100.397 194.94C100.503 194.782 100.626 194.588 100.767 194.411C101.084 194.007 101.454 193.495 101.824 193.179C102.229 192.826 102.74 192.79 102.986 193.021C102.969 193.531 102.352 194.059 101.877 194.711C101.066 195.768 100.203 197.423 99.7981 198.656C99.4811 199.59 99.2874 200.594 99.1289 201.545C98.9702 202.532 98.9526 203.5 98.9526 204.469C98.9526 205.174 98.8998 205.86 98.9526 206.548C99.0407 207.269 99.1111 207.992 99.1992 208.714Z" fill="#AFE1C4"/>
<path fill-rule="evenodd" clip-rule="evenodd" d="M101.805 201.263C101.629 201.105 101.77 200.929 101.77 200.753C101.788 200.225 101.629 199.573 101.858 199.027C101.823 198.604 101.964 198.269 102.105 197.758C102.157 197.547 102.157 197.3 102.21 197.089C102.474 196.191 102.827 195.363 103.302 194.535C103.373 194.43 103.408 194.377 103.478 194.27C103.619 194.059 103.76 193.794 103.936 193.618C104.13 193.442 104.483 193.478 104.764 193.689C104.958 194.059 104.676 194.341 104.482 194.693C104.148 195.257 103.707 196.033 103.461 196.614C103.249 197.053 103.109 197.511 102.932 197.952C102.756 198.393 102.651 198.85 102.492 199.29C102.386 199.608 102.21 199.907 102.122 200.241C102.017 200.506 101.928 200.84 101.805 201.263Z" fill="#AFE1C4"/>
<path fill-rule="evenodd" clip-rule="evenodd" d="M153.258 197.089C153.047 197.019 153.118 196.842 153.082 196.72C152.923 196.314 152.518 195.927 152.43 195.47C152.184 195.205 152.13 194.941 151.937 194.571C151.849 194.413 151.691 194.306 151.602 194.148C151.215 193.531 150.828 192.968 150.405 192.369C150.352 192.281 150.334 192.263 150.282 192.175C150.193 192.017 150.017 191.84 149.946 191.682C149.877 191.488 150.035 191.207 150.298 190.978C150.687 190.871 150.863 191.189 151.074 191.454C151.444 191.893 151.849 192.563 152.114 193.057C152.324 193.426 152.518 193.796 152.677 194.183C152.836 194.571 152.994 194.941 153.1 195.346C153.17 195.628 153.17 195.945 153.205 196.209C153.223 196.49 153.258 196.79 153.258 197.089Z" fill="#AFE1C4"/>
<path fill-rule="evenodd" clip-rule="evenodd" d="M126.606 195.098C126.746 194.976 126.712 195.116 126.712 195.134C126.8 195.187 127.011 195.539 126.748 195.662C126.694 195.873 126.465 195.891 126.254 195.891C126.166 195.891 126.025 195.926 125.937 195.891C125.514 195.733 125.285 195.169 125.391 194.746C125.391 194.693 125.408 194.658 125.444 194.606C125.496 194.5 125.514 194.359 125.602 194.306C125.708 194.235 125.99 194.377 126.236 194.622C126.483 194.905 126.43 194.905 126.43 194.976C126.43 195.081 126.5 195.116 126.43 195.098C126.5 195.063 126.43 195.081 126.412 195.169C126.395 195.205 126.412 195.239 126.412 195.239C126.465 195.398 126.412 195.239 126.395 195.257C126.307 195.205 126.43 195.274 126.483 195.239C126.518 195.239 126.606 195.205 126.606 195.098Z" fill="#AFE1C4"/>
<path fill-rule="evenodd" clip-rule="evenodd" d="M143.323 203.676C143.499 203.747 143.394 203.818 143.447 203.888C143.657 204.081 143.886 203.836 143.975 203.87C143.993 203.712 144.064 203.712 144.098 203.553C144.098 203.483 144.028 203.413 144.01 203.36C143.957 203.095 143.833 203.061 143.817 203.113C143.817 203.113 143.817 203.148 143.817 203.113C143.799 203.043 143.693 202.954 143.481 202.725C143.252 202.338 143.57 202.144 143.851 202.109C144.098 202.057 144.398 202.126 144.609 202.32C144.837 202.514 144.926 202.796 144.961 202.99C145.014 203.289 144.997 203.553 144.891 203.818C144.768 204.065 144.592 204.381 144.222 204.487C143.904 204.575 143.675 204.417 143.517 204.293C143.323 204.135 143.218 203.852 143.323 203.676Z" fill="#AFE1C4"/>
<path fill-rule="evenodd" clip-rule="evenodd" d="M108.377 202.725C108.553 202.761 108.429 202.814 108.429 202.848C108.447 202.954 108.535 203.289 108.324 203.342C108.288 203.518 108.13 203.553 107.971 203.606C107.901 203.642 107.795 203.729 107.707 203.729C107.302 203.747 106.897 203.429 106.756 203.043C106.738 203.008 106.721 202.954 106.721 202.901C106.703 202.796 106.668 202.638 106.721 202.514C106.791 202.373 107.108 202.409 107.425 202.549C107.76 202.725 107.725 202.69 107.76 202.725C107.813 202.743 107.866 202.796 107.848 202.778C107.848 202.778 107.848 202.743 107.848 202.778C107.866 202.796 107.848 202.796 107.919 202.814C107.954 202.832 108.077 202.866 108.13 202.848C108.218 202.848 108.306 202.814 108.377 202.725Z" fill="#AFE1C4"/>
<path fill-rule="evenodd" clip-rule="evenodd" d="M147.568 39C146.793 41.061 144.819 42.8576 143.623 44.9184C141.755 48.1595 140.346 51.9641 139.236 55.8746C138.144 59.8025 137.263 63.8186 136.294 67.6585C135.66 73.2951 134.639 78.0157 133.723 85.0614C133.336 88.1087 133.318 91.1559 133.036 94.0624C131.82 106.657 131.152 118.564 131.028 131.299C131.01 132.602 130.976 134.011 130.958 135.456C130.869 138.802 131.081 142.836 130.974 145.972C130.852 149.425 129.742 152.066 128.351 152.419C126.766 150.04 126.782 144.158 126.695 138.503C126.448 128.992 127.065 115.763 127.91 106.604C128.509 99.5756 129.249 92.4419 130.341 85.6779C131.486 78.7379 132.49 71.9916 134.164 65.3687C135.397 60.5599 137.14 55.9979 139.148 51.6471C141.226 46.9618 144.044 42.6287 147.568 39Z" fill="#1C663A"/>
<path fill-rule="evenodd" clip-rule="evenodd" d="M176.245 85.0962C174.483 85.2195 172.616 84.3036 170.732 84.286C167.807 84.2507 164.708 85.1314 161.872 86.4702C159.018 87.8088 156.429 89.6407 153.963 91.3669C153.188 92.1243 152.466 92.8818 151.761 93.6568C151.021 94.379 150.369 95.1893 149.648 95.9819C148.925 96.7744 148.274 97.6729 147.533 98.5712C146.881 99.54 146.106 100.526 145.438 101.724C144.205 103.714 143.447 105.952 142.513 107.977C140.523 112.381 138.973 116.855 137.582 121.399C136.226 125.944 134.939 130.576 133.918 135.333C133.706 136.319 133.477 137.357 133.248 138.45C132.72 140.952 132.455 143.998 132.103 146.359C131.698 148.931 130.5 150.886 129.091 151.132C127.541 149.212 128 144.474 128.633 140.053C129.637 132.531 132.597 122.65 135.046 115.833C136.93 110.619 139.167 105.335 142.179 100.702C145.209 95.9643 148.889 91.6136 153.452 88.443C156.799 86.1707 160.516 84.7616 164.285 83.9866C168.301 83.1587 172.598 83.3876 176.245 85.0962Z" fill="#278F51"/>
<path fill-rule="evenodd" clip-rule="evenodd" d="M178.235 109.51C177.794 108.788 177.53 108.048 177.143 107.291C176.79 106.533 176.315 105.776 175.698 105.23C173.69 103.451 170.749 103.028 168.018 103.257C165.253 103.521 162.558 104.155 159.986 104.877C156.604 106.657 153.663 108.048 150.052 111.201C148.519 112.593 147.339 114.301 146.088 115.781C140.787 122.351 137.088 129.661 134.781 137.816C134.552 138.662 134.305 139.559 134.04 140.494C133.459 142.66 133.16 145.32 132.72 147.381C132.261 149.635 130.976 151.291 129.567 151.449C128.14 149.688 128.686 145.514 129.425 141.603C130.006 138.292 131.081 134.399 132.579 130.7C134.04 126.983 135.925 123.461 137.669 120.713C140.293 116.468 143.517 112.381 147.322 109.228C151.197 106.005 155.53 103.275 160.374 102.042C162.136 101.619 163.915 101.372 165.676 101.39C167.42 101.337 169.181 101.513 170.908 101.901C172.74 102.323 174.572 103.151 175.928 104.508C177.284 105.811 178.217 107.625 178.235 109.51Z" fill="#1C663A"/>
<path fill-rule="evenodd" clip-rule="evenodd" d="M147.092 163.693C146.299 163.181 146.722 162.353 146.582 161.683C146.141 159.553 144.661 157.351 144.38 155.096C143.429 153.687 143.252 152.313 142.372 150.499C142.002 149.742 141.315 149.248 140.874 148.914C140.399 148.508 139.765 148.192 139.042 147.91C138.338 147.645 137.405 147.311 136.753 147.152C136.048 146.994 135.713 147.046 135.379 147.204C135.026 147.364 134.569 147.733 134.111 148.297C133.899 148.544 133.688 148.791 133.459 149.054C132.913 149.688 132.666 150.534 132.401 150.922C132.243 151.151 131.891 151.274 131.415 151.503C130.922 151.732 130.341 152.066 129.672 152.278C128.826 152.084 128.385 151.133 128.456 150.111C128.527 149.072 129.037 148.103 129.513 147.275C129.936 146.553 130.393 145.884 131.028 145.18C131.662 144.475 132.508 143.735 133.688 143.241C134.85 142.713 136.383 142.713 137.369 142.978C138.409 143.224 139.148 143.577 139.765 143.824C140.751 144.245 141.896 144.721 143.006 145.637C144.151 146.553 144.908 147.91 145.278 148.949C146 151.044 146.669 152.894 147.022 154.92C147.268 156.382 147.145 157.861 147.216 159.254C147.321 160.733 147.268 162.213 147.092 163.693Z" fill="#278F51"/>
<path fill-rule="evenodd" clip-rule="evenodd" d="M161.323 183.843C160.742 182.416 161.428 180.743 161.482 179.21C161.693 174.332 160.655 168.695 160.531 163.569C159.651 159.976 159.562 156.787 158.347 152.402C157.801 150.517 156.813 148.825 155.986 147.24C154.19 143.771 151.548 141.128 148.236 139.86C146.615 139.208 144.872 138.927 143.251 139.12C141.613 139.296 140.186 139.966 138.865 141.093C138.319 141.551 137.756 142.115 137.156 142.749C135.871 144.194 134.303 146.571 133.351 147.91C132.823 148.685 132.313 149.178 131.766 149.671C131.203 150.147 130.657 150.693 129.97 150.922C129.019 150.218 128.825 148.156 129.6 146.413C130.339 144.615 131.537 143.136 132.612 141.587C133.563 140.283 134.708 138.82 136.311 137.517C137.897 136.213 140.063 135.192 142.282 134.893C146.773 134.294 150.878 136.108 153.573 138.134C157.888 141.411 160.196 146.307 161.341 150.851C162.468 155.554 163.032 160.029 163.226 164.52C163.331 167.779 162.979 170.949 162.75 174.049C162.486 177.36 162.011 180.619 161.323 183.843Z" fill="#278F51"/>
<path fill-rule="evenodd" clip-rule="evenodd" d="M173.761 168.148C173.32 166.615 174.147 164.977 174.271 163.374C174.729 158.301 173.496 152.524 172.139 147.521C170.396 144.227 169.146 141.233 165.729 138.116C164.231 136.812 162.399 136.019 160.743 135.244C157.114 133.553 153.187 132.866 149.417 133.289C145.665 133.694 142.089 135.28 139.13 137.816C138.514 138.327 137.897 138.908 137.263 139.541C135.818 141.004 134.585 143.136 133.688 144.808C132.666 146.587 131.221 147.909 129.778 147.874C128.561 145.901 130.183 141.62 132.684 138.345C134.709 135.509 137.95 132.69 141.79 130.982C145.613 129.22 149.928 128.762 153.292 129.132C158.489 129.59 163.579 131.738 167.348 135.139C171.224 138.644 173.83 143.188 174.957 147.891C175.838 151.326 175.716 154.743 175.574 157.984C175.433 161.507 174.765 164.906 173.761 168.148Z" fill="#1C663A"/>
<path fill-rule="evenodd" clip-rule="evenodd" d="M188.151 162.97C187.675 161.015 188.415 158.689 188.468 156.558C188.557 153.194 188.187 149.513 187.411 145.919C186.654 142.308 185.509 138.804 184.241 135.509C182.991 133.308 181.774 131.317 180.295 129.344C178.815 127.389 177.072 125.364 174.552 123.567C172.368 122.017 169.85 121.136 167.49 120.572C164.917 119.956 162.364 119.956 159.915 120.66C157.466 121.347 155.072 122.58 152.782 123.954C148.22 126.737 144.168 130.366 140.821 134.752C140.152 135.65 139.431 136.636 138.725 137.676C137.087 140.071 135.696 143.295 134.621 145.743C134.04 147.064 133.423 148.156 132.79 149.002C132.156 149.848 131.521 150.463 130.816 150.605C130.041 149.459 129.988 147.258 130.64 144.951C131.275 142.625 132.419 140.212 133.67 137.852C135.767 133.889 139.024 129.556 142.988 125.98C146.934 122.369 151.495 119.604 155.582 117.877C157.168 117.226 158.859 116.68 160.656 116.38C162.452 116.081 164.32 116.081 166.097 116.327C169.692 116.821 172.951 118.335 175.68 120.291C181.299 124.342 185.139 130.014 187.306 136.02C188.873 140.423 189.296 144.933 189.454 149.283C189.578 153.934 189.067 158.531 188.151 162.97Z" fill="#278F51"/>
<path fill-rule="evenodd" clip-rule="evenodd" d="M106.703 176.409C105.964 175.687 106.51 174.771 106.492 173.961C106.439 171.407 105.735 168.236 106.668 165.523C106.598 163.444 107.285 161.807 108.148 159.394C108.535 158.355 108.694 157.192 109.187 156.206C110.244 154.109 111.6 152.172 113.274 150.498C114.119 149.67 115.035 148.878 116.057 148.208C117.061 147.539 118.117 146.87 119.562 146.429C120.143 146.253 120.848 146.13 121.605 146.166C123.437 146.148 125.639 147.134 126.52 148.579C127.03 149.354 127.083 150.269 126.766 150.904C126.449 151.573 125.833 151.943 125.146 152.066C124.335 151.801 123.895 151.538 123.472 151.22C123.049 150.904 122.574 150.534 122.081 150.481C121.359 150.34 120.02 150.781 118.523 151.749C117.078 152.647 115.792 153.793 114.859 154.867C113.397 156.487 112.287 158.46 111.301 160.38C110.279 162.353 109.716 164.502 109.099 166.633C108.641 168.183 108.007 169.699 107.69 171.284C107.39 172.903 107.073 174.577 106.703 176.409Z" fill="#278F51"/>
<path fill-rule="evenodd" clip-rule="evenodd" d="M81.8295 179.281C80.8512 177.783 81.0366 175.581 80.9018 173.715C80.345 167.832 80.3113 160.574 82.3018 154.427C83.0103 149.829 84.461 146.184 86.5358 140.776C87.025 139.595 87.5479 138.363 88.3407 137.253C89.1167 136.126 90.0951 135.193 91.124 134.47C95.5773 131.476 100.672 130.172 105.8 130.225C110.894 130.348 116.157 132.021 120.441 135.492C121.319 136.196 122.213 137.024 123.056 137.976C124.996 140.107 127.088 143.048 127.948 145.726C128.96 148.684 128.1 151.222 126.852 151.609C125.957 150.799 125.367 149.372 124.574 147.734C123.798 146.095 122.82 144.228 121.555 142.625C119.429 139.931 116.241 137.271 112.547 135.861C108.87 134.399 104.821 134.153 101.633 134.628C99.1704 134.964 96.7581 135.756 94.5652 136.883C93.4688 137.447 92.4904 138.099 91.6806 138.82C90.871 139.561 90.2975 140.371 89.7409 141.427C89.1843 142.484 88.678 143.788 88.1721 145.056C87.6828 146.324 87.1936 147.575 86.7552 148.843C85.8779 151.362 85.0683 153.898 84.3598 156.418C83.3309 160.098 82.3187 163.693 81.897 167.391C81.4584 171.372 81.4247 175.318 81.8295 179.281Z" fill="#1C663A"/>
<path fill-rule="evenodd" clip-rule="evenodd" d="M94.6363 187.594C93.7732 186.449 94.1783 184.846 94.0726 183.473C93.7202 179.139 92.9806 173.873 94.0902 169.223C94.1431 165.805 94.9357 162.969 96.2567 158.865C96.838 157.104 97.2783 155.236 98.1414 153.617C99.9558 150.111 102.633 146.958 105.962 144.792C107.618 143.699 109.309 142.818 111.158 142.026C113.008 141.269 115.122 140.617 117.535 140.74C118.504 140.794 119.596 141.004 120.653 141.498C123.101 142.519 125.356 144.862 126.007 147.222C126.395 148.49 126.201 149.741 125.708 150.534C125.232 151.344 124.457 151.678 123.788 151.643C123.154 150.868 122.837 149.953 122.343 148.931C121.85 147.927 121.128 146.765 120.089 146.077C119.226 145.478 118.257 145.144 117.024 145.126C115.826 145.109 114.452 145.407 113.061 145.937C110.242 147.028 107.495 148.579 105.751 150.164C102.95 152.577 101.013 155.994 99.533 159.447C98.0005 163.023 97.2431 166.845 96.4857 170.632C95.9397 173.379 95.2879 176.075 95.0414 178.805C94.7947 181.729 94.6715 184.653 94.6363 187.594Z" fill="#278F51"/>
<path fill-rule="evenodd" clip-rule="evenodd" d="M65.45 96.4054C65.4837 95.5423 65.9055 94.6792 66.5296 93.9746C67.1537 93.27 67.8958 92.6712 68.5875 92.1251C70.7466 90.3285 73.6144 88.9016 76.7518 88.4437C79.8894 87.9681 83.1957 88.4085 86.0464 89.5006C88.2056 89.9058 90.1285 90.6102 92.1022 91.4557C94.0758 92.3188 96.1674 93.3052 98.6133 94.5735C100.722 95.6656 102.932 96.6167 104.838 97.9379C109.004 100.791 112.513 104.526 115.313 108.647C118.147 112.769 120.407 117.243 122.449 121.911C122.87 122.862 123.292 123.919 123.697 124.993C124.658 127.53 125.974 130.331 126.699 132.885C127.087 134.294 127.104 135.703 126.8 136.725C126.497 137.764 125.907 138.415 125.249 138.573C124.473 137.711 123.933 136.373 123.224 134.681C122.465 132.849 121.656 130.859 120.829 128.868C119.379 125.469 117.709 121.418 115.769 117.613C113.862 113.791 111.636 110.233 109.51 107.626C106.289 103.574 102.173 100.439 97.8375 97.885C95.6277 96.5639 93.3167 95.4366 91.0057 94.3622C88.6779 93.3052 86.4006 92.3541 84.1065 91.632C80.7834 90.575 77.4266 89.8176 74.154 90.5046C70.7129 91.2268 67.3561 93.1291 65.45 96.4054Z" fill="#1C663A"/>
<path fill-rule="evenodd" clip-rule="evenodd" d="M91.925 42.8751C93.7745 44.1082 94.9372 46.5918 96.2758 48.5117C100.574 54.6239 105.752 61.8985 108.694 69.4375C111.512 74.4928 113.15 79.1606 115.599 85.9773C116.673 88.919 117.924 91.7549 118.84 94.6083C122.733 106.956 125.357 118.881 127.77 131.651C128.016 132.954 128.263 134.381 128.492 135.843C129.02 139.207 129.866 143.241 130.219 146.429C130.589 149.935 129.814 152.736 128.492 153.246C126.608 151.062 125.885 145.196 124.829 139.613C123.067 130.224 120.672 117.207 118.487 108.295C116.867 101.443 114.876 94.5907 112.833 88.0911C110.755 81.4152 108.218 75.0918 105.611 68.9266C103.691 64.435 101.895 60.0138 99.6577 55.8568C97.2622 51.3652 94.6905 47.0673 91.925 42.8751Z" fill="#278F51"/>
<path fill-rule="evenodd" clip-rule="evenodd" d="M64.6568 176.145C64.1552 173.909 64.8509 171.073 64.9966 168.571C65.5953 160.645 65.5951 151.115 68.2646 142.907C68.8795 139.877 69.8017 137.165 71.0475 134.381C71.6947 132.99 72.439 131.581 73.4097 130.207C74.3967 128.816 75.61 127.512 77.0015 126.244C79.4122 124.113 81.5802 121.876 84.1041 120.061C86.806 118.106 89.9286 116.609 93.1483 115.887C96.3679 115.182 99.6847 115.129 102.888 115.711C106.108 116.239 109.23 117.437 112.159 119.11C115.071 120.836 117.741 123.091 120.022 125.804C120.976 126.896 121.882 128.182 122.756 129.555C124.762 132.726 126.768 136.865 127.578 140.371C128.532 144.228 127.723 147.364 126.526 147.822C125.652 146.659 125.054 144.599 124.228 142.22C123.419 139.842 122.433 137.095 121.074 134.628C118.825 130.507 115.281 126.033 110.816 123.25C106.383 120.361 101.173 119.233 97.0474 119.445C93.844 119.568 90.7376 120.484 87.9386 122.087C85.1234 123.69 82.3891 125.98 79.7196 128.076C78.3929 129.15 77.1795 130.26 76.1925 131.493C75.2056 132.709 74.3804 134.153 73.6362 135.668C72.1639 138.768 71.0153 142.061 70.0606 145.409C68.6692 150.287 67.5367 155.202 66.7925 160.187C65.9673 165.541 65.3686 170.826 64.6568 176.145Z" fill="#278F51"/>
<path d="M126.637 197.255H78.7934C77.0064 197.255 75.5983 198.852 75.8014 200.671L82.7736 267.483C83.6401 275.76 90.4497 282.035 98.5591 282.035H126.651H154.742C162.852 282.035 169.662 275.76 170.529 267.483L177.5 200.671C177.69 198.838 176.296 197.255 174.509 197.255H126.637Z" fill="white"/>
</svg>
