<svg width="254" height="324" viewBox="0 0 254 324" fill="none" xmlns="http://www.w3.org/2000/svg">
<path d="M127.439 282.16C175.16 282.16 213.847 279.779 213.847 276.843C213.847 273.906 175.16 271.525 127.439 271.525C79.7173 271.525 41.0314 273.906 41.0314 276.843C41.0314 279.779 79.7173 282.16 127.439 282.16Z" fill="#D3E0D7"/>
<path fill-rule="evenodd" clip-rule="evenodd" d="M227.554 137.354C227.465 137.01 227.25 136.706 226.981 136.508C226.706 136.309 226.402 136.186 226.088 136.093C225.451 135.906 224.774 135.883 224.09 135.818C222.729 135.696 221.334 135.491 220.014 135.451C215.826 135.24 211.272 135.322 206.681 135.702C202.091 136.081 197.472 136.741 193.097 137.565C192.713 137.658 192.327 137.757 191.947 137.851C191.568 137.956 191.194 138.067 190.826 138.172C190.078 138.376 189.343 138.581 188.607 138.779C187.877 139.007 187.153 139.241 186.417 139.468C185.68 139.69 184.94 139.918 184.209 140.204C183.467 140.473 182.72 140.742 181.95 141.022C181.19 141.32 180.426 141.664 179.625 141.997C179.228 142.166 178.825 142.342 178.416 142.517C178.019 142.715 177.61 142.92 177.202 143.124C176.787 143.329 176.373 143.539 175.939 143.755C175.724 143.86 175.508 143.971 175.292 144.082C175.081 144.205 174.866 144.327 174.656 144.456C173.919 144.894 173.19 145.338 172.453 145.776C171.736 146.231 171.064 146.745 170.369 147.23C168.978 148.176 167.7 149.239 166.432 150.266C163.688 152.509 161.113 154.909 158.508 157.257C155.909 159.61 153.322 161.946 150.735 164.282C145.573 168.954 140.357 173.585 136.007 179.18C135.119 180.325 134.202 181.58 133.32 182.923C132.304 184.471 131.317 186.252 130.488 188.069C129.653 189.885 128.987 191.73 128.485 193.376C127.369 196.962 126.715 199.807 125.909 200.151C125.524 198.767 125.524 196.32 126.155 193.516C126.756 190.707 128.006 187.589 129.53 184.716C130.803 182.298 132.456 179.77 134.389 177.335C136.316 174.888 138.518 172.522 140.795 170.274C143.073 168.031 145.433 165.906 147.681 163.897C149.93 161.9 152.066 159.996 153.993 158.285C156.966 155.663 159.892 152.982 162.934 150.383C164.459 149.093 166.024 147.837 167.647 146.669C168.459 146.085 169.311 145.565 170.135 145.016C170.555 144.754 170.958 144.462 171.385 144.216C171.816 143.977 172.243 143.732 172.67 143.492C176.168 141.507 179.8 139.871 183.52 138.633C187.235 137.384 190.989 136.402 194.78 135.783C200.298 134.837 205.712 134.668 211.043 134.686C212.468 134.709 213.893 134.703 215.307 134.791L217.432 134.89L219.547 135.053C220.96 135.153 222.361 135.305 223.763 135.462L224.815 135.579C225.17 135.62 225.544 135.684 225.9 135.789C226.262 135.894 226.619 136.046 226.94 136.297C227.272 136.531 227.523 136.928 227.554 137.354Z" fill="#1C663A"/>
<path d="M158.59 145.139C158.176 151.031 155.478 158.5 155.408 158.682C153.013 156.591 151.501 151.236 151.366 146.511C151.302 144.286 151.547 142.195 152.143 140.654C152.856 138.82 154.064 137.763 155.858 138.148C157.131 138.423 157.896 139.381 158.287 140.735C158.287 140.735 158.287 140.735 158.287 140.741C158.643 141.956 158.708 143.486 158.59 145.139Z" fill="#32B768"/>
<path d="M155.407 158.681C155.407 158.681 175.338 154.57 175.789 161.228C176.238 167.885 158.894 164.118 155.407 158.681Z" fill="#32B768"/>
<path d="M168.803 147.393C166.256 143.007 165.234 138.394 165.253 134.522C165.263 131.923 165.748 129.663 166.555 128.028C167.618 125.867 169.246 124.798 171.103 125.499C176.47 127.526 168.803 147.393 168.803 147.393Z" fill="#32B768"/>
<path d="M168.804 147.393C168.804 147.393 182.727 163.511 187.037 159.727C191.347 155.949 181.769 146.932 168.804 147.393Z" fill="#32B768"/>
<path d="M179.077 141.617C179.077 141.617 195.575 125.12 189.337 119.986C183.1 114.859 177.371 136.718 179.077 141.617Z" fill="#32B768"/>
<path d="M179.077 141.617C179.077 141.617 202.29 143.959 200.703 151.878C199.119 159.803 180.852 146.494 179.077 141.617Z" fill="#32B768"/>
<path d="M195.172 136.811C195.172 136.811 210.343 123.572 205.502 119.216C200.667 114.859 194.412 128.157 195.172 136.811Z" fill="#32B768"/>
<path d="M195.17 136.811C195.17 136.811 214.244 143.253 211.441 149.128C208.632 155.003 197.769 145.098 195.17 136.811Z" fill="#32B768"/>
<path d="M207.394 135.322C207.394 135.322 229.27 121.587 225.907 116.646C222.542 111.706 209.181 126.761 207.394 135.322Z" fill="#32B768"/>
<path d="M207.394 135.322C207.394 135.322 230.917 145.997 228.242 151.347C225.573 156.696 210.314 143.568 207.394 135.322Z" fill="#32B768"/>
<path d="M219.384 135.322C219.384 135.322 235.269 150.611 240.314 145.197C245.365 139.783 231.168 131.806 219.384 135.322Z" fill="#32B768"/>
<path d="M158.59 145.139C157.382 146.546 152.774 146.546 151.366 146.511C151.302 144.286 151.547 142.196 152.143 140.654C154.513 140.14 158.287 140.741 158.287 140.741C158.287 140.741 158.287 140.741 158.287 140.747C158.643 141.956 158.708 143.486 158.59 145.139Z" fill="#1C663A"/>
<path d="M168.326 130.896C168.15 132.566 166.393 133.857 165.26 134.528C165.271 131.929 165.756 129.669 166.562 128.034C166.556 128.028 168.589 128.414 168.326 130.896Z" fill="#1C663A"/>
<path fill-rule="evenodd" clip-rule="evenodd" d="M194.611 74.5568C193.232 74.6619 191.72 74.9423 190.259 75.5262C188.8 76.0986 187.397 76.9512 186.23 77.9265C184.385 79.4856 182.737 81.3836 181.161 83.3984C179.584 85.4132 177.967 87.4805 176.337 89.5596C173.084 93.7292 169.68 97.8698 166.62 101.952C162.531 108.002 159.898 113.661 155.734 121.878C153.969 125.434 152.399 129.026 150.764 132.442C147.23 139.835 143.937 147.077 140.941 154.447C137.945 161.823 135.206 169.321 132.561 177.141C132.018 178.741 131.428 180.47 130.821 182.256C129.419 186.368 127.901 191.373 126.563 195.233C125.097 199.472 123.439 202.498 122.592 202.633C122.75 199.397 125.132 192.225 127.34 185.293C129.197 179.465 131.521 172.527 134.05 165.706C136.561 158.879 139.306 152.187 141.712 146.767C145.402 138.446 149.438 130.153 153.468 122.327C155.546 118.309 157.55 114.356 159.618 110.42C160.662 108.458 161.76 106.513 162.975 104.644C164.184 102.775 165.475 100.988 166.818 99.2596C168.774 96.7368 170.823 94.3775 172.845 92.0532C174.866 89.7289 176.868 87.4279 178.842 85.1154C180.938 82.6625 183.011 80.093 185.558 77.9965C186.825 76.957 188.204 75.9993 189.745 75.3744C191.276 74.732 192.957 74.4166 194.611 74.5568Z" fill="#1C663A"/>
<path d="M186.942 77.0743C186.942 77.0743 192.671 70.6096 200.613 70.0198C208.555 69.4298 209.524 74.6975 203.877 77.3138C198.23 79.9243 186.942 77.0743 186.942 77.0743Z" fill="#32B768"/>
<path d="M177.161 88.2165C177.161 88.2165 188.613 68.6294 181.821 66.6906C175.029 64.7517 173.12 84.2454 177.161 88.2165Z" fill="#32B768"/>
<path d="M177.161 88.2164C177.161 88.2164 197.94 79.1061 199.085 86.0789C200.223 93.0519 180.642 92.6897 177.161 88.2164Z" fill="#32B768"/>
<path d="M166.579 101.444C166.579 101.444 165.447 98.8921 164.244 95.5049C163.595 93.677 162.93 91.6038 162.409 89.554C161.739 86.9085 161.312 84.3098 161.486 82.3242C161.691 80.0758 162.66 78.6217 164.921 78.7794C165.983 78.8553 166.819 79.2524 167.456 79.889C172.016 84.4323 166.713 101.257 166.579 101.444Z" fill="#32B768"/>
<path d="M166.579 101.444C166.784 101.275 188.192 93.1804 189.302 101.812C190.411 110.449 166.579 101.444 166.579 101.444Z" fill="#32B768"/>
<path d="M159.753 112.739C154.865 112.184 150.783 108.657 148.727 104.966C146.508 100.989 146.648 96.8368 150.677 96.0309C153.778 95.406 155.846 97.9464 157.218 101.223C159.28 106.151 159.753 112.739 159.753 112.739Z" fill="#32B768"/>
<path d="M159.751 112.744C159.751 112.744 175.443 103.295 178.637 110.542C181.839 117.784 166.543 120.383 159.751 112.744Z" fill="#32B768"/>
<path d="M149.754 132.56C148.131 132.081 146.723 131.263 145.532 130.247C142.554 127.712 140.913 123.899 140.644 120.769C140.393 117.866 141.316 115.548 143.43 115.367C144.172 115.303 144.82 115.589 145.404 116.132C147.482 118.071 148.616 123.274 149.199 127.315C149.609 130.177 149.749 132.454 149.754 132.56Z" fill="#32B768"/>
<path d="M149.754 132.559C149.754 132.559 165.429 124.366 167.758 129.154C170.082 133.943 157.019 139.205 149.754 132.559Z" fill="#32B768"/>
<path d="M143.781 145.197C143.781 145.197 143.559 144.963 143.191 144.554C142.064 143.316 139.564 140.461 137.701 137.628C135.506 134.288 134.203 130.971 137.088 130.352C139.903 129.744 141.544 132.816 142.49 136.32C143.302 139.299 143.611 142.598 143.722 144.204C143.769 144.829 143.781 145.197 143.781 145.197Z" fill="#32B768"/>
<path d="M143.781 145.197C143.781 145.197 157.452 136.548 159.812 142.364C162.177 148.175 143.781 145.197 143.781 145.197Z" fill="#32B768"/>
<path d="M167.456 79.889C167.456 79.889 164.927 81.8162 161.488 82.3242C161.692 80.0758 162.662 78.6217 164.921 78.7794C165.984 78.8553 166.819 79.2524 167.456 79.889Z" fill="#1C663A"/>
<path d="M164.242 95.5044C163.594 93.6765 162.928 91.6033 162.409 89.5535C162.409 89.5535 164.541 89.0513 165.376 90.7099C166.007 91.9478 164.855 94.3656 164.242 95.5044Z" fill="#1C663A"/>
<path d="M157.218 101.223C157.218 101.223 154.07 104.107 148.727 104.966C146.508 100.989 146.648 96.8367 150.677 96.0308C153.778 95.4117 155.851 97.9463 157.218 101.223Z" fill="#1C663A"/>
<path d="M149.193 127.309L145.525 130.247C142.547 127.712 140.906 123.899 140.637 120.769C142.377 118.754 145.397 116.132 145.397 116.132C147.481 118.071 148.614 123.274 149.193 127.309Z" fill="#1C663A"/>
<path d="M143.727 144.204L143.19 144.554C142.062 143.316 139.563 140.46 137.7 137.628C140.345 135.678 142.489 136.314 142.489 136.314C143.306 139.304 143.616 142.598 143.727 144.204Z" fill="#1C663A"/>
<path d="M30.8652 125.493C30.8652 125.493 20.4351 126.544 14.9339 131.719C9.43269 136.893 12.2942 139.421 18.3444 137.991C24.4004 136.554 30.4038 128.069 30.8652 125.493Z" fill="#32B768"/>
<path d="M44.3371 123.286C44.3371 123.286 37.1131 107.291 30.8644 110.152C24.6158 113.008 35.116 123.543 44.3371 123.286Z" fill="#32B768"/>
<path d="M61.2508 126.696C61.2508 126.696 61.7064 106.736 54.4415 107.95C47.1767 109.153 53.3145 123.712 61.2508 126.696Z" fill="#32B768"/>
<path d="M75.4071 132.373C75.4071 132.373 80.8558 108.277 72.7091 107.892C64.5683 107.506 70.6184 128.74 75.4071 132.373Z" fill="#32B768"/>
<path d="M44.3377 123.285C44.3377 123.285 34.8536 129.645 33.201 138.388C31.5482 147.124 36.7224 146.908 39.6949 144.595C42.6674 142.277 45.0209 127.619 44.3377 123.285Z" fill="#32B768"/>
<path d="M61.2507 126.697C61.2507 126.697 54.3479 130.615 51.2061 135.241C48.0642 139.86 48.2978 143.381 51.2061 144.263C54.1084 145.139 61.6828 134.808 61.2507 126.697Z" fill="#32B768"/>
<path d="M75.4069 132.373C75.4069 132.373 66.4368 136.776 62.6934 140.736C58.9501 144.695 55.8724 151.633 62.6934 150.418C69.5145 149.209 75.4069 132.373 75.4069 132.373Z" fill="#32B768"/>
<path d="M93.7663 129.383C92.5224 133.716 89.9587 138.715 87.903 141.465C87.903 141.465 86.116 133.57 86.7818 127.648V127.619C86.9453 126.177 87.2548 124.857 87.7746 123.794C88.4578 122.392 89.4974 121.44 91.0449 121.283C93.3167 121.043 94.3153 122.27 94.4904 124.255C94.6131 125.663 94.3211 127.461 93.7663 129.383Z" fill="#32B768"/>
<path d="M92.0319 145.956C92.0319 145.956 85.4971 142.412 78.3666 146.902C71.2359 151.393 72.5558 156.41 78.3666 155.353C84.1714 154.296 92.0319 145.956 92.0319 145.956Z" fill="#32B768"/>
<path d="M108.67 139.976C108.595 140.385 108.466 140.835 108.291 141.314C107.794 142.686 106.924 144.31 105.914 145.962C103.058 150.628 99.0696 155.499 99.0696 155.499C99.0696 155.499 99.4901 149.56 101.102 144.52C101.984 141.752 103.228 139.252 104.962 138.154C105.377 137.892 105.815 137.711 106.288 137.623C106.521 137.582 106.761 137.559 107.006 137.564C108.519 137.588 108.933 138.534 108.67 139.976Z" fill="#32B768"/>
<path fill-rule="evenodd" clip-rule="evenodd" d="M22.3975 129.856C24.3305 128.121 27.414 126.866 30.1062 125.873C34.3868 124.255 39.3274 123.151 44.4257 123.081C49.5297 122.97 54.6863 124.08 59.3232 125.698C62.7221 126.655 65.7764 127.806 69.0292 129.05C72.2645 130.323 75.7626 131.707 79.5702 134.06C82.8407 136.087 85.9241 138.37 88.5754 140.928C94.2868 146.511 98.7427 152.882 102.819 159.388C106.884 165.911 110.668 172.686 113.71 180.12C114.347 181.638 114.943 183.308 115.533 185.049C116.881 189.055 118.19 194.013 118.622 197.996C118.68 198.539 118.733 199.071 118.774 199.578C118.814 200.087 118.797 200.583 118.797 201.051C118.774 201.984 118.768 202.82 118.634 203.537C118.4 204.962 118.073 205.868 117.693 206.054C117.46 205.307 117.279 204.309 117.138 203.123C117.045 202.534 116.94 201.891 116.846 201.22C116.806 200.88 116.759 200.53 116.712 200.174C116.654 199.818 116.595 199.455 116.531 199.082C116.099 196.11 115.398 192.682 114.417 189.393C112.829 183.846 110.142 177.445 106.971 171.342C105.383 168.288 103.677 165.304 101.99 162.495C100.302 159.68 98.6317 157.046 97.0608 154.728C92.2603 147.615 86.508 140.946 79.7163 136.32L78.4081 135.45L77.0591 134.65C76.1715 134.107 75.237 133.64 74.3026 133.178C72.4222 132.268 70.4892 131.467 68.5328 130.691C64.6084 129.155 60.7306 127.625 56.8296 126.416C53.9797 125.534 51.1473 124.816 48.2858 124.407C45.4302 124.022 42.5452 123.928 39.6953 124.191C33.5985 124.769 27.6592 126.708 22.3975 129.856Z" fill="#1C663A"/>
<path d="M93.7673 129.383C90.5612 129.021 86.777 127.648 86.777 127.648V127.619C86.9405 126.177 87.25 124.857 87.7697 123.794L94.4856 124.25C94.6141 125.663 94.3221 127.461 93.7673 129.383Z" fill="#1C663A"/>
<path d="M108.291 141.314C107.795 142.686 106.924 144.31 105.914 145.962C102.825 145.536 101.102 144.52 101.102 144.52C101.984 141.752 103.228 139.252 104.962 138.154C106.492 139.457 108.291 141.314 108.291 141.314Z" fill="#1C663A"/>
<path d="M108.67 139.976C106.889 138.715 106.287 137.617 106.287 137.617C106.521 137.576 106.76 137.553 107.006 137.558C108.518 137.588 108.933 138.534 108.67 139.976Z" fill="#1C663A"/>
<path fill-rule="evenodd" clip-rule="evenodd" d="M75.2769 64.8514C76.4448 65.5055 77.5778 66.5508 78.5821 67.748C79.5808 68.951 80.4743 70.2942 81.2978 71.5499C86.3026 79.6964 91.9031 89.4666 95.9209 98.8922C96.7093 100.545 97.4509 102.151 98.1752 103.757C98.5313 104.563 98.8935 105.369 99.2555 106.175C99.5884 106.998 99.9213 107.827 100.266 108.668C100.937 110.356 101.632 112.096 102.368 113.953C103.063 115.828 103.793 117.814 104.593 119.968C105.311 121.82 105.977 123.683 106.643 125.516C107.303 127.356 107.998 129.161 108.57 130.971C109.178 132.933 109.779 134.884 110.381 136.823L110.83 138.277L111.239 139.737C111.508 140.712 111.776 141.681 112.045 142.651C113.166 146.517 114.048 150.418 115.006 154.307C115.455 156.258 115.841 158.226 116.267 160.188C116.472 161.169 116.682 162.156 116.892 163.137C117.073 164.13 117.248 165.123 117.429 166.116C117.78 168.107 118.165 170.104 118.492 172.119C118.796 174.14 119.1 176.178 119.403 178.228C119.678 179.904 119.859 181.731 120.063 183.618C120.595 187.951 121.097 193.178 121.336 197.271C121.476 201.774 120.992 205.191 120.244 205.605C119.742 204.063 119.421 201.418 119.164 198.252C119.053 196.67 118.843 194.965 118.702 193.201C118.527 191.438 118.41 189.615 118.189 187.823C117.464 181.784 116.565 174.578 115.251 167.482C114.042 160.369 112.442 153.39 111.07 147.673C108.868 138.925 106.187 130.177 103.378 121.89C100.488 113.393 97.124 105.305 93.6784 97.3973C92.3702 94.5415 91.1964 91.6682 89.859 88.9118C88.5567 86.138 87.2954 83.3698 85.8587 80.7009C84.3579 77.8336 82.9271 74.9311 81.2802 72.198C79.6217 69.4824 77.7237 66.8895 75.2769 64.8514Z" fill="#1C663A"/>
<path d="M81.8753 72.2802C82.1615 72.3093 78.751 53.9721 72.7651 56.1854C66.785 58.3929 73.8571 71.5269 81.8753 72.2802Z" fill="#32B768"/>
<path d="M87.6329 82.5876C87.6329 82.5876 84.1873 64.7582 92.1998 64.659C100.212 64.5655 87.6329 82.5876 87.6329 82.5876Z" fill="#32B768"/>
<path d="M105.416 84.065C103.308 89.1457 98.6539 94.5652 93.9353 95.3302C93.9353 95.3302 94.093 83.9073 97.6378 78.0908C98.9225 75.9826 100.651 74.6102 102.975 74.7854C107.139 75.0948 107.332 79.4399 105.416 84.065Z" fill="#32B768"/>
<path d="M87.634 82.5874C87.634 82.5874 76.0885 72.572 71.0194 78.7448C65.9562 84.9117 82.1445 87.4403 87.634 82.5874Z" fill="#32B768"/>
<path d="M93.9356 95.3304C93.9356 95.3304 84.1828 90.8044 77.1866 93.5666C70.1904 96.3289 69.3612 102.408 77.9283 102.315C86.4896 102.227 93.9356 95.3304 93.9356 95.3304Z" fill="#32B768"/>
<path d="M110.89 101.871C109.827 103.687 108.379 105.673 106.493 107.676C105.383 108.85 104.128 110.029 102.703 111.186C102.218 111.583 101.71 111.98 101.184 112.365C101.184 112.365 101.015 111.197 100.951 109.481C100.834 106.508 101.015 101.871 102.884 98.7233C103.509 97.6722 104.239 96.7787 105.021 96.0428C107.929 93.2864 111.521 92.6499 112.829 93.666C113.758 94.3843 113.331 97.7014 110.89 101.871Z" fill="#32B768"/>
<path d="M101.982 114.444C101.982 114.444 97.0825 108.855 89.2512 108.394C81.4258 107.933 79.1248 111.372 80.322 114.444C81.5191 117.51 99.6988 117.177 101.982 114.444Z" fill="#32B768"/>
<path d="M106.584 127.526C106.584 127.526 101.819 122.2 94.5189 121.254C87.2189 120.302 83.3589 122.387 83.1952 125.493C83.0317 128.6 102.701 130.23 106.584 127.526Z" fill="#32B768"/>
<path d="M111.402 143.971C111.402 143.971 96.8895 130.528 92.7433 135.503C88.5969 140.479 103.489 148.211 111.402 143.971Z" fill="#32B768"/>
<path d="M114.731 158.197C114.731 158.197 108.5 150.272 105.049 152.509C101.597 154.74 108.004 161.368 114.731 158.197Z" fill="#32B768"/>
<path d="M118.142 118.018C117.109 119.472 115.853 120.938 114.428 122.299C112.156 124.477 109.458 126.381 106.585 127.526C106.626 127.397 107.817 123.806 109.628 119.77C109.628 119.77 109.628 119.77 109.628 119.764C110.831 117.084 112.308 114.205 113.909 112.009C115.579 109.714 117.383 108.161 119.147 108.359C122.505 108.727 121.494 113.305 118.142 118.018Z" fill="#32B768"/>
<path d="M119.466 138.457L119.455 138.469C117.831 139.929 115.986 141.325 114.099 142.493C113.206 143.048 112.295 143.55 111.396 143.976C111.396 143.976 111.547 143.083 111.892 141.722C112.488 139.339 113.673 135.52 115.653 132.565C117.265 130.159 119.396 128.331 122.17 128.302C127.771 128.244 124.792 133.675 119.466 138.457Z" fill="#32B768"/>
<path d="M114.733 158.197C114.733 158.197 115.054 145.249 119.773 146.178C124.497 147.107 119.364 155.814 114.733 158.197Z" fill="#32B768"/>
<path d="M119.467 138.458L119.456 138.47C117.832 139.93 115.987 141.326 114.1 142.494C113.289 142.26 112.553 141.997 111.893 141.729C112.489 139.346 113.674 135.527 115.654 132.572C117.593 135.019 119.467 138.458 119.467 138.458Z" fill="#1C663A"/>
<path d="M106.491 107.676C105.381 108.85 104.126 110.029 102.701 111.186C102.193 111.343 101.86 111.437 101.86 111.437L100.949 109.48C100.949 109.48 101.375 106.613 106.491 107.676Z" fill="#1C663A"/>
<path d="M118.159 118.018C117.125 119.472 115.87 120.938 114.445 122.299C111.7 121.324 109.644 119.764 109.644 119.764C109.644 119.764 109.644 119.764 109.644 119.758C110.847 117.078 112.325 114.199 113.925 112.003C115.84 113.743 118.159 118.018 118.159 118.018Z" fill="#1C663A"/>
<path d="M110.888 101.871C106.42 99.5409 105.106 96.2648 105.019 96.0428C107.927 93.2864 111.519 92.6499 112.827 93.666C113.755 94.3843 113.329 97.7014 110.888 101.871Z" fill="#1C663A"/>
<path d="M105.417 84.065C97.3403 82.6868 97.6381 78.0908 97.6381 78.0908C98.9228 75.9826 100.652 74.6102 102.976 74.7854C107.14 75.0948 107.332 79.4399 105.417 84.065Z" fill="#1C663A"/>
<path d="M181.891 202.336V272.643C181.891 274.867 180.088 276.678 177.857 276.678H77.0011C74.7761 276.678 72.9658 274.874 72.9658 272.643V202.336C72.9658 200.112 74.7703 198.301 77.0011 198.301H177.857C180.088 198.306 181.891 200.112 181.891 202.336Z" fill="white"/>
<path d="M182.362 227.344H72.7491V236.589H182.362V227.344Z" fill="#D3E0D7"/>
</svg>
